<svg width="36" height="26" viewBox="0 0 36 26" fill="none" xmlns="http://www.w3.org/2000/svg">
<rect x="0.5" y="0.5" width="35" height="25" rx="6.5" fill="white"/>
<rect x="0.5" y="0.5" width="35" height="25" rx="6.5" stroke="#EFEFF0"/>
<path d="M22.2646 6.03003C25.9552 6.03006 28.9473 9.02994 28.9473 12.7302C28.9472 16.4304 25.9552 19.4304 22.2646 19.4304C20.6099 19.4304 19.0968 18.8257 17.9297 17.8269C16.7627 18.8255 15.2501 19.4304 13.5957 19.4304C9.90517 19.4304 6.91319 16.4304 6.91309 12.7302C6.91309 9.02992 9.90511 6.03003 13.5957 6.03003C15.25 6.03008 16.7627 6.63417 17.9297 7.63257C19.0967 6.63391 20.6101 6.03003 22.2646 6.03003Z" fill="#ED0006"/>
<path d="M22.265 6.03003C25.9554 6.03026 28.9467 9.03006 28.9467 12.7302C28.9466 16.4303 25.9554 19.4302 22.265 19.4304C20.6104 19.4304 19.0971 18.8256 17.9301 17.8269C19.3661 16.598 20.2777 14.7715 20.2777 12.7302C20.2777 10.6887 19.3663 8.86146 17.9301 7.63257C19.0971 6.63402 20.6105 6.03003 22.265 6.03003Z" fill="#F9A000"/>
<path d="M17.9299 7.63281C19.3662 8.86171 20.2776 10.689 20.2776 12.7305C20.2775 14.7717 19.366 16.5983 17.9299 17.8271C16.494 16.5983 15.5824 14.7716 15.5823 12.7305C15.5823 10.6891 16.4938 8.86171 17.9299 7.63281Z" fill="#FF5E00"/>
</svg>
