<svg width="33" height="24" viewBox="0 0 33 24" fill="none" xmlns="http://www.w3.org/2000/svg">
<path fill-rule="evenodd" clip-rule="evenodd" d="M8.43782 17.1443H5.6915L3.63209 9.05651C3.53434 8.68447 3.3268 8.35556 3.0215 8.20055C2.2596 7.81098 1.42004 7.50095 0.50415 7.34458V7.0332H4.92826C5.53885 7.0332 5.99679 7.50095 6.07312 8.04418L7.14165 13.8782L9.88663 7.0332H12.5566L8.43782 17.1443ZM14.0822 17.1463H11.4885L13.6243 7.03516H16.2179L14.0822 17.1463ZM19.5755 9.83507C19.6518 9.29049 20.1097 8.9791 20.644 8.9791C21.4836 8.90092 22.3981 9.05729 23.1614 9.4455L23.6193 7.26853C22.8561 6.95715 22.0165 6.80078 21.2546 6.80078C18.7373 6.80078 16.9055 8.20132 16.9055 10.1451C16.9055 11.6238 18.203 12.4003 19.1189 12.868C20.1097 13.3344 20.4914 13.6458 20.415 14.1122C20.415 14.8118 19.6518 15.1232 18.8899 15.1232C17.974 15.1232 17.0581 14.89 16.2199 14.5004L15.762 16.6787C16.6778 17.0669 17.6687 17.2233 18.5846 17.2233C21.4073 17.3001 23.1614 15.9009 23.1614 13.8008C23.1614 11.1561 19.5755 11.0011 19.5755 9.83507ZM32.2358 17.1463L30.1764 7.03516H27.9643C27.5064 7.03516 27.0484 7.34654 26.8958 7.81294L23.0823 17.1463H25.7523L26.2852 15.6689H29.5658L29.8711 17.1463H32.2358ZM28.3467 9.75781L29.1086 13.5685H26.9729L28.3467 9.75781Z" fill="#172B85"/>
</svg>
