<svg width="33" height="24" viewBox="0 0 33 24" fill="none" xmlns="http://www.w3.org/2000/svg">
<path d="M29.8612 3.00004H3.10746C2.49583 3.00004 2 3.49587 2 4.1075V19.8925C2 20.5041 2.49583 21 3.10746 21H29.8612C30.4729 21 30.9687 20.5041 30.9687 19.8925V4.1075C30.9687 3.49587 30.4729 3.00004 29.8612 3.00004Z" fill="white"/>
<path d="M6.30314 13.9073C6.30314 13.4963 6.08903 13.5234 5.88477 13.5185V13.4003C6.06196 13.4077 6.24407 13.4077 6.42373 13.4077C6.61569 13.4077 6.87656 13.4003 7.21372 13.4003C8.39501 13.4003 9.03734 14.1878 9.03734 14.9975C9.03734 15.4504 8.77401 16.5849 7.15711 16.5849C6.92578 16.5849 6.70921 16.575 6.4951 16.575C6.28099 16.575 6.08903 16.58 5.88477 16.5849V16.4668C6.15794 16.4397 6.29083 16.4298 6.30314 16.1198V13.9073ZM6.74858 16.0484C6.74858 16.4003 6.99961 16.4397 7.22356 16.4397C8.21043 16.4397 8.53283 15.6965 8.53283 15.0172C8.53283 14.1657 7.98648 13.548 7.10543 13.548C6.9184 13.548 6.83226 13.5603 6.74858 13.5652V16.0459V16.0484Z" fill="#231F20"/>
<path d="M9.19482 16.4667H9.28096C9.40893 16.4667 9.49999 16.4667 9.49999 16.3166V15.0811C9.49999 14.8793 9.43108 14.8523 9.26373 14.7612V14.6874C9.47784 14.6234 9.73379 14.5373 9.75348 14.5225C9.78547 14.5053 9.81254 14.5003 9.83469 14.5003C9.85684 14.5003 9.86668 14.5274 9.86668 14.5643V16.3166C9.86668 16.4667 9.96759 16.4667 10.0956 16.4667H10.1743V16.5848C10.0193 16.5848 9.8593 16.575 9.69441 16.575C9.52952 16.575 9.3671 16.5799 9.19729 16.5848V16.4667H9.19482ZM9.68457 13.799C9.56644 13.799 9.46061 13.6882 9.46061 13.5701C9.46061 13.4519 9.5689 13.351 9.68457 13.351C9.80024 13.351 9.90852 13.447 9.90852 13.5701C9.90852 13.6931 9.80762 13.799 9.68457 13.799Z" fill="#231F20"/>
<path d="M10.6052 15.1083C10.6052 14.9409 10.5559 14.8942 10.3418 14.808V14.7219C10.5387 14.6579 10.7257 14.5988 10.9448 14.5029C10.9595 14.5029 10.9718 14.5127 10.9718 14.5472V14.8449C11.2327 14.6579 11.4567 14.5029 11.7618 14.5029C12.1482 14.5029 12.286 14.7859 12.286 15.1403V16.3166C12.286 16.4668 12.3869 16.4668 12.5149 16.4668H12.5961V16.5849C12.4362 16.5849 12.2762 16.575 12.1138 16.575C11.9513 16.575 11.784 16.58 11.6216 16.5849V16.4668H11.7028C11.8307 16.4668 11.9218 16.4668 11.9218 16.3166V15.1353C11.9218 14.8745 11.7618 14.7465 11.5034 14.7465C11.3582 14.7465 11.1244 14.8646 10.9743 14.9655V16.3142C10.9743 16.4643 11.0752 16.4643 11.2032 16.4643H11.2844V16.5824C11.1244 16.5824 10.9645 16.5726 10.7996 16.5726C10.6347 16.5726 10.4723 16.5775 10.3074 16.5824V16.4643H10.391C10.519 16.4643 10.6101 16.4643 10.6101 16.3142V15.1058L10.6052 15.1083Z" fill="#231F20"/>
<path d="M12.9409 15.3273C12.9311 15.3691 12.9311 15.4356 12.9409 15.5906C12.968 16.0238 13.2461 16.3806 13.6103 16.3806C13.8613 16.3806 14.0582 16.2428 14.2256 16.0754L14.2896 16.1394C14.0804 16.4175 13.8195 16.6538 13.4454 16.6538C12.7194 16.6538 12.5742 15.9524 12.5742 15.6595C12.5742 14.7662 13.1772 14.5004 13.4946 14.5004C13.8638 14.5004 14.2625 14.7317 14.2649 15.2166C14.2649 15.2436 14.2649 15.2707 14.26 15.3002L14.2182 15.3273H12.936H12.9409ZM13.7506 15.1821C13.8638 15.1821 13.8786 15.123 13.8786 15.0689C13.8786 14.8351 13.7383 14.6481 13.4823 14.6481C13.2042 14.6481 13.0123 14.8523 12.9581 15.1821H13.753H13.7506Z" fill="#231F20"/>
<path d="M14.373 16.4668H14.4961C14.6241 16.4668 14.7151 16.4668 14.7151 16.3166V15.0344C14.7151 14.8942 14.5478 14.8671 14.4789 14.8302V14.7637C14.8111 14.621 14.9957 14.5029 15.0351 14.5029C15.0621 14.5029 15.0769 14.5152 15.0769 14.5619V14.9729H15.0867C15.2 14.7957 15.3919 14.5029 15.67 14.5029C15.7832 14.5029 15.9309 14.5791 15.9309 14.744C15.9309 14.8671 15.8447 14.9778 15.7168 14.9778C15.574 14.9778 15.574 14.8671 15.4165 14.8671C15.3402 14.8671 15.0843 14.9729 15.0843 15.2461V16.3166C15.0843 16.4668 15.1753 16.4668 15.3033 16.4668H15.5593V16.5849C15.3082 16.58 15.1163 16.575 14.9219 16.575C14.7274 16.575 14.5429 16.58 14.378 16.5849V16.4668H14.373Z" fill="#231F20"/>
<path d="M16.1301 15.9524C16.1891 16.2526 16.3712 16.5086 16.7059 16.5086C16.9742 16.5086 17.0751 16.3437 17.0751 16.1837C17.0751 15.6448 16.0808 15.817 16.0808 15.0837C16.0808 14.8277 16.2851 14.5004 16.7872 14.5004C16.9324 14.5004 17.1292 14.5422 17.3064 14.6333L17.3384 15.0984H17.2326C17.1858 14.8105 17.0259 14.6456 16.7355 14.6456C16.5534 14.6456 16.3786 14.7514 16.3786 14.9458C16.3786 15.4799 17.4369 15.315 17.4369 16.0311C17.4369 16.3314 17.1957 16.6513 16.6518 16.6513C16.4697 16.6513 16.2556 16.5873 16.0956 16.4963L16.0464 15.9721L16.1276 15.9499L16.1301 15.9524Z" fill="#231F20"/>
<path d="M21.5593 14.2272H21.4461C21.36 13.6931 20.981 13.479 20.4715 13.479C19.9621 13.479 19.1844 13.831 19.1844 14.9237C19.1844 15.8465 19.8415 16.5086 20.5454 16.5086C20.9982 16.5086 21.3723 16.1985 21.4633 15.7186L21.5667 15.7456L21.4633 16.4126C21.2714 16.5307 20.7546 16.6537 20.4543 16.6537C19.3862 16.6537 18.7119 15.9647 18.7119 14.9384C18.7119 14.0032 19.5462 13.3314 20.4396 13.3314C20.8087 13.3314 21.1656 13.4495 21.515 13.5725L21.5618 14.2247L21.5593 14.2272Z" fill="#231F20"/>
<path d="M21.7241 16.4667H21.8103C21.9382 16.4667 22.0293 16.4667 22.0293 16.3166V13.7768C22.0293 13.4791 21.9604 13.4717 21.7881 13.42V13.3462C21.9702 13.2871 22.1622 13.2059 22.2582 13.1493C22.3074 13.1222 22.3443 13.0976 22.3591 13.0976C22.3861 13.0976 22.396 13.1247 22.396 13.1616V16.3141C22.396 16.4643 22.4969 16.4643 22.6249 16.4643H22.7011V16.5824C22.5461 16.5824 22.3861 16.5726 22.2212 16.5726C22.0564 16.5726 21.8939 16.5775 21.7241 16.5824V16.4643V16.4667Z" fill="#231F20"/>
<path d="M24.6528 16.3363C24.6528 16.42 24.702 16.4224 24.7807 16.4224C24.8349 16.4224 24.9038 16.4175 24.9629 16.4175V16.5135C24.766 16.5307 24.3919 16.6267 24.3058 16.6538L24.2836 16.639V16.2698C24.0104 16.4938 23.7988 16.6538 23.4764 16.6538C23.2303 16.6538 22.9743 16.4938 22.9743 16.1123V14.9433C22.9743 14.8252 22.9547 14.7096 22.7012 14.6874V14.6013C22.8661 14.5963 23.2303 14.5693 23.2894 14.5693C23.341 14.5693 23.341 14.6013 23.341 14.7022V15.8785C23.341 16.0164 23.341 16.4077 23.7373 16.4077C23.8923 16.4077 24.0966 16.2895 24.2885 16.1296V14.9015C24.2885 14.8105 24.0695 14.7612 23.9046 14.7145V14.6333C24.3156 14.6062 24.5715 14.5693 24.6158 14.5693C24.6528 14.5693 24.6528 14.6013 24.6528 14.6505V16.3338V16.3363Z" fill="#231F20"/>
<path d="M25.5608 14.8302C25.7429 14.6751 25.989 14.5028 26.24 14.5028C26.7691 14.5028 27.089 14.963 27.089 15.4602C27.089 16.0582 26.651 16.6562 25.9988 16.6562C25.6617 16.6562 25.4845 16.5479 25.3639 16.4963L25.2261 16.5996L25.1301 16.5504C25.1695 16.2822 25.1941 16.0164 25.1941 15.7383V13.7768C25.1941 13.479 25.1252 13.4692 24.9529 13.42V13.3462C25.135 13.2871 25.327 13.2059 25.4229 13.1493C25.4722 13.1222 25.5091 13.1001 25.5238 13.1001C25.5509 13.1001 25.5608 13.1271 25.5608 13.164V14.8277V14.8302ZM25.5608 16.0705C25.5608 16.2428 25.7256 16.5356 26.0308 16.5356C26.5206 16.5356 26.7248 16.0557 26.7248 15.6497C26.7248 15.1575 26.3507 14.7465 25.9939 14.7465C25.8241 14.7465 25.6838 14.8572 25.5608 14.9606V16.068V16.0705Z" fill="#231F20"/>
<path d="M5.87744 19.2379H5.9119C6.00049 19.2379 6.09647 19.2256 6.09647 19.0976V17.7982C6.09647 17.6677 6.00295 17.6579 5.9119 17.6579H5.87744V17.5816C5.97342 17.5816 6.12354 17.5914 6.24413 17.5914C6.36472 17.5914 6.51731 17.5816 6.63298 17.5816V17.6579H6.59852C6.50992 17.6579 6.41394 17.6702 6.41394 17.7982V19.0976C6.41394 19.228 6.50746 19.2379 6.59852 19.2379H6.63298V19.3117C6.51485 19.3117 6.36472 19.3019 6.24167 19.3019C6.11862 19.3019 5.97342 19.3117 5.87744 19.3117V19.2379Z" fill="#231F20"/>
<path d="M6.6355 19.3239C6.51491 19.3239 6.36724 19.3141 6.24419 19.3141C6.12114 19.3141 5.97594 19.3239 5.87996 19.3239H5.87012V19.2279H5.91688C6.00793 19.2279 6.08915 19.2181 6.08915 19.0975V17.7981C6.08915 17.6775 6.00547 17.6677 5.91688 17.6677H5.87012V17.5717H5.87996C5.9784 17.5717 6.12606 17.5815 6.24665 17.5815C6.36724 17.5815 6.51983 17.5717 6.6355 17.5717H6.64534V17.6677H6.60104C6.50998 17.6677 6.42877 17.6775 6.42877 17.7981V19.0975C6.42877 19.2181 6.51244 19.2255 6.60104 19.2279H6.64534V19.3239H6.6355ZM6.62565 19.3018V19.2476H6.60104C6.51244 19.2476 6.40662 19.2329 6.40662 19.0951V17.7956C6.40662 17.6578 6.51244 17.643 6.60104 17.643H6.62565V17.5914C6.50998 17.5914 6.36724 17.6012 6.24665 17.6012C6.12606 17.6012 5.98579 17.5914 5.88981 17.5914V17.643H5.91442C6.00301 17.643 6.10884 17.6578 6.10884 17.7956V19.0951C6.10884 19.2329 6.00301 19.2476 5.91442 19.2476H5.88981V19.3018C5.98579 19.3018 6.12606 19.2919 6.24419 19.2919C6.36232 19.2919 6.50998 19.3018 6.62565 19.3018Z" fill="#231F20"/>
<path d="M8.3412 18.8244L8.34612 18.8195V17.8892C8.34612 17.685 8.20338 17.6554 8.12955 17.6554H8.07541V17.5791C8.19108 17.5791 8.30674 17.589 8.42241 17.589C8.52331 17.589 8.62668 17.5791 8.72758 17.5791V17.6554H8.69066C8.58484 17.6554 8.46917 17.6751 8.46917 17.9704V19.1C8.46917 19.1862 8.47163 19.2723 8.48394 19.3511H8.39042L7.11315 17.9261V18.9475C7.11315 19.164 7.15499 19.2379 7.34695 19.2379H7.38878V19.3117C7.28296 19.3117 7.17467 19.3019 7.06885 19.3019C6.96303 19.3019 6.84244 19.3117 6.73169 19.3117V19.2379H6.76614C6.93842 19.2379 6.9901 19.1222 6.9901 18.9229V17.8769C6.9901 17.7366 6.87443 17.653 6.76368 17.653H6.73169V17.5767C6.82521 17.5767 6.92365 17.5865 7.01717 17.5865C7.091 17.5865 7.16483 17.5767 7.23866 17.5767L8.34366 18.822L8.3412 18.8244Z" fill="#231F20"/>
<path d="M8.48406 19.3608L8.38069 19.3559L7.12065 17.9531V18.9474C7.12311 19.164 7.15756 19.2255 7.34214 19.2279H7.39628V19.3239H7.38398C7.27569 19.3239 7.16987 19.3141 7.06405 19.3141C6.95822 19.3141 6.84009 19.3239 6.72688 19.3239H6.71704V19.2279H6.7638C6.92869 19.2279 6.97545 19.1221 6.97791 18.9228V17.8768C6.97791 17.744 6.86962 17.6652 6.76134 17.6652H6.71704V17.5692H6.72688C6.82286 17.5692 6.91885 17.5791 7.01236 17.5791C7.08619 17.5791 7.15756 17.5692 7.24124 17.5741L8.33147 18.8022V17.8892C8.33147 17.6923 8.19858 17.6677 8.12475 17.6652H8.0583V17.5692H8.0706C8.18873 17.5692 8.30194 17.5791 8.41761 17.5791C8.51851 17.5791 8.61941 17.5692 8.72278 17.5692H8.73508V17.6652H8.68586C8.5825 17.6677 8.47913 17.6775 8.47421 17.9704V19.1C8.47421 19.1861 8.47421 19.2722 8.48898 19.3485V19.3608H8.47913H8.48406ZM8.39054 19.3387H8.47175C8.45945 19.2649 8.45945 19.1812 8.45945 19.1V17.9704C8.45945 17.6726 8.58496 17.6455 8.69078 17.6455H8.71785V17.5914C8.61941 17.5914 8.52097 17.6012 8.42253 17.6012C8.30932 17.6012 8.19858 17.5914 8.08537 17.5914V17.6455H8.12967C8.20596 17.6455 8.35608 17.68 8.35608 17.8892V18.8268L8.3487 18.8317L8.34132 18.8391L7.23878 17.5914C7.16495 17.5914 7.09358 17.6012 7.01729 17.6012C6.92623 17.6012 6.83271 17.5914 6.74165 17.5914V17.6455H6.7638C6.87947 17.6455 7.00006 17.7341 7.00006 17.8793V18.9252C7.00006 19.1246 6.94346 19.2501 6.76626 19.2526H6.74165V19.3067C6.84994 19.3067 6.96068 19.2969 7.06897 19.2969C7.17725 19.2969 7.27569 19.3067 7.37906 19.3067V19.2526H7.34706C7.15264 19.2526 7.10342 19.1664 7.10342 18.9499V17.899L8.393 19.3412L8.39054 19.3387Z" fill="#231F20"/>
<path d="M9.09887 17.7046C8.91183 17.7046 8.90691 17.7489 8.86753 17.931H8.7937C8.80355 17.8621 8.81585 17.7932 8.82323 17.7194C8.83308 17.6505 8.838 17.5791 8.838 17.5077H8.89706C8.91675 17.5816 8.97828 17.5791 9.04719 17.5791H10.3269C10.3934 17.5791 10.4549 17.5791 10.4623 17.5028L10.5213 17.5126C10.5115 17.5791 10.5017 17.6455 10.4943 17.7144C10.4893 17.7809 10.4893 17.8498 10.4893 17.9163L10.4155 17.9433C10.4106 17.8523 10.3983 17.7046 10.2309 17.7046H9.82487V19.0262C9.82487 19.2181 9.91101 19.2403 10.0316 19.2403H10.0784V19.3141C9.98238 19.3141 9.80764 19.3043 9.67475 19.3043C9.52709 19.3043 9.35235 19.3141 9.25391 19.3141V19.2403H9.30067C9.43849 19.2403 9.5074 19.228 9.5074 19.0336V17.7071H9.10133L9.09887 17.7046Z" fill="#231F20"/>
<path d="M10.0785 19.324C9.98003 19.324 9.80776 19.3141 9.6724 19.3141C9.52474 19.3141 9.35001 19.324 9.25157 19.324H9.24173V19.228H9.29833C9.43615 19.2255 9.49029 19.2231 9.49275 19.0311V17.7145H9.09653V17.6923H9.5149V19.0286C9.5149 19.228 9.43369 19.2477 9.29833 19.2477H9.26141V19.2993C9.35985 19.2993 9.5272 19.2895 9.66994 19.2895C9.80038 19.2895 9.96527 19.2993 10.0637 19.2993V19.2477H10.0268C9.9062 19.2477 9.81022 19.2181 9.81022 19.0237V17.6923H10.2286C10.3959 17.6923 10.4181 17.835 10.423 17.9261L10.4772 17.9064C10.4772 17.8424 10.4772 17.776 10.4821 17.712C10.4895 17.648 10.4993 17.584 10.5067 17.5225L10.4698 17.5151C10.4575 17.5865 10.3886 17.5914 10.327 17.5914H9.03254C8.97347 17.5914 8.90949 17.5889 8.88734 17.52H8.8455C8.8455 17.5889 8.84058 17.6554 8.83073 17.7218C8.82335 17.7907 8.81351 17.8547 8.80366 17.9212H8.85781C8.8898 17.7489 8.91195 17.6923 9.09653 17.6948V17.7169C8.91441 17.7218 8.91687 17.7514 8.87749 17.9359V17.9433H8.77905V17.931C8.79136 17.8621 8.80366 17.7932 8.81105 17.7194C8.82089 17.6505 8.82581 17.5816 8.82581 17.5102V17.5003H8.90457V17.5077C8.92425 17.5692 8.96855 17.5717 9.03254 17.5717H10.327C10.3959 17.5717 10.4476 17.5717 10.4501 17.5053V17.493H10.4624L10.5313 17.5028V17.5126C10.5215 17.5791 10.5116 17.6455 10.5042 17.712C10.4993 17.7784 10.4993 17.8449 10.4993 17.9113V17.9187H10.4919L10.4033 17.9532V17.9384C10.3959 17.8449 10.3861 17.7095 10.2286 17.7095H9.83237V19.0188C9.83237 19.2058 9.90866 19.2181 10.0268 19.2206H10.0834V19.3166H10.0736L10.0785 19.324Z" fill="#231F20"/>
<path d="M10.6025 19.2379H10.637C10.7256 19.2379 10.8216 19.2256 10.8216 19.0976V17.7982C10.8216 17.6677 10.7281 17.6579 10.637 17.6579H10.6025V17.5816C10.7527 17.5816 11.0135 17.5914 11.2203 17.5914C11.427 17.5914 11.6879 17.5816 11.8552 17.5816C11.8503 17.6899 11.8552 17.8523 11.8601 17.9631L11.7863 17.9827C11.774 17.8203 11.7445 17.6923 11.4836 17.6923H11.139V18.3421H11.4344C11.5845 18.3421 11.6165 18.2584 11.6312 18.123H11.7051C11.7002 18.219 11.6977 18.3174 11.6977 18.4134C11.6977 18.5094 11.7002 18.6029 11.7051 18.6964L11.6312 18.7112C11.6165 18.5611 11.6091 18.4651 11.4368 18.4651H11.139V19.0434C11.139 19.2059 11.2818 19.2059 11.4417 19.2059C11.7395 19.2059 11.8724 19.1862 11.9463 18.9032L12.0152 18.9204C11.9832 19.0533 11.9536 19.1837 11.9315 19.3142C11.774 19.3142 11.486 19.3043 11.2646 19.3043C11.0431 19.3043 10.7453 19.3142 10.605 19.3142V19.2403L10.6025 19.2379Z" fill="#231F20"/>
<path d="M11.9296 19.3239C11.7696 19.3239 11.4842 19.3141 11.2627 19.3141C11.0412 19.3141 10.7434 19.3239 10.6031 19.3239H10.5933V19.2279H10.64C10.7286 19.2279 10.8123 19.2181 10.8123 19.0975V17.7981C10.8123 17.6775 10.7286 17.6701 10.64 17.6677H10.5933V17.5717H10.6031C10.7532 17.5717 11.0141 17.5815 11.2208 17.5815C11.4275 17.5815 11.686 17.5717 11.8558 17.5717H11.8681V17.5815C11.8681 17.6184 11.8656 17.6627 11.8656 17.7095C11.8656 17.7956 11.8681 17.8892 11.873 17.9605V17.9704H11.8656L11.7795 17.995V17.9827C11.7647 17.8227 11.7426 17.7046 11.4866 17.7021H11.1519V18.3297H11.4374C11.5801 18.3297 11.6047 18.2558 11.622 18.1205V18.1106H11.718V18.1205C11.713 18.2165 11.7106 18.3149 11.7106 18.4109C11.7106 18.5069 11.713 18.5979 11.718 18.6939V18.7013H11.7081L11.622 18.721V18.7087C11.6047 18.5561 11.6023 18.4749 11.4374 18.4724H11.1495V19.0409C11.1495 19.191 11.2799 19.191 11.4423 19.191C11.7426 19.191 11.8607 19.1738 11.937 18.8957V18.8859H11.9493L12.028 18.9056V18.9154C11.9936 19.0458 11.9641 19.1787 11.9419 19.3092V19.319H11.9321L11.9296 19.3239ZM11.9222 19.3018C11.9444 19.1763 11.9714 19.0508 12.0034 18.9252L11.9542 18.9129C11.8804 19.191 11.7352 19.2156 11.4423 19.2132C11.2848 19.2132 11.1298 19.2132 11.1298 19.0409V18.4527H11.4374C11.6097 18.4527 11.6269 18.5561 11.6392 18.6964L11.6933 18.6841C11.6884 18.593 11.686 18.4995 11.686 18.4084C11.686 18.3174 11.686 18.2214 11.6933 18.1279H11.6392C11.6244 18.2583 11.5851 18.3494 11.4325 18.3469H11.1273V17.675H11.4842C11.7426 17.675 11.7844 17.8079 11.7967 17.963L11.8508 17.9482C11.8459 17.8793 11.8435 17.7882 11.8435 17.707C11.8435 17.6627 11.8435 17.6234 11.8435 17.5889C11.6761 17.5889 11.4226 17.5987 11.2184 17.5987C11.0141 17.5987 10.7631 17.5889 10.6105 17.5889V17.643H10.6351C10.7237 17.643 10.8295 17.6578 10.8295 17.7956V19.0951C10.8295 19.2329 10.7237 19.2476 10.6351 19.2476H10.6105V19.2993C10.7557 19.2993 11.0412 19.2895 11.2602 19.2895C11.4792 19.2895 11.7573 19.2993 11.9198 19.2993" fill="#231F20"/>
<path d="M12.3499 17.8449C12.3499 17.6628 12.2515 17.6579 12.1727 17.6579H12.1284V17.5816C12.2072 17.5816 12.3622 17.5914 12.5148 17.5914C12.6674 17.5914 12.7831 17.5816 12.9135 17.5816C13.226 17.5816 13.5041 17.6653 13.5041 18.0197C13.5041 18.2436 13.3565 18.379 13.1596 18.4577L13.5853 19.0927C13.6543 19.1985 13.7035 19.228 13.8265 19.2428V19.3166C13.7453 19.3166 13.6641 19.3068 13.5829 19.3068C13.5066 19.3068 13.4254 19.3166 13.3491 19.3166C13.1571 19.0656 12.9947 18.7973 12.8323 18.5119H12.6698V19.0434C12.6698 19.2354 12.7584 19.2428 12.8716 19.2428H12.9159V19.3166C12.7732 19.3166 12.6305 19.3068 12.4877 19.3068C12.3696 19.3068 12.2515 19.3166 12.1284 19.3166V19.2428H12.1727C12.2638 19.2428 12.3499 19.2009 12.3499 19.1099V17.8498V17.8449ZM12.6674 18.4208H12.788C13.0365 18.4208 13.1694 18.3273 13.1694 18.0344C13.1694 17.8129 13.0267 17.6727 12.8077 17.6727C12.7338 17.6727 12.7018 17.68 12.6674 17.6825V18.4208Z" fill="#231F20"/>
<path d="M13.8239 19.3239C13.7402 19.3239 13.6615 19.3141 13.5803 19.3141C13.504 19.3141 13.4252 19.3239 13.3391 19.319C13.1496 19.068 12.9872 18.8022 12.8247 18.5192H12.6771V19.0384C12.6771 19.2255 12.7534 19.223 12.869 19.2255H12.9256V19.3215H12.9133C12.7706 19.3215 12.6279 19.3116 12.4851 19.3116C12.367 19.3116 12.2513 19.3215 12.1258 19.3215H12.116V19.2255H12.1726C12.2612 19.2255 12.3375 19.1861 12.3375 19.1024V17.8424C12.3375 17.6677 12.2489 17.6677 12.1726 17.6652H12.116V17.5692H12.1258C12.207 17.5692 12.3596 17.5791 12.5122 17.5791C12.6648 17.5791 12.7804 17.5692 12.9109 17.5692C13.2234 17.5692 13.5114 17.6554 13.5114 18.0171C13.5114 18.2411 13.3637 18.3814 13.1717 18.4601L13.5877 19.0852C13.6566 19.1886 13.7009 19.2132 13.8215 19.2304H13.8313V19.3264H13.8215L13.8239 19.3239ZM12.6672 18.4995H12.837V18.5044C13.0019 18.7899 13.1644 19.0581 13.3465 19.3042C13.4228 19.3042 13.5015 19.2944 13.5803 19.2944C13.659 19.2944 13.7353 19.3018 13.8141 19.3042V19.2501C13.6984 19.2353 13.6443 19.2009 13.5754 19.0975L13.1422 18.4503L13.1545 18.4453C13.3489 18.3691 13.4917 18.2362 13.4917 18.0171C13.4917 17.6726 13.2234 17.5938 12.9109 17.5914C12.7804 17.5914 12.6599 17.6012 12.5122 17.6012C12.3645 17.6012 12.2193 17.5914 12.1381 17.5914V17.6455H12.1726C12.2489 17.6455 12.3596 17.6578 12.3596 17.8449V19.1049C12.3596 19.2058 12.2661 19.2501 12.1726 19.2501H12.1381V19.3018C12.2587 19.3018 12.3695 19.2919 12.4876 19.2919C12.6279 19.2919 12.7657 19.3018 12.9035 19.3018V19.2501H12.869C12.7558 19.2501 12.6549 19.2353 12.6549 19.0409V18.4995H12.6648H12.6672ZM12.6672 18.4306H12.6574V17.6701H12.6672C12.7017 17.6677 12.7337 17.6603 12.81 17.6603C13.0364 17.6603 13.1841 17.8079 13.1841 18.0344C13.1841 18.3297 13.0413 18.4306 12.7903 18.4306H12.6697H12.6672ZM12.7878 18.4084C13.0339 18.4084 13.157 18.3198 13.1594 18.0319C13.1594 17.8153 13.0241 17.68 12.8075 17.68C12.7411 17.68 12.7091 17.6849 12.6771 17.6898V18.4084H12.7878Z" fill="#231F20"/>
<path d="M15.5077 18.8244L15.5126 18.8195V17.8892C15.5126 17.685 15.3723 17.6554 15.2961 17.6554H15.2419V17.5791C15.36 17.5791 15.4732 17.589 15.5889 17.589C15.6898 17.589 15.7932 17.5791 15.8941 17.5791V17.6554H15.8572C15.7538 17.6554 15.6357 17.6751 15.6357 17.9704V19.1C15.6357 19.1862 15.6357 19.2723 15.6504 19.3511H15.5569L14.2797 17.9261V18.9475C14.2797 19.164 14.3215 19.2379 14.5134 19.2379H14.5553V19.3117C14.447 19.3117 14.3412 19.3019 14.2354 19.3019C14.1295 19.3019 14.0089 19.3117 13.8982 19.3117V19.2379H13.9326C14.1049 19.2379 14.1566 19.1222 14.1566 18.9229V17.8769C14.1566 17.7366 14.0434 17.653 13.9302 17.653H13.8982V17.5767C13.9917 17.5767 14.0902 17.5865 14.1837 17.5865C14.2575 17.5865 14.3289 17.5767 14.4052 17.5767L15.5102 18.822L15.5077 18.8244Z" fill="#231F20"/>
<path d="M15.653 19.3608L15.5521 19.3559L14.292 17.9531V18.9474C14.2945 19.164 14.329 19.2255 14.516 19.2279H14.5677V19.3239H14.5578C14.4495 19.3239 14.3437 19.3141 14.2379 19.3141C14.1321 19.3141 14.0115 19.3239 13.9007 19.3239H13.8884V19.2279H13.9352C14.1001 19.2279 14.1468 19.1221 14.1493 18.9228V17.8768C14.1493 17.7439 14.041 17.6652 13.9352 17.6652H13.8909V17.5692H13.9032C13.9967 17.5692 14.0952 17.5791 14.1887 17.5791C14.2625 17.5791 14.3339 17.5692 14.4175 17.5717L15.5078 18.7997V17.8867C15.5078 17.6898 15.3749 17.6652 15.3035 17.6627H15.2371V17.5668H15.2469C15.365 17.5668 15.4782 17.5766 15.5939 17.5766C15.6948 17.5766 15.7957 17.5668 15.8991 17.5668H15.9089V17.6627H15.8622C15.7588 17.6627 15.6554 17.675 15.6505 17.9679V19.0975C15.6505 19.1836 15.6505 19.2698 15.6653 19.3461V19.3584H15.6554L15.653 19.3608ZM15.5595 19.3387H15.6407C15.6308 19.2649 15.6284 19.1812 15.6284 19.1V17.9704C15.6284 17.6726 15.7539 17.6455 15.8597 17.6455H15.8868V17.5914C15.7883 17.5914 15.6899 17.6012 15.5915 17.6012C15.4782 17.6012 15.3675 17.5914 15.2543 17.5914V17.6455H15.2986C15.3749 17.6455 15.525 17.68 15.525 17.8892V18.8268L15.5176 18.8317L15.5102 18.8391L14.4052 17.5914C14.3314 17.5914 14.26 17.6012 14.1837 17.6012C14.0927 17.6012 13.9992 17.5914 13.9081 17.5914V17.6455H13.9303C14.0459 17.6455 14.1665 17.7341 14.1665 17.8793V18.9252C14.1665 19.1246 14.1099 19.2501 13.9327 19.2526H13.9081V19.3042C14.0164 19.3042 14.1271 19.2944 14.2354 19.2944C14.3437 19.2944 14.4422 19.3042 14.5455 19.3042V19.2526H14.5135C14.3191 19.2526 14.2699 19.1664 14.2674 18.9499V17.899L15.557 19.3412L15.5595 19.3387Z" fill="#231F20"/>
<path d="M16.295 18.9597C16.2704 19.0434 16.2384 19.1098 16.2384 19.1541C16.2384 19.228 16.3442 19.2403 16.4255 19.2403H16.4525V19.3141C16.3516 19.3092 16.2507 19.3043 16.1523 19.3043C16.0637 19.3043 15.9751 19.3092 15.884 19.3141V19.2403H15.8988C15.9948 19.2403 16.0785 19.1837 16.1154 19.0778L16.5141 17.9384C16.546 17.8473 16.5903 17.7218 16.6051 17.6308C16.6839 17.6037 16.7848 17.5545 16.8315 17.5249C16.8389 17.5225 16.8438 17.52 16.8512 17.52C16.8586 17.52 16.8635 17.52 16.8684 17.5274C16.8758 17.5471 16.8832 17.5692 16.8906 17.5889L17.3459 18.8883C17.3754 18.9745 17.4049 19.068 17.4369 19.1418C17.4665 19.2107 17.5182 19.2403 17.6018 19.2403H17.6166V19.3141C17.5058 19.3092 17.3926 19.3043 17.2745 19.3043C17.1564 19.3043 17.0284 19.3092 16.9029 19.3141V19.2403H16.93C16.9866 19.2403 17.0826 19.2304 17.0826 19.1689C17.0826 19.1369 17.0604 19.0705 17.0333 18.9893L16.9374 18.7013H16.3738L16.295 18.9597ZM16.6593 17.8596H16.6543L16.423 18.5635H16.8881L16.6593 17.8596Z" fill="#231F20"/>
<path d="M17.6167 19.324C17.5059 19.319 17.3952 19.3141 17.2746 19.3141C17.154 19.3141 17.0285 19.319 16.903 19.324H16.8907V19.3141V19.228H16.93C16.9866 19.228 17.0728 19.2157 17.0728 19.1689C17.0728 19.1394 17.0506 19.0729 17.0236 18.9942L16.93 18.7136H16.3812L16.3049 18.9646C16.2803 19.0508 16.2508 19.1148 16.2508 19.1541C16.2508 19.2157 16.3443 19.2304 16.428 19.2304H16.4649V19.3289H16.4526C16.3542 19.324 16.2508 19.319 16.1524 19.319C16.0638 19.319 15.9727 19.324 15.8841 19.3289H15.8743V19.319V19.2329H15.8989C15.9924 19.2329 16.0687 19.1788 16.1031 19.0803L16.5018 17.9409C16.5338 17.8498 16.5781 17.7243 16.6003 17.6258C16.679 17.5988 16.7775 17.5496 16.8267 17.52C16.8341 17.52 16.8414 17.5151 16.8513 17.5151C16.8562 17.5151 16.871 17.5151 16.8784 17.5299C16.8857 17.5496 16.8931 17.5717 16.9005 17.5914L17.3583 18.8908C17.3878 18.9769 17.4173 19.068 17.4493 19.1418C17.4789 19.2083 17.5232 19.2354 17.6044 19.2354H17.629V19.3338H17.6167V19.324ZM16.9153 19.3018C17.0383 19.2969 17.1589 19.292 17.2771 19.292C17.3952 19.292 17.501 19.2969 17.6093 19.3018V19.2501H17.6044C17.5207 19.2501 17.4616 19.2157 17.4296 19.1443C17.3976 19.068 17.3681 18.9769 17.3386 18.8908L16.8808 17.5914C16.8734 17.5717 16.8661 17.5496 16.8587 17.5323C16.8587 17.5323 16.8587 17.5323 16.8538 17.5323H16.8488C16.8488 17.5323 16.8414 17.5323 16.8341 17.5348C16.7848 17.5668 16.6864 17.6135 16.6126 17.6332C16.5978 17.7267 16.5535 17.8523 16.5215 17.9433L16.1253 19.0828C16.0884 19.1911 15.9998 19.2526 15.8989 19.2526H15.894V19.3043C15.9776 19.2993 16.0638 19.2944 16.1524 19.2944C16.2483 19.2944 16.3468 19.2993 16.4403 19.3043V19.2526H16.4255C16.3443 19.2526 16.2311 19.2427 16.2287 19.1541C16.2287 19.1049 16.2582 19.0409 16.2828 18.9573L16.364 18.6915H16.9424L17.0408 18.9868C17.0679 19.0655 17.0925 19.132 17.0925 19.1689C17.0876 19.2452 16.9842 19.2501 16.9276 19.2526H16.9104V19.3043L16.9153 19.3018ZM16.4058 18.5733L16.6446 17.8498H16.6569H16.6643L16.9005 18.5733H16.4058ZM16.4354 18.5512H16.871L16.6544 17.8867L16.4354 18.5512Z" fill="#231F20"/>
<path d="M17.7273 17.7046C17.5402 17.7046 17.5329 17.7489 17.496 17.931H17.4221C17.432 17.8621 17.4443 17.7932 17.4517 17.7194C17.4615 17.6505 17.4664 17.5791 17.4664 17.5077H17.5255C17.5452 17.5816 17.6067 17.5791 17.6756 17.5791H18.9553C19.0218 17.5791 19.0833 17.5791 19.0882 17.5028L19.1473 17.5126C19.1375 17.5791 19.1276 17.6455 19.1202 17.7144C19.1153 17.7809 19.1153 17.8498 19.1153 17.9163L19.0415 17.9433C19.0366 17.8523 19.0242 17.7046 18.8594 17.7046H18.4533V19.0262C18.4533 19.2181 18.5394 19.2403 18.66 19.2403H18.7068V19.3141C18.6108 19.3141 18.4361 19.3043 18.3032 19.3043C18.1555 19.3043 17.9808 19.3141 17.8823 19.3141V19.2403H17.9291C18.0669 19.2403 18.1358 19.228 18.1358 19.0336V17.7071H17.7297L17.7273 17.7046Z" fill="#231F20"/>
<path d="M18.7045 19.324C18.6085 19.324 18.4338 19.3141 18.3009 19.3141C18.1532 19.3141 17.9785 19.324 17.88 19.324H17.8702V19.228H17.9268C18.0646 19.2255 18.1187 19.2231 18.1212 19.0311V17.7145H17.725V17.6923H18.1434V19.0286C18.1434 19.228 18.0646 19.2477 17.9268 19.2477H17.8899V19.2993C17.9883 19.2993 18.1557 19.2895 18.2984 19.2895C18.4288 19.2895 18.5937 19.2993 18.6922 19.2993V19.2477H18.6552C18.5347 19.2477 18.4387 19.2181 18.4387 19.0237V17.6923H18.8571C19.0244 17.6923 19.0466 17.835 19.0515 17.9261L19.1056 17.9064C19.1056 17.8424 19.1056 17.776 19.1105 17.712C19.1179 17.648 19.1278 17.584 19.1351 17.5225L19.0982 17.5151C19.0859 17.5865 19.017 17.5914 18.953 17.5914H17.6585C17.5995 17.5914 17.5379 17.5889 17.5133 17.5176H17.4715C17.4715 17.5865 17.4666 17.6529 17.4567 17.7194C17.4493 17.7883 17.437 17.8523 17.4297 17.9187H17.4838C17.5158 17.7464 17.5379 17.6898 17.7225 17.6923V17.7145C17.5379 17.7169 17.5429 17.7489 17.501 17.9335V17.9409H17.4026V17.9286C17.4149 17.8596 17.4272 17.7907 17.4346 17.7194C17.4444 17.6505 17.4493 17.5816 17.4493 17.5102V17.5003H17.5281V17.5077C17.5478 17.5692 17.5945 17.5717 17.6561 17.5717H18.9506C19.0195 17.5717 19.0687 17.5717 19.0736 17.5053V17.493H19.0859L19.1573 17.5028V17.5126C19.145 17.5791 19.1351 17.6455 19.1278 17.712C19.1228 17.7784 19.1228 17.8449 19.1228 17.9113V17.9187H19.1155L19.0269 17.9532V17.9384C19.0195 17.8449 19.0096 17.7095 18.8546 17.7095H18.4584V19.0188C18.4584 19.2058 18.5347 19.2181 18.6528 19.2206H18.7119V19.3166H18.702L18.7045 19.324Z" fill="#231F20"/>
<path d="M19.2407 19.2379H19.2752C19.3662 19.2379 19.4598 19.2256 19.4598 19.0976V17.7982C19.4598 17.6677 19.3662 17.6579 19.2752 17.6579H19.2407V17.5816C19.3367 17.5816 19.4868 17.5914 19.6074 17.5914C19.728 17.5914 19.8806 17.5816 19.9987 17.5816V17.6579H19.9643C19.8732 17.6579 19.7797 17.6702 19.7797 17.7982V19.0976C19.7797 19.228 19.8732 19.2379 19.9643 19.2379H19.9987V19.3117C19.8781 19.3117 19.7305 19.3019 19.6074 19.3019C19.4844 19.3019 19.3392 19.3117 19.2432 19.3117V19.2379H19.2407Z" fill="#231F20"/>
<path d="M19.9993 19.3239C19.8787 19.3239 19.731 19.3141 19.608 19.3141C19.4849 19.3141 19.3397 19.3239 19.2437 19.3239H19.2339V19.2279H19.2782C19.3692 19.2279 19.4505 19.2181 19.4505 19.0975V17.7981C19.4505 17.6775 19.3692 17.6677 19.2782 17.6677H19.2339V17.5717H19.2437C19.3397 17.5717 19.4898 17.5815 19.6104 17.5815C19.731 17.5815 19.8836 17.5717 20.0017 17.5717H20.0116V17.6677H19.9673C19.8762 17.6677 19.795 17.6775 19.795 17.7981V19.0975C19.795 19.2181 19.8787 19.2279 19.9673 19.2279H20.0116V19.3239H20.0017H19.9993ZM19.987 19.3018V19.2501H19.9648C19.8762 19.2501 19.7704 19.2353 19.7704 19.0975V17.7981C19.7704 17.6603 19.8762 17.6455 19.9648 17.6455H19.987V17.5914C19.8713 17.5914 19.7286 17.6012 19.608 17.6012C19.4874 17.6012 19.3471 17.5914 19.2511 17.5914V17.6455H19.2757C19.3643 17.6455 19.4701 17.6603 19.4701 17.7981V19.0975C19.4701 19.2353 19.3643 19.2501 19.2757 19.2501H19.2511V19.3018C19.3471 19.3018 19.4874 19.2919 19.6055 19.2919C19.7236 19.2919 19.8688 19.3018 19.987 19.3018Z" fill="#231F20"/>
<path d="M20.9883 17.5446C21.5174 17.5446 21.9382 17.8719 21.9382 18.4011C21.9382 18.972 21.5297 19.351 21.0006 19.351C20.4714 19.351 20.0728 18.9942 20.0728 18.4601C20.0728 17.9261 20.4714 17.5446 20.9883 17.5446ZM21.0252 19.2427C21.5075 19.2427 21.5912 18.817 21.5912 18.4552C21.5912 18.0934 21.3968 17.6529 20.9833 17.6529C20.5502 17.6529 20.4198 18.0393 20.4198 18.3715C20.4198 18.817 20.624 19.2403 21.0252 19.2403" fill="#231F20"/>
<path d="M20.063 18.4601C20.063 17.9384 20.4691 17.5348 20.9908 17.5323V17.5545C20.4789 17.5545 20.0851 17.9482 20.0851 18.4601C20.0851 18.9868 20.4814 19.3412 21.0031 19.3412C21.5273 19.3412 21.9309 18.9671 21.9309 18.4011C21.9309 17.8793 21.515 17.5569 20.9908 17.5569V17.5348C21.5248 17.5348 21.9506 17.867 21.9531 18.4011C21.9531 18.9769 21.5396 19.3609 21.0056 19.3633C20.474 19.3633 20.0679 19.0016 20.0654 18.4601M20.41 18.3715C20.41 18.0368 20.5429 17.6406 20.9834 17.6406C21.4042 17.6406 21.6011 18.0885 21.6011 18.4552C21.6011 18.817 21.515 19.2526 21.0252 19.2526V19.2304C21.4978 19.2304 21.579 18.817 21.5814 18.4552C21.5814 18.0959 21.387 17.6652 20.9834 17.6628C20.5577 17.6628 20.4321 18.0418 20.4297 18.3715C20.4297 18.8145 20.6315 19.228 21.0252 19.2304V19.2526C20.6143 19.2526 20.41 18.8194 20.41 18.374" fill="#231F20"/>
<path d="M23.6139 18.8244L23.6188 18.8195V17.8892C23.6188 17.685 23.4761 17.6554 23.4023 17.6554H23.3481V17.5791C23.4638 17.5791 23.5795 17.589 23.6951 17.589C23.7985 17.589 23.8994 17.5791 24.0003 17.5791V17.6554H23.9634C23.8575 17.6554 23.7419 17.6751 23.7419 17.9704V19.1C23.7419 19.1862 23.7443 19.2723 23.7566 19.3511H23.6631L22.3859 17.9261V18.9475C22.3859 19.164 22.4277 19.2379 22.6197 19.2379H22.6615V19.3117C22.5557 19.3117 22.4474 19.3019 22.3416 19.3019C22.2357 19.3019 22.1151 19.3117 22.0044 19.3117V19.2379H22.0388C22.2111 19.2379 22.2628 19.1222 22.2628 18.9229V17.8769C22.2628 17.7366 22.1496 17.653 22.0364 17.653H22.0044V17.5767C22.0979 17.5767 22.1964 17.5865 22.2899 17.5865C22.3637 17.5865 22.4351 17.5767 22.5114 17.5767L23.6164 18.822L23.6139 18.8244Z" fill="#231F20"/>
<path d="M23.7567 19.3608L23.6534 19.3559L22.3933 17.9531V18.9474C22.3958 19.164 22.4302 19.2255 22.6148 19.2255H22.669V19.3215H22.6591C22.5508 19.3215 22.445 19.3116 22.3392 19.3116C22.2334 19.3116 22.1128 19.3215 22.002 19.3215H21.9922V19.2255H22.0365C22.2014 19.2255 22.2481 19.1197 22.2481 18.9228V17.8768C22.2481 17.744 22.1399 17.6652 22.034 17.6652H21.9922V17.5692H22.002C22.098 17.5692 22.194 17.5791 22.2875 17.5791C22.3613 17.5791 22.4327 17.5692 22.5164 17.5741L23.6066 18.8022V17.8892C23.6066 17.6923 23.4737 17.6677 23.3999 17.6652H23.3359V17.5692H23.3458C23.4614 17.5692 23.5771 17.5791 23.6928 17.5791C23.7961 17.5791 23.8946 17.5692 23.9979 17.5692H24.0078V17.6652H23.961C23.8601 17.6677 23.7543 17.6775 23.7518 17.9704V19.1C23.7518 19.1861 23.7518 19.2722 23.7666 19.3485V19.3608H23.7567ZM23.6608 19.3387H23.742C23.7321 19.2649 23.7297 19.1812 23.7297 19.1V17.9704C23.7297 17.6726 23.8552 17.6455 23.961 17.6455H23.9881V17.5914C23.8896 17.5914 23.7912 17.6012 23.6928 17.6012C23.5795 17.6012 23.4688 17.5914 23.3556 17.5914V17.6455H23.3999C23.4762 17.6455 23.6263 17.68 23.6263 17.8892V18.8268L23.6189 18.8317L23.6115 18.8391L22.5065 17.5914C22.4327 17.5914 22.3613 17.6012 22.285 17.6012C22.194 17.6012 22.1005 17.5914 22.0094 17.5914V17.6455H22.0316C22.1497 17.6455 22.2678 17.7341 22.2678 17.8793V18.9252C22.2678 19.1246 22.2112 19.2501 22.034 19.2526H22.0094V19.3042C22.1177 19.3042 22.2284 19.2944 22.3367 19.2944C22.4401 19.2944 22.5435 19.3042 22.6468 19.3042V19.2526H22.6148C22.4204 19.2526 22.3712 19.1664 22.3712 18.9499V17.899L23.6608 19.3412V19.3387Z" fill="#231F20"/>
<path d="M24.3988 18.9597C24.3742 19.0434 24.3446 19.1098 24.3446 19.1541C24.3446 19.228 24.4505 19.2403 24.5292 19.2403H24.5563V19.3141C24.4578 19.3092 24.3545 19.3043 24.256 19.3043C24.165 19.3043 24.0764 19.3092 23.9878 19.3141V19.2403H24.0026C24.101 19.2403 24.1822 19.1837 24.2191 19.0778L24.6178 17.9384C24.6498 17.8473 24.6941 17.7218 24.7089 17.6308C24.7876 17.6037 24.8885 17.5545 24.9353 17.5249C24.9427 17.5225 24.9476 17.52 24.955 17.52C24.9624 17.52 24.9673 17.52 24.9722 17.5274C24.9796 17.5471 24.987 17.5692 24.9944 17.5889L25.4496 18.8883C25.4792 18.9745 25.5087 19.068 25.5407 19.1418C25.5702 19.2107 25.6219 19.2403 25.7056 19.2403H25.7204V19.3141C25.6096 19.3092 25.4964 19.3043 25.3783 19.3043C25.2601 19.3043 25.1322 19.3092 25.0067 19.3141V19.2403H25.0337C25.0903 19.2403 25.1888 19.2304 25.1888 19.1689C25.1888 19.1369 25.1666 19.0705 25.1396 18.9893L25.0436 18.7013H24.48L24.3988 18.9597ZM24.7606 17.8596H24.7556L24.5243 18.5635H24.9894L24.7606 17.8596Z" fill="#231F20"/>
<path d="M25.7211 19.324C25.6104 19.319 25.4972 19.3141 25.3791 19.3141C25.2609 19.3141 25.133 19.319 25.0074 19.324H24.9976V19.3141V19.2304H25.0345C25.0911 19.2304 25.1773 19.2157 25.1797 19.1689C25.1797 19.1394 25.1576 19.0729 25.1305 18.9942L25.037 18.7136H24.4882L24.4119 18.9646C24.3873 19.0508 24.3577 19.1148 24.3577 19.1541C24.3577 19.2157 24.4513 19.2304 24.5325 19.2304H24.5718V19.3264H24.5595C24.4611 19.3215 24.3577 19.3166 24.2593 19.3166C24.1707 19.3166 24.0821 19.3215 23.991 19.3264H23.9812V19.3166V19.2329H24.0058C24.0993 19.2329 24.1756 19.1788 24.2125 19.0778L24.6088 17.9384C24.6408 17.8473 24.6851 17.7218 24.7072 17.6234C24.786 17.5963 24.8844 17.5471 24.9336 17.5176C24.941 17.5176 24.9484 17.5126 24.9582 17.5126C24.9656 17.5126 24.9779 17.5126 24.9853 17.5274C24.9927 17.5471 25.0001 17.5692 25.0074 17.5889L25.4652 18.8883C25.4947 18.9745 25.5243 19.0655 25.5563 19.1394C25.5858 19.2058 25.6301 19.2304 25.7088 19.2329H25.7335V19.3289H25.7236L25.7211 19.324ZM25.0173 19.3018C25.1403 19.2969 25.2609 19.292 25.3791 19.292C25.4972 19.292 25.603 19.2969 25.7113 19.3018V19.2501H25.7064C25.6227 19.2501 25.5636 19.2157 25.5316 19.1443C25.4972 19.068 25.4701 18.9769 25.4406 18.8908L24.9853 17.5914C24.9779 17.5717 24.9705 17.5496 24.9631 17.5323C24.9631 17.5323 24.9615 17.5315 24.9582 17.5299H24.9533C24.9533 17.5299 24.9459 17.5299 24.9385 17.5323C24.8893 17.5619 24.7909 17.6135 24.717 17.6308C24.7023 17.7243 24.658 17.8498 24.626 17.9409L24.2273 19.0803C24.1904 19.1886 24.1043 19.2501 24.0009 19.2501H23.996V19.3018C24.0821 19.2969 24.1682 19.292 24.2544 19.292C24.3504 19.292 24.4488 19.2969 24.5448 19.3018V19.2501H24.5275C24.4463 19.2501 24.3331 19.2403 24.3307 19.1517C24.3307 19.1025 24.3627 19.0385 24.3873 18.9548L24.4685 18.689H25.0468L25.1453 18.9843C25.1723 19.0631 25.1945 19.1295 25.1945 19.1664C25.192 19.2427 25.0862 19.2477 25.0296 19.2501H25.0124V19.3018H25.0173ZM24.5103 18.5709L24.749 17.8473H24.7613H24.7687L25.0025 18.5709H24.5079H24.5103ZM24.5423 18.5512H24.9779L24.7613 17.8867L24.5423 18.5512Z" fill="#231F20"/>
<path d="M26.3486 19.0704C26.3486 19.1689 26.4175 19.1984 26.4962 19.2107C26.5971 19.2181 26.7103 19.2181 26.8235 19.2058C26.9269 19.1935 27.018 19.1344 27.0623 19.0704C27.1016 19.0163 27.1238 18.9474 27.1385 18.8908H27.2099C27.1828 19.0335 27.1484 19.1713 27.1164 19.3141C26.8974 19.3141 26.6783 19.3042 26.4618 19.3042C26.2452 19.3042 26.0237 19.3141 25.8071 19.3141V19.2402H25.8416C25.9326 19.2402 26.0286 19.2279 26.0286 19.0754V17.8005C26.0286 17.6701 25.9326 17.6603 25.8416 17.6603H25.8071V17.584C25.9376 17.584 26.068 17.5938 26.1984 17.5938C26.3289 17.5938 26.4495 17.584 26.5774 17.584V17.6603H26.5159C26.4224 17.6603 26.3486 17.6603 26.3486 17.7956V19.0754V19.0704Z" fill="#231F20"/>
<path d="M27.1187 19.3239C26.8997 19.3239 26.6806 19.3141 26.4641 19.3141C26.2475 19.3141 26.026 19.3239 25.807 19.3239H25.7971V19.2279H25.8414C25.9325 19.2279 26.0162 19.2181 26.0186 19.0704V17.7956C26.0186 17.675 25.9325 17.6677 25.8414 17.6652H25.7971V17.5692H25.807C25.9399 17.5692 26.0678 17.5791 26.1983 17.5791C26.3287 17.5791 26.4493 17.5692 26.5773 17.5692H26.5871V17.6652H26.5157C26.4198 17.6677 26.3582 17.6652 26.3582 17.7882V19.068C26.3582 19.1615 26.4198 19.1861 26.4985 19.196C26.5428 19.1984 26.5871 19.2009 26.6363 19.2009C26.6979 19.2009 26.7594 19.1984 26.8258 19.191C26.9267 19.1787 27.0129 19.1221 27.0572 19.0606C27.0965 19.0065 27.1162 18.94 27.131 18.8859V18.8785H27.227V18.8932C27.1974 19.036 27.163 19.1738 27.1335 19.3165V19.3239H27.1236H27.1187ZM27.1113 19.3018C27.1408 19.1664 27.1728 19.036 27.1974 18.9006H27.1458C27.131 18.9548 27.1088 19.0212 27.0695 19.0754C27.0227 19.1394 26.9317 19.2009 26.8234 19.2132C26.7594 19.2206 26.6929 19.223 26.6339 19.223C26.5846 19.223 26.5379 19.223 26.4936 19.2181C26.4124 19.2083 26.3336 19.1738 26.3361 19.068V17.7882C26.3361 17.6504 26.4222 17.643 26.5157 17.643H26.5674V17.5889C26.4444 17.5889 26.3238 17.5988 26.2007 17.5988C26.0777 17.5988 25.9448 17.5889 25.8193 17.5889V17.643H25.8439C25.9325 17.643 26.0408 17.6578 26.0408 17.7956V19.0704C26.0408 19.2304 25.9325 19.2476 25.8439 19.2476H25.8193V19.2993C26.0334 19.2993 26.2475 19.2895 26.4641 19.2895C26.6806 19.2895 26.8947 19.2993 27.1113 19.2993" fill="#231F20"/>
<path d="M27.1803 17.5102C27.3304 17.5102 27.4412 17.6258 27.4412 17.771C27.4412 17.9162 27.3304 18.0319 27.1803 18.0319C27.0302 18.0319 26.9194 17.9187 26.9194 17.771C26.9194 17.6234 27.0326 17.5102 27.1803 17.5102ZM27.1803 17.9852C27.2984 17.9852 27.387 17.8867 27.387 17.7735C27.387 17.6603 27.2984 17.5594 27.1803 17.5594C27.0622 17.5594 26.9736 17.6603 26.9736 17.7735C26.9736 17.8867 27.0622 17.9852 27.1803 17.9852ZM27.0523 17.9113V17.899C27.0843 17.8941 27.0892 17.8966 27.0892 17.8744V17.6824C27.0892 17.6554 27.0868 17.6455 27.0523 17.648V17.6332H27.1877C27.232 17.6332 27.2763 17.6554 27.2763 17.7021C27.2763 17.7415 27.2517 17.7686 27.2148 17.7809L27.2566 17.84C27.2763 17.867 27.3009 17.8916 27.3157 17.9015V17.9089H27.264C27.2394 17.9089 27.2172 17.8572 27.1705 17.7883H27.1409V17.8744C27.1409 17.8916 27.1458 17.8916 27.1778 17.8941V17.9064H27.0523V17.9113ZM27.1409 17.7735H27.1705C27.2049 17.7735 27.2197 17.7489 27.2197 17.7071C27.2197 17.6652 27.1951 17.6505 27.168 17.6505H27.1385V17.7735H27.1409Z" fill="#231F20"/>
<path d="M11.6831 8.75144C11.6831 6.42823 13.5658 4.54801 15.8865 4.54801C18.2073 4.54801 20.09 6.43069 20.09 8.75144C20.09 11.0722 18.2073 12.9549 15.8865 12.9549C13.5658 12.9549 11.6831 11.0722 11.6831 8.75144Z" fill="white"/>
<path d="M15.8939 13.0312C13.4846 13.0435 11.501 11.0894 11.501 8.71454C11.501 6.11816 13.4846 4.32161 15.8939 4.32161H17.0235C19.4033 4.32161 21.5764 6.1157 21.5764 8.71454C21.5764 11.0894 19.4033 13.0312 17.0235 13.0312H15.8939ZM15.9037 4.68092C13.7011 4.68092 11.9169 6.46516 11.9169 8.66778C11.9169 10.8704 13.7011 12.6546 15.9037 12.6546C18.1064 12.6546 19.8906 10.8704 19.8906 8.66778C19.8906 6.46516 18.1064 4.68092 15.9037 4.68092ZM14.9981 11.0254V6.31012C14.0506 6.67435 13.3787 7.59231 13.3763 8.66778C13.3787 9.74325 14.0506 10.6612 14.9981 11.0254ZM18.4312 8.66778C18.4312 7.58985 17.7569 6.67189 16.8069 6.31012V11.0279C17.7544 10.6637 18.4288 9.74571 18.4312 8.67024" fill="#0B4F94"/>
<path d="M29.8612 3.00004H3.10746C2.49583 3.00004 2 3.49587 2 4.1075V19.8925C2 20.5041 2.49583 21 3.10746 21H29.8612C30.4729 21 30.9687 20.5041 30.9687 19.8925V4.1075C30.9687 3.49587 30.4729 3.00004 29.8612 3.00004Z" stroke="#424242" stroke-opacity="0.258824" stroke-width="0.369154" stroke-linejoin="round"/>
</svg>
