<svg width="31" height="20" viewBox="0 0 31 20" fill="none" xmlns="http://www.w3.org/2000/svg">
<path d="M29.0133 1H2.25956C1.64793 1 1.1521 1.49583 1.1521 2.10746V17.8925C1.1521 18.5041 1.64793 18.9999 2.25956 18.9999H29.0133C29.625 18.9999 30.1208 18.5041 30.1208 17.8925V2.10746C30.1208 1.49583 29.625 1 29.0133 1Z" fill="white"/>
<path d="M5.45542 11.9071C5.45542 11.4961 5.24131 11.5232 5.03705 11.5183V11.4001C5.21424 11.4075 5.39636 11.4075 5.57601 11.4075C5.76797 11.4075 6.02884 11.4001 6.366 11.4001C7.54729 11.4001 8.18962 12.1877 8.18962 12.9974C8.18962 13.4502 7.92629 14.5847 6.3094 14.5847C6.07806 14.5847 5.86149 14.5749 5.64738 14.5749C5.43327 14.5749 5.24131 14.5798 5.03705 14.5847V14.4666C5.31022 14.4395 5.44312 14.4297 5.45542 14.1196V11.9071ZM5.90087 14.0482C5.90087 14.4001 6.15189 14.4395 6.37584 14.4395C7.36272 14.4395 7.68511 13.6963 7.68511 13.017C7.68511 12.1655 7.13876 11.5478 6.25772 11.5478C6.07068 11.5478 5.98454 11.5601 5.90087 11.565V14.0457V14.0482Z" fill="#231F20"/>
<path d="M8.34692 14.4665H8.43306C8.56103 14.4665 8.65209 14.4665 8.65209 14.3164V13.0809C8.65209 12.8791 8.58318 12.8521 8.41583 12.761V12.6872C8.62994 12.6232 8.88589 12.537 8.90558 12.5223C8.93757 12.5051 8.96464 12.5001 8.98679 12.5001C9.00894 12.5001 9.01878 12.5272 9.01878 12.5641V14.3164C9.01878 14.4665 9.11969 14.4665 9.24766 14.4665H9.32641V14.5846C9.17137 14.5846 9.0114 14.5748 8.84651 14.5748C8.68162 14.5748 8.5192 14.5797 8.34938 14.5846V14.4665H8.34692ZM8.83667 11.7987C8.71854 11.7987 8.61271 11.688 8.61271 11.5699C8.61271 11.4517 8.721 11.3508 8.83667 11.3508C8.95234 11.3508 9.06062 11.4468 9.06062 11.5699C9.06062 11.6929 8.95972 11.7987 8.83667 11.7987Z" fill="#231F20"/>
<path d="M9.75726 13.1081C9.75726 12.9407 9.70804 12.894 9.49393 12.8079V12.7217C9.69081 12.6577 9.87785 12.5987 10.0969 12.5027C10.1116 12.5027 10.1239 12.5125 10.1239 12.547V12.8448C10.3848 12.6577 10.6088 12.5027 10.9139 12.5027C11.3003 12.5027 11.4381 12.7857 11.4381 13.1401V14.3165C11.4381 14.4666 11.539 14.4666 11.667 14.4666H11.7482V14.5847C11.5883 14.5847 11.4283 14.5749 11.2659 14.5749C11.1034 14.5749 10.9361 14.5798 10.7737 14.5847V14.4666H10.8549C10.9828 14.4666 11.0739 14.4666 11.0739 14.3165V13.1352C11.0739 12.8743 10.9139 12.7463 10.6555 12.7463C10.5103 12.7463 10.2765 12.8645 10.1264 12.9654V14.314C10.1264 14.4641 10.2273 14.4641 10.3553 14.4641H10.4365V14.5823C10.2765 14.5823 10.1166 14.5724 9.95168 14.5724C9.78679 14.5724 9.62436 14.5773 9.45947 14.5823V14.4641H9.54315C9.67112 14.4641 9.76218 14.4641 9.76218 14.314V13.1056L9.75726 13.1081Z" fill="#231F20"/>
<path d="M12.093 13.3271C12.0832 13.369 12.0832 13.4354 12.093 13.5905C12.1201 14.0236 12.3982 14.3805 12.7624 14.3805C13.0134 14.3805 13.2103 14.2426 13.3777 14.0753L13.4417 14.1393C13.2325 14.4174 12.9716 14.6536 12.5975 14.6536C11.8715 14.6536 11.7263 13.9522 11.7263 13.6594C11.7263 12.766 12.3293 12.5002 12.6467 12.5002C13.0159 12.5002 13.4146 12.7316 13.417 13.2164C13.417 13.2435 13.417 13.2705 13.4121 13.3001L13.3703 13.3271H12.0881H12.093ZM12.9027 13.1819C13.0159 13.1819 13.0307 13.1229 13.0307 13.0687C13.0307 12.8349 12.8904 12.6479 12.6344 12.6479C12.3563 12.6479 12.1644 12.8522 12.1102 13.1819H12.9051H12.9027Z" fill="#231F20"/>
<path d="M13.5252 14.4666H13.6483C13.7762 14.4666 13.8673 14.4666 13.8673 14.3165V13.0343C13.8673 12.894 13.6999 12.8669 13.631 12.83V12.7636C13.9633 12.6208 14.1478 12.5027 14.1872 12.5027C14.2143 12.5027 14.2291 12.515 14.2291 12.5617V12.9727H14.2389C14.3521 12.7955 14.5441 12.5027 14.8222 12.5027C14.9354 12.5027 15.083 12.579 15.083 12.7439C15.083 12.8669 14.9969 12.9777 14.8689 12.9777C14.7262 12.9777 14.7262 12.8669 14.5687 12.8669C14.4924 12.8669 14.2364 12.9727 14.2364 13.2459V14.3165C14.2364 14.4666 14.3275 14.4666 14.4555 14.4666H14.7114V14.5847C14.4604 14.5798 14.2684 14.5749 14.074 14.5749C13.8796 14.5749 13.695 14.5798 13.5301 14.5847V14.4666H13.5252Z" fill="#231F20"/>
<path d="M15.2823 13.9522C15.3413 14.2525 15.5235 14.5084 15.8582 14.5084C16.1264 14.5084 16.2273 14.3436 16.2273 14.1836C16.2273 13.6446 15.2331 13.8169 15.2331 13.0835C15.2331 12.8276 15.4373 12.5002 15.9394 12.5002C16.0846 12.5002 16.2815 12.5421 16.4587 12.6331L16.4906 13.0983H16.3848C16.3381 12.8103 16.1781 12.6454 15.8877 12.6454C15.7056 12.6454 15.5308 12.7513 15.5308 12.9457C15.5308 13.4797 16.5891 13.3148 16.5891 14.031C16.5891 14.3312 16.3479 14.6512 15.804 14.6512C15.6219 14.6512 15.4078 14.5872 15.2478 14.4961L15.1986 13.9719L15.2798 13.9498L15.2823 13.9522Z" fill="#231F20"/>
<path d="M20.7114 12.2271H20.5981C20.512 11.6931 20.133 11.479 19.6236 11.479C19.1142 11.479 18.3365 11.8309 18.3365 12.9236C18.3365 13.8465 18.9936 14.5085 19.6974 14.5085C20.1502 14.5085 20.5243 14.1984 20.6154 13.7185L20.7187 13.7456L20.6154 14.4125C20.4234 14.5306 19.9066 14.6537 19.6064 14.6537C18.5383 14.6537 17.864 13.9646 17.864 12.9383C17.864 12.0032 18.6982 11.3313 19.5916 11.3313C19.9607 11.3313 20.3176 11.4494 20.6671 11.5725L20.7138 12.2247L20.7114 12.2271Z" fill="#231F20"/>
<path d="M20.8762 14.4666H20.9624C21.0903 14.4666 21.1814 14.4666 21.1814 14.3164V11.7767C21.1814 11.4789 21.1125 11.4715 20.9402 11.4198V11.346C21.1223 11.2869 21.3143 11.2057 21.4103 11.1491C21.4595 11.122 21.4964 11.0974 21.5112 11.0974C21.5382 11.0974 21.5481 11.1245 21.5481 11.1614V14.314C21.5481 14.4641 21.649 14.4641 21.777 14.4641H21.8532V14.5822C21.6982 14.5822 21.5382 14.5724 21.3733 14.5724C21.2085 14.5724 21.046 14.5773 20.8762 14.5822V14.4641V14.4666Z" fill="#231F20"/>
<path d="M23.805 14.3361C23.805 14.4198 23.8543 14.4222 23.933 14.4222C23.9872 14.4222 24.0561 14.4173 24.1151 14.4173V14.5133C23.9183 14.5305 23.5442 14.6265 23.458 14.6536L23.4359 14.6388V14.2697C23.1627 14.4936 22.9511 14.6536 22.6287 14.6536C22.3826 14.6536 22.1266 14.4936 22.1266 14.1122V12.9432C22.1266 12.825 22.1069 12.7094 21.8535 12.6872V12.6011C22.0183 12.5962 22.3826 12.5691 22.4416 12.5691C22.4933 12.5691 22.4933 12.6011 22.4933 12.702V13.8784C22.4933 14.0162 22.4933 14.4075 22.8895 14.4075C23.0446 14.4075 23.2489 14.2893 23.4408 14.1294V12.9013C23.4408 12.8103 23.2218 12.7611 23.0569 12.7143V12.6331C23.4679 12.606 23.7238 12.5691 23.7681 12.5691C23.805 12.5691 23.805 12.6011 23.805 12.6503V14.3336V14.3361Z" fill="#231F20"/>
<path d="M24.7128 12.83C24.8949 12.6749 25.141 12.5026 25.392 12.5026C25.9212 12.5026 26.2411 12.9628 26.2411 13.46C26.2411 14.058 25.803 14.656 25.1509 14.656C24.8137 14.656 24.6365 14.5477 24.5159 14.4961L24.3781 14.5994L24.2821 14.5502C24.3215 14.282 24.3461 14.0162 24.3461 13.7381V11.7766C24.3461 11.4789 24.2772 11.469 24.1049 11.4198V11.346C24.287 11.2869 24.479 11.2057 24.575 11.1491C24.6242 11.122 24.6611 11.0999 24.6759 11.0999C24.7029 11.0999 24.7128 11.1269 24.7128 11.1638V12.8275V12.83ZM24.7128 14.0703C24.7128 14.2426 24.8777 14.5354 25.1828 14.5354C25.6726 14.5354 25.8769 14.0555 25.8769 13.6495C25.8769 13.1573 25.5028 12.7463 25.1459 12.7463C24.9761 12.7463 24.8358 12.857 24.7128 12.9604V14.0678V14.0703Z" fill="#231F20"/>
<path d="M5.02966 17.2376H5.06412C5.15271 17.2376 5.24869 17.2253 5.24869 17.0973V15.7979C5.24869 15.6674 5.15518 15.6576 5.06412 15.6576H5.02966V15.5813C5.12564 15.5813 5.27577 15.5911 5.39636 15.5911C5.51695 15.5911 5.66953 15.5813 5.7852 15.5813V15.6576H5.75074C5.66215 15.6576 5.56617 15.6699 5.56617 15.7979V17.0973C5.56617 17.2277 5.65969 17.2376 5.75074 17.2376H5.7852V17.3114C5.66707 17.3114 5.51695 17.3016 5.39389 17.3016C5.27084 17.3016 5.12564 17.3114 5.02966 17.3114V17.2376Z" fill="#231F20"/>
<path d="M5.78766 17.3238C5.66707 17.3238 5.5194 17.3139 5.39635 17.3139C5.2733 17.3139 5.1281 17.3238 5.03212 17.3238H5.02228V17.2278H5.06904C5.1601 17.2278 5.24131 17.218 5.24131 17.0974V15.7979C5.24131 15.6774 5.15763 15.6675 5.06904 15.6675H5.02228V15.5715H5.03212C5.13056 15.5715 5.27822 15.5814 5.39881 15.5814C5.5194 15.5814 5.67199 15.5715 5.78766 15.5715H5.7975V15.6675H5.7532C5.66214 15.6675 5.58093 15.6774 5.58093 15.7979V17.0974C5.58093 17.218 5.66461 17.2253 5.7532 17.2278H5.7975V17.3238H5.78766ZM5.77781 17.3016V17.2475H5.7532C5.66461 17.2475 5.55878 17.2327 5.55878 17.0949V15.7955C5.55878 15.6577 5.66461 15.6429 5.7532 15.6429H5.77781V15.5912C5.66214 15.5912 5.5194 15.6011 5.39881 15.6011C5.27822 15.6011 5.13795 15.5912 5.04197 15.5912V15.6429H5.06658C5.15517 15.6429 5.261 15.6577 5.261 15.7955V17.0949C5.261 17.2327 5.15517 17.2475 5.06658 17.2475H5.04197V17.3016C5.13795 17.3016 5.27822 17.2918 5.39635 17.2918C5.51448 17.2918 5.66214 17.3016 5.77781 17.3016Z" fill="#231F20"/>
<path d="M7.49342 16.8242L7.49834 16.8192V15.889C7.49834 15.6847 7.3556 15.6552 7.28177 15.6552H7.22763V15.5789C7.3433 15.5789 7.45897 15.5887 7.57463 15.5887C7.67554 15.5887 7.7789 15.5789 7.8798 15.5789V15.6552H7.84289C7.73706 15.6552 7.62139 15.6749 7.62139 15.9702V17.0998C7.62139 17.1859 7.62386 17.2721 7.63616 17.3508H7.54264L6.26537 15.9259V16.9472C6.26537 17.1638 6.30721 17.2376 6.49917 17.2376H6.541V17.3114C6.43518 17.3114 6.3269 17.3016 6.22107 17.3016C6.11525 17.3016 5.99466 17.3114 5.88391 17.3114V17.2376H5.91837C6.09064 17.2376 6.14232 17.1219 6.14232 16.9226V15.8767C6.14232 15.7364 6.02665 15.6527 5.9159 15.6527H5.88391V15.5764C5.97743 15.5764 6.07587 15.5863 6.16939 15.5863C6.24322 15.5863 6.31705 15.5764 6.39088 15.5764L7.49588 16.8217L7.49342 16.8242Z" fill="#231F20"/>
<path d="M7.63616 17.3607L7.53279 17.3558L6.27275 15.953V16.9473C6.27521 17.1638 6.30966 17.2254 6.49424 17.2278H6.54838V17.3238H6.53608C6.42779 17.3238 6.32197 17.314 6.21614 17.314C6.11032 17.314 5.99219 17.3238 5.87898 17.3238H5.86914V17.2278H5.9159C6.08079 17.2278 6.12755 17.122 6.13001 16.9227V15.8767C6.13001 15.7438 6.02172 15.6651 5.91344 15.6651H5.86914V15.5691H5.87898C5.97496 15.5691 6.07094 15.5789 6.16446 15.5789C6.23829 15.5789 6.30966 15.5691 6.39334 15.574L7.48357 16.8021V15.889C7.48357 15.6921 7.35068 15.6675 7.27685 15.6651H7.2104V15.5691H7.2227C7.34083 15.5691 7.45404 15.5789 7.56971 15.5789C7.67061 15.5789 7.77151 15.5691 7.87487 15.5691H7.88718V15.6651H7.83796C7.7346 15.6675 7.63123 15.6774 7.62631 15.9702V17.0998C7.62631 17.186 7.62631 17.2721 7.64108 17.3484V17.3607H7.63123H7.63616ZM7.54264 17.3386H7.62385C7.61155 17.2647 7.61155 17.1811 7.61155 17.0998V15.9702C7.61155 15.6725 7.73706 15.6454 7.84288 15.6454H7.86995V15.5912C7.77151 15.5912 7.67307 15.6011 7.57463 15.6011C7.46142 15.6011 7.35068 15.5912 7.23747 15.5912V15.6454H7.28177C7.35806 15.6454 7.50818 15.6798 7.50818 15.889V16.8267L7.5008 16.8316L7.49342 16.839L6.39088 15.5912C6.31705 15.5912 6.24568 15.6011 6.16939 15.6011C6.07833 15.6011 5.98481 15.5912 5.89375 15.5912V15.6454H5.9159C6.03157 15.6454 6.15216 15.734 6.15216 15.8792V16.9251C6.15216 17.1245 6.09556 17.25 5.91836 17.2524H5.89375V17.3066C6.00204 17.3066 6.11278 17.2967 6.22107 17.2967C6.32935 17.2967 6.42779 17.3066 6.53116 17.3066V17.2524H6.49916C6.30474 17.2524 6.25552 17.1663 6.25552 16.9497V15.8989L7.5451 17.341L7.54264 17.3386Z" fill="#231F20"/>
<path d="M8.25115 15.7045C8.06411 15.7045 8.05919 15.7488 8.01981 15.9309H7.94598C7.95583 15.862 7.96813 15.7931 7.97552 15.7193C7.98536 15.6503 7.99028 15.579 7.99028 15.5076H8.04935C8.06904 15.5814 8.13056 15.579 8.19947 15.579H9.4792C9.54565 15.579 9.60717 15.579 9.61456 15.5027L9.67362 15.5125C9.66378 15.579 9.65393 15.6454 9.64655 15.7143C9.64163 15.7808 9.64163 15.8497 9.64163 15.9161L9.5678 15.9432C9.56288 15.8522 9.55057 15.7045 9.38322 15.7045H8.97715V17.0261C8.97715 17.218 9.06329 17.2402 9.18388 17.2402H9.23064V17.314C9.13466 17.314 8.95993 17.3042 8.82703 17.3042C8.67937 17.3042 8.50464 17.314 8.4062 17.314V17.2402H8.45295C8.59077 17.2402 8.65968 17.2279 8.65968 17.0334V15.707H8.25361L8.25115 15.7045Z" fill="#231F20"/>
<path d="M9.23063 17.3237C9.13219 17.3237 8.95992 17.3138 8.82457 17.3138C8.6769 17.3138 8.50217 17.3237 8.40373 17.3237H8.39389V17.2277H8.45049C8.58831 17.2252 8.64245 17.2228 8.64491 17.0308V15.7142H8.24869V15.692H8.66706V17.0284C8.66706 17.2277 8.58585 17.2474 8.45049 17.2474H8.41357V17.2991C8.51202 17.2991 8.67936 17.2892 8.8221 17.2892C8.95254 17.2892 9.11743 17.2991 9.21587 17.2991V17.2474H9.17895C9.05836 17.2474 8.96238 17.2179 8.96238 17.0234V15.692H9.38076C9.54811 15.692 9.57026 15.8348 9.57518 15.9258L9.62932 15.9061C9.62932 15.8421 9.62932 15.7757 9.63424 15.7117C9.64163 15.6477 9.65147 15.5837 9.65885 15.5222L9.62194 15.5148C9.60963 15.5862 9.54072 15.5911 9.4792 15.5911H8.1847C8.12563 15.5911 8.06165 15.5887 8.0395 15.5197H7.99766C7.99766 15.5887 7.99274 15.6551 7.9829 15.7216C7.97551 15.7905 7.96567 15.8544 7.95582 15.9209H8.00997C8.04196 15.7486 8.06411 15.692 8.24869 15.6945V15.7166C8.06657 15.7216 8.06903 15.7511 8.02965 15.9357V15.943H7.93121V15.9307C7.94352 15.8618 7.95582 15.7929 7.96321 15.7191C7.97305 15.6502 7.97797 15.5813 7.97797 15.5099V15.5001H8.05673V15.5074C8.07641 15.569 8.12071 15.5714 8.1847 15.5714H9.4792C9.54811 15.5714 9.59979 15.5714 9.60225 15.505V15.4927H9.61455L9.68346 15.5025V15.5124C9.67362 15.5788 9.66377 15.6453 9.65639 15.7117C9.65147 15.7782 9.65147 15.8446 9.65147 15.911V15.9184H9.64409L9.55549 15.9529V15.9381C9.54811 15.8446 9.53826 15.7092 9.38076 15.7092H8.98453V17.0185C8.98453 17.2055 9.06082 17.2179 9.17895 17.2203H9.23556V17.3163H9.22571L9.23063 17.3237Z" fill="#231F20"/>
<path d="M9.75464 17.2376H9.78909C9.87769 17.2376 9.97367 17.2253 9.97367 17.0973V15.7979C9.97367 15.6674 9.88015 15.6576 9.78909 15.6576H9.75464V15.5813C9.90476 15.5813 10.1656 15.5911 10.3724 15.5911C10.5791 15.5911 10.84 15.5813 11.0073 15.5813C11.0024 15.6896 11.0073 15.852 11.0122 15.9628L10.9384 15.9824C10.9261 15.82 10.8966 15.692 10.6357 15.692H10.2911V16.3418H10.5865C10.7366 16.3418 10.7686 16.2581 10.7833 16.1227H10.8572C10.8523 16.2187 10.8498 16.3171 10.8498 16.4131C10.8498 16.5091 10.8523 16.6026 10.8572 16.6961L10.7833 16.7109C10.7686 16.5608 10.7612 16.4648 10.5889 16.4648H10.2911V17.0431C10.2911 17.2056 10.4339 17.2056 10.5938 17.2056C10.8916 17.2056 11.0245 17.1859 11.0984 16.9029L11.1673 16.9201C11.1353 17.053 11.1057 17.1834 11.0836 17.3139C10.9261 17.3139 10.6381 17.304 10.4167 17.304C10.1952 17.304 9.89738 17.3139 9.7571 17.3139V17.24L9.75464 17.2376Z" fill="#231F20"/>
<path d="M11.0818 17.3238C10.9218 17.3238 10.6363 17.3139 10.4148 17.3139C10.1933 17.3139 9.89555 17.3238 9.75527 17.3238H9.74542V17.2278H9.79218C9.88078 17.2278 9.96445 17.218 9.96445 17.0974V15.7979C9.96445 15.6774 9.88078 15.67 9.79218 15.6675H9.74542V15.5715H9.75527C9.90539 15.5715 10.1663 15.5814 10.373 15.5814C10.5797 15.5814 10.8381 15.5715 11.0079 15.5715H11.0202V15.5814C11.0202 15.6183 11.0178 15.6626 11.0178 15.7093C11.0178 15.7955 11.0202 15.889 11.0252 15.9604V15.9702H11.0178L10.9316 15.9948V15.9825C10.9169 15.8226 10.8947 15.7044 10.6388 15.702H10.3041V16.3295H10.5896C10.7323 16.3295 10.7569 16.2557 10.7741 16.1203V16.1105H10.8701V16.1203C10.8652 16.2163 10.8627 16.3148 10.8627 16.4107C10.8627 16.5067 10.8652 16.5978 10.8701 16.6938V16.7011H10.8603L10.7741 16.7208V16.7085C10.7569 16.5559 10.7544 16.4747 10.5896 16.4723H10.3016V17.0408C10.3016 17.1909 10.432 17.1909 10.5945 17.1909C10.8947 17.1909 11.0129 17.1737 11.0891 16.8956V16.8857H11.1014L11.1802 16.9054V16.9153C11.1457 17.0457 11.1162 17.1786 11.0941 17.309V17.3189H11.0842L11.0818 17.3238ZM11.0744 17.3016C11.0965 17.1761 11.1236 17.0506 11.1556 16.9251L11.1064 16.9128C11.0325 17.1909 10.8873 17.2155 10.5945 17.213C10.437 17.213 10.2819 17.213 10.2819 17.0408V16.4526H10.5896C10.7618 16.4526 10.7791 16.5559 10.7914 16.6962L10.8455 16.6839C10.8406 16.5929 10.8381 16.4993 10.8381 16.4083C10.8381 16.3172 10.8381 16.2212 10.8455 16.1277H10.7914C10.7766 16.2582 10.7372 16.3492 10.5846 16.3468H10.2795V15.6749H10.6363C10.8947 15.6749 10.9366 15.8078 10.9489 15.9628L11.003 15.9481C10.9981 15.8792 10.9956 15.7881 10.9956 15.7069C10.9956 15.6626 10.9956 15.6232 10.9956 15.5888C10.8283 15.5888 10.5748 15.5986 10.3705 15.5986C10.1663 15.5986 9.91523 15.5888 9.76265 15.5888V15.6429H9.78726C9.87586 15.6429 9.98168 15.6577 9.98168 15.7955V17.0949C9.98168 17.2327 9.87586 17.2475 9.78726 17.2475H9.76265V17.2992C9.90785 17.2992 10.1933 17.2893 10.4124 17.2893C10.6314 17.2893 10.9095 17.2992 11.0719 17.2992" fill="#231F20"/>
<path d="M11.5019 15.8446C11.5019 15.6625 11.4035 15.6576 11.3248 15.6576H11.2805V15.5813C11.3592 15.5813 11.5143 15.5911 11.6668 15.5911C11.8194 15.5911 11.9351 15.5813 12.0655 15.5813C12.3781 15.5813 12.6562 15.665 12.6562 16.0194C12.6562 16.2433 12.5085 16.3787 12.3116 16.4574L12.7374 17.0924C12.8063 17.1982 12.8555 17.2277 12.9786 17.2425V17.3163C12.8973 17.3163 12.8161 17.3065 12.7349 17.3065C12.6586 17.3065 12.5774 17.3163 12.5011 17.3163C12.3092 17.0653 12.1467 16.797 11.9843 16.5116H11.8219V17.0431C11.8219 17.2351 11.9105 17.2425 12.0237 17.2425H12.068V17.3163C11.9252 17.3163 11.7825 17.3065 11.6398 17.3065C11.5216 17.3065 11.4035 17.3163 11.2805 17.3163V17.2425H11.3248C11.4158 17.2425 11.5019 17.2007 11.5019 17.1096V15.8495V15.8446ZM11.8194 16.4205H11.94C12.1886 16.4205 12.3215 16.327 12.3215 16.0341C12.3215 15.8126 12.1787 15.6724 11.9597 15.6724C11.8859 15.6724 11.8539 15.6797 11.8194 15.6822V16.4205Z" fill="#231F20"/>
<path d="M12.9761 17.3238C12.8925 17.3238 12.8137 17.314 12.7325 17.314C12.6562 17.314 12.5775 17.3238 12.4913 17.3189C12.3018 17.0679 12.1394 16.8021 11.977 16.519H11.8293V17.0383C11.8293 17.2254 11.9056 17.2229 12.0213 17.2254H12.0779V17.3213H12.0656C11.9228 17.3213 11.7801 17.3115 11.6373 17.3115C11.5192 17.3115 11.4035 17.3213 11.278 17.3213H11.2682V17.2254H11.3248C11.4134 17.2254 11.4897 17.186 11.4897 17.1023V15.8423C11.4897 15.6675 11.4011 15.6675 11.3248 15.6651H11.2682V15.5691H11.278C11.3592 15.5691 11.5118 15.5789 11.6644 15.5789C11.817 15.5789 11.9327 15.5691 12.0631 15.5691C12.3756 15.5691 12.6636 15.6552 12.6636 16.017C12.6636 16.241 12.5159 16.3812 12.324 16.46L12.7399 17.0851C12.8088 17.1884 12.8531 17.2131 12.9737 17.2303H12.9835V17.3263H12.9737L12.9761 17.3238ZM11.8195 16.4994H11.9893V16.5043C12.1542 16.7898 12.3166 17.058 12.4987 17.3041C12.575 17.3041 12.6537 17.2943 12.7325 17.2943C12.8113 17.2943 12.8875 17.3017 12.9663 17.3041V17.25C12.8506 17.2352 12.7965 17.2008 12.7276 17.0974L12.2944 16.4501L12.3067 16.4452C12.5012 16.3689 12.6439 16.236 12.6439 16.017C12.6439 15.6725 12.3756 15.5937 12.0631 15.5912C11.9327 15.5912 11.8121 15.6011 11.6644 15.6011C11.5168 15.6011 11.3716 15.5912 11.2903 15.5912V15.6454H11.3248C11.4011 15.6454 11.5118 15.6577 11.5118 15.8447V17.1048C11.5118 17.2057 11.4183 17.25 11.3248 17.25H11.2903V17.3017C11.4109 17.3017 11.5217 17.2918 11.6398 17.2918C11.7801 17.2918 11.9179 17.3017 12.0557 17.3017V17.25H12.0213C11.9081 17.25 11.8072 17.2352 11.8072 17.0408V16.4994H11.817H11.8195ZM11.8195 16.4305H11.8096V15.67H11.8195C11.8539 15.6675 11.8859 15.6602 11.9622 15.6602C12.1886 15.6602 12.3363 15.8078 12.3363 16.0342C12.3363 16.3295 12.1935 16.4305 11.9425 16.4305H11.8219H11.8195ZM11.94 16.4083C12.1862 16.4083 12.3092 16.3197 12.3117 16.0318C12.3117 15.8152 12.1763 15.6798 11.9597 15.6798C11.8933 15.6798 11.8613 15.6848 11.8293 15.6897V16.4083H11.94Z" fill="#231F20"/>
<path d="M14.6599 16.8242L14.6648 16.8192V15.889C14.6648 15.6847 14.5246 15.6552 14.4483 15.6552H14.3941V15.5789C14.5123 15.5789 14.6255 15.5887 14.7411 15.5887C14.842 15.5887 14.9454 15.5789 15.0463 15.5789V15.6552H15.0094C14.906 15.6552 14.7879 15.6749 14.7879 15.9702V17.0998C14.7879 17.1859 14.7879 17.2721 14.8027 17.3508H14.7091L13.4319 15.9259V16.9472C13.4319 17.1638 13.4737 17.2376 13.6657 17.2376H13.7075V17.3114C13.5992 17.3114 13.4934 17.3016 13.3876 17.3016C13.2818 17.3016 13.1612 17.3114 13.0504 17.3114V17.2376H13.0849C13.2571 17.2376 13.3088 17.1219 13.3088 16.9226V15.8767C13.3088 15.7364 13.1956 15.6527 13.0824 15.6527H13.0504V15.5764C13.1439 15.5764 13.2424 15.5863 13.3359 15.5863C13.4097 15.5863 13.4811 15.5764 13.5574 15.5764L14.6624 16.8217L14.6599 16.8242Z" fill="#231F20"/>
<path d="M14.8051 17.3607L14.7042 17.3558L13.4442 15.953V16.9473C13.4467 17.1639 13.4811 17.2254 13.6681 17.2278H13.7198V17.3238H13.71C13.6017 17.3238 13.4959 17.314 13.3901 17.314C13.2842 17.314 13.1636 17.3238 13.0529 17.3238H13.0406V17.2278H13.0873C13.2522 17.2278 13.299 17.122 13.3015 16.9227V15.8767C13.3015 15.7438 13.1932 15.6651 13.0873 15.6651H13.043V15.5691H13.0554C13.1489 15.5691 13.2473 15.579 13.3408 15.579C13.4147 15.579 13.486 15.5691 13.5697 15.5716L14.6599 16.7996V15.8866C14.6599 15.6897 14.527 15.6651 14.4557 15.6626H14.3892V15.5667H14.3991C14.5172 15.5667 14.6304 15.5765 14.7461 15.5765C14.847 15.5765 14.9479 15.5667 15.0512 15.5667H15.0611V15.6626H15.0143C14.911 15.6626 14.8076 15.6749 14.8027 15.9678V17.0974C14.8027 17.1835 14.8027 17.2697 14.8174 17.346V17.3583H14.8076L14.8051 17.3607ZM14.7116 17.3386H14.7928C14.783 17.2648 14.7805 17.1811 14.7805 17.0999V15.9703C14.7805 15.6725 14.906 15.6454 15.0119 15.6454H15.0389V15.5913C14.9405 15.5913 14.8421 15.6011 14.7436 15.6011C14.6304 15.6011 14.5197 15.5913 14.4065 15.5913V15.6454H14.4508C14.527 15.6454 14.6772 15.6799 14.6772 15.889V16.8267L14.6698 16.8316L14.6624 16.839L13.5574 15.5913C13.4836 15.5913 13.4122 15.6011 13.3359 15.6011C13.2449 15.6011 13.1513 15.5913 13.0603 15.5913V15.6454H13.0824C13.1981 15.6454 13.3187 15.734 13.3187 15.8792V16.9251C13.3187 17.1245 13.2621 17.25 13.0849 17.2525H13.0603V17.3041C13.1686 17.3041 13.2793 17.2943 13.3876 17.2943C13.4959 17.2943 13.5943 17.3041 13.6977 17.3041V17.2525H13.6657C13.4713 17.2525 13.422 17.1663 13.4196 16.9497V15.8989L14.7092 17.341L14.7116 17.3386Z" fill="#231F20"/>
<path d="M15.4472 16.9595C15.4226 17.0431 15.3906 17.1096 15.3906 17.1539C15.3906 17.2277 15.4965 17.24 15.5777 17.24H15.6048V17.3139C15.5038 17.3089 15.4029 17.304 15.3045 17.304C15.2159 17.304 15.1273 17.3089 15.0363 17.3139V17.24H15.051C15.147 17.24 15.2307 17.1834 15.2676 17.0776L15.6663 15.9381C15.6983 15.8471 15.7426 15.7216 15.7573 15.6305C15.8361 15.6034 15.937 15.5542 15.9837 15.5247C15.9911 15.5222 15.9961 15.5198 16.0034 15.5198C16.0108 15.5198 16.0157 15.5198 16.0207 15.5272C16.028 15.5468 16.0354 15.569 16.0428 15.5887L16.4981 16.8881C16.5276 16.9742 16.5572 17.0678 16.5892 17.1416C16.6187 17.2105 16.6704 17.24 16.7541 17.24H16.7688V17.3139C16.6581 17.3089 16.5449 17.304 16.4267 17.304C16.3086 17.304 16.1806 17.3089 16.0551 17.3139V17.24H16.0822C16.1388 17.24 16.2348 17.2302 16.2348 17.1687C16.2348 17.1367 16.2126 17.0702 16.1856 16.989L16.0896 16.7011H15.526L15.4472 16.9595ZM15.8115 15.8594H15.8066L15.5752 16.5632H16.0404L15.8115 15.8594Z" fill="#231F20"/>
<path d="M16.7688 17.3237C16.658 17.3188 16.5473 17.3139 16.4267 17.3139C16.3061 17.3139 16.1806 17.3188 16.0551 17.3237H16.0428V17.3139V17.2278H16.0821C16.1387 17.2278 16.2249 17.2155 16.2249 17.1687C16.2249 17.1392 16.2027 17.0727 16.1757 16.994L16.0821 16.7134H15.5333L15.457 16.9644C15.4324 17.0506 15.4029 17.1146 15.4029 17.1539C15.4029 17.2155 15.4964 17.2302 15.5801 17.2302H15.617V17.3287H15.6047C15.5063 17.3237 15.4029 17.3188 15.3045 17.3188C15.2159 17.3188 15.1248 17.3237 15.0362 17.3287H15.0264V17.3188V17.2327H15.051C15.1445 17.2327 15.2208 17.1785 15.2552 17.0801L15.6539 15.9407C15.6859 15.8496 15.7302 15.7241 15.7524 15.6256C15.8311 15.5986 15.9296 15.5493 15.9788 15.5198C15.9862 15.5198 15.9935 15.5149 16.0034 15.5149C16.0083 15.5149 16.0231 15.5149 16.0305 15.5297C16.0378 15.5493 16.0452 15.5715 16.0526 15.5912L16.5104 16.8906C16.5399 16.9767 16.5694 17.0678 16.6014 17.1416C16.631 17.2081 16.6753 17.2351 16.7565 17.2351H16.7811V17.3336H16.7688V17.3237ZM16.0674 17.3016C16.1904 17.2967 16.311 17.2918 16.4292 17.2918C16.5473 17.2918 16.6531 17.2967 16.7614 17.3016V17.2499H16.7565C16.6728 17.2499 16.6137 17.2155 16.5817 17.1441C16.5497 17.0678 16.5202 16.9767 16.4907 16.8906L16.0329 15.5912C16.0255 15.5715 16.0182 15.5493 16.0108 15.5321C16.0108 15.5321 16.0108 15.5321 16.0059 15.5321H16.0009C16.0009 15.5321 15.9935 15.5321 15.9862 15.5346C15.9369 15.5666 15.8385 15.6133 15.7647 15.633C15.7499 15.7265 15.7056 15.8521 15.6736 15.9431L15.2774 17.0826C15.2405 17.1909 15.1519 17.2524 15.051 17.2524H15.0461V17.3041C15.1297 17.2991 15.2159 17.2942 15.3045 17.2942C15.4004 17.2942 15.4989 17.2991 15.5924 17.3041V17.2524H15.5776C15.4964 17.2524 15.3832 17.2425 15.3808 17.1539C15.3808 17.1047 15.4103 17.0407 15.4349 16.9571L15.5161 16.6913H16.0945L16.1929 16.9866C16.22 17.0653 16.2446 17.1318 16.2446 17.1687C16.2397 17.245 16.1363 17.2499 16.0797 17.2524H16.0625V17.3041L16.0674 17.3016ZM15.5579 16.5731L15.7967 15.8496H15.809H15.8164L16.0526 16.5731H15.5579ZM15.5875 16.551H16.0231L15.8065 15.8865L15.5875 16.551Z" fill="#231F20"/>
<path d="M16.8795 15.7045C16.6925 15.7045 16.6851 15.7488 16.6482 15.9309H16.5743C16.5842 15.862 16.5965 15.7931 16.6039 15.7193C16.6137 15.6503 16.6186 15.579 16.6186 15.5076H16.6777C16.6974 15.5814 16.7589 15.579 16.8278 15.579H18.1076C18.174 15.579 18.2355 15.579 18.2405 15.5027L18.2995 15.5125C18.2897 15.579 18.2798 15.6454 18.2724 15.7143C18.2675 15.7808 18.2675 15.8497 18.2675 15.9161L18.1937 15.9432C18.1888 15.8522 18.1765 15.7045 18.0116 15.7045H17.6055V17.0261C17.6055 17.218 17.6916 17.2402 17.8122 17.2402H17.859V17.314C17.763 17.314 17.5883 17.3042 17.4554 17.3042C17.3077 17.3042 17.133 17.314 17.0346 17.314V17.2402H17.0813C17.2191 17.2402 17.288 17.2279 17.288 17.0334V15.707H16.882L16.8795 15.7045Z" fill="#231F20"/>
<path d="M17.8566 17.3237C17.7606 17.3237 17.5859 17.3138 17.453 17.3138C17.3053 17.3138 17.1306 17.3237 17.0321 17.3237H17.0223V17.2277H17.0789C17.2167 17.2252 17.2708 17.2228 17.2733 17.0308V15.7142H16.8771V15.692H17.2955V17.0284C17.2955 17.2277 17.2167 17.2474 17.0789 17.2474H17.042V17.2991C17.1404 17.2991 17.3078 17.2892 17.4505 17.2892C17.5809 17.2892 17.7458 17.2991 17.8443 17.2991V17.2474H17.8073C17.6868 17.2474 17.5908 17.2179 17.5908 17.0234V15.692H18.0092C18.1765 15.692 18.1987 15.8348 18.2036 15.9258L18.2577 15.9061C18.2577 15.8421 18.2577 15.7757 18.2626 15.7117C18.27 15.6477 18.2799 15.5837 18.2872 15.5222L18.2503 15.5148C18.238 15.5862 18.1691 15.5911 18.1051 15.5911H16.8106C16.7516 15.5911 16.69 15.5887 16.6654 15.5173H16.6236C16.6236 15.5862 16.6187 15.6526 16.6088 15.7191C16.6014 15.788 16.5891 15.852 16.5818 15.9184H16.6359C16.6679 15.7462 16.69 15.6896 16.8746 15.692V15.7142C16.69 15.7166 16.695 15.7486 16.6531 15.9332V15.9406H16.5547V15.9283C16.567 15.8594 16.5793 15.7905 16.5867 15.7191C16.5965 15.6502 16.6014 15.5813 16.6014 15.5099V15.5001H16.6802V15.5074C16.6999 15.569 16.7466 15.5714 16.8082 15.5714H18.1027C18.1716 15.5714 18.2208 15.5714 18.2257 15.505V15.4927H18.238L18.3094 15.5025V15.5124C18.2971 15.5788 18.2872 15.6453 18.2799 15.7117C18.2749 15.7782 18.2749 15.8446 18.2749 15.911V15.9184H18.2676L18.179 15.9529V15.9381C18.1716 15.8446 18.1617 15.7092 18.0067 15.7092H17.6105V17.0185C17.6105 17.2055 17.6868 17.2179 17.8049 17.2203H17.864V17.3163H17.8541L17.8566 17.3237Z" fill="#231F20"/>
<path d="M18.3929 17.2376H18.4273C18.5184 17.2376 18.6119 17.2253 18.6119 17.0973V15.7979C18.6119 15.6674 18.5184 15.6576 18.4273 15.6576H18.3929V15.5813C18.4889 15.5813 18.639 15.5911 18.7596 15.5911C18.8802 15.5911 19.0327 15.5813 19.1509 15.5813V15.6576H19.1164C19.0254 15.6576 18.9318 15.6699 18.9318 15.7979V17.0973C18.9318 17.2277 19.0254 17.2376 19.1164 17.2376H19.1509V17.3114C19.0303 17.3114 18.8826 17.3016 18.7596 17.3016C18.6365 17.3016 18.4913 17.3114 18.3953 17.3114V17.2376H18.3929Z" fill="#231F20"/>
<path d="M19.1515 17.3238C19.0309 17.3238 18.8832 17.3139 18.7602 17.3139C18.6371 17.3139 18.4919 17.3238 18.396 17.3238H18.3861V17.2278H18.4304C18.5215 17.2278 18.6027 17.218 18.6027 17.0974V15.7979C18.6027 15.6774 18.5215 15.6675 18.4304 15.6675H18.3861V15.5715H18.396C18.4919 15.5715 18.6421 15.5814 18.7626 15.5814C18.8832 15.5814 19.0358 15.5715 19.1539 15.5715H19.1638V15.6675H19.1195C19.0284 15.6675 18.9472 15.6774 18.9472 15.7979V17.0974C18.9472 17.218 19.0309 17.2278 19.1195 17.2278H19.1638V17.3238H19.1539H19.1515ZM19.1392 17.3016V17.25H19.117C19.0284 17.25 18.9226 17.2352 18.9226 17.0974V15.7979C18.9226 15.6601 19.0284 15.6454 19.117 15.6454H19.1392V15.5912C19.0235 15.5912 18.8808 15.6011 18.7602 15.6011C18.6396 15.6011 18.4993 15.5912 18.4033 15.5912V15.6454H18.4279C18.5165 15.6454 18.6224 15.6601 18.6224 15.7979V17.0974C18.6224 17.2352 18.5165 17.25 18.4279 17.25H18.4033V17.3016C18.4993 17.3016 18.6396 17.2918 18.7577 17.2918C18.8759 17.2918 19.0211 17.3016 19.1392 17.3016Z" fill="#231F20"/>
<path d="M20.1405 15.5444C20.6696 15.5444 21.0904 15.8718 21.0904 16.4009C21.0904 16.9718 20.6819 17.3508 20.1528 17.3508C19.6237 17.3508 19.225 16.994 19.225 16.4599C19.225 15.9259 19.6237 15.5444 20.1405 15.5444ZM20.1774 17.2425C20.6598 17.2425 20.7434 16.8168 20.7434 16.455C20.7434 16.0932 20.549 15.6527 20.1356 15.6527C19.7024 15.6527 19.572 16.0391 19.572 16.3713C19.572 16.8168 19.7762 17.2401 20.1774 17.2401" fill="#231F20"/>
<path d="M19.2151 16.46C19.2151 15.9383 19.6212 15.5347 20.143 15.5322V15.5544C19.6311 15.5544 19.2373 15.9481 19.2373 16.46C19.2373 16.9867 19.6335 17.3411 20.1553 17.3411C20.6795 17.3411 21.0831 16.967 21.0831 16.401C21.0831 15.8792 20.6672 15.5568 20.143 15.5568V15.5347C20.677 15.5347 21.1028 15.8669 21.1052 16.401C21.1052 16.9768 20.6918 17.3608 20.1577 17.3632C19.6261 17.3632 19.2201 17.0015 19.2176 16.46M19.5622 16.3714C19.5622 16.0367 19.695 15.6405 20.1356 15.6405C20.5564 15.6405 20.7533 16.0884 20.7533 16.4551C20.7533 16.8169 20.6672 17.2525 20.1774 17.2525V17.2303C20.6499 17.2303 20.7311 16.8169 20.7336 16.4551C20.7336 16.0958 20.5392 15.6651 20.1356 15.6627C19.7098 15.6627 19.5843 16.0417 19.5818 16.3714C19.5818 16.8144 19.7836 17.2279 20.1774 17.2303V17.2525C19.7664 17.2525 19.5622 16.8193 19.5622 16.3739" fill="#231F20"/>
<path d="M22.7662 16.8242L22.7711 16.8192V15.889C22.7711 15.6847 22.6284 15.6552 22.5545 15.6552H22.5004V15.5789C22.6161 15.5789 22.7317 15.5887 22.8474 15.5887C22.9508 15.5887 23.0517 15.5789 23.1526 15.5789V15.6552H23.1157C23.0098 15.6552 22.8942 15.6749 22.8942 15.9702V17.0998C22.8942 17.1859 22.8966 17.2721 22.9089 17.3508H22.8154L21.5381 15.9259V16.9472C21.5381 17.1638 21.58 17.2376 21.7719 17.2376H21.8138V17.3114C21.7079 17.3114 21.5997 17.3016 21.4938 17.3016C21.388 17.3016 21.2674 17.3114 21.1567 17.3114V17.2376H21.1911C21.3634 17.2376 21.4151 17.1219 21.4151 16.9226V15.8767C21.4151 15.7364 21.3019 15.6527 21.1887 15.6527H21.1567V15.5764C21.2502 15.5764 21.3486 15.5863 21.4422 15.5863C21.516 15.5863 21.5874 15.5764 21.6636 15.5764L22.7686 16.8217L22.7662 16.8242Z" fill="#231F20"/>
<path d="M22.9089 17.3607L22.8055 17.3558L21.5455 15.953V16.9473C21.548 17.1638 21.5824 17.2254 21.767 17.2254H21.8211V17.3213H21.8113C21.703 17.3213 21.5972 17.3115 21.4914 17.3115C21.3855 17.3115 21.2649 17.3213 21.1542 17.3213H21.1443V17.2254H21.1886C21.3535 17.2254 21.4003 17.1195 21.4003 16.9227V15.8767C21.4003 15.7438 21.292 15.6651 21.1862 15.6651H21.1443V15.5691H21.1542C21.2502 15.5691 21.3462 15.5789 21.4397 15.5789C21.5135 15.5789 21.5849 15.5691 21.6685 15.574L22.7588 16.8021V15.889C22.7588 15.6921 22.6259 15.6675 22.5521 15.6651H22.4881V15.5691H22.4979C22.6136 15.5691 22.7292 15.5789 22.8449 15.5789C22.9483 15.5789 23.0467 15.5691 23.1501 15.5691H23.1599V15.6651H23.1132C23.0123 15.6675 22.9064 15.6774 22.904 15.9702V17.0998C22.904 17.186 22.904 17.2721 22.9187 17.3484V17.3607H22.9089ZM22.8129 17.3386H22.8941C22.8843 17.2647 22.8818 17.1811 22.8818 17.0998V15.9702C22.8818 15.6725 23.0073 15.6454 23.1132 15.6454H23.1402V15.5912C23.0418 15.5912 22.9434 15.6011 22.8449 15.6011C22.7317 15.6011 22.621 15.5912 22.5078 15.5912V15.6454H22.5521C22.6283 15.6454 22.7785 15.6798 22.7785 15.889V16.8267L22.7711 16.8316L22.7637 16.839L21.6587 15.5912C21.5849 15.5912 21.5135 15.6011 21.4372 15.6011C21.3462 15.6011 21.2526 15.5912 21.1616 15.5912V15.6454H21.1837C21.3019 15.6454 21.42 15.734 21.42 15.8792V16.9251C21.42 17.1245 21.3634 17.25 21.1862 17.2524H21.1616V17.3041C21.2699 17.3041 21.3806 17.2943 21.4889 17.2943C21.5923 17.2943 21.6956 17.3041 21.799 17.3041V17.2524H21.767C21.5726 17.2524 21.5233 17.1663 21.5233 16.9497V15.8989L22.8129 17.341V17.3386Z" fill="#231F20"/>
<path d="M23.551 16.9595C23.5264 17.0431 23.4969 17.1096 23.4969 17.1539C23.4969 17.2277 23.6027 17.24 23.6814 17.24H23.7085V17.3139C23.6101 17.3089 23.5067 17.304 23.4083 17.304C23.3172 17.304 23.2286 17.3089 23.14 17.3139V17.24H23.1548C23.2532 17.24 23.3344 17.1834 23.3714 17.0776L23.77 15.9381C23.802 15.8471 23.8463 15.7216 23.8611 15.6305C23.9398 15.6034 24.0407 15.5542 24.0875 15.5247C24.0949 15.5222 24.0998 15.5198 24.1072 15.5198C24.1146 15.5198 24.1195 15.5198 24.1244 15.5272C24.1318 15.5468 24.1392 15.569 24.1466 15.5887L24.6019 16.8881C24.6314 16.9742 24.6609 17.0678 24.6929 17.1416C24.7225 17.2105 24.7741 17.24 24.8578 17.24H24.8726V17.3139C24.7618 17.3089 24.6486 17.304 24.5305 17.304C24.4124 17.304 24.2844 17.3089 24.1589 17.3139V17.24H24.1859C24.2426 17.24 24.341 17.2302 24.341 17.1687C24.341 17.1367 24.3188 17.0702 24.2918 16.989L24.1958 16.7011H23.6322L23.551 16.9595ZM23.9128 15.8594H23.9079L23.6765 16.5632H24.1417L23.9128 15.8594Z" fill="#231F20"/>
<path d="M24.8732 17.3238C24.7624 17.3188 24.6492 17.3139 24.5311 17.3139C24.413 17.3139 24.285 17.3188 24.1595 17.3238H24.1496V17.3139V17.2302H24.1866C24.2432 17.2302 24.3293 17.2155 24.3318 17.1687C24.3318 17.1392 24.3096 17.0727 24.2825 16.994L24.189 16.7134H23.6402L23.5639 16.9645C23.5393 17.0506 23.5098 17.1146 23.5098 17.154C23.5098 17.2155 23.6033 17.2302 23.6845 17.2302H23.7239V17.3262H23.7116C23.6131 17.3213 23.5098 17.3164 23.4113 17.3164C23.3227 17.3164 23.2341 17.3213 23.1431 17.3262H23.1332V17.3164V17.2327H23.1578C23.2514 17.2327 23.3277 17.1786 23.3646 17.0777L23.7608 15.9382C23.7928 15.8471 23.8371 15.7216 23.8592 15.6232C23.938 15.5961 24.0364 15.5469 24.0857 15.5174C24.093 15.5174 24.1004 15.5125 24.1103 15.5125C24.1176 15.5125 24.13 15.5125 24.1373 15.5272C24.1447 15.5469 24.1521 15.5691 24.1595 15.5887L24.6172 16.8882C24.6468 16.9743 24.6763 17.0654 24.7083 17.1392C24.7378 17.2056 24.7821 17.2302 24.8609 17.2327H24.8855V17.3287H24.8756L24.8732 17.3238ZM24.1693 17.3016C24.2924 17.2967 24.413 17.2918 24.5311 17.2918C24.6492 17.2918 24.7551 17.2967 24.8633 17.3016V17.2499H24.8584C24.7747 17.2499 24.7157 17.2155 24.6837 17.1441C24.6492 17.0678 24.6222 16.9768 24.5926 16.8906L24.1373 15.5912C24.13 15.5715 24.1226 15.5494 24.1152 15.5321C24.1152 15.5321 24.1135 15.5313 24.1103 15.5297H24.1053C24.1053 15.5297 24.098 15.5297 24.0906 15.5321C24.0414 15.5617 23.9429 15.6134 23.8691 15.6306C23.8543 15.7241 23.81 15.8496 23.778 15.9407L23.3793 17.0801C23.3424 17.1884 23.2563 17.2499 23.1529 17.2499H23.148V17.3016C23.2341 17.2967 23.3203 17.2918 23.4064 17.2918C23.5024 17.2918 23.6008 17.2967 23.6968 17.3016V17.2499H23.6796C23.5984 17.2499 23.4852 17.2401 23.4827 17.1515C23.4827 17.1023 23.5147 17.0383 23.5393 16.9546L23.6205 16.6888H24.1989L24.2973 16.9841C24.3244 17.0629 24.3465 17.1293 24.3465 17.1663C24.3441 17.2426 24.2382 17.2475 24.1816 17.2499H24.1644V17.3016H24.1693ZM23.6624 16.5707L23.9011 15.8472H23.9134H23.9208L24.1546 16.5707H23.6599H23.6624ZM23.6944 16.551H24.13L23.9134 15.8865L23.6944 16.551Z" fill="#231F20"/>
<path d="M25.5006 17.0702C25.5006 17.1686 25.5695 17.1982 25.6483 17.2105C25.7492 17.2179 25.8624 17.2179 25.9756 17.2056C26.0789 17.1932 26.17 17.1342 26.2143 17.0702C26.2537 17.0161 26.2758 16.9471 26.2906 16.8905H26.362C26.3349 17.0333 26.3004 17.1711 26.2684 17.3138C26.0494 17.3138 25.8304 17.304 25.6138 17.304C25.3972 17.304 25.1757 17.3138 24.9592 17.3138V17.24H24.9936C25.0847 17.24 25.1807 17.2277 25.1807 17.0751V15.8003C25.1807 15.6699 25.0847 15.66 24.9936 15.66H24.9592V15.5837C25.0896 15.5837 25.22 15.5936 25.3505 15.5936C25.4809 15.5936 25.6015 15.5837 25.7295 15.5837V15.66H25.6679C25.5744 15.66 25.5006 15.66 25.5006 15.7954V17.0751V17.0702Z" fill="#231F20"/>
<path d="M26.2709 17.3238C26.0519 17.3238 25.8329 17.314 25.6163 17.314C25.3997 17.314 25.1782 17.3238 24.9592 17.3238H24.9493V17.2278H24.9936C25.0847 17.2278 25.1684 17.218 25.1708 17.0703V15.7955C25.1708 15.6749 25.0847 15.6675 24.9936 15.6651H24.9493V15.5691H24.9592C25.0921 15.5691 25.2201 15.5789 25.3505 15.5789C25.4809 15.5789 25.6015 15.5691 25.7295 15.5691H25.7393V15.6651H25.668C25.572 15.6675 25.5105 15.6651 25.5105 15.7881V17.0679C25.5105 17.1614 25.572 17.186 25.6507 17.1958C25.695 17.1983 25.7393 17.2008 25.7886 17.2008C25.8501 17.2008 25.9116 17.1983 25.978 17.1909C26.079 17.1786 26.1651 17.122 26.2094 17.0605C26.2488 17.0063 26.2685 16.9399 26.2832 16.8857V16.8784H26.3792V16.8931C26.3497 17.0359 26.3152 17.1737 26.2857 17.3164V17.3238H26.2758H26.2709ZM26.2635 17.3017C26.2931 17.1663 26.3251 17.0359 26.3497 16.9005H26.298C26.2832 16.9546 26.2611 17.0211 26.2217 17.0752C26.1749 17.1392 26.0839 17.2008 25.9756 17.2131C25.9116 17.2204 25.8452 17.2229 25.7861 17.2229C25.7369 17.2229 25.6901 17.2229 25.6458 17.218C25.5646 17.2081 25.4858 17.1737 25.4883 17.0679V15.7881C25.4883 15.6503 25.5744 15.6429 25.668 15.6429H25.7196V15.5888C25.5966 15.5888 25.476 15.5986 25.3529 15.5986C25.2299 15.5986 25.097 15.5888 24.9715 15.5888V15.6429H24.9961C25.0847 15.6429 25.193 15.6577 25.193 15.7955V17.0703C25.193 17.2303 25.0847 17.2475 24.9961 17.2475H24.9715V17.2992C25.1856 17.2992 25.3997 17.2893 25.6163 17.2893C25.8329 17.2893 26.047 17.2992 26.2635 17.2992" fill="#231F20"/>
<path d="M26.3326 15.51C26.4827 15.51 26.5935 15.6257 26.5935 15.7709C26.5935 15.9161 26.4827 16.0317 26.3326 16.0317C26.1825 16.0317 26.0717 15.9185 26.0717 15.7709C26.0717 15.6232 26.1849 15.51 26.3326 15.51ZM26.3326 15.985C26.4507 15.985 26.5393 15.8865 26.5393 15.7733C26.5393 15.6601 26.4507 15.5592 26.3326 15.5592C26.2145 15.5592 26.1259 15.6601 26.1259 15.7733C26.1259 15.8865 26.2145 15.985 26.3326 15.985ZM26.2046 15.9112V15.8989C26.2366 15.8939 26.2415 15.8964 26.2415 15.8742V15.6823C26.2415 15.6552 26.2391 15.6454 26.2046 15.6478V15.6331H26.34C26.3843 15.6331 26.4286 15.6552 26.4286 15.702C26.4286 15.7413 26.404 15.7684 26.367 15.7807L26.4089 15.8398C26.4286 15.8669 26.4532 15.8915 26.4679 15.9013V15.9087H26.4163C26.3916 15.9087 26.3695 15.857 26.3227 15.7881H26.2932V15.8742C26.2932 15.8915 26.2981 15.8915 26.3301 15.8939V15.9062H26.2046V15.9112ZM26.2932 15.7733H26.3227C26.3572 15.7733 26.372 15.7487 26.372 15.7069C26.372 15.6651 26.3473 15.6503 26.3203 15.6503H26.2907V15.7733H26.2932Z" fill="#231F20"/>
<path d="M10.8353 6.75128C10.8353 4.42807 12.7179 2.54785 15.0387 2.54785C17.3594 2.54785 19.2421 4.43054 19.2421 6.75128C19.2421 9.07203 17.3594 10.9547 15.0387 10.9547C12.7179 10.9547 10.8353 9.07203 10.8353 6.75128Z" fill="white"/>
<path d="M15.0461 11.0311C12.6368 11.0434 10.6532 9.08935 10.6532 6.71446C10.6532 4.11808 12.6368 2.32153 15.0461 2.32153H16.1757C18.5555 2.32153 20.7286 4.11562 20.7286 6.71446C20.7286 9.08935 18.5555 11.0311 16.1757 11.0311H15.0461ZM15.056 2.68084C12.8534 2.68084 11.0691 4.46509 11.0691 6.6677C11.0691 8.87032 12.8534 10.6546 15.056 10.6546C17.2586 10.6546 19.0428 8.87032 19.0428 6.6677C19.0428 4.46509 17.2586 2.68084 15.056 2.68084ZM14.1503 9.02536V4.31004C13.2028 4.67427 12.531 5.59223 12.5285 6.6677C12.531 7.74317 13.2028 8.66113 14.1503 9.02536ZM17.5834 6.6677C17.5834 5.58977 16.9091 4.67181 15.9592 4.31004V9.02782C16.9067 8.66359 17.581 7.74563 17.5834 6.67016" fill="#0B4F94"/>
<path d="M29.0133 1H2.25956C1.64793 1 1.1521 1.49583 1.1521 2.10746V17.8925C1.1521 18.5041 1.64793 18.9999 2.25956 18.9999H29.0133C29.625 18.9999 30.1208 18.5041 30.1208 17.8925V2.10746C30.1208 1.49583 29.625 1 29.0133 1Z" stroke="#424242" stroke-opacity="0.258824" stroke-width="0.369154" stroke-linejoin="round"/>
</svg>
