<svg width="24" height="24" viewBox="0 0 24 24" fill="none" xmlns="http://www.w3.org/2000/svg">
<mask id="mask0_375_6188" style="mask-type:alpha" maskUnits="userSpaceOnUse" x="0" y="0" width="24" height="24">
<rect width="24" height="24" fill="#D9D9D9"/>
</mask>
<g mask="url(#mask0_375_6188)">
<path fill-rule="evenodd" clip-rule="evenodd" d="M14.9161 3.65002C16.109 2.78333 17.7243 2.78333 18.9172 3.65002C19.1357 3.80874 19.3469 4.02015 19.6108 4.28428C19.628 4.30156 19.6455 4.31906 19.6632 4.33678C19.681 4.35451 19.6985 4.372 19.7157 4.38926C19.9799 4.65314 20.1913 4.86434 20.35 5.08281C21.2167 6.27571 21.2167 7.89101 20.35 9.08391C20.1913 9.30238 19.9799 9.51358 19.7157 9.77747C19.6984 9.79472 19.6809 9.81221 19.6632 9.82994L10.2167 19.2765C10.1979 19.2953 10.1793 19.3139 10.1609 19.3323C9.85694 19.6366 9.6081 19.8858 9.31304 20.0792C9.05309 20.2496 8.77104 20.3836 8.47473 20.4774C8.13838 20.5839 7.78804 20.6194 7.36008 20.6628C7.3342 20.6654 7.30804 20.6681 7.28158 20.6708L4.10139 20.9948C3.80234 21.0253 3.50545 20.9197 3.2929 20.7071C3.08035 20.4946 2.97468 20.1977 3.00516 19.8986L3.32925 16.7184C3.33195 16.692 3.3346 16.6658 3.33722 16.6399C3.38058 16.212 3.41607 15.8616 3.52259 15.5253C3.61643 15.229 3.75042 14.9469 3.92082 14.687C4.11424 14.3919 4.36338 14.1431 4.66772 13.8391C4.68613 13.8207 4.70474 13.8021 4.72355 13.7833L14.1701 4.33678C14.1878 4.31906 14.2053 4.30157 14.2225 4.2843C14.4864 4.02016 14.6976 3.80875 14.9161 3.65002ZM17.7416 5.26805C17.2497 4.91065 16.5836 4.91065 16.0917 5.26805C16.0203 5.31988 15.932 5.40352 15.6116 5.72372L18.2763 8.38843C18.5965 8.06799 18.6801 7.97967 18.732 7.90834C19.0894 7.41642 19.0894 6.7503 18.732 6.25838C18.6787 6.18507 18.5918 6.0938 18.249 5.751C17.9062 5.4082 17.8149 5.32132 17.7416 5.26805ZM16.8621 9.80265L14.1974 7.13793L6.13776 15.1975C5.75043 15.5849 5.65964 15.6825 5.59347 15.7834C5.52321 15.8906 5.46795 16.0069 5.42925 16.1291C5.39282 16.2442 5.37448 16.3763 5.31895 16.9212L5.11925 18.8808L7.07881 18.6811C7.62376 18.6255 7.75583 18.6072 7.87088 18.5708C7.99307 18.5321 8.10938 18.4768 8.21657 18.4065C8.31751 18.3404 8.41515 18.2496 8.80248 17.8622L16.8621 9.80265Z" fill="#1B1C1D"/>
</g>
</svg>
