<svg width="33" height="24" viewBox="0 0 33 24" fill="none" xmlns="http://www.w3.org/2000/svg">
<path d="M2.79297 3.92886V20.076C2.79297 20.4177 3.06971 20.6944 3.41142 20.6944H20.5572C25.358 20.6944 29.2492 16.8032 29.2492 12.0024C29.2492 7.2016 25.358 3.3104 20.5572 3.3104H3.41142C3.06971 3.3104 2.79297 3.58714 2.79297 3.92886Z" fill="white"/>
<path d="M4.8813 10.0484H3.78638V13.8746H4.87649C5.45644 13.8746 5.87516 13.7374 6.24094 13.4318C6.6765 13.0708 6.93639 12.527 6.93639 11.9639C6.93639 10.8353 6.09414 10.0484 4.88371 10.0484H4.8813ZM5.75243 12.9216C5.51901 13.1334 5.21339 13.2249 4.7321 13.2249H4.53237V10.6957H4.7321C5.21339 10.6957 5.50698 10.7823 5.75243 11.0061C6.00992 11.2347 6.16633 11.5909 6.16633 11.9591C6.16633 12.3273 6.01233 12.693 5.75243 12.924V12.9216Z" fill="#261F20"/>
<path d="M8.02358 10.0484H7.27759V13.8746H8.02358V10.0484Z" fill="#261F20"/>
<path d="M9.8479 11.5163C9.40031 11.3503 9.26796 11.242 9.26796 11.035C9.26796 10.7944 9.50138 10.6115 9.82384 10.6115C10.0476 10.6115 10.2305 10.7029 10.4254 10.9219L10.8153 10.4118C10.4952 10.1302 10.1102 9.98824 9.69149 9.98824C9.01528 9.98824 8.4979 10.4575 8.4979 11.0832C8.4979 11.6102 8.73854 11.8797 9.43881 12.1324C9.72999 12.2358 9.87919 12.3032 9.95379 12.3513C10.103 12.4476 10.1776 12.5872 10.1776 12.746C10.1776 13.0564 9.93213 13.285 9.59764 13.285C9.24149 13.285 8.95512 13.107 8.78426 12.7749L8.30298 13.2393C8.6471 13.7447 9.0586 13.9685 9.62651 13.9685C10.4014 13.9685 10.9452 13.4535 10.9452 12.7123C10.9452 12.1035 10.6926 11.8292 9.8455 11.5187L9.8479 11.5163Z" fill="#261F20"/>
<path d="M11.1836 11.9639C11.1836 13.0877 12.0668 13.9589 13.2026 13.9589C13.5226 13.9589 13.7994 13.8963 14.1387 13.7375V12.8591C13.8403 13.1575 13.5756 13.2779 13.2387 13.2779C12.4879 13.2779 11.9536 12.734 11.9536 11.9591C11.9536 11.2252 12.5047 10.6452 13.205 10.6452C13.5611 10.6452 13.8307 10.7728 14.1411 11.076V10.1976C13.8138 10.0316 13.5443 9.9618 13.2242 9.9618C12.0932 9.9618 11.1884 10.8522 11.1884 11.9639H11.1836Z" fill="#261F20"/>
<path d="M20.0563 12.6184L19.036 10.0484H18.2202L19.8446 13.9732H20.244L21.8972 10.0484H21.0887L20.0563 12.6184Z" fill="#261F20"/>
<path d="M22.2336 13.8746H24.3513V13.2273H22.9796V12.1925H24.3008V11.5452H22.9796V10.6957H24.3513V10.0484H22.2336V13.8746Z" fill="#261F20"/>
<path d="M27.3065 11.177C27.3065 10.4599 26.8132 10.0484 25.9517 10.0484H24.8447V13.8746H25.5907V12.3369H25.6894L26.7217 13.8746H27.6386L26.433 12.2623C26.9961 12.1492 27.3041 11.7641 27.3041 11.177H27.3065ZM25.8073 11.8099H25.5883V10.6524H25.8169C26.2814 10.6524 26.534 10.8473 26.534 11.2203C26.534 11.5933 26.2814 11.8123 25.8049 11.8123L25.8073 11.8099Z" fill="#261F20"/>
<path d="M27.9011 10.2481C27.9011 10.1807 27.8554 10.1446 27.7736 10.1446H27.6653V10.4815H27.7447V10.3516L27.8385 10.4815H27.9372L27.8265 10.342C27.8746 10.3299 27.9011 10.2938 27.9011 10.2481ZM27.7591 10.2963H27.7447V10.2072H27.7591C27.8 10.2072 27.8193 10.2217 27.8193 10.2505C27.8193 10.2794 27.7976 10.2963 27.7591 10.2963Z" fill="#261F20"/>
<path d="M27.788 10.0195C27.6243 10.0195 27.4944 10.1495 27.4944 10.3131C27.4944 10.4768 27.6267 10.6067 27.788 10.6067C27.9492 10.6067 28.0791 10.4743 28.0791 10.3131C28.0791 10.1519 27.9492 10.0195 27.788 10.0195ZM27.788 10.5538C27.658 10.5538 27.5545 10.4455 27.5545 10.3131C27.5545 10.1808 27.658 10.0725 27.788 10.0725C27.9179 10.0725 28.0214 10.1832 28.0214 10.3131C28.0214 10.4431 27.9179 10.5538 27.788 10.5538Z" fill="#261F20"/>
<path d="M18.4316 11.9567C18.4316 13.0757 17.5243 13.9829 16.4054 13.9829C15.2864 13.9829 14.3792 13.0757 14.3792 11.9567C14.3792 10.8377 15.2864 9.9305 16.4054 9.9305C17.5243 9.9305 18.4316 10.8377 18.4316 11.9567Z" fill="url(#paint0_linear_945_5006)"/>
<path style="mix-blend-mode:multiply" opacity="0.65" d="M18.4316 11.9567C18.4316 13.0757 17.5243 13.9829 16.4054 13.9829C15.2864 13.9829 14.3792 13.0757 14.3792 11.9567C14.3792 10.8377 15.2864 9.9305 16.4054 9.9305C17.5243 9.9305 18.4316 10.8377 18.4316 11.9567Z" fill="url(#paint1_linear_945_5006)"/>
<g style="mix-blend-mode:multiply" opacity="0.5">
<mask id="mask0_945_5006" style="mask-type:luminance" maskUnits="userSpaceOnUse" x="14" y="9" width="5" height="5">
<path d="M18.4316 11.9567C18.4316 13.0757 17.5243 13.9829 16.4054 13.9829C15.2864 13.9829 14.3792 13.0757 14.3792 11.9567C14.3792 10.8377 15.2864 9.9305 16.4054 9.9305C17.5243 9.9305 18.4316 10.8377 18.4316 11.9567Z" fill="white"/>
</mask>
<g mask="url(#mask0_945_5006)">
<path d="M16.4153 9.89927C17.5559 9.89927 18.4824 10.8233 18.4824 11.964C18.4824 13.1046 17.5559 14.0311 16.4153 14.0311C15.2746 14.0311 14.3481 13.107 14.3481 11.964C14.3481 10.8233 15.2746 9.89687 16.4153 9.89687V9.89927Z" fill="#010000"/>
<path d="M16.4182 9.90175C17.5588 9.90175 18.4853 10.8234 18.4853 11.9641C18.4853 13.1047 17.5588 14.0336 16.4182 14.0336C15.2775 14.0336 14.3511 13.1095 14.3511 11.9689C14.3511 10.8282 15.2775 9.90175 16.4182 9.90175Z" fill="#030100"/>
<path d="M16.4177 9.90656C17.5584 9.90656 18.4873 10.8282 18.4873 11.9689C18.4873 13.1095 17.5584 14.0384 16.4177 14.0384C15.2771 14.0384 14.3506 13.1143 14.353 11.9737C14.353 10.833 15.2795 9.90656 16.4177 9.90897V9.90656Z" fill="#040100"/>
<path d="M16.4197 9.90896C17.5603 9.90896 18.4892 10.8282 18.4892 11.9689C18.4892 13.1095 17.5603 14.0384 16.4197 14.0384C15.279 14.0384 14.3526 13.1143 14.355 11.9737C14.355 10.833 15.2815 9.90655 16.4197 9.90896Z" fill="#050100"/>
<path d="M16.4226 9.91135C17.5633 9.91135 18.4922 10.8282 18.4922 11.9688C18.4922 13.1095 17.5633 14.0408 16.4226 14.0408C15.282 14.0408 14.3555 13.1167 14.3579 11.9761C14.3579 10.8354 15.2844 9.90894 16.4226 9.91135Z" fill="#070200"/>
<path d="M16.4226 9.91374C17.5633 9.91374 18.4922 10.8306 18.4922 11.9712C18.4922 13.1119 17.5609 14.0432 16.4226 14.0432C15.2844 14.0432 14.3555 13.1191 14.3579 11.9784C14.3579 10.8378 15.2844 9.91133 16.4226 9.91374Z" fill="#080200"/>
<path d="M16.4246 9.91616C17.5652 9.91616 18.4965 10.8306 18.4965 11.9712C18.4965 13.1119 17.5652 14.0456 16.4246 14.0456C15.2839 14.0456 14.3575 13.1215 14.3599 11.9809C14.3599 10.8402 15.2863 9.91375 16.4246 9.91616Z" fill="#090300"/>
<path d="M16.4273 9.91861C17.5679 9.91861 18.4992 10.8331 18.4992 11.9713C18.4992 13.1095 17.5679 14.0456 16.4273 14.0456C15.2866 14.0456 14.3601 13.1216 14.3626 11.9809C14.3626 10.8403 15.289 9.9138 16.4273 9.9162V9.91861Z" fill="#0B0300"/>
<path d="M16.4295 9.92104C17.5701 9.92345 18.5014 10.8331 18.5014 11.9737C18.5014 13.1144 17.5677 14.0505 16.4295 14.0505C15.2912 14.0505 14.3623 13.1264 14.3648 11.9858C14.3648 10.8451 15.2912 9.91863 16.4295 9.92104Z" fill="#0C0300"/>
<path d="M16.4295 9.92345C17.5701 9.92585 18.5014 10.8331 18.5014 11.9737C18.5014 13.1144 17.5677 14.0505 16.4295 14.0505C15.2912 14.0505 14.3623 13.1264 14.3648 11.9858C14.3672 10.8451 15.2912 9.91863 16.4295 9.92104V9.92345Z" fill="#0D0400"/>
<path d="M16.4322 9.92583C17.5704 9.92824 18.5065 10.8355 18.5065 11.9737C18.5065 13.1119 17.5728 14.0529 16.4322 14.0529C15.2916 14.0529 14.3651 13.1288 14.3699 11.9905C14.3723 10.8499 15.2964 9.92343 16.4322 9.92824V9.92583Z" fill="#0F0400"/>
<path d="M16.4349 9.93056C17.5731 9.93296 18.5092 10.8378 18.5092 11.9784C18.5092 13.1191 17.5731 14.0576 16.4349 14.0576C15.2966 14.0576 14.3678 13.1335 14.3726 11.9953C14.375 10.8546 15.3015 9.92815 16.4349 9.93296V9.93056Z" fill="#100400"/>
<path d="M16.4349 9.93302C17.5731 9.93542 18.5092 10.8402 18.5092 11.9785C18.5092 13.1167 17.5731 14.0576 16.4349 14.0576C15.2966 14.0576 14.3678 13.1336 14.3726 11.9953C14.375 10.8547 15.3015 9.9282 16.4349 9.93302Z" fill="#110500"/>
<path d="M16.4368 9.93541C17.5751 9.94023 18.5136 10.8402 18.5136 11.9785C18.5136 13.1167 17.5775 14.06 16.4368 14.06C15.2962 14.06 14.3721 13.136 14.3745 11.9977C14.3769 10.8571 15.3034 9.9306 16.4368 9.93541Z" fill="#130500"/>
<path d="M16.44 9.9378C17.5782 9.94262 18.5167 10.8402 18.5167 11.9809C18.5167 13.1215 17.5782 14.0624 16.44 14.0624C15.3018 14.0624 14.3753 13.1384 14.3777 12.0001C14.3825 10.8595 15.3066 9.93299 16.44 9.9378Z" fill="#140500"/>
<path d="M16.4417 9.94027C17.5799 9.94508 18.5185 10.8427 18.5185 11.9809C18.5185 13.1192 17.5799 14.0649 16.4417 14.0649C15.3035 14.0649 14.377 13.1408 14.3794 12.0026C14.3842 10.8619 15.3083 9.93546 16.4417 9.94027Z" fill="#150600"/>
<path d="M16.4417 9.94268C17.5799 9.94749 18.5185 10.8427 18.5185 11.9809C18.5185 13.1192 17.5799 14.0649 16.4417 14.0649C15.3035 14.0649 14.377 13.1408 14.3794 12.0026C14.3842 10.8619 15.3083 9.93546 16.4417 9.94027V9.94268Z" fill="#170600"/>
<path d="M16.4437 9.94507C17.5819 9.94988 18.5228 10.8427 18.5228 11.9809C18.5228 13.1191 17.5819 14.0673 16.4437 14.0673C15.3054 14.0673 14.3789 13.1456 14.3814 12.005C14.3862 10.8643 15.3102 9.93785 16.4437 9.94266V9.94507Z" fill="#180700"/>
<path d="M16.4461 9.9474C17.5844 9.95222 18.5253 10.845 18.5253 11.9832C18.5253 13.1215 17.5844 14.0696 16.4461 14.0696C15.3079 14.0696 14.3814 13.148 14.3862 12.0097C14.3911 10.8691 15.3151 9.94259 16.4461 9.94981V9.9474Z" fill="#190700"/>
<path d="M16.4491 9.94984C17.5873 9.95466 18.5282 10.845 18.5282 11.9833C18.5282 13.1215 17.5873 14.0721 16.4491 14.0721C15.3108 14.0721 14.3844 13.1504 14.3892 12.0122C14.394 10.8715 15.3181 9.94503 16.4491 9.95225V9.94984Z" fill="#1B0700"/>
<path d="M16.4491 9.95221C17.5873 9.95702 18.5282 10.8474 18.5282 11.9832C18.5282 13.1191 17.5849 14.072 16.4491 14.072C15.3132 14.072 14.3844 13.1503 14.3892 12.0121C14.394 10.8715 15.3181 9.94499 16.4491 9.95221Z" fill="#1C0800"/>
<path d="M16.4513 9.9571C17.5895 9.96432 18.5328 10.8499 18.5328 11.9881C18.5328 13.1264 17.5895 14.0769 16.4513 14.0769C15.313 14.0769 14.3866 13.1552 14.3914 12.017C14.3962 10.8764 15.3203 9.94988 16.4513 9.9571Z" fill="#1D0800"/>
<path d="M16.454 9.95953C17.5922 9.96675 18.5355 10.8499 18.5355 11.9881C18.5355 13.1264 17.5922 14.0793 16.454 14.0793C15.3157 14.0793 14.3892 13.1577 14.3941 12.0194C14.3989 10.8788 15.3253 9.95231 16.454 9.95953Z" fill="#1F0800"/>
<path d="M16.454 9.96191C17.5922 9.96913 18.5355 10.8523 18.5355 11.9881C18.5355 13.124 17.5898 14.0793 16.454 14.0793C15.3181 14.0793 14.3892 13.1576 14.3941 12.0194C14.3989 10.8764 15.3253 9.95469 16.454 9.95951V9.96191Z" fill="#200900"/>
<path d="M16.4569 9.96427C17.5951 9.97149 18.5409 10.8522 18.5409 11.9905C18.5409 13.1287 17.5951 14.0841 16.4569 14.0841C15.3187 14.0841 14.3922 13.1624 14.397 12.0242C14.4042 10.8811 15.3283 9.95945 16.4569 9.96427Z" fill="#210900"/>
<path d="M16.4591 9.96673C17.5949 9.97395 18.5431 10.8547 18.5431 11.9905C18.5431 13.1264 17.5973 14.0841 16.4591 14.0841C15.3208 14.0841 14.3944 13.1625 14.3992 12.0242C14.4064 10.8812 15.3305 9.95951 16.4591 9.96432V9.96673Z" fill="#220900"/>
<path d="M16.4618 9.96915C17.5976 9.97637 18.5457 10.8547 18.5457 11.9905C18.5457 13.1264 17.5976 14.0865 16.4618 14.0865C15.3259 14.0865 14.3971 13.1649 14.4019 12.0291C14.4091 10.886 15.3332 9.96434 16.4618 9.96915Z" fill="#240A00"/>
<path d="M16.4613 9.97155C17.5972 9.97877 18.5453 10.8547 18.5453 11.9929C18.5453 13.1312 17.5972 14.0889 16.4613 14.0889C15.3255 14.0889 14.3966 13.1673 14.4039 12.0314C14.4111 10.8884 15.3351 9.96673 16.4613 9.97395V9.97155Z" fill="#250A00"/>
<path d="M16.4643 9.97389C17.6001 9.98111 18.5506 10.8571 18.5506 11.9929C18.5506 13.1287 17.6025 14.0913 16.4643 14.0913C15.326 14.0913 14.3996 13.1696 14.4068 12.0338C14.414 10.8907 15.3381 9.96908 16.4643 9.9763V9.97389Z" fill="#260A00"/>
<path d="M16.4662 9.9763C17.6021 9.98351 18.5526 10.857 18.5526 11.9929C18.5526 13.1287 17.6021 14.0913 16.4662 14.0913C15.3304 14.0913 14.4015 13.1696 14.4087 12.0338C14.416 10.8907 15.34 9.96908 16.4662 9.9763Z" fill="#280B00"/>
<path d="M16.4662 9.98115C17.6021 9.99078 18.5526 10.8595 18.5526 11.9977C18.5526 13.136 17.6021 14.0961 16.4662 14.0961C15.3304 14.0961 14.4015 13.1745 14.4087 12.0386C14.416 10.8956 15.34 9.97393 16.4662 9.98115Z" fill="#290B00"/>
<path d="M16.4682 9.98358C17.604 9.9932 18.557 10.8619 18.557 11.9978C18.557 13.1336 17.6064 14.0986 16.4682 14.0986C15.3299 14.0986 14.4035 13.1769 14.4107 12.0411C14.4179 10.898 15.342 9.97636 16.4682 9.98358Z" fill="#2A0C00"/>
<path d="M16.4709 9.98595C17.6067 9.99557 18.5596 10.8619 18.5596 11.9977C18.5596 13.1336 17.6067 14.0985 16.4709 14.0985C15.335 14.0985 14.4062 13.1769 14.4134 12.041C14.4206 10.898 15.3471 9.97632 16.4709 9.98354V9.98595Z" fill="#2C0C00"/>
<path d="M16.4731 9.98834C17.6089 9.99796 18.5618 10.8643 18.5618 12.0001C18.5618 13.1359 17.6089 14.1033 16.4731 14.1033C15.3372 14.1033 14.4083 13.1817 14.4156 12.0458C14.4228 10.9028 15.3493 9.98112 16.4731 9.98834Z" fill="#2D0C00"/>
<path d="M16.4731 9.99075C17.6089 10.0004 18.5618 10.8643 18.5618 12.0001C18.5618 13.1359 17.6089 14.1033 16.4731 14.1033C15.3372 14.1033 14.4083 13.1817 14.4156 12.0458C14.4252 10.9028 15.3493 9.98112 16.4731 9.98834V9.99075Z" fill="#2E0D00"/>
<path d="M16.4758 9.99321C17.6117 10.0028 18.567 10.8643 18.567 12.0002C18.567 13.136 17.6117 14.1058 16.4758 14.1058C15.34 14.1058 14.4111 13.1841 14.4207 12.0507C14.4304 10.9077 15.3544 9.98599 16.4758 9.99561V9.99321Z" fill="#300D00"/>
<path d="M16.4785 9.99562C17.6143 10.0052 18.5697 10.8667 18.5697 12.0026C18.5697 13.1384 17.6143 14.1082 16.4785 14.1082C15.3427 14.1082 14.4138 13.189 14.4234 12.0531C14.433 10.9101 15.3571 9.9884 16.4785 9.99803V9.99562Z" fill="#310D00"/>
<path d="M16.4785 9.99794C17.6143 10.0076 18.5697 10.8667 18.5697 12.0025C18.5697 13.1383 17.6143 14.1105 16.4785 14.1105C15.3427 14.1105 14.4138 13.1913 14.4234 12.0554C14.433 10.9124 15.3571 9.99072 16.4785 10.0003V9.99794Z" fill="#320E00"/>
<path d="M16.4805 10.0004C17.6163 10.01 18.5716 10.8691 18.5716 12.0025C18.5716 13.136 17.6139 14.1106 16.4805 14.1106C15.347 14.1106 14.4157 13.1913 14.4254 12.0555C14.435 10.9124 15.3591 9.99075 16.4805 10.0004Z" fill="#340E00"/>
<path d="M16.4834 10.0029C17.6168 10.0149 18.577 10.8692 18.577 12.005C18.577 13.1409 17.6192 14.1131 16.4834 14.1131C15.3476 14.1131 14.4187 13.1938 14.4283 12.058C14.4379 10.9149 15.362 9.99327 16.4834 10.0029Z" fill="#350E00"/>
<path d="M16.4853 10.0076C17.6188 10.0197 18.5789 10.8715 18.5789 12.0074C18.5789 13.1432 17.6212 14.1178 16.4853 14.1178C15.3495 14.1178 14.4206 13.1985 14.4302 12.0627C14.4399 10.9197 15.3639 9.998 16.4853 10.0076Z" fill="#360F00"/>
<path d="M16.4853 10.01C17.6188 10.0221 18.5789 10.8739 18.5789 12.0074C18.5789 13.1408 17.6188 14.1178 16.4853 14.1178C15.3519 14.1178 14.4206 13.1985 14.4302 12.0627C14.4399 10.9197 15.3639 9.998 16.4853 10.0076V10.01Z" fill="#380F00"/>
<path d="M16.4873 10.0124C17.6207 10.0244 18.5833 10.8739 18.5833 12.0073C18.5833 13.1407 17.6231 14.1202 16.4873 14.1202C15.3515 14.1202 14.4226 13.2009 14.4322 12.0651C14.4418 10.922 15.3659 10.0004 16.4873 10.01V10.0124Z" fill="#391000"/>
<path d="M16.4898 10.0149C17.6232 10.0269 18.5858 10.874 18.5858 12.0098C18.5858 13.1457 17.6232 14.1227 16.4898 14.1227C15.3564 14.1227 14.4251 13.2034 14.4371 12.07C14.4492 10.9269 15.3732 10.0053 16.4898 10.0173V10.0149Z" fill="#3A1000"/>
<path d="M16.4898 10.0172C17.6232 10.0293 18.5858 10.8763 18.5858 12.0097C18.5858 13.1432 17.6232 14.125 16.4898 14.125C15.3564 14.125 14.4251 13.2057 14.4371 12.0723C14.4492 10.9293 15.3732 10.0076 16.4898 10.0196V10.0172Z" fill="#3C1000"/>
<path d="M16.4925 10.0196C17.6259 10.0316 18.5885 10.8763 18.5885 12.0097C18.5885 13.1432 17.6259 14.125 16.4925 14.125C15.3591 14.125 14.4278 13.2057 14.4398 12.0723C14.4518 10.9292 15.3759 10.0076 16.4925 10.0196Z" fill="#3D1100"/>
<path d="M16.4949 10.0221C17.6284 10.0341 18.5933 10.8788 18.5933 12.0122C18.5933 13.1456 17.6284 14.1275 16.4949 14.1275C15.3615 14.1275 14.4302 13.2082 14.4423 12.0748C14.4543 10.9317 15.3784 10.0101 16.4949 10.0221Z" fill="#3E1100"/>
<path d="M16.4976 10.0244C17.631 10.0365 18.596 10.8787 18.596 12.0121C18.596 13.1456 17.631 14.1298 16.4976 14.1298C15.3642 14.1298 14.4329 13.2105 14.4449 12.0771C14.457 10.9341 15.381 10.0124 16.4976 10.0244Z" fill="#401100"/>
<path d="M16.4976 10.0268C17.631 10.0413 18.596 10.8787 18.596 12.0121C18.596 13.1456 17.631 14.1298 16.4976 14.1298C15.3642 14.1298 14.4329 13.2105 14.4449 12.0771C14.457 10.9341 15.381 10.0124 16.4976 10.0244V10.0268Z" fill="#411200"/>
<path d="M16.4996 10.0316C17.633 10.0461 18.598 10.8835 18.598 12.0169C18.598 13.1504 17.6306 14.137 16.4996 14.137C15.3686 14.137 14.4349 13.2178 14.4469 12.0843C14.4589 10.9413 15.383 10.0196 16.4996 10.0316Z" fill="#421200"/>
<path d="M16.5025 10.034C17.6359 10.0485 18.6033 10.8835 18.6033 12.0169C18.6033 13.1504 17.6359 14.137 16.5025 14.137C15.3691 14.137 14.4378 13.2177 14.4498 12.0843C14.4619 10.9413 15.3859 10.0196 16.5025 10.0316V10.034Z" fill="#441200"/>
<path d="M16.5025 10.0365C17.6359 10.0509 18.6033 10.8859 18.6033 12.017C18.6033 13.148 17.6359 14.1394 16.5025 14.1394C15.3691 14.1394 14.4378 13.2202 14.4498 12.0867C14.4619 10.9437 15.3859 10.022 16.5025 10.0341V10.0365Z" fill="#451300"/>
<path d="M16.5041 10.039C17.6375 10.0534 18.6049 10.886 18.6049 12.0194C18.6049 13.1529 17.6351 14.1419 16.5041 14.1419C15.373 14.1419 14.4393 13.2227 14.4538 12.0916C14.4658 10.9486 15.3899 10.0269 16.5041 10.0414V10.039Z" fill="#461300"/>
<path d="M16.507 10.0413C17.6404 10.0558 18.6102 10.886 18.6102 12.0194C18.6102 13.1528 17.6404 14.1443 16.507 14.1443C15.3736 14.1443 14.4423 13.225 14.4567 12.094C14.4711 10.9509 15.3928 10.0293 16.507 10.0437V10.0413Z" fill="#481400"/>
<path d="M16.5089 10.0438C17.64 10.0582 18.6122 10.8884 18.6122 12.0194C18.6122 13.1505 17.6424 14.1443 16.5089 14.1443C15.3755 14.1443 14.4442 13.2251 14.4587 12.094C14.4731 10.951 15.3972 10.0293 16.5089 10.0438Z" fill="#491400"/>
<path d="M16.5089 10.0461C17.64 10.0605 18.6122 10.8883 18.6122 12.0218C18.6122 13.1552 17.64 14.1466 16.5089 14.1466C15.3779 14.1466 14.4442 13.2274 14.4587 12.0964C14.4731 10.9533 15.3972 10.0316 16.5089 10.0461Z" fill="#4A1400"/>
<path d="M16.5116 10.0485C17.6426 10.0653 18.6148 10.8883 18.6148 12.0218C18.6148 13.1552 17.6426 14.1491 16.5116 14.1491C15.3806 14.1491 14.4469 13.2322 14.4613 12.0988C14.4758 10.9557 15.3999 10.0341 16.5116 10.0485Z" fill="#4C1500"/>
<path d="M16.5141 10.0509C17.6451 10.0678 18.6197 10.8908 18.6197 12.0218C18.6197 13.1528 17.6475 14.1491 16.5141 14.1491C15.3806 14.1491 14.4494 13.2322 14.4638 12.0988C14.4782 10.9557 15.4023 10.0341 16.5141 10.0485V10.0509Z" fill="#4D1500"/>
<path d="M16.5141 10.0534C17.6451 10.0702 18.6197 10.8908 18.6197 12.0242C18.6197 13.1576 17.6451 14.1539 16.5141 14.1539C15.383 14.1539 14.4493 13.2371 14.4638 12.1036C14.4782 10.9606 15.4023 10.0389 16.5141 10.0534Z" fill="#4E1500"/>
<path d="M16.5168 10.0581C17.6478 10.075 18.6224 10.8956 18.6224 12.0266C18.6224 13.1576 17.6478 14.1563 16.5168 14.1563C15.3857 14.1563 14.452 13.2394 14.4665 12.106C14.4809 10.9629 15.405 10.0413 16.5168 10.0557V10.0581Z" fill="#501600"/>
<path d="M16.5193 10.0606C17.6503 10.0774 18.6273 10.8956 18.6273 12.0266C18.6273 13.1576 17.6527 14.1587 16.5193 14.1587C15.3859 14.1587 14.4546 13.2419 14.4714 12.1108C14.4859 10.9678 15.4099 10.0461 16.5193 10.063V10.0606Z" fill="#511600"/>
<path d="M16.5212 10.063C17.6523 10.0798 18.6293 10.8956 18.6293 12.029C18.6293 13.1625 17.6523 14.1611 16.5212 14.1611C15.3902 14.1611 14.4565 13.2443 14.4734 12.1133C14.4878 10.9702 15.4119 10.0485 16.5212 10.0654V10.063Z" fill="#521600"/>
<path d="M16.5212 10.0654C17.6523 10.0822 18.6293 10.898 18.6293 12.029C18.6293 13.16 17.6523 14.1635 16.5212 14.1635C15.3902 14.1635 14.4565 13.2467 14.4734 12.1156C14.4878 10.9726 15.4119 10.0509 16.5212 10.0678V10.0654Z" fill="#541700"/>
<path d="M16.5232 10.0677C17.6542 10.0846 18.6312 10.898 18.6312 12.029C18.6312 13.16 17.6542 14.1635 16.5232 14.1635C15.3922 14.1635 14.4585 13.2466 14.4753 12.1156C14.4922 10.9726 15.4138 10.0509 16.5232 10.0677Z" fill="#551700"/>
<path d="M16.5261 10.0702C17.6571 10.087 18.6366 10.9004 18.6366 12.029C18.6366 13.1576 17.6571 14.1635 16.5261 14.1635C15.3951 14.1635 14.4614 13.2466 14.4783 12.1156C14.4951 10.9726 15.4192 10.0509 16.5261 10.0678V10.0702Z" fill="#561800"/>
<path d="M16.5261 10.0726C17.6571 10.0919 18.6366 10.9004 18.6366 12.0314C18.6366 13.1625 17.6571 14.1684 16.5261 14.1684C15.3951 14.1684 14.4614 13.2515 14.4783 12.1205C14.4951 10.9774 15.4192 10.0558 16.5261 10.0726Z" fill="#581800"/>
<path d="M16.528 10.075C17.659 10.0943 18.6385 10.9004 18.6385 12.0315C18.6385 13.1625 17.659 14.1684 16.528 14.1684C15.397 14.1684 14.4657 13.2515 14.4801 12.1205C14.497 10.9774 15.4211 10.0558 16.528 10.0726V10.075Z" fill="#591800"/>
<path d="M16.5307 10.0774C17.6617 10.0967 18.6411 10.9028 18.6411 12.0314C18.6411 13.16 17.6593 14.1707 16.5307 14.1707C15.4021 14.1707 14.4684 13.2539 14.4828 12.1229C14.4997 10.9798 15.4237 10.0582 16.5307 10.075V10.0774Z" fill="#5A1900"/>
<path d="M16.5329 10.0823C17.6639 10.1015 18.6457 10.9053 18.6457 12.0363C18.6457 13.1673 17.6639 14.1756 16.5329 14.1756C15.4019 14.1756 14.4706 13.2588 14.485 12.1302C14.5019 10.9871 15.4259 10.0654 16.5329 10.0847V10.0823Z" fill="#5C1900"/>
<path d="M16.5335 10.0846C17.6621 10.1039 18.6463 10.9052 18.6463 12.0362C18.6463 13.1672 17.6645 14.1779 16.5335 14.1779C15.4025 14.1779 14.4712 13.2611 14.488 12.1325C14.5049 10.9894 15.4289 10.0678 16.5335 10.087V10.0846Z" fill="#5D1900"/>
<path d="M16.5357 10.087C17.6643 10.1063 18.6485 10.9076 18.6485 12.0362C18.6485 13.1648 17.6643 14.178 16.5357 14.178C15.4071 14.178 14.4734 13.2611 14.4902 12.1325C14.5071 10.9894 15.4311 10.0678 16.5357 10.087Z" fill="#5E1A00"/>
<path d="M16.5384 10.0894C17.667 10.1086 18.6536 10.9076 18.6536 12.0386C18.6536 13.1696 17.6694 14.1827 16.5384 14.1827C15.4073 14.1827 14.4761 13.2659 14.4929 12.1372C14.5097 10.9942 15.4338 10.0725 16.5384 10.0918V10.0894Z" fill="#5F1A00"/>
<path d="M16.5384 10.0919C17.667 10.1111 18.6536 10.9101 18.6536 12.0387C18.6536 13.1673 17.6694 14.1828 16.5384 14.1828C15.4073 14.1828 14.4761 13.2659 14.4929 12.1373C14.5122 10.9943 15.4338 10.0726 16.5384 10.0919Z" fill="#611A00"/>
<path d="M16.5413 10.0943C17.6699 10.1135 18.6565 10.9101 18.6565 12.0387C18.6565 13.1673 17.6699 14.1828 16.5413 14.1828C15.4127 14.1828 14.479 13.2659 14.4958 12.1373C14.5151 10.9943 15.4367 10.0726 16.5413 10.0919V10.0943Z" fill="#621B00"/>
<path d="M16.5432 10.0966C17.6719 10.1183 18.6585 10.91 18.6585 12.041C18.6585 13.172 17.6719 14.1876 16.5432 14.1876C15.4146 14.1876 14.4809 13.2707 14.4978 12.1421C14.517 10.999 15.4387 10.0774 16.5432 10.0966Z" fill="#631B00"/>
<path d="M16.5462 10.099C17.6748 10.1207 18.6638 10.9124 18.6638 12.041C18.6638 13.1696 17.6772 14.1876 16.5462 14.1876C15.4152 14.1876 14.4839 13.2731 14.5007 12.1421C14.52 10.999 15.444 10.0774 16.5462 10.0966V10.099Z" fill="#651B00"/>
<path d="M16.5462 10.1015C17.6748 10.1231 18.6638 10.9124 18.6638 12.0411C18.6638 13.1697 17.6748 14.19 16.5462 14.19C15.4176 14.19 14.4839 13.2755 14.5007 12.1445C14.52 11.0015 15.444 10.0798 16.5462 10.0991V10.1015Z" fill="#661C00"/>
<path d="M16.5475 10.1038C17.6761 10.1255 18.6652 10.9124 18.6652 12.0434C18.6652 13.1744 17.6761 14.1924 16.5475 14.1924C15.4189 14.1924 14.4852 13.2779 14.5044 12.1493C14.5237 11.0062 15.4478 10.0846 16.5475 10.1062V10.1038Z" fill="#671C00"/>
<path d="M16.5497 10.1087C17.6783 10.1303 18.6674 10.9172 18.6674 12.0458C18.6674 13.1744 17.6783 14.1972 16.5497 14.1972C15.4211 14.1972 14.4874 13.2827 14.5066 12.1541C14.5259 11.0111 15.45 10.0894 16.5497 10.1111V10.1087Z" fill="#691D00"/>
<path d="M16.5497 10.1111C17.6783 10.1328 18.6698 10.9173 18.6698 12.0459C18.6698 13.1745 17.6783 14.1972 16.5497 14.1972C15.4211 14.1972 14.4874 13.2828 14.5066 12.1542C14.5259 11.0111 15.45 10.0894 16.5497 10.1111Z" fill="#6A1D00"/>
<path d="M16.5524 10.1135C17.681 10.1351 18.6724 10.9196 18.6724 12.0482C18.6724 13.1769 17.681 14.202 16.5524 14.202C15.4238 14.202 14.4901 13.2875 14.5093 12.1589C14.5286 11.0159 15.4526 10.0942 16.5524 10.1159V10.1135Z" fill="#6B1D00"/>
<path d="M16.5553 10.1159C17.6839 10.1376 18.6754 10.9197 18.6754 12.0483C18.6754 13.1769 17.6839 14.202 16.5553 14.202C15.4267 14.202 14.493 13.2876 14.5123 12.159C14.5315 11.0159 15.4556 10.0943 16.5553 10.1159Z" fill="#6D1E00"/>
<path d="M16.5575 10.1184C17.6861 10.1401 18.68 10.9197 18.68 12.0484C18.68 13.177 17.6861 14.2021 16.5575 14.2021C15.4289 14.2021 14.4952 13.2877 14.5145 12.159C14.5361 11.016 15.4578 10.0943 16.5575 10.116V10.1184Z" fill="#6E1E00"/>
<path d="M16.5575 10.1208C17.6861 10.1448 18.68 10.9221 18.68 12.0507C18.68 13.1793 17.6861 14.2069 16.5575 14.2069C15.4289 14.2069 14.4952 13.2924 14.5145 12.1638C14.5361 11.0208 15.4578 10.0991 16.5575 10.1208Z" fill="#6F1E00"/>
<path d="M16.5604 10.1232C17.6866 10.1472 18.6829 10.9221 18.6829 12.0507C18.6829 13.1793 17.6891 14.2069 16.5604 14.2069C15.4318 14.2069 14.4981 13.2924 14.5174 12.1638C14.539 11.0208 15.4607 10.0991 16.5604 10.1208V10.1232Z" fill="#711F00"/>
<path d="M16.562 10.1255C17.6882 10.1496 18.6845 10.9244 18.6845 12.0506C18.6845 13.1768 17.6882 14.2092 16.562 14.2092C15.4358 14.2092 14.4997 13.2948 14.5214 12.1686C14.543 11.0255 15.4647 10.1038 16.562 10.1279V10.1255Z" fill="#721F00"/>
<path d="M16.562 10.1279C17.6882 10.152 18.6869 10.9244 18.6869 12.0506C18.6869 13.1768 17.6906 14.2092 16.562 14.2092C15.4334 14.2092 14.4997 13.2948 14.5214 12.1685C14.543 11.0255 15.4671 10.1038 16.562 10.1279Z" fill="#731F00"/>
<path d="M16.5649 10.1327C17.6912 10.1568 18.6898 10.9269 18.6898 12.0555C18.6898 13.1841 17.6936 14.2165 16.5649 14.2165C15.4363 14.2165 14.5026 13.302 14.5243 12.1758C14.546 11.0327 15.47 10.1111 16.5649 10.1352V10.1327Z" fill="#752000"/>
<path d="M16.5669 10.1351C17.6931 10.1592 18.6918 10.9293 18.6918 12.0555C18.6918 13.1817 17.6931 14.2164 16.5669 14.2164C15.4407 14.2164 14.5046 13.302 14.5262 12.1758C14.5479 11.0327 15.472 10.1111 16.5669 10.1351Z" fill="#762000"/>
<path d="M16.5698 10.1376C17.696 10.1616 18.6947 10.9293 18.6947 12.0555C18.6947 13.1817 17.696 14.2164 16.5698 14.2164C15.4436 14.2164 14.5075 13.302 14.5292 12.1758C14.5508 11.0327 15.4749 10.1111 16.5698 10.1351V10.1376Z" fill="#772100"/>
<path d="M16.5698 10.14C17.696 10.1641 18.6971 10.9293 18.6971 12.0579C18.6971 13.1865 17.696 14.2213 16.5698 14.2213C15.4436 14.2213 14.5075 13.3069 14.5292 12.1806C14.5508 11.0376 15.4749 10.1159 16.5698 10.14Z" fill="#792100"/>
<path d="M16.5718 10.1424C17.698 10.1665 18.6991 10.9317 18.6991 12.0579C18.6991 13.1841 17.698 14.2213 16.5718 14.2213C15.4456 14.2213 14.5095 13.3069 14.5311 12.1807C14.5528 11.0376 15.4769 10.1159 16.5718 10.14V10.1424Z" fill="#7A2100"/>
<path d="M16.5745 10.1448C17.7007 10.1713 18.7017 10.9317 18.7017 12.0579C18.7017 13.1841 17.7007 14.2237 16.5745 14.2237C15.4483 14.2237 14.5122 13.3092 14.5338 12.183C14.5579 11.04 15.4795 10.1183 16.5745 10.1424V10.1448Z" fill="#7B2200"/>
<path d="M16.5745 10.1472C17.7007 10.1736 18.7042 10.9341 18.7042 12.0603C18.7042 13.1865 17.7007 14.2261 16.5745 14.2261C15.4483 14.2261 14.5122 13.3116 14.5338 12.1878C14.5579 11.0448 15.4795 10.1231 16.5745 10.1496V10.1472Z" fill="#7D2200"/>
<path d="M16.5763 10.1496C17.7025 10.1761 18.706 10.9341 18.706 12.0603C18.706 13.1865 17.7025 14.2285 16.5763 14.2285C15.4501 14.2285 14.514 13.3141 14.5381 12.1903C14.5621 11.0472 15.4838 10.1256 16.5763 10.152V10.1496Z" fill="#7E2200"/>
<path d="M16.5795 10.152C17.7057 10.1784 18.7092 10.9341 18.7092 12.0603C18.7092 13.1865 17.7057 14.2285 16.5795 14.2285C15.4533 14.2285 14.5172 13.3164 14.5412 12.1902C14.5653 11.0472 15.487 10.1255 16.5795 10.152Z" fill="#7F2300"/>
<path d="M16.5812 10.1544C17.7074 10.1809 18.7109 10.9365 18.7109 12.0627C18.7109 13.1889 17.705 14.2333 16.5812 14.2333C15.4574 14.2333 14.5189 13.3213 14.5429 12.1951C14.567 11.052 15.4911 10.1303 16.5812 10.1568V10.1544Z" fill="#812300"/>
<path d="M16.5812 10.1592C17.7074 10.1857 18.7133 10.9389 18.7133 12.0651C18.7133 13.1913 17.7074 14.2357 16.5812 14.2357C15.455 14.2357 14.5189 13.3237 14.5429 12.1975C14.567 11.0544 15.4911 10.1327 16.5812 10.1592Z" fill="#822300"/>
<path d="M16.5841 10.1616C17.7103 10.1881 18.7162 10.9413 18.7162 12.0651C18.7162 13.1889 17.7103 14.2357 16.5841 14.2357C15.4579 14.2357 14.5218 13.3237 14.5459 12.1975C14.5699 11.0544 15.494 10.1327 16.5841 10.1592V10.1616Z" fill="#832400"/>
<path d="M16.587 10.164C17.7108 10.1905 18.7191 10.9413 18.7191 12.0675C18.7191 13.1937 17.7108 14.2405 16.587 14.2405C15.4632 14.2405 14.5247 13.3285 14.5488 12.2023C14.5729 11.0592 15.4969 10.1376 16.587 10.164Z" fill="#852400"/>
<path d="M16.587 10.1664C17.7108 10.1953 18.7215 10.9413 18.7215 12.0675C18.7215 13.1937 17.7132 14.2405 16.587 14.2405C15.4608 14.2405 14.5247 13.3285 14.5488 12.2023C14.5729 11.0592 15.4969 10.1376 16.587 10.164V10.1664Z" fill="#862500"/>
<path d="M16.589 10.1689C17.7128 10.1977 18.7235 10.9437 18.7235 12.0675C18.7235 13.1913 17.7152 14.243 16.589 14.243C15.4628 14.243 14.5267 13.3309 14.5507 12.2047C14.5748 11.0617 15.4989 10.14 16.589 10.1665V10.1689Z" fill="#872500"/>
<path d="M16.5906 10.1713C17.7144 10.2002 18.7251 10.9437 18.7251 12.07C18.7251 13.1962 17.7144 14.2454 16.5906 14.2454C15.4668 14.2454 14.5283 13.3333 14.5547 12.2095C14.5812 11.0665 15.5029 10.1448 16.5906 10.1737V10.1713Z" fill="#892500"/>
<path d="M16.5935 10.1737C17.7173 10.2026 18.728 10.9438 18.728 12.07C18.728 13.1962 17.7173 14.2478 16.5935 14.2478C15.4697 14.2478 14.5312 13.3358 14.5577 12.212C14.5841 11.0689 15.5058 10.1472 16.5935 10.1761V10.1737Z" fill="#8A2600"/>
<path d="M16.5935 10.1761C17.7173 10.205 18.7304 10.9461 18.7304 12.0699C18.7304 13.1938 17.7197 14.2478 16.5935 14.2478C15.4673 14.2478 14.5312 13.3357 14.5577 12.2119C14.5841 11.0689 15.5058 10.1472 16.5935 10.1761Z" fill="#8B2600"/>
<path d="M16.5962 10.1785C17.72 10.2073 18.7331 10.9461 18.7331 12.0723C18.7331 13.1985 17.72 14.2525 16.5962 14.2525C15.4724 14.2525 14.5339 13.3405 14.5604 12.2167C14.5868 11.0736 15.5085 10.152 16.5962 10.1809V10.1785Z" fill="#8D2600"/>
<path d="M16.5986 10.1833C17.7224 10.2122 18.7355 10.9509 18.7355 12.0748C18.7355 13.1986 17.7224 14.255 16.5986 14.255C15.4748 14.255 14.5363 13.3429 14.5628 12.2191C14.5893 11.0761 15.5109 10.1544 16.5986 10.1833Z" fill="#8E2700"/>
<path d="M16.5986 10.1857C17.7224 10.2146 18.7355 10.9509 18.7355 12.0748C18.7355 13.1986 17.7224 14.255 16.5986 14.255C15.4748 14.255 14.5363 13.3429 14.5628 12.2191C14.5893 11.0761 15.5133 10.1544 16.5986 10.1833V10.1857Z" fill="#8F2700"/>
<path d="M16.6013 10.1881C17.7251 10.217 18.7406 10.951 18.7406 12.0748C18.7406 13.1986 17.7251 14.2574 16.6013 14.2574C15.4775 14.2574 14.539 13.3454 14.5655 12.2216C14.592 11.0785 15.516 10.1569 16.6013 10.1857V10.1881Z" fill="#912700"/>
<path d="M16.6033 10.1905C17.7271 10.2218 18.7426 10.9533 18.7426 12.0771C18.7426 13.2009 17.7271 14.2598 16.6033 14.2598C15.4795 14.2598 14.541 13.3477 14.5674 12.2239C14.5939 11.0809 15.518 10.1592 16.6033 10.1881V10.1905Z" fill="#922800"/>
<path d="M16.6059 10.1929C17.7297 10.2242 18.7452 10.9534 18.7452 12.0772C18.7452 13.201 17.7297 14.2622 16.6059 14.2622C15.4821 14.2622 14.5435 13.3502 14.5724 12.2288C14.5989 11.0857 15.523 10.1641 16.6059 10.1954V10.1929Z" fill="#932800"/>
<path d="M16.6059 10.1953C17.7297 10.2266 18.7476 10.9557 18.7476 12.0771C18.7476 13.1985 17.7297 14.2622 16.6059 14.2622C15.4821 14.2622 14.5435 13.3501 14.5724 12.2287C14.6013 11.0857 15.523 10.164 16.6059 10.1953Z" fill="#952900"/>
<path d="M16.6078 10.1978C17.7316 10.2291 18.7495 10.9558 18.7495 12.0796C18.7495 13.2034 17.7316 14.267 16.6078 14.267C15.484 14.267 14.5455 13.355 14.5744 12.2336C14.6033 11.0906 15.5249 10.1689 16.6078 10.2002V10.1978Z" fill="#962900"/>
<path d="M16.6107 10.2001C17.7345 10.2314 18.7525 10.9558 18.7525 12.0796C18.7525 13.2034 17.7345 14.267 16.6107 14.267C15.4869 14.267 14.5484 13.355 14.5773 12.2336C14.6062 11.0905 15.5278 10.1689 16.6107 10.2001Z" fill="#972900"/>
<path d="M16.6107 10.2025C17.7321 10.2338 18.7525 10.9582 18.7525 12.0796C18.7525 13.2009 17.7321 14.2694 16.6107 14.2694C15.4893 14.2694 14.5484 13.3598 14.5773 12.236C14.6062 11.0929 15.5278 10.1713 16.6107 10.2025Z" fill="#992A00"/>
<path d="M16.6127 10.205C17.7341 10.2363 18.7568 10.9582 18.7568 12.082C18.7568 13.2058 17.7365 14.2719 16.6127 14.2719C15.4889 14.2719 14.5504 13.3623 14.5793 12.2385C14.6081 11.093 15.5298 10.1761 16.6127 10.205Z" fill="#9A2A00"/>
<path d="M16.6154 10.2098C17.7368 10.241 18.7595 10.9606 18.7595 12.0844C18.7595 13.2082 17.7392 14.2742 16.6154 14.2742C15.4916 14.2742 14.5531 13.3646 14.5819 12.2408C14.6108 11.0953 15.5325 10.1785 16.6154 10.2074V10.2098Z" fill="#9B2A00"/>
<path d="M16.6178 10.2122C17.7392 10.2434 18.7619 10.963 18.7619 12.0844C18.7619 13.2057 17.7392 14.2766 16.6178 14.2766C15.4964 14.2766 14.5555 13.367 14.5844 12.2432C14.6133 11.0977 15.5349 10.1809 16.6178 10.2097V10.2122Z" fill="#9C2B00"/>
<path d="M16.6177 10.2146C17.7391 10.2483 18.7618 10.963 18.7618 12.0868C18.7618 13.2106 17.7391 14.279 16.6177 14.279C15.4963 14.279 14.5578 13.3694 14.5843 12.2456C14.6132 11.1001 15.5372 10.1833 16.6177 10.2146Z" fill="#9E2B00"/>
<path d="M16.6203 10.217C17.7417 10.2507 18.7668 10.9654 18.7668 12.0868C18.7668 13.2082 17.7441 14.2815 16.6203 14.2815C15.4965 14.2815 14.5604 13.3718 14.5893 12.2504C14.6182 11.105 15.5422 10.1881 16.6203 10.2194V10.217Z" fill="#9F2B00"/>
<path d="M16.623 10.2193C17.7444 10.253 18.7695 10.9653 18.7695 12.0867C18.7695 13.2081 17.7444 14.2813 16.623 14.2813C15.5016 14.2813 14.5631 13.3717 14.592 12.2503C14.6208 11.1049 15.5449 10.188 16.623 10.2193Z" fill="#A02C00"/>
<path d="M16.623 10.2218C17.7444 10.2555 18.7695 10.9654 18.7695 12.0892C18.7695 13.213 17.7444 14.2863 16.623 14.2863C15.5016 14.2863 14.5631 13.3766 14.592 12.2552C14.6232 11.1098 15.5449 10.1929 16.623 10.2242V10.2218Z" fill="#A22C00"/>
<path d="M16.6249 10.2242C17.7463 10.2579 18.7739 10.9678 18.7739 12.0892C18.7739 13.2106 17.7487 14.2862 16.6249 14.2862C15.5011 14.2862 14.565 13.3766 14.5939 12.2552C14.6252 11.1098 15.5469 10.1929 16.6249 10.2242Z" fill="#A32C00"/>
<path d="M16.6269 10.2266C17.7483 10.2603 18.7758 10.9678 18.7758 12.0892C18.7758 13.2106 17.7483 14.2887 16.6269 14.2887C15.5055 14.2887 14.567 13.379 14.5959 12.2576C14.6271 11.1122 15.5488 10.1953 16.6269 10.2266Z" fill="#A42D00"/>
<path d="M16.6298 10.229C17.7512 10.2627 18.7788 10.9702 18.7788 12.0916C18.7788 13.213 17.7512 14.291 16.6298 14.291C15.5084 14.291 14.5699 13.3814 14.5988 12.26C14.6301 11.1145 15.5517 10.1977 16.6298 10.229Z" fill="#A62D00"/>
<path d="M16.6298 10.2339C17.7512 10.2675 18.7788 10.9726 18.7788 12.094C18.7788 13.2154 17.7512 14.2935 16.6298 14.2935C15.5084 14.2935 14.5699 13.3839 14.5988 12.2625C14.6301 11.117 15.5517 10.2002 16.6298 10.2314V10.2339Z" fill="#A72E00"/>
<path d="M16.6318 10.2362C17.7532 10.2699 18.7831 10.9726 18.7831 12.094C18.7831 13.2154 17.7532 14.2959 16.6318 14.2959C15.5104 14.2959 14.5719 13.3862 14.6007 12.2648C14.632 11.1194 15.5537 10.2025 16.6318 10.2338V10.2362Z" fill="#A82E00"/>
<path d="M16.6344 10.2387C17.7558 10.2748 18.7857 10.975 18.7857 12.0964C18.7857 13.2178 17.7558 14.2983 16.6344 14.2983C15.513 14.2983 14.5745 13.3887 14.6057 12.2697C14.637 11.1242 15.5587 10.2074 16.6344 10.2411V10.2387Z" fill="#AA2E00"/>
<path d="M16.6344 10.2411C17.7558 10.2772 18.7857 10.9751 18.7857 12.0965C18.7857 13.2179 17.7558 14.3007 16.6344 14.3007C15.513 14.3007 14.5745 13.3911 14.6057 12.2721C14.637 11.1267 15.5611 10.2098 16.6344 10.2435V10.2411Z" fill="#AB2F00"/>
<path d="M16.6373 10.2435C17.7563 10.2796 18.791 10.975 18.791 12.0964C18.791 13.2178 17.7587 14.3007 16.6373 14.3007C15.5159 14.3007 14.5774 13.3911 14.6087 12.2721C14.64 11.1266 15.564 10.2098 16.6373 10.2435Z" fill="#AC2F00"/>
<path d="M16.6395 10.2458C17.7585 10.2819 18.7932 10.9774 18.7932 12.0988C18.7932 13.2202 17.7609 14.3055 16.6395 14.3055C15.5181 14.3055 14.5796 13.3958 14.6109 12.2769C14.6422 11.1314 15.5662 10.2145 16.6395 10.2482V10.2458Z" fill="#AE2F00"/>
<path d="M16.6422 10.2482C17.7612 10.2843 18.7959 10.9774 18.7959 12.0988C18.7959 13.2202 17.7636 14.3055 16.6422 14.3055C15.5208 14.3055 14.5823 13.3958 14.6136 12.2768C14.6472 11.1314 15.5689 10.2145 16.6422 10.2482Z" fill="#AF3000"/>
<path d="M16.6422 10.2507C17.7612 10.2868 18.7959 10.9798 18.7959 12.0988C18.7959 13.2178 17.7612 14.3079 16.6422 14.3079C15.5232 14.3079 14.5823 13.3983 14.6136 12.2793C14.6472 11.1338 15.5689 10.217 16.6422 10.2507Z" fill="#B03000"/>
<path d="M16.6441 10.2531C17.7631 10.2892 18.8003 10.9798 18.8003 12.0988C18.8003 13.2178 17.7655 14.3079 16.6441 14.3079C15.5227 14.3079 14.5842 13.4007 14.6155 12.2793C14.6492 11.1338 15.5709 10.217 16.6441 10.2507V10.2531Z" fill="#B23000"/>
<path d="M16.647 10.2555C17.766 10.2916 18.8032 10.9799 18.8032 12.1012C18.8032 13.2226 17.766 14.3103 16.647 14.3103C15.5281 14.3103 14.5872 13.4031 14.6184 12.2817C14.6521 11.1363 15.5738 10.2194 16.647 10.2531V10.2555Z" fill="#B33100"/>
<path d="M16.6467 10.2603C17.7657 10.2988 18.8029 10.9847 18.8029 12.1036C18.8029 13.2226 17.7657 14.3152 16.6467 14.3152C15.5277 14.3152 14.5868 13.4079 14.6205 12.2889C14.6542 11.1435 15.5759 10.2266 16.6467 10.2627V10.2603Z" fill="#B43100"/>
<path d="M16.6487 10.2626C17.7677 10.3011 18.8048 10.9846 18.8048 12.1036C18.8048 13.2225 17.7677 14.3151 16.6487 14.3151C15.5297 14.3151 14.5888 13.4078 14.6225 12.2889C14.6561 11.1434 15.5778 10.2265 16.6487 10.2626Z" fill="#B63200"/>
<path d="M16.6514 10.2651C17.7703 10.3036 18.8099 10.987 18.8099 12.106C18.8099 13.225 17.7703 14.3199 16.6514 14.3199C15.5324 14.3199 14.5915 13.4127 14.6251 12.2937C14.6588 11.1483 15.5805 10.2314 16.6514 10.2675V10.2651Z" fill="#B73200"/>
<path d="M16.6536 10.2675C17.7725 10.306 18.8121 10.987 18.8121 12.106C18.8121 13.225 17.7725 14.3199 16.6536 14.3199C15.5346 14.3199 14.5937 13.4127 14.6273 12.2937C14.661 11.1483 15.5827 10.2314 16.6536 10.2675Z" fill="#B83200"/>
<path d="M16.6536 10.27C17.7725 10.3085 18.8121 10.9871 18.8121 12.1061C18.8121 13.2251 17.7725 14.3224 16.6536 14.3224C15.5346 14.3224 14.5937 13.4152 14.6273 12.2962C14.661 11.1507 15.5851 10.2339 16.6536 10.27Z" fill="#BA3300"/>
<path d="M18.8175 12.1084C18.8175 13.2274 17.7755 14.3247 16.6565 14.3247C15.5375 14.3247 14.5966 13.4175 14.6303 12.2985C14.6664 11.153 15.588 10.2362 16.6565 10.2723C17.7755 10.3108 18.8175 10.9894 18.8175 12.1084Z" fill="#BB3300"/>
<path opacity="0.99" d="M16.6587 10.2747C17.7777 10.3132 18.8172 10.9919 18.8172 12.1108C18.8172 13.2298 17.7777 14.3248 16.6587 14.3248C15.5397 14.3248 14.5988 13.4175 14.6325 12.2985C14.6662 11.1531 15.5878 10.2362 16.6587 10.2723V10.2747Z" fill="#BB3402"/>
<path opacity="0.99" d="M16.6587 10.2771C17.7777 10.3156 18.8172 10.9966 18.8172 12.1156C18.8172 13.2346 17.7777 14.3295 16.6587 14.3295C15.5397 14.3295 14.5988 13.4223 14.6325 12.3033C14.6662 11.1579 15.5878 10.241 16.6587 10.2771Z" fill="#BC3604"/>
<path opacity="0.98" d="M16.6614 10.2796C17.7804 10.3181 18.8175 10.9991 18.8175 12.1181C18.8175 13.2371 17.7804 14.3296 16.6614 14.3296C15.5424 14.3296 14.6015 13.4224 14.6352 12.3034C14.6688 11.1579 15.5905 10.2411 16.6614 10.2772V10.2796Z" fill="#BC3705"/>
<path opacity="0.97" d="M16.6614 10.2795C17.7804 10.318 18.8175 11.0014 18.8175 12.1204C18.8175 13.2394 17.7804 14.3319 16.6614 14.3319C15.5424 14.3319 14.6015 13.4247 14.6352 12.3057C14.6688 11.1626 15.5905 10.2434 16.6614 10.2795Z" fill="#BD3907"/>
<path opacity="0.96" d="M16.6633 10.282C17.7823 10.3205 18.8195 11.0063 18.8195 12.1253C18.8195 13.2443 17.7823 14.3344 16.6633 14.3344C15.5443 14.3344 14.6034 13.4272 14.6371 12.3082C14.6708 11.1651 15.5925 10.2459 16.6633 10.282Z" fill="#BD3A09"/>
<path opacity="0.96" d="M16.6632 10.2844C17.7822 10.3205 18.817 11.0087 18.817 12.1277C18.817 13.2467 17.7822 14.3368 16.6632 14.3368C15.5442 14.3368 14.6057 13.4296 14.637 12.3106C14.6707 11.1675 15.5923 10.2483 16.6632 10.2844Z" fill="#BE3C0B"/>
<path opacity="0.95" d="M16.6661 10.2868C17.7851 10.3229 18.8199 11.0135 18.8199 12.1325C18.8199 13.2515 17.7851 14.3392 16.6661 14.3392C15.5471 14.3392 14.6086 13.432 14.6399 12.313C14.6736 11.17 15.5953 10.2531 16.6661 10.2868Z" fill="#BE3D0D"/>
<path opacity="0.94" d="M16.6661 10.2891C17.7851 10.3252 18.8175 11.0159 18.8175 12.1349C18.8175 13.2538 17.7851 14.3415 16.6661 14.3415C15.5471 14.3415 14.6086 13.4343 14.6399 12.3153C14.6736 11.1723 15.5929 10.2554 16.6661 10.2891Z" fill="#BF3F0E"/>
<path opacity="0.94" d="M16.6681 10.2915C17.7871 10.3276 18.8194 11.0207 18.8194 12.1397C18.8194 13.2587 17.7871 14.344 16.6681 14.344C15.5491 14.344 14.6106 13.4367 14.6419 12.3178C14.6756 11.1747 15.5948 10.2579 16.6681 10.2915Z" fill="#BF4010"/>
<path opacity="0.93" d="M16.67 10.294C17.789 10.3301 18.8214 11.0231 18.8214 12.1421C18.8214 13.2611 17.789 14.344 16.67 14.344C15.551 14.344 14.6125 13.4368 14.6438 12.3178C14.6751 11.1747 15.5968 10.2579 16.67 10.2916V10.294Z" fill="#C04112"/>
<path opacity="0.92" d="M16.67 10.294C17.789 10.3301 18.819 11.0256 18.819 12.1445C18.819 13.2635 17.789 14.3464 16.67 14.3464C15.551 14.3464 14.6125 13.4392 14.6438 12.3202C14.6751 11.1772 15.5968 10.2603 16.67 10.294Z" fill="#C04314"/>
<path opacity="0.91" d="M16.673 10.2964C17.792 10.3325 18.8219 11.028 18.8219 12.147C18.8219 13.2659 17.792 14.3464 16.673 14.3464C15.554 14.3464 14.6155 13.4392 14.6468 12.3202C14.678 11.1772 15.5997 10.2603 16.673 10.294V10.2964Z" fill="#C14416"/>
<path opacity="0.91" d="M16.673 10.2988C17.792 10.3349 18.8195 11.0328 18.8195 12.1517C18.8195 13.2707 17.792 14.3512 16.673 14.3512C15.554 14.3512 14.6155 13.444 14.6468 12.325C14.678 11.182 15.5997 10.2651 16.673 10.2988Z" fill="#C14618"/>
<path opacity="0.9" d="M16.6749 10.3012C17.7939 10.3349 18.8215 11.0376 18.8215 12.1566C18.8215 13.2756 17.7939 14.3536 16.6749 14.3536C15.5559 14.3536 14.6174 13.4464 14.6487 12.3274C14.68 11.1844 15.6017 10.2675 16.6749 10.3012Z" fill="#C24719"/>
<path opacity="0.89" d="M16.6749 10.3036C17.7939 10.3373 18.8215 11.04 18.8215 12.159C18.8215 13.278 17.7939 14.3561 16.6749 14.3561C15.5559 14.3561 14.6174 13.4488 14.6487 12.3299C14.68 11.1868 15.5993 10.27 16.6749 10.3036Z" fill="#C2491B"/>
<path opacity="0.89" d="M16.6775 10.306C17.7965 10.3397 18.8216 11.0448 18.8216 12.1638C18.8216 13.2827 17.7965 14.3584 16.6775 14.3584C15.5585 14.3584 14.6224 13.4512 14.6513 12.3322C14.6826 11.1892 15.6018 10.2747 16.6775 10.306Z" fill="#C34A1D"/>
<path opacity="0.88" d="M16.6799 10.306C17.7989 10.3397 18.8241 11.0448 18.8241 12.1638C18.8241 13.2827 17.7989 14.3584 16.6799 14.3584C15.5609 14.3584 14.6248 13.4512 14.6537 12.3322C14.685 11.1916 15.6043 10.2747 16.6799 10.306Z" fill="#C34C1F"/>
<path opacity="0.87" d="M16.6799 10.3085C17.7989 10.3421 18.8217 11.0496 18.8217 12.1686C18.8217 13.2876 17.7989 14.3609 16.6799 14.3609C15.5609 14.3609 14.6248 13.4537 14.6537 12.3347C14.685 11.194 15.6043 10.2772 16.6799 10.3085Z" fill="#C44D21"/>
<path opacity="0.87" d="M16.6826 10.3108C17.8016 10.3445 18.8243 11.052 18.8243 12.171C18.8243 13.29 17.8016 14.3608 16.6826 14.3608C15.5636 14.3608 14.6275 13.4536 14.6564 12.3346C14.6877 11.194 15.607 10.2771 16.6826 10.3084V10.3108Z" fill="#C44E22"/>
<path opacity="0.86" d="M16.6826 10.3133C17.8016 10.347 18.8243 11.0569 18.8243 12.1759C18.8243 13.2949 17.8016 14.3657 16.6826 14.3657C15.5636 14.3657 14.6275 13.4585 14.6564 12.3395C14.6853 11.1989 15.607 10.282 16.6826 10.3133Z" fill="#C55024"/>
<path opacity="0.85" d="M16.6856 10.3157C17.8045 10.3494 18.8249 11.0617 18.8249 12.1783C18.8249 13.2949 17.8045 14.3657 16.6856 14.3657C15.5666 14.3657 14.6305 13.4585 14.6593 12.3395C14.6882 11.1989 15.6099 10.282 16.6856 10.3133V10.3157Z" fill="#C55126"/>
<path opacity="0.84" d="M16.6856 10.3181C17.8045 10.3517 18.8249 11.064 18.8249 12.183C18.8249 13.302 17.8045 14.3705 16.6856 14.3705C15.5666 14.3705 14.6305 13.4633 14.6593 12.3443C14.6882 11.2036 15.6075 10.2868 16.6856 10.3181Z" fill="#C65328"/>
<path opacity="0.84" d="M16.6878 10.318C17.8067 10.3493 18.8247 11.0664 18.8247 12.1854C18.8247 13.3044 17.8067 14.3704 16.6878 14.3704C15.5688 14.3704 14.6327 13.4632 14.6615 12.3442C14.6904 11.2036 15.6097 10.2867 16.6878 10.318Z" fill="#C6542A"/>
<path opacity="0.83" d="M16.6878 10.3205C17.8067 10.3518 18.8247 11.0689 18.8247 12.1879C18.8247 13.3069 17.8067 14.3729 16.6878 14.3729C15.5688 14.3729 14.6327 13.4657 14.6615 12.3467C14.6904 11.206 15.6097 10.2892 16.6878 10.3205Z" fill="#C7562B"/>
<path opacity="0.82" d="M16.6904 10.3228C17.8094 10.3541 18.8273 11.0736 18.8273 12.1926C18.8273 13.3116 17.8094 14.3752 16.6904 14.3752C15.5714 14.3752 14.6353 13.468 14.6642 12.349C14.6931 11.2084 15.6124 10.2939 16.6904 10.3228Z" fill="#C7572D"/>
<path opacity="0.82" d="M16.6923 10.3252C17.8113 10.3565 18.8268 11.076 18.8268 12.195C18.8268 13.314 17.8113 14.3753 16.6923 14.3753C15.5733 14.3753 14.6396 13.468 14.6661 12.349C14.695 11.2084 15.6142 10.294 16.6923 10.3228V10.3252Z" fill="#C8592F"/>
<path opacity="0.81" d="M16.6923 10.3277C17.8113 10.359 18.8268 11.0809 18.8268 12.1999C18.8268 13.3189 17.8113 14.3801 16.6923 14.3801C15.5733 14.3801 14.6396 13.4729 14.6661 12.3539C14.695 11.2133 15.6142 10.2988 16.6923 10.3277Z" fill="#C85A31"/>
<path opacity="0.8" d="M16.6952 10.3301C17.8142 10.3614 18.8273 11.0833 18.8273 12.2023C18.8273 13.3213 17.8142 14.3801 16.6952 14.3801C15.5762 14.3801 14.6425 13.4729 14.669 12.3539C14.6979 11.2133 15.6171 10.2988 16.6952 10.3277V10.3301Z" fill="#C95C33"/>
<path opacity="0.79" d="M16.6952 10.3325C17.8142 10.3638 18.8273 11.0881 18.8273 12.2071C18.8273 13.3261 17.8142 14.3849 16.6952 14.3849C15.5762 14.3849 14.6425 13.4777 14.669 12.3587C14.6979 11.218 15.6147 10.3036 16.6952 10.3325Z" fill="#C95D34"/>
<path opacity="0.79" d="M16.6972 10.3325C17.8162 10.3638 18.8293 11.0905 18.8293 12.2095C18.8293 13.3285 17.8162 14.3849 16.6972 14.3849C15.5782 14.3849 14.6445 13.4777 14.671 12.3587C14.6974 11.2204 15.6167 10.3036 16.6972 10.3325Z" fill="#C95E36"/>
<path opacity="0.78" d="M16.6972 10.3349C17.8162 10.3661 18.8269 11.0929 18.8269 12.2119C18.8269 13.3309 17.8162 14.3873 16.6972 14.3873C15.5782 14.3873 14.6445 13.4801 14.671 12.3611C14.6974 11.2228 15.6167 10.306 16.6972 10.3349Z" fill="#CA6038"/>
<path opacity="0.77" d="M16.6991 10.3373C17.8181 10.3662 18.8288 11.0978 18.8288 12.2168C18.8288 13.3358 17.8181 14.3898 16.6991 14.3898C15.5801 14.3898 14.6464 13.4825 14.6729 12.3636C14.6994 11.2253 15.6186 10.3085 16.6991 10.3373Z" fill="#CA613A"/>
<path opacity="0.77" d="M16.6991 10.3397C17.8181 10.3685 18.8288 11.1001 18.8288 12.2191C18.8288 13.3381 17.8181 14.3921 16.6991 14.3921C15.5801 14.3921 14.6464 13.4849 14.6729 12.3659C14.6994 11.2276 15.6186 10.3108 16.6991 10.3397Z" fill="#CB633C"/>
<path opacity="0.76" d="M16.7018 10.3421C17.8208 10.371 18.8291 11.1049 18.8291 12.2239C18.8291 13.3429 17.8208 14.3945 16.7018 14.3945C15.5828 14.3945 14.6491 13.4873 14.6756 12.3683C14.7021 11.2301 15.6213 10.3132 16.7018 10.3421Z" fill="#CB643D"/>
<path opacity="0.75" d="M16.704 10.3445C17.823 10.3734 18.8313 11.1074 18.8313 12.2264C18.8313 13.3453 17.823 14.3946 16.704 14.3946C15.585 14.3946 14.6513 13.4873 14.6778 12.3683C14.7043 11.2301 15.6211 10.3157 16.704 10.3421V10.3445Z" fill="#CC663F"/>
<path opacity="0.74" d="M16.7039 10.3446C17.8229 10.3734 18.8288 11.1098 18.8288 12.2288C18.8288 13.3478 17.8229 14.397 16.7039 14.397C15.5849 14.397 14.6536 13.4898 14.6777 12.3708C14.7042 11.2325 15.621 10.3181 16.7039 10.3446Z" fill="#CC6741"/>
<path opacity="0.74" d="M16.7066 10.347C17.8256 10.3758 18.8315 11.1146 18.8315 12.2312C18.8315 13.3478 17.8256 14.397 16.7066 14.397C15.5876 14.397 14.6563 13.4897 14.6804 12.3708C14.7069 11.2325 15.6237 10.3181 16.7066 10.3445V10.347Z" fill="#CD6943"/>
<path opacity="0.73" d="M16.7066 10.3493C17.8256 10.3782 18.8315 11.117 18.8315 12.236C18.8315 13.355 17.8256 14.4017 16.7066 14.4017C15.5876 14.4017 14.6563 13.4945 14.6804 12.3755C14.7069 11.2373 15.6237 10.3229 16.7066 10.3493Z" fill="#CD6A45"/>
<path opacity="0.72" d="M16.709 10.3517C17.828 10.3806 18.8315 11.1218 18.8315 12.2408C18.8315 13.3597 17.828 14.4041 16.709 14.4041C15.5901 14.4041 14.6588 13.4969 14.6828 12.3779C14.7069 11.2397 15.6261 10.3252 16.709 10.3517Z" fill="#CE6B47"/>
<path opacity="0.72" d="M16.709 10.3542C17.828 10.3831 18.8315 11.1242 18.8315 12.2432C18.8315 13.3622 17.828 14.4066 16.709 14.4066C15.5901 14.4066 14.6588 13.4994 14.6828 12.3804C14.7069 11.2422 15.6261 10.3277 16.709 10.3542Z" fill="#CE6D48"/>
<path opacity="0.71" d="M16.7117 10.3565C17.8307 10.383 18.8318 11.129 18.8318 12.248C18.8318 13.367 17.8307 14.409 16.7117 14.409C15.5927 14.409 14.6615 13.5017 14.6855 12.3827C14.7096 11.2445 15.6288 10.3301 16.7117 10.3565Z" fill="#CF6E4A"/>
<path opacity="0.7" d="M16.7137 10.3566C17.8327 10.3831 18.8337 11.129 18.8337 12.248C18.8337 13.367 17.8327 14.4066 16.7137 14.4066C15.5947 14.4066 14.6634 13.4994 14.6875 12.3804C14.7115 11.2422 15.6284 10.3277 16.7137 10.3542V10.3566Z" fill="#CF704C"/>
<path opacity="0.7" d="M16.7137 10.359C17.8327 10.3854 18.8337 11.1338 18.8337 12.2528C18.8337 13.3718 17.8327 14.4114 16.7137 14.4114C15.5947 14.4114 14.6634 13.5042 14.6875 12.3852C14.7115 11.2493 15.6284 10.3325 16.7137 10.359Z" fill="#D0714E"/>
<path opacity="0.69" d="M16.7166 10.3613C17.8356 10.3878 18.8343 11.1362 18.8343 12.2551C18.8343 13.3741 17.8356 14.4113 16.7166 14.4113C15.5976 14.4113 14.6663 13.5041 14.6904 12.3851C14.7145 11.2493 15.6313 10.3348 16.7166 10.3589V10.3613Z" fill="#D07350"/>
<path opacity="0.68" d="M16.7166 10.3638C17.8356 10.3902 18.8343 11.141 18.8343 12.26C18.8343 13.379 17.8356 14.4162 16.7166 14.4162C15.5976 14.4162 14.6663 13.509 14.6904 12.39C14.7145 11.2541 15.6313 10.3397 16.7166 10.3638Z" fill="#D17451"/>
<path opacity="0.67" d="M16.7185 10.3662C17.8375 10.3927 18.8337 11.1459 18.8337 12.2649C18.8337 13.3838 17.8375 14.4186 16.7185 14.4186C15.5995 14.4186 14.6706 13.5114 14.6923 12.3924C14.7163 11.2566 15.6332 10.3421 16.7185 10.3662Z" fill="#D17653"/>
<path opacity="0.67" d="M16.7185 10.3686C17.8375 10.395 18.8337 11.1483 18.8337 12.2672C18.8337 13.3862 17.8375 14.421 16.7185 14.421C15.5995 14.421 14.6706 13.5138 14.6923 12.3948C14.7163 11.259 15.6332 10.3445 16.7185 10.3686Z" fill="#D27755"/>
<path opacity="0.66" d="M16.7204 10.3685C17.8394 10.395 18.8357 11.1506 18.8357 12.2696C18.8357 13.3886 17.8394 14.4209 16.7204 14.4209C15.6014 14.4209 14.6726 13.5137 14.6942 12.3947C14.7183 11.2589 15.6351 10.3445 16.7204 10.3685Z" fill="#D27857"/>
<path opacity="0.65" d="M16.7204 10.371C17.8394 10.395 18.8333 11.1531 18.8333 12.272C18.8333 13.391 17.8394 14.4234 16.7204 14.4234C15.6014 14.4234 14.6726 13.5162 14.6942 12.3972C14.7159 11.2613 15.6327 10.3469 16.7204 10.371Z" fill="#D37A59"/>
<path opacity="0.65" d="M16.7234 10.3734C17.8423 10.3974 18.8362 11.1579 18.8362 12.2768C18.8362 13.3958 17.8423 14.4258 16.7234 14.4258C15.6044 14.4258 14.6755 13.5186 14.6971 12.3996C14.7188 11.2637 15.6357 10.3493 16.7234 10.3734Z" fill="#D37B5A"/>
<path opacity="0.64" d="M16.7253 10.3758C17.8443 10.3999 18.8358 11.1603 18.8358 12.2793C18.8358 13.3983 17.8443 14.4258 16.7253 14.4258C15.6063 14.4258 14.6774 13.5186 14.6991 12.3996C14.7208 11.2638 15.6376 10.3493 16.7253 10.3734V10.3758Z" fill="#D47D5C"/>
<path opacity="0.63" d="M16.7253 10.3782C17.8443 10.4022 18.8358 11.1651 18.8358 12.2841C18.8358 13.403 17.8443 14.4306 16.7253 14.4306C15.6063 14.4306 14.6774 13.5234 14.6991 12.4044C14.7208 11.2685 15.6376 10.3541 16.7253 10.3782Z" fill="#D47E5E"/>
<path opacity="0.62" d="M16.728 10.3806C17.847 10.4047 18.8384 11.1675 18.8384 12.2865C18.8384 13.4055 17.847 14.4306 16.728 14.4306C15.609 14.4306 14.6801 13.5234 14.7018 12.4044C14.7234 11.2686 15.6403 10.3565 16.728 10.3782V10.3806Z" fill="#D58060"/>
<path opacity="0.62" d="M16.728 10.3831C17.847 10.4071 18.836 11.1724 18.836 12.2913C18.836 13.4103 17.847 14.4355 16.728 14.4355C15.609 14.4355 14.6801 13.5283 14.7018 12.4093C14.7234 11.2734 15.6403 10.3614 16.728 10.3831Z" fill="#D58162"/>
<path opacity="0.61" d="M16.7309 10.3831C17.8499 10.4071 18.839 11.1748 18.839 12.2938C18.839 13.4127 17.8499 14.4355 16.7309 14.4355C15.6119 14.4355 14.6831 13.5283 14.7047 12.4093C14.7264 11.2734 15.6432 10.3614 16.7309 10.3831Z" fill="#D68363"/>
<path opacity="0.6" d="M16.7309 10.3854C17.8498 10.4095 18.8365 11.1772 18.8365 12.2961C18.8365 13.4151 17.8498 14.4379 16.7309 14.4379C15.6119 14.4379 14.6854 13.5306 14.7046 12.4117C14.7263 11.2782 15.6407 10.3638 16.7309 10.3854Z" fill="#D68465"/>
<path opacity="0.6" d="M16.733 10.3878C17.852 10.4119 18.8387 11.182 18.8387 12.301C18.8387 13.4199 17.852 14.4403 16.733 14.4403C15.6141 14.4403 14.6876 13.533 14.7068 12.4141C14.7285 11.2806 15.6429 10.3662 16.733 10.3878Z" fill="#D68567"/>
<path opacity="0.59" d="M16.733 10.3902C17.852 10.4119 18.8387 11.1844 18.8387 12.3034C18.8387 13.4223 17.852 14.4403 16.733 14.4403C15.6141 14.4403 14.6876 13.533 14.7068 12.4141C14.7285 11.2806 15.6429 10.3662 16.733 10.3878V10.3902Z" fill="#D78769"/>
<path opacity="0.58" d="M16.736 10.3926C17.855 10.4143 18.8392 11.1891 18.8392 12.3081C18.8392 13.4271 17.855 14.445 16.736 14.445C15.617 14.445 14.6905 13.5378 14.7098 12.4188C14.729 11.2854 15.6459 10.3709 16.736 10.3926Z" fill="#D7886B"/>
<path opacity="0.57" d="M16.7382 10.395C17.8572 10.4167 18.8414 11.1915 18.8414 12.3105C18.8414 13.4295 17.8572 14.445 16.7382 14.445C15.6192 14.445 14.6927 13.5378 14.712 12.4188C14.7312 11.2854 15.6481 10.371 16.7382 10.3926V10.395Z" fill="#D88A6D"/>
<path opacity="0.57" d="M16.7382 10.3951C17.8572 10.4167 18.839 11.194 18.839 12.313C18.839 13.432 17.8572 14.4475 16.7382 14.4475C15.6192 14.4475 14.6927 13.5403 14.712 12.4213C14.7312 11.2879 15.6481 10.3734 16.7382 10.3951Z" fill="#D88B6E"/>
<path opacity="0.56" d="M16.7409 10.3974C17.8598 10.4191 18.8417 11.1987 18.8417 12.3177C18.8417 13.4367 17.8598 14.4498 16.7409 14.4498C15.6219 14.4498 14.6954 13.5426 14.7147 12.4236C14.7339 11.2902 15.6507 10.3782 16.7409 10.3974Z" fill="#D98D70"/>
<path opacity="0.55" d="M16.7409 10.3999C17.8598 10.4215 18.8417 11.2012 18.8417 12.3202C18.8417 13.4392 17.8598 14.4523 16.7409 14.4523C15.6219 14.4523 14.6954 13.5451 14.7147 12.4261C14.7339 11.2926 15.6483 10.3806 16.7409 10.3999Z" fill="#D98E72"/>
<path opacity="0.55" d="M16.7428 10.4022C17.8618 10.4239 18.8412 11.206 18.8412 12.325C18.8412 13.444 17.8618 14.4547 16.7428 14.4547C15.6238 14.4547 14.6974 13.5474 14.7166 12.4285C14.7359 11.295 15.6503 10.383 16.7428 10.4022Z" fill="#DA9074"/>
<path opacity="0.54" d="M16.7428 10.4047C17.8618 10.4264 18.8412 11.2085 18.8412 12.3274C18.8412 13.4464 17.8618 14.4571 16.7428 14.4571C15.6238 14.4571 14.6974 13.5499 14.7166 12.4309C14.7359 11.2975 15.6503 10.3855 16.7428 10.4047Z" fill="#DA9176"/>
<path opacity="0.53" d="M16.7457 10.4071C17.8647 10.4287 18.8417 11.2132 18.8417 12.3322C18.8417 13.4512 17.8647 14.4595 16.7457 14.4595C15.6267 14.4595 14.7026 13.5523 14.7195 12.4333C14.7387 11.2998 15.6532 10.3878 16.7457 10.4071Z" fill="#DB9277"/>
<path opacity="0.52" d="M16.7476 10.4071C17.8666 10.4264 18.8436 11.2133 18.8436 12.3323C18.8436 13.4512 17.8666 14.4571 16.7476 14.4571C15.6286 14.4571 14.7046 13.5499 14.7214 12.4309C14.7407 11.2975 15.6551 10.3855 16.7476 10.4047V10.4071Z" fill="#DB9479"/>
<path opacity="0.52" d="M16.7476 10.4095C17.8666 10.4287 18.8436 11.2181 18.8436 12.337C18.8436 13.456 17.8666 14.4619 16.7476 14.4619C15.6286 14.4619 14.7046 13.5547 14.7214 12.4357C14.7407 11.3023 15.6551 10.3902 16.7476 10.4095Z" fill="#DC957B"/>
<path opacity="0.51" d="M16.7496 10.4119C17.8686 10.4312 18.8432 11.2205 18.8432 12.3394C18.8432 13.4584 17.8686 14.4619 16.7496 14.4619C15.6306 14.4619 14.7065 13.5547 14.7234 12.4357C14.7402 11.3047 15.6547 10.3902 16.7496 10.4095V10.4119Z" fill="#DC977D"/>
<path opacity="0.5" d="M16.7496 10.4143C17.8686 10.4335 18.8432 11.2252 18.8432 12.3442C18.8432 13.4632 17.8686 14.4667 16.7496 14.4667C15.6306 14.4667 14.7065 13.5595 14.7234 12.4405C14.7402 11.3094 15.6547 10.395 16.7496 10.4143Z" fill="#DD987F"/>
<path opacity="0.5" d="M16.7525 10.4167C17.8715 10.436 18.8437 11.2301 18.8437 12.3491C18.8437 13.4681 17.8691 14.4692 16.7525 14.4692C15.6359 14.4692 14.7095 13.5619 14.7263 12.443C14.7431 11.3119 15.6576 10.3999 16.7525 10.4167Z" fill="#DD9A80"/>
<path opacity="0.49" d="M16.7525 10.4191C17.8715 10.4384 18.8437 11.2325 18.8437 12.3515C18.8437 13.4705 17.8715 14.4716 16.7525 14.4716C15.6335 14.4716 14.7095 13.5643 14.7263 12.4453C14.7431 11.3143 15.6576 10.4023 16.7525 10.4191Z" fill="#DE9B82"/>
<path opacity="0.48" d="M16.7545 10.4192C17.8735 10.4384 18.8457 11.235 18.8457 12.354C18.8457 13.4729 17.8735 14.4716 16.7545 14.4716C15.6355 14.4716 14.7114 13.5644 14.7283 12.4454C14.7451 11.3144 15.6595 10.4023 16.7545 10.4192Z" fill="#DE9D84"/>
<path opacity="0.48" d="M16.7545 10.4215C17.8735 10.4408 18.8432 11.2373 18.8432 12.3563C18.8432 13.4753 17.8735 14.4739 16.7545 14.4739C15.6355 14.4739 14.7114 13.5667 14.7283 12.4477C14.7451 11.3167 15.6595 10.4047 16.7545 10.4215Z" fill="#DF9E86"/>
<path opacity="0.47" d="M16.7572 10.4239C17.8761 10.4432 18.8459 11.2421 18.8459 12.3611C18.8459 13.4801 17.8761 14.4763 16.7572 14.4763C15.6382 14.4763 14.7141 13.5691 14.7309 12.4501C14.7478 11.3191 15.6622 10.4071 16.7572 10.4239Z" fill="#DFA088"/>
<path opacity="0.46" d="M16.7595 10.4263C17.8785 10.4432 18.8483 11.2445 18.8483 12.3635C18.8483 13.4825 17.8785 14.4763 16.7595 14.4763C15.6405 14.4763 14.7189 13.5691 14.7333 12.4501C14.7502 11.3191 15.6622 10.4071 16.7595 10.4239V10.4263Z" fill="#E0A189"/>
<path opacity="0.45" d="M16.7595 10.4288C17.8785 10.4456 18.8459 11.2494 18.8459 12.3683C18.8459 13.4873 17.8785 14.4812 16.7595 14.4812C15.6405 14.4812 14.7189 13.574 14.7333 12.455C14.7502 11.324 15.6622 10.4119 16.7595 10.4288Z" fill="#E0A28B"/>
<path opacity="0.45" d="M16.7622 10.4311C17.8812 10.448 18.8486 11.2541 18.8486 12.3707C18.8486 13.4873 17.8812 14.4811 16.7622 14.4811C15.6432 14.4811 14.7216 13.5739 14.736 12.4549C14.7504 11.3239 15.6649 10.4119 16.7622 10.4287V10.4311Z" fill="#E1A48D"/>
<path opacity="0.44" d="M16.7622 10.4336C17.8812 10.4504 18.8462 11.2566 18.8462 12.3756C18.8462 13.4946 17.8812 14.486 16.7622 14.486C15.6432 14.486 14.7216 13.5788 14.736 12.4598C14.7504 11.3288 15.6649 10.4167 16.7622 10.4336Z" fill="#E1A58F"/>
<path opacity="0.43" d="M16.7642 10.4336C17.8832 10.4504 18.8481 11.259 18.8481 12.378C18.8481 13.4969 17.8832 14.486 16.7642 14.486C15.6452 14.486 14.7235 13.5788 14.738 12.4598C14.7524 11.3288 15.6668 10.4191 16.7642 10.4336Z" fill="#E2A791"/>
<path opacity="0.43" d="M16.7642 10.436C17.8832 10.4528 18.8481 11.2614 18.8481 12.3803C18.8481 13.4993 17.8832 14.4884 16.7642 14.4884C15.6452 14.4884 14.7235 13.5812 14.738 12.4622C14.7524 11.3311 15.6668 10.4215 16.7642 10.436Z" fill="#E2A892"/>
<path opacity="0.42" d="M16.7671 10.4383C17.8861 10.4551 18.8487 11.2661 18.8487 12.3851C18.8487 13.5041 17.8861 14.4907 16.7671 14.4907C15.6481 14.4907 14.7265 13.5835 14.7409 12.4645C14.7553 11.3359 15.6698 10.4239 16.7671 10.4383Z" fill="#E3AA94"/>
<path opacity="0.41" d="M16.7671 10.4407C17.8861 10.4575 18.8487 11.2685 18.8487 12.3875C18.8487 13.5065 17.8861 14.4907 16.7671 14.4907C15.6481 14.4907 14.7265 13.5835 14.7409 12.4645C14.7553 11.3359 15.6674 10.4239 16.7671 10.4383V10.4407Z" fill="#E3AB96"/>
<path opacity="0.4" d="M16.7691 10.4432C17.888 10.46 18.8482 11.2734 18.8482 12.3924C18.8482 13.5114 17.888 14.4956 16.7691 14.4956C15.6501 14.4956 14.7284 13.5884 14.7428 12.4694C14.7573 11.3408 15.6693 10.4288 16.7691 10.4432Z" fill="#E4AD98"/>
<path opacity="0.4" d="M16.771 10.4456C17.8899 10.46 18.8501 11.2758 18.8501 12.3948C18.8501 13.5138 17.8899 14.4956 16.771 14.4956C15.652 14.4956 14.7327 13.5884 14.7447 12.4694C14.7592 11.3408 15.6712 10.4287 16.771 10.4432V10.4456Z" fill="#E4AE9A"/>
<path opacity="0.39" d="M16.771 10.4456C17.8899 10.4601 18.8501 11.2782 18.8501 12.3972C18.8501 13.5162 17.8899 14.498 16.771 14.498C15.652 14.498 14.7327 13.5908 14.7447 12.4718C14.7592 11.3432 15.6712 10.4312 16.771 10.4456Z" fill="#E4AF9C"/>
<path opacity="0.38" d="M16.7739 10.448C17.8929 10.4624 18.8506 11.283 18.8506 12.402C18.8506 13.521 17.8929 14.5004 16.7739 14.5004C15.6549 14.5004 14.7356 13.5932 14.7477 12.4742C14.7621 11.3456 15.6741 10.4335 16.7739 10.448Z" fill="#E5B19D"/>
<path opacity="0.38" d="M16.7739 10.4504C17.8929 10.4648 18.8506 11.2854 18.8506 12.4044C18.8506 13.5234 17.8929 14.5028 16.7739 14.5028C15.6549 14.5028 14.7356 13.5956 14.7477 12.4766C14.7597 11.348 15.6741 10.4359 16.7739 10.4504Z" fill="#E5B29F"/>
<path opacity="0.37" d="M16.7768 10.4528C17.8958 10.4673 18.8512 11.2903 18.8512 12.4093C18.8512 13.5283 17.8958 14.5053 16.7768 14.5053C15.6578 14.5053 14.7386 13.598 14.7506 12.479C14.7626 11.3504 15.6771 10.4384 16.7768 10.4528Z" fill="#E6B4A1"/>
<path opacity="0.36" d="M16.7768 10.4552C17.8958 10.4697 18.8512 11.2927 18.8512 12.4117C18.8512 13.5307 17.8958 14.5077 16.7768 14.5077C15.6578 14.5077 14.7386 13.6004 14.7506 12.4815C14.7626 11.3528 15.6747 10.4432 16.7768 10.4552Z" fill="#E6B5A3"/>
<path opacity="0.35" d="M16.7785 10.4576C17.8975 10.4721 18.8529 11.2975 18.8529 12.4165C18.8529 13.5355 17.8975 14.5101 16.7785 14.5101C15.6595 14.5101 14.7403 13.6028 14.7523 12.4839C14.7643 11.3552 15.6764 10.4456 16.7785 10.4576Z" fill="#E7B7A5"/>
<path opacity="0.35" d="M16.7815 10.4577C17.9004 10.4721 18.8534 11.2975 18.8534 12.4165C18.8534 13.5355 17.9004 14.5077 16.7815 14.5077C15.6625 14.5077 14.7432 13.6004 14.7552 12.4815C14.7673 11.3528 15.6793 10.4432 16.7815 10.4552V10.4577Z" fill="#E7B8A6"/>
<path opacity="0.34" d="M16.7815 10.46C17.9004 10.4721 18.8534 11.3023 18.8534 12.4213C18.8534 13.5403 17.9004 14.5125 16.7815 14.5125C15.6625 14.5125 14.7432 13.6052 14.7552 12.4862C14.7673 11.3576 15.6793 10.448 16.7815 10.46Z" fill="#E8BAA8"/>
<path opacity="0.33" d="M16.7837 10.4624C17.9026 10.4744 18.8532 11.307 18.8532 12.4236C18.8532 13.5402 17.9026 14.5124 16.7837 14.5124C15.6647 14.5124 14.7454 13.6052 14.7574 12.4862C14.7695 11.3576 15.6815 10.4479 16.7837 10.46V10.4624Z" fill="#E8BBAA"/>
<path opacity="0.33" d="M16.7836 10.4649C17.9026 10.4769 18.8531 11.3095 18.8531 12.4285C18.8531 13.5475 17.9026 14.5173 16.7836 14.5173C15.6646 14.5173 14.7478 13.6101 14.7574 12.4911C14.7694 11.3649 15.6815 10.4528 16.7836 10.4649Z" fill="#E9BCAC"/>
<path opacity="0.32" d="M16.7863 10.4673C17.9053 10.4793 18.8558 11.3143 18.8558 12.4333C18.8558 13.5523 17.9053 14.5197 16.7863 14.5197C15.6673 14.5197 14.7505 13.6125 14.7601 12.4935C14.7721 11.3673 15.6842 10.4552 16.7863 10.4673Z" fill="#E9BEAE"/>
<path opacity="0.31" d="M16.7863 10.4697C17.9053 10.4817 18.8534 11.3167 18.8534 12.4357C18.8534 13.5547 17.9053 14.5221 16.7863 14.5221C15.6673 14.5221 14.7505 13.6149 14.7601 12.4959C14.7721 11.3697 15.6817 10.4576 16.7863 10.4697Z" fill="#EABFAF"/>
<path opacity="0.3" d="M16.7887 10.4721C17.9077 10.4841 18.8559 11.3215 18.8559 12.4405C18.8559 13.5595 17.9077 14.5245 16.7887 14.5245C15.6698 14.5245 14.7529 13.6173 14.7625 12.4983C14.7722 11.3721 15.6842 10.46 16.7887 10.4721Z" fill="#EAC1B1"/>
<path opacity="0.3" d="M16.7887 10.472C17.9077 10.4841 18.8535 11.3215 18.8535 12.4405C18.8535 13.5595 17.9077 14.522 16.7887 14.522C15.6698 14.522 14.7529 13.6148 14.7625 12.4958C14.7722 11.3696 15.6842 10.46 16.7887 10.4696V10.472Z" fill="#EBC2B3"/>
<path opacity="0.29" d="M16.7914 10.4745C17.9104 10.4865 18.8561 11.3263 18.8561 12.4453C18.8561 13.5643 17.9104 14.5269 16.7914 14.5269C15.6724 14.5269 14.7556 13.6197 14.7652 12.5007C14.7748 11.3745 15.6869 10.4648 16.7914 10.4745Z" fill="#EBC4B5"/>
<path opacity="0.28" d="M16.7934 10.4769C17.9124 10.4889 18.8581 11.3288 18.8581 12.4477C18.8581 13.5667 17.9124 14.5269 16.7934 14.5269C15.6744 14.5269 14.7575 13.6197 14.7672 12.5007C14.7768 11.3745 15.6888 10.4649 16.7934 10.4745V10.4769Z" fill="#ECC5B7"/>
<path opacity="0.28" d="M16.7934 10.4793C17.9124 10.4889 18.8557 11.3335 18.8557 12.4525C18.8557 13.5715 17.9124 14.5317 16.7934 14.5317C15.6744 14.5317 14.7575 13.6245 14.7672 12.5055C14.7768 11.3793 15.6888 10.4696 16.7934 10.4793Z" fill="#ECC7B8"/>
<path opacity="0.27" d="M16.7963 10.4817C17.9153 10.4913 18.8586 11.3383 18.8586 12.4573C18.8586 13.5763 17.9153 14.5341 16.7963 14.5341C15.6773 14.5341 14.7605 13.6269 14.7701 12.5079C14.7797 11.3817 15.6918 10.472 16.7963 10.4817Z" fill="#EDC8BA"/>
<path opacity="0.26" d="M16.7963 10.4841C17.9153 10.4937 18.8562 11.3408 18.8562 12.4598C18.8562 13.5788 17.9153 14.5365 16.7963 14.5365C15.6773 14.5365 14.7605 13.6293 14.7701 12.5103C14.7797 11.3841 15.6894 10.4745 16.7963 10.4841Z" fill="#EDC9BC"/>
<path opacity="0.26" d="M16.7982 10.4841C17.9172 10.4937 18.8581 11.3432 18.8581 12.4622C18.8581 13.5812 17.9172 14.5365 16.7982 14.5365C15.6792 14.5365 14.7648 13.6293 14.772 12.5103C14.7816 11.3841 15.6913 10.4745 16.7982 10.4841Z" fill="#EECBBE"/>
<path opacity="0.25" d="M16.7982 10.4865C17.9172 10.4961 18.8581 11.3456 18.8581 12.4646C18.8581 13.5836 17.9172 14.5389 16.7982 14.5389C15.6792 14.5389 14.7648 13.6317 14.772 12.5127C14.7816 11.3865 15.6913 10.4769 16.7982 10.4865Z" fill="#EECCC0"/>
<path opacity="0.24" d="M16.8002 10.4889C17.9192 10.4985 18.8577 11.3504 18.8577 12.4694C18.8577 13.5883 17.9192 14.5413 16.8002 14.5413C15.6812 14.5413 14.7667 13.6341 14.774 12.5151C14.7812 11.3889 15.6932 10.4792 16.8002 10.4889Z" fill="#EFCEC2"/>
<path opacity="0.23" d="M16.8031 10.4913C17.9221 10.501 18.8606 11.3528 18.8606 12.4718C18.8606 13.5908 17.9221 14.5414 16.8031 14.5414C15.6841 14.5414 14.7697 13.6341 14.7769 12.5151C14.7841 11.3913 15.6962 10.4817 16.8031 10.4889V10.4913Z" fill="#EFCFC3"/>
<path opacity="0.23" d="M16.8031 10.4937C17.9221 10.5033 18.8582 11.3576 18.8582 12.4766C18.8582 13.5956 17.9197 14.5461 16.8031 14.5461C15.6865 14.5461 14.7697 13.6389 14.7769 12.5199C14.7841 11.3961 15.6962 10.4865 16.8031 10.4937Z" fill="#F0D1C5"/>
<path opacity="0.22" d="M16.8051 10.4961C17.9241 10.5057 18.8601 11.3624 18.8601 12.479C18.8601 13.5956 17.9241 14.5461 16.8051 14.5461C15.6861 14.5461 14.7716 13.6389 14.7789 12.5199C14.7861 11.3961 15.6957 10.4865 16.8051 10.4937V10.4961Z" fill="#F0D2C7"/>
<path opacity="0.21" d="M16.8051 10.4962C17.9241 10.5034 18.8601 11.3625 18.8601 12.4815C18.8601 13.6004 17.9241 14.5486 16.8051 14.5486C15.6861 14.5486 14.7716 13.6414 14.7789 12.5224C14.7861 11.3986 15.6957 10.4889 16.8051 10.4962Z" fill="#F1D4C9"/>
<path opacity="0.21" d="M16.8077 10.4985C17.9267 10.5057 18.8604 11.3672 18.8604 12.4862C18.8604 13.6052 17.9267 14.5509 16.8077 14.5509C15.6888 14.5509 14.7743 13.6437 14.7815 12.5247C14.7888 11.4009 15.6984 10.4913 16.8077 10.4985Z" fill="#F1D5CB"/>
<path opacity="0.2" d="M16.8077 10.501C17.9267 10.5082 18.8604 11.3697 18.8604 12.4887C18.8604 13.6077 17.9267 14.5534 16.8077 14.5534C15.6888 14.5534 14.7743 13.6462 14.7815 12.5272C14.7888 11.4034 15.6984 10.4937 16.8077 10.501Z" fill="#F1D6CC"/>
<path opacity="0.19" d="M16.8102 10.5034C17.9292 10.5106 18.8629 11.3745 18.8629 12.4935C18.8629 13.6125 17.9292 14.5558 16.8102 14.5558C15.6912 14.5558 14.7768 13.6486 14.784 12.5296C14.7912 11.4058 15.7008 10.4961 16.8102 10.5034Z" fill="#F2D8CE"/>
<path opacity="0.18" d="M16.8102 10.5058C17.9292 10.513 18.8604 11.3769 18.8604 12.4959C18.8604 13.6149 17.9292 14.5558 16.8102 14.5558C15.6912 14.5558 14.7791 13.6486 14.784 12.5296C14.7912 11.4058 15.7008 10.4961 16.8102 10.5034V10.5058Z" fill="#F2D9D0"/>
<path opacity="0.18" d="M16.8129 10.5081C17.9318 10.5153 18.8631 11.3816 18.8631 12.5006C18.8631 13.6196 17.9318 14.5605 16.8129 14.5605C15.6939 14.5605 14.7818 13.6533 14.7866 12.5343C14.7939 11.4105 15.7035 10.5009 16.8129 10.5081Z" fill="#F3DBD2"/>
<path opacity="0.17" d="M16.815 10.5081C17.934 10.5153 18.8629 11.3817 18.8629 12.5006C18.8629 13.6196 17.934 14.5581 16.815 14.5581C15.6961 14.5581 14.784 13.6509 14.7888 12.5319C14.7937 11.4081 15.7033 10.5009 16.815 10.5057V10.5081Z" fill="#F3DCD4"/>
<path opacity="0.16" d="M16.815 10.5106C17.934 10.5178 18.8629 11.3865 18.8629 12.5055C18.8629 13.6245 17.934 14.563 16.815 14.563C15.6961 14.563 14.784 13.6558 14.7888 12.5368C14.7937 11.413 15.7033 10.5058 16.815 10.5106Z" fill="#F4DED5"/>
<path opacity="0.16" d="M16.8177 10.5129C17.9367 10.5202 18.8656 11.3913 18.8656 12.5079C18.8656 13.6244 17.9367 14.563 16.8177 14.563C15.6987 14.563 14.7867 13.6557 14.7915 12.5367C14.7963 11.4129 15.706 10.5057 16.8177 10.5105V10.5129Z" fill="#F4DFD7"/>
<path opacity="0.15" d="M16.8177 10.5154C17.9367 10.5202 18.8632 11.3938 18.8632 12.5128C18.8632 13.6317 17.9367 14.5678 16.8177 14.5678C15.6987 14.5678 14.7867 13.6606 14.7915 12.5416C14.7963 11.4178 15.706 10.5106 16.8177 10.5154Z" fill="#F5E1D9"/>
<path opacity="0.14" d="M16.8197 10.5177C17.9387 10.5226 18.8651 11.3985 18.8651 12.5175C18.8651 13.6365 17.9387 14.5702 16.8197 14.5702C15.7007 14.5702 14.7887 13.6629 14.7935 12.544C14.7983 11.4226 15.7079 10.5129 16.8197 10.5177Z" fill="#F5E2DB"/>
<path opacity="0.13" d="M16.8197 10.5202C17.9387 10.525 18.8627 11.401 18.8627 12.52C18.8627 13.6389 17.9387 14.5726 16.8197 14.5726C15.7007 14.5726 14.7887 13.6654 14.7935 12.5464C14.7983 11.425 15.7079 10.5154 16.8197 10.5202Z" fill="#F6E4DD"/>
<path opacity="0.13" d="M16.8216 10.5226C17.9406 10.5274 18.8647 11.4058 18.8647 12.5248C18.8647 13.6438 17.9406 14.575 16.8216 14.575C15.7027 14.575 14.7906 13.6678 14.7954 12.5488C14.8002 11.4274 15.7099 10.5178 16.8216 10.5226Z" fill="#F6E5DE"/>
<path opacity="0.12" d="M16.8216 10.5226C17.9406 10.5274 18.8647 11.4057 18.8647 12.5247C18.8647 13.6437 17.9406 14.5726 16.8216 14.5726C15.7027 14.5726 14.7906 13.6654 14.7954 12.5464C14.8002 11.425 15.7075 10.5154 16.8216 10.5202V10.5226Z" fill="#F7E6E0"/>
<path opacity="0.11" d="M16.8246 10.525C17.9435 10.5298 18.8652 11.4106 18.8652 12.5295C18.8652 13.6485 17.9435 14.5774 16.8246 14.5774C15.7056 14.5774 14.7959 13.6702 14.7983 12.5512C14.8032 11.4298 15.7104 10.5202 16.8246 10.525Z" fill="#F7E8E2"/>
<path opacity="0.11" d="M16.8265 10.5273C17.9455 10.5321 18.8672 11.4129 18.8672 12.5319C18.8672 13.6509 17.9455 14.5773 16.8265 14.5773C15.7075 14.5773 14.7979 13.6701 14.8003 12.5511C14.8051 11.4297 15.7123 10.5225 16.8265 10.5249V10.5273Z" fill="#F8E9E4"/>
<path opacity="0.1" d="M16.8265 10.5298C17.9455 10.5346 18.8648 11.4178 18.8648 12.5368C18.8648 13.6558 17.9455 14.5822 16.8265 14.5822C15.7075 14.5822 14.7979 13.675 14.8003 12.556C14.8027 11.4346 15.7123 10.5274 16.8265 10.5298Z" fill="#F8EBE6"/>
<path opacity="0.09" d="M16.8292 10.5322C17.9482 10.5346 18.8674 11.4226 18.8674 12.5416C18.8674 13.6606 17.9482 14.5846 16.8292 14.5846C15.7102 14.5846 14.8006 13.6774 14.803 12.5584C14.8054 11.437 15.715 10.5298 16.8292 10.5322Z" fill="#F9ECE7"/>
<path opacity="0.09" d="M16.8292 10.5346C17.9482 10.537 18.8674 11.425 18.8674 12.544C18.8674 13.663 17.9482 14.587 16.8292 14.587C15.7102 14.587 14.8006 13.6798 14.803 12.5608C14.8054 11.4394 15.715 10.5322 16.8292 10.5346Z" fill="#F9EEE9"/>
<path opacity="0.08" d="M16.8314 10.5346C17.9504 10.537 18.8672 11.4274 18.8672 12.5463C18.8672 13.6653 17.9504 14.587 16.8314 14.587C15.7124 14.587 14.8028 13.6798 14.8052 12.5608C14.8076 11.4394 15.7172 10.5322 16.8314 10.5346Z" fill="#FAEFEB"/>
<path opacity="0.07" d="M16.8314 10.537C17.9504 10.5394 18.8672 11.4298 18.8672 12.5488C18.8672 13.6678 17.9504 14.5894 16.8314 14.5894C15.7124 14.5894 14.8028 13.6822 14.8052 12.5632C14.8076 11.4418 15.7148 10.5346 16.8314 10.537Z" fill="#FAF1ED"/>
<path opacity="0.06" d="M16.8343 10.5394C17.9533 10.5419 18.8678 11.4346 18.8678 12.5536C18.8678 13.6726 17.9533 14.5919 16.8343 14.5919C15.7153 14.5919 14.8057 13.6846 14.8081 12.5657C14.8081 11.4443 15.7177 10.537 16.8343 10.5394Z" fill="#FBF2EF"/>
<path opacity="0.06" d="M16.8365 10.5419C17.9555 10.5419 18.8699 11.4371 18.8699 12.5561C18.8699 13.675 17.9555 14.5919 16.8365 14.5919C15.7175 14.5919 14.8079 13.6847 14.8103 12.5657C14.8103 11.4443 15.7199 10.5371 16.8365 10.5395V10.5419Z" fill="#FBF3F1"/>
<path opacity="0.05" d="M16.8365 10.5442C17.9555 10.5442 18.8699 11.4418 18.8699 12.5608C18.8699 13.6798 17.9555 14.5967 16.8365 14.5967C15.7175 14.5967 14.8079 13.6894 14.8103 12.5705C14.8103 11.4515 15.7199 10.5418 16.8365 10.5442Z" fill="#FCF5F2"/>
<path opacity="0.04" d="M16.8392 10.5466C17.9582 10.5466 18.8702 11.4466 18.8702 12.5632C18.8702 13.6798 17.9582 14.5966 16.8392 14.5966C15.7202 14.5966 14.813 13.6894 14.813 12.5704C14.813 11.4514 15.7226 10.5418 16.8392 10.5442V10.5466Z" fill="#FCF6F4"/>
<path opacity="0.04" d="M16.8392 10.5466C17.9582 10.5466 18.8702 11.4466 18.8702 12.5656C18.8702 13.6846 17.9582 14.5991 16.8392 14.5991C15.7202 14.5991 14.813 13.6918 14.813 12.5729C14.813 11.4539 15.7226 10.5466 16.8392 10.5466Z" fill="#FDF8F6"/>
<path opacity="0.03" d="M16.8412 10.549C17.9601 10.549 18.8698 11.4514 18.8698 12.5704C18.8698 13.6894 17.9601 14.6014 16.8412 14.6014C15.7222 14.6014 14.8149 13.6942 14.8149 12.5752C14.8149 11.4562 15.7246 10.549 16.8412 10.549Z" fill="#FDF9F8"/>
<path opacity="0.02" d="M16.8412 10.5515C17.9601 10.5515 18.8698 11.4539 18.8698 12.5729C18.8698 13.6919 17.9601 14.6039 16.8412 14.6039C15.7222 14.6039 14.8149 13.6967 14.8149 12.5777C14.8149 11.4587 15.7222 10.5515 16.8412 10.5515Z" fill="#FEFBFA"/>
<path opacity="0.01" d="M16.8431 10.5538C17.9621 10.5538 18.8717 11.4587 18.8717 12.5777C18.8717 13.6966 17.9621 14.6063 16.8431 14.6063C15.7241 14.6063 14.8169 13.699 14.8169 12.5801C14.8169 11.4611 15.7241 10.5538 16.8431 10.5538Z" fill="#FEFCFB"/>
</g>
</g>
<mask id="mask1_945_5006" style="mask-type:luminance" maskUnits="userSpaceOnUse" x="2" y="3" width="29" height="18">
<path d="M29.7061 2.99997H3.41109C2.89852 2.99997 2.48462 3.41387 2.48462 3.92644V20.0736C2.48462 20.5861 2.89852 21 3.41109 21H29.7061C30.2187 21 30.6326 20.5861 30.6326 20.0736V3.92885C30.6326 3.41628 30.2187 3.00237 29.7061 3.00237V2.99997ZM29.2465 12.0024C29.2465 16.8032 25.3553 20.6944 20.5545 20.6944H3.40869C3.06697 20.6944 2.79023 20.4177 2.79023 20.076V3.92885C2.79023 3.58713 3.06697 3.31039 3.40869 3.31039H20.5545C25.3553 3.31039 29.2465 7.20159 29.2465 12.0024Z" fill="white"/>
</mask>
<g mask="url(#mask1_945_5006)">
<mask id="mask2_945_5006" style="mask-type:luminance" maskUnits="userSpaceOnUse" x="-1" y="-5" width="35" height="34">
<path d="M16.5705 28.7008C25.7927 28.7008 33.2687 21.2248 33.2687 12.0026C33.2687 2.78045 25.7927 -4.69559 16.5705 -4.69559C7.34835 -4.69559 -0.127686 2.78045 -0.127686 12.0026C-0.127686 21.2248 7.34835 28.7008 16.5705 28.7008Z" fill="white"/>
</mask>
<g mask="url(#mask2_945_5006)">
<path d="M22.6812 -10.8086L-6.24097 5.88957L10.4572 34.8117L39.3793 18.1135L22.6812 -10.8086Z" fill="#E04E15"/>
<path d="M23.0269 -10.2058L-5.89526 6.4924L10.8029 35.4145L39.7251 18.7163L23.0269 -10.2058Z" fill="#E04F15"/>
<path d="M23.3774 -9.60422L-5.54468 7.09397L11.1535 36.0161L40.0756 19.3179L23.3774 -9.60422Z" fill="#E15015"/>
<path d="M23.7234 -9.00381L-5.19873 7.69438L11.4995 36.6165L40.4216 19.9183L23.7234 -9.00381Z" fill="#E15115"/>
<path d="M24.0728 -8.40013L-4.84937 8.29806L11.8488 37.2202L40.7709 20.522L24.0728 -8.40013Z" fill="#E25215"/>
<path d="M24.4182 -7.79725L-4.50391 8.90095L12.1943 37.8231L41.1164 21.1249L24.4182 -7.79725Z" fill="#E25316"/>
<path d="M24.7681 -7.19567L-4.15405 9.50253L12.5441 38.4246L41.4663 21.7265L24.7681 -7.19567Z" fill="#E35416"/>
<path d="M25.1147 -6.5952L-3.80737 10.103L12.8908 39.0251L41.8129 22.3269L25.1147 -6.5952Z" fill="#E35516"/>
<path d="M25.4595 -5.99242L-3.46265 10.7058L13.2355 39.6279L42.1577 22.9297L25.4595 -5.99242Z" fill="#E35616"/>
<path d="M25.8091 -5.38866L-3.11304 11.3095L13.5852 40.2317L42.5073 23.5335L25.8091 -5.38866Z" fill="#E45716"/>
<path d="M26.1567 -4.78587L-2.76538 11.9123L13.9328 40.8344L42.8549 24.1362L26.1567 -4.78587Z" fill="#E45716"/>
<path d="M26.5054 -4.18663L-2.41675 12.5116L14.2814 41.4337L43.2036 24.7355L26.5054 -4.18663Z" fill="#E55816"/>
<path d="M26.8511 -3.58385L-2.07104 13.1143L14.6271 42.0365L43.5493 25.3383L26.8511 -3.58385Z" fill="#E55916"/>
<path d="M27.1987 -2.98217L-1.72339 13.716L14.9748 42.6381L43.8969 25.94L27.1987 -2.98217Z" fill="#E55A16"/>
<path d="M27.5483 -2.37728L-1.37378 14.3209L15.3244 43.243L44.2465 26.5448L27.5483 -2.37728Z" fill="#E65B16"/>
<path d="M27.8962 -1.77807L-1.02588 14.9201L15.6723 43.8422L44.5944 27.1441L27.8962 -1.77807Z" fill="#E65C17"/>
<path d="M28.2417 -1.17528L-0.68042 15.5229L16.0178 44.445L44.9399 27.7468L28.2417 -1.17528Z" fill="#E75D17"/>
<path d="M28.5903 -0.573715L-0.331787 16.1245L16.3664 45.0466L45.2885 28.3484L28.5903 -0.573715Z" fill="#E75E17"/>
<path d="M28.938 0.0291901L0.0158691 16.7274L16.7141 45.6495L45.6362 28.9513L28.938 0.0291901Z" fill="#E85F17"/>
<path d="M29.2854 0.631718L0.363281 17.3299L17.0615 46.252L45.9836 29.5538L29.2854 0.631718Z" fill="#E86017"/>
<path d="M29.4185 0.863052L0.496338 17.5612L17.1945 46.4834L46.1166 29.7852L29.4185 0.863052Z" fill="#E86117"/>
<path d="M29.5542 1.09645L0.63208 17.7946L17.3303 46.7168L46.2524 30.0186L29.5542 1.09645Z" fill="#E96217"/>
<path d="M29.688 1.32985L0.765869 18.028L17.4641 46.9502L46.3862 30.252L29.688 1.32985Z" fill="#E96317"/>
<path d="M29.8237 1.56337L0.901611 18.2616L17.5998 47.1837L46.5219 30.4855L29.8237 1.56337Z" fill="#E96418"/>
<path d="M29.9585 1.79469L1.03638 18.4929L17.7346 47.415L46.6567 30.7168L29.9585 1.79469Z" fill="#E96518"/>
<path d="M30.0913 2.02931L1.16919 18.7275L17.8674 47.6496L46.7895 30.9514L30.0913 2.02931Z" fill="#EA6618"/>
<path d="M30.2271 2.26283L1.30493 18.961L18.0031 47.8831L46.9252 31.185L30.2271 2.26283Z" fill="#EA6718"/>
<path d="M30.3599 2.49173L1.43774 19.1899L18.1359 48.112L47.0581 31.4138L30.3599 2.49173Z" fill="#EA6818"/>
<path d="M30.4946 2.72511L1.57251 19.4233L18.2707 48.3454L47.1928 31.6472L30.4946 2.72511Z" fill="#EA6918"/>
<path d="M30.6294 2.95858L1.70728 19.6568L18.4055 48.5789L47.3276 31.8807L30.6294 2.95858Z" fill="#EB6A18"/>
<path d="M30.7642 3.19203L1.84204 19.8902L18.5402 48.8123L47.4624 32.1141L30.7642 3.19203Z" fill="#EB6B19"/>
<path d="M30.8977 3.42334L1.97559 20.1215L18.6738 49.0437L47.5959 32.3455L30.8977 3.42334Z" fill="#EB6C19"/>
<path d="M31.0308 3.65809L2.10864 20.3563L18.8068 49.2784L47.729 32.5802L31.0308 3.65809Z" fill="#EB6D19"/>
<path d="M31.1675 3.89149L2.24536 20.5897L18.9436 49.5118L47.8657 32.8136L31.1675 3.89149Z" fill="#EC6E19"/>
<path d="M31.301 4.1228L2.37891 20.821L19.0771 49.7431L47.9992 33.0449L31.301 4.1228Z" fill="#EC6F19"/>
<path d="M31.4363 4.35623L2.51416 21.0544L19.2124 49.9765L48.1345 33.2783L31.4363 4.35623Z" fill="#EC7019"/>
<path d="M31.5706 4.58726L2.64844 21.2855L19.3466 50.2076L48.2687 33.5094L31.5706 4.58726Z" fill="#EC7119"/>
<path d="M31.7056 4.82069L2.78345 21.5189L19.4816 50.441L48.4038 33.7428L31.7056 4.82069Z" fill="#ED7219"/>
<path d="M31.8374 5.05324L2.91528 21.7514L19.6135 50.6736L48.5356 33.9754L31.8374 5.05324Z" fill="#ED731A"/>
<path d="M31.9712 5.28663L3.04907 21.9848L19.7473 50.9069L48.6694 34.2088L31.9712 5.28663Z" fill="#ED741A"/>
<path d="M32.1069 5.52003L3.18481 22.2182L19.883 51.1403L48.8051 34.4422L32.1069 5.52003Z" fill="#ED751A"/>
<path d="M32.2434 5.75357L3.32129 22.4518L20.0195 51.3739L48.9416 34.6757L32.2434 5.75357Z" fill="#EE761A"/>
<path d="M32.3774 5.9849L3.45532 22.6831L20.1535 51.6052L49.0756 34.907L32.3774 5.9849Z" fill="#EE771A"/>
<path d="M32.5122 6.21828L3.59009 22.9165L20.2883 51.8386L49.2104 35.1404L32.5122 6.21828Z" fill="#EE781A"/>
<path d="M32.644 6.45057L3.72192 23.1488L20.4201 52.0709L49.3422 35.3727L32.644 6.45057Z" fill="#EF791A"/>
<path d="M32.7778 6.6819L3.85571 23.3801L20.5539 52.3022L49.476 35.604L32.7778 6.6819Z" fill="#EF7A1B"/>
<path d="M32.9128 6.91532L3.99072 23.6135L20.6889 52.5356L49.611 35.8374L32.9128 6.91532Z" fill="#EF7B1B"/>
<path d="M33.0474 7.14869L4.12524 23.8469L20.8234 52.769L49.7456 36.0708L33.0474 7.14869Z" fill="#EF7C1B"/>
<path d="M33.1824 7.38217L4.26025 24.0804L20.9584 53.0025L49.8806 36.3043L33.1824 7.38217Z" fill="#F07D1B"/>
<path d="M33.3188 7.61354L4.39673 24.3117L21.0949 53.2339L50.017 36.5357L33.3188 7.61354Z" fill="#F07E1B"/>
<path d="M33.4526 7.84706L4.53052 24.5453L21.2287 53.4674L50.1508 36.7692L33.4526 7.84706Z" fill="#F07F1B"/>
<path d="M33.5857 8.08163L4.66357 24.7798L21.3618 53.7019L50.2839 37.0038L33.5857 8.08163Z" fill="#F0801B"/>
<path d="M33.7202 8.31263L4.7981 25.0108L21.4963 53.933L50.4184 37.2348L33.7202 8.31263Z" fill="#F1801C"/>
<path d="M33.854 8.544L4.93188 25.2422L21.6301 54.1643L50.5522 37.4661L33.854 8.544Z" fill="#F1811C"/>
<path d="M33.989 8.77742L5.06689 25.4756L21.7651 54.3977L50.6872 37.6995L33.989 8.77742Z" fill="#F1821C"/>
<path d="M34.1235 9.01085L5.20142 25.709L21.8996 54.6312L50.8217 37.933L34.1235 9.01085Z" fill="#F1831C"/>
<path d="M34.2573 9.24219L5.33521 25.9404L22.0334 54.8625L50.9555 38.1643L34.2573 9.24219Z" fill="#F2841C"/>
<path d="M34.3899 9.47688L5.46777 26.1751L22.166 55.0972L51.0881 38.399L34.3899 9.47688Z" fill="#F2851C"/>
<path d="M34.5269 9.71031L5.60474 26.4085L22.3029 55.3306L51.225 38.6324L34.5269 9.71031Z" fill="#F2861C"/>
<path d="M34.6619 9.94374L5.73975 26.6419L22.4379 55.5641L51.3601 38.8659L34.6619 9.94374Z" fill="#F2871D"/>
<path d="M34.7954 10.1751L5.87329 26.8733L22.5715 55.7954L51.4936 39.0972L34.7954 10.1751Z" fill="#F3881D"/>
<path d="M34.9302 10.4061L6.00806 27.1043L22.7063 56.0264L51.6284 39.3282L34.9302 10.4061Z" fill="#F3891D"/>
<path d="M35.0649 10.6395L6.14282 27.3377L22.841 56.2599L51.7631 39.5617L35.0649 10.6395Z" fill="#F38A1D"/>
<path d="M35.1987 10.8709L6.27661 27.5691L22.9748 56.4912L51.8969 39.793L35.1987 10.8709Z" fill="#F48B1D"/>
<path d="M35.3315 11.1055L6.40942 27.8037L23.1076 56.7258L52.0297 40.0276L35.3315 11.1055Z" fill="#F48C1D"/>
<path d="M35.4653 11.339L6.54321 28.0372L23.2414 56.9593L52.1635 40.2611L35.4653 11.339Z" fill="#F48D1D"/>
<path d="M35.603 11.5724L6.68091 28.2706L23.3791 57.1927L52.3012 40.4945L35.603 11.5724Z" fill="#F48E1E"/>
<path d="M35.7368 11.8037L6.8147 28.5019L23.5129 57.4241L52.435 40.7259L35.7368 11.8037Z" fill="#F58F1E"/>
<path d="M35.8716 12.0371L6.94946 28.7353L23.6477 57.6574L52.5698 40.9592L35.8716 12.0371Z" fill="#F5901E"/>
<path d="M36.0054 12.2682L7.08325 28.9664L23.7814 57.8885L52.7036 41.1903L36.0054 12.2682Z" fill="#F5911E"/>
<path d="M36.1382 12.5028L7.21606 29.201L23.9143 58.1231L52.8364 41.4249L36.1382 12.5028Z" fill="#F5921E"/>
<path d="M36.272 12.7343L7.34985 29.4325L24.048 58.3546L52.9702 41.6564L36.272 12.7343Z" fill="#F6931E"/>
<path d="M36.4067 12.9676L7.48462 29.6658L24.1828 58.5879L53.1049 41.8897L36.4067 12.9676Z" fill="#F6941E"/>
<path d="M36.5415 13.2011L7.61938 29.8993L24.3176 58.8214L53.2397 42.1232L36.5415 13.2011Z" fill="#F6951E"/>
<path d="M36.6775 13.4324L7.75537 30.1306L24.4536 59.0527L53.3757 42.3545L36.6775 13.4324Z" fill="#F6961F"/>
<path d="M36.813 13.6659L7.89087 30.3641L24.5891 59.2862L53.5112 42.588L36.813 13.6659Z" fill="#F7971F"/>
<path d="M36.9448 13.9005L8.02271 30.5987L24.7209 59.5208L53.643 42.8226L36.9448 13.9005Z" fill="#F7981F"/>
<path d="M37.0806 14.1339L8.15845 30.8321L24.8566 59.7542L53.7788 43.056L37.0806 14.1339Z" fill="#F7991F"/>
<path d="M37.2134 14.3628L8.29126 31.061L24.9895 59.9832L53.9116 43.285L37.2134 14.3628Z" fill="#F79A1F"/>
<path d="M37.3479 14.5963L8.42578 31.2945L25.124 60.2167L54.0461 43.5185L37.3479 14.5963Z" fill="#F89B1F"/>
<path d="M37.4829 14.8297L8.56079 31.5279L25.259 60.45L54.1811 43.7518L37.4829 14.8297Z" fill="#F89C1F"/>
<path d="M37.6174 15.0632L8.69531 31.7614L25.3935 60.6835L54.3156 43.9853L37.6174 15.0632Z" fill="#F89D20"/>
<path d="M37.7512 15.2945L8.8291 31.9927L25.5273 60.9148L54.4494 44.2167L37.7512 15.2945Z" fill="#F89E20"/>
<path d="M37.8862 15.5292L8.96411 32.2273L25.6623 61.1495L54.5844 44.4513L37.8862 15.5292Z" fill="#F99F20"/>
<path d="M38.0208 15.7626L9.09863 32.4608L25.7968 61.3829L54.719 44.6847L38.0208 15.7626Z" fill="#F9A020"/>
</g>
</g>
<defs>
<linearGradient id="paint0_linear_945_5006" x1="17.4425" y1="13.581" x2="16.042" y2="11.384" gradientUnits="userSpaceOnUse">
<stop stop-color="#FF9200"/>
<stop offset="0.21" stop-color="#FF8D00"/>
<stop offset="0.45" stop-color="#FF7F00"/>
<stop offset="0.62" stop-color="#FF7100"/>
<stop offset="0.82" stop-color="#FF5E00"/>
<stop offset="1" stop-color="#FF5200"/>
</linearGradient>
<linearGradient id="paint1_linear_945_5006" x1="17.2211" y1="13.5498" x2="15.1733" y2="9.54306" gradientUnits="userSpaceOnUse">
<stop stop-color="#FF7100" stop-opacity="0"/>
<stop offset="0.03" stop-color="#FF6D00" stop-opacity="0.03"/>
<stop offset="0.21" stop-color="#FF5900" stop-opacity="0.25"/>
<stop offset="0.39" stop-color="#FF4800" stop-opacity="0.42"/>
<stop offset="0.56" stop-color="#FF3B00" stop-opacity="0.56"/>
<stop offset="0.72" stop-color="#FF3200" stop-opacity="0.66"/>
<stop offset="0.86" stop-color="#FF2C00" stop-opacity="0.72"/>
<stop offset="0.98" stop-color="#FF2B00" stop-opacity="0.74"/>
</linearGradient>
</defs>
</svg>
