<svg width="53" height="23" viewBox="0 0 53 23" fill="none" xmlns="http://www.w3.org/2000/svg">
<path d="M10.5906 3.52466C10.0066 4.23218 9.01836 4.76001 8.23223 4.76001C8.14239 4.76001 8.05254 4.74878 7.99639 4.73755C7.98516 4.69263 7.9627 4.55786 7.9627 4.4231C7.9627 3.52466 8.42315 2.62622 8.91729 2.0647C9.5462 1.32349 10.6019 0.773193 11.4778 0.739502C11.5003 0.840576 11.5115 0.964111 11.5115 1.08765C11.5115 1.98608 11.1297 2.87329 10.5906 3.52466ZM11.2083 4.95093C11.7024 4.95093 13.4881 4.99585 14.6561 6.68042C14.555 6.75903 12.7806 7.75854 12.7806 9.99341C12.7806 12.5764 15.0379 13.4973 15.1053 13.5198C15.094 13.5759 14.7459 14.7664 13.9148 15.9905C13.1736 17.0574 12.3875 18.1355 11.2083 18.1355C10.0179 18.1355 9.71465 17.4392 8.35577 17.4392C7.01934 17.4392 6.54766 18.158 5.46954 18.158C4.38018 18.158 3.62774 17.1584 2.76299 15.9456C1.75225 14.5081 0.943657 12.2844 0.943657 10.1731C0.943657 6.79272 3.14483 4.99585 5.31231 4.99585C6.45782 4.99585 7.41241 5.74829 8.14239 5.74829C8.82745 5.74829 9.89434 4.95093 11.2083 4.95093ZM16.6673 18.0344V1.82886H23.136C26.4265 1.82886 28.6502 3.99634 28.6502 7.24194V7.2644C28.6502 10.4988 26.4265 12.6775 23.136 12.6775H19.5647V18.0344H16.6673ZM22.4285 4.19849H19.5647V10.3416H22.4285C24.5061 10.3416 25.719 9.21851 25.719 7.27563V7.25317C25.719 5.3103 24.5061 4.19849 22.4285 4.19849ZM33.2331 18.2366C30.8972 18.2366 29.2014 16.7991 29.2014 14.5642V14.5417C29.2014 12.3518 30.8747 11.0715 33.862 10.8918L37.0178 10.7009V9.64526C37.0178 8.42114 36.2204 7.74731 34.7156 7.74731C33.4353 7.74731 32.6042 8.20776 32.3235 9.01636L32.3122 9.06128H29.6731L29.6843 8.96021C29.9538 6.8938 31.9304 5.52368 34.8503 5.52368C38.0061 5.52368 39.7805 7.05103 39.7805 9.64526V18.0344H37.0178V16.3499H36.8269C36.1531 17.5403 34.8503 18.2366 33.2331 18.2366ZM31.9641 14.4294C31.9641 15.4739 32.8513 16.0916 34.0866 16.0916C35.7712 16.0916 37.0178 14.991 37.0178 13.531V12.5427L34.2551 12.7224C32.6941 12.8235 31.9641 13.3962 31.9641 14.407V14.4294ZM42.8474 22.3469C42.5104 22.3469 42.1174 22.3357 41.7805 22.302V20.157C42.0051 20.1794 42.3195 20.1907 42.6115 20.1907C43.757 20.1907 44.4421 19.719 44.7453 18.6072L44.8913 18.0457L40.5002 5.75952H43.5549L46.4186 15.3503H46.632L49.4846 5.75952H52.4269L48.0246 18.2927C46.9689 21.3699 45.5651 22.3469 42.8474 22.3469Z" fill="white"/>
</svg>
