<svg width="24" height="24" viewBox="0 0 24 24" fill="none" xmlns="http://www.w3.org/2000/svg">
<mask id="mask0_375_6190" style="mask-type:alpha" maskUnits="userSpaceOnUse" x="0" y="0" width="24" height="24">
<rect width="24" height="24" fill="#D9D9D9"/>
</mask>
<g mask="url(#mask0_375_6190)">
<path fill-rule="evenodd" clip-rule="evenodd" d="M11.8485 1.99984L12 1.99993L12.1515 1.99984C12.9321 1.99915 13.5503 1.99861 14.0815 2.17123C15.1471 2.51744 15.9825 3.35284 16.3287 4.41837C16.4336 4.74118 16.4745 5.09608 16.4904 5.5H19.0713H20C20.5523 5.5 21 5.94772 21 6.5C21 7.05228 20.5523 7.5 20 7.5H18.9334L18.2519 17.3824C18.2089 18.0058 18.1726 18.5314 18.1086 18.9611C18.0414 19.4117 17.9337 19.8371 17.7048 20.2374C17.3542 20.8504 16.8264 21.3431 16.1907 21.6507C15.7756 21.8515 15.3439 21.9297 14.8897 21.9657C14.4566 22 13.9298 22 13.3049 22H10.6951C10.0702 22 9.54343 22 9.11031 21.9657C8.65613 21.9297 8.22439 21.8515 7.8093 21.6507C7.17356 21.3431 6.64574 20.8504 6.29517 20.2374C6.06628 19.8371 5.95858 19.4117 5.8914 18.9611C5.82734 18.5314 5.79111 18.0058 5.74813 17.3825L5.06658 7.5H4C3.44772 7.5 3 7.05228 3 6.5C3 5.94772 3.44772 5.5 4 5.5H4.92865H7.50961C7.52545 5.09608 7.56641 4.74118 7.67129 4.41837C8.0175 3.35284 8.8529 2.51744 9.91843 2.17123C10.4497 1.99861 11.0679 1.99915 11.8485 1.99984ZM7.07133 7.5L7.74074 17.2064C7.78708 17.8784 7.81857 18.3243 7.86954 18.6662C7.91872 18.9961 7.97585 19.1475 8.03137 19.2446C8.18161 19.5073 8.40782 19.7185 8.68028 19.8503C8.78096 19.899 8.93595 19.9456 9.26841 19.9719C9.61305 19.9993 10.06 20 10.7336 20H13.2664C13.9399 20 14.3869 19.9993 14.7316 19.9719C15.064 19.9456 15.219 19.899 15.3197 19.8503C15.5922 19.7185 15.8184 19.5073 15.9686 19.2446C16.0241 19.1475 16.0813 18.9961 16.1304 18.6662C16.1814 18.3243 16.2129 17.8784 16.2592 17.2064L16.9286 7.5H7.07133ZM14.488 5.49993C14.4776 5.25767 14.4589 5.13595 14.4266 5.0364C14.2782 4.57975 13.9202 4.22172 13.4635 4.07334C13.2755 4.01227 13.0085 3.99993 12 3.99993C10.9915 3.99993 10.7244 4.01227 10.5365 4.07334C10.0798 4.22172 9.72178 4.57975 9.57341 5.0364C9.54106 5.13595 9.52239 5.25767 9.51197 5.49993H14.488ZM10.4512 17.998C11.0009 17.9453 11.4163 17.4558 11.379 16.9046L10.9396 10.4046C10.9024 9.85351 10.4266 9.44945 9.87691 9.50214C9.32725 9.55484 8.91187 10.0443 8.94912 10.5955L9.38851 17.0955C9.42577 17.6466 9.90155 18.0507 10.4512 17.998ZM12.6211 16.9046C12.5838 17.4558 12.9992 17.9453 13.5489 17.998C14.0985 18.0507 14.5743 17.6466 14.6116 17.0955L15.0509 10.5955C15.0882 10.0443 14.6728 9.55484 14.1232 9.50214C13.5735 9.44945 13.0977 9.85351 13.0604 10.4046L12.6211 16.9046Z" fill="white"/>
</g>
</svg>
