<svg width="25" height="25" viewBox="0 0 25 25" fill="none" xmlns="http://www.w3.org/2000/svg">
<path fill-rule="evenodd" clip-rule="evenodd" d="M12.5 20.5C16.9183 20.5 20.5 16.9183 20.5 12.5C20.5 8.08172 16.9183 4.5 12.5 4.5C8.08172 4.5 4.5 8.08172 4.5 12.5C4.5 16.9183 8.08172 20.5 12.5 20.5ZM22.5 12.5C22.5 18.0228 18.0228 22.5 12.5 22.5C6.97715 22.5 2.5 18.0228 2.5 12.5C2.5 6.97715 6.97715 2.5 12.5 2.5C18.0228 2.5 22.5 6.97715 22.5 12.5ZM12.5 14C11.9477 14 11.5 13.5523 11.5 13V7.5C11.5 6.94772 11.9477 6.5 12.5 6.5C13.0523 6.5 13.5 6.94772 13.5 7.5V13C13.5 13.5523 13.0523 14 12.5 14ZM12.5 15.5C11.6716 15.5 11 16.1716 11 17C11 17.8284 11.6716 18.5 12.5 18.5C13.3284 18.5 14 17.8284 14 17C14 16.1716 13.3284 15.5 12.5 15.5Z" fill="#FF3F2D"/>
</svg>
