<svg width="26" height="18" viewBox="0 0 26 18" fill="none" xmlns="http://www.w3.org/2000/svg">
<path d="M18.1208 0H0.12085V18H18.1208V0Z" fill="white"/>
<path d="M14.9097 4.4172L15.4857 2.8512H18.1208V0H0.12085V18H18.1208V15.156H15.6368L14.7189 14.0832L13.7649 15.156H6.70885V9.4392H4.37965L7.29205 2.8512H10.1252L10.8092 4.3452V2.8512H14.3264L14.9132 4.4172H14.9097ZM12.9261 5.454L12.9188 4.824L13.1601 5.454L14.3301 8.5788H15.4929L16.6701 5.454L16.8969 4.8312V8.5824H18.1208V3.7836H16.0869L15.1616 6.2208L14.9169 6.8796L14.6649 6.2208L13.736 3.7836H11.702V8.5824H12.9261V5.4576V5.454ZM10.2908 8.5788H11.702L9.58885 3.78H7.95085L5.82685 8.5788H7.22005L7.59085 7.6536H9.92005L10.2908 8.5788ZM8.51605 5.4072L8.75725 4.806L8.99845 5.4072L9.49525 6.6204H8.01925L8.51605 5.4072ZM7.69165 9.4428V14.2236H11.6985V13.1868H8.91565V12.3516H11.6444V11.3184H8.91565V10.4796H11.6985V9.4428H7.69165ZM16.1588 14.2272H17.7501L15.5073 11.826L17.7501 9.4428H16.184L14.7368 10.998L13.2968 9.4428H11.702L13.9412 11.844L11.702 14.2272H13.2501L14.7081 12.6684L16.1588 14.2272ZM16.7637 11.8188L18.1208 13.1976V10.4544L16.7637 11.8152V11.8188Z" fill="#006FCF"/>
</svg>
