<svg width="29" height="18" viewBox="0 0 29 18" fill="none" xmlns="http://www.w3.org/2000/svg">
<path d="M0.312744 0.928999V17.0761C0.312744 17.4178 0.589481 17.6946 0.931194 17.6946H18.077C22.8778 17.6946 26.769 13.8034 26.769 9.00256C26.769 4.20174 22.8778 0.310547 18.077 0.310547H0.931194C0.589481 0.310547 0.312744 0.587287 0.312744 0.928999Z" fill="white"/>
<path d="M2.40102 7.04834H1.30609V10.8746H2.39621C2.97616 10.8746 3.39487 10.7374 3.76065 10.4318C4.19621 10.0708 4.45611 9.52696 4.45611 8.96386C4.45611 7.83524 3.61386 7.04834 2.40343 7.04834H2.40102ZM3.27215 9.92161C3.03872 10.1334 2.7331 10.2248 2.25182 10.2248H2.05209V7.69567H2.25182C2.7331 7.69567 3.02669 7.7823 3.27215 8.0061C3.52963 8.23471 3.68605 8.59086 3.68605 8.95904C3.68605 9.32723 3.53204 9.693 3.27215 9.92402V9.92161Z" fill="#261F20"/>
<path d="M5.54329 7.04834H4.7973V10.8746H5.54329V7.04834Z" fill="#261F20"/>
<path d="M7.36762 8.51636C6.92002 8.35032 6.78767 8.24203 6.78767 8.03508C6.78767 7.79443 7.0211 7.61155 7.34356 7.61155C7.56735 7.61155 7.75024 7.70299 7.94516 7.92198L8.335 7.41181C8.01495 7.13026 7.62992 6.98828 7.2112 6.98828C6.535 6.98828 6.01761 7.45754 6.01761 8.08321C6.01761 8.61021 6.25826 8.87973 6.95853 9.13241C7.2497 9.23588 7.3989 9.30326 7.4735 9.35139C7.6227 9.44765 7.6973 9.58722 7.6973 9.74605C7.6973 10.0565 7.45185 10.2851 7.11735 10.2851C6.7612 10.2851 6.47483 10.107 6.30398 9.77492L5.82269 10.2394C6.16681 10.7447 6.57831 10.9685 7.14623 10.9685C7.9211 10.9685 8.46495 10.4535 8.46495 9.71236C8.46495 9.10353 8.21228 8.8292 7.36521 8.51877L7.36762 8.51636Z" fill="#261F20"/>
<path d="M8.70343 8.96382C8.70343 10.0876 9.58659 10.9587 10.7224 10.9587C11.0425 10.9587 11.3192 10.8962 11.6585 10.7374V9.85901C11.3601 10.1574 11.0954 10.2777 10.7585 10.2777C10.0077 10.2777 9.47349 9.73387 9.47349 8.959C9.47349 8.22504 10.0246 7.6451 10.7248 7.6451C11.081 7.6451 11.3505 7.77264 11.6609 8.07585V7.1975C11.3337 7.03146 11.0641 6.96167 10.7441 6.96167C9.61306 6.96167 8.70824 7.85205 8.70824 8.96382H8.70343Z" fill="#261F20"/>
<path d="M17.5759 9.6184L16.5556 7.04834H15.7398L17.3641 10.9732H17.7636L19.4168 7.04834H18.6083L17.5759 9.6184Z" fill="#261F20"/>
<path d="M19.7534 10.8746H21.871V10.2272H20.4994V9.19247H21.8205V8.54514H20.4994V7.69567H21.871V7.04834H19.7534V10.8746Z" fill="#261F20"/>
<path d="M24.8263 8.17695C24.8263 7.45984 24.333 7.04834 23.4715 7.04834H22.3645V10.8746H23.1105V9.33685H23.2092L24.2415 10.8746H25.1584L23.9527 9.26225C24.5158 9.14915 24.8239 8.76412 24.8239 8.17695H24.8263ZM23.3271 8.80984H23.1081V7.65235H23.3367C23.8011 7.65235 24.0538 7.84727 24.0538 8.22027C24.0538 8.59327 23.8011 8.81225 23.3247 8.81225L23.3271 8.80984Z" fill="#261F20"/>
<path d="M25.4208 7.24801C25.4208 7.18063 25.3751 7.14453 25.2933 7.14453H25.185V7.48143H25.2644V7.35148L25.3583 7.48143H25.4569L25.3462 7.34186C25.3944 7.32983 25.4208 7.29373 25.4208 7.24801ZM25.2788 7.29614H25.2644V7.2071H25.2788C25.3198 7.2071 25.339 7.22154 25.339 7.25041C25.339 7.27929 25.3174 7.29614 25.2788 7.29614Z" fill="#261F20"/>
<path d="M25.3077 7.01953C25.144 7.01953 25.0141 7.14948 25.0141 7.31311C25.0141 7.47675 25.1465 7.6067 25.3077 7.6067C25.4689 7.6067 25.5989 7.47434 25.5989 7.31311C25.5989 7.15188 25.4689 7.01953 25.3077 7.01953ZM25.3077 7.55376C25.1777 7.55376 25.0743 7.44547 25.0743 7.31311C25.0743 7.18076 25.1777 7.07247 25.3077 7.07247C25.4376 7.07247 25.5411 7.18317 25.5411 7.31311C25.5411 7.44306 25.4376 7.55376 25.3077 7.55376Z" fill="#261F20"/>
<path d="M15.9513 8.95663C15.9513 10.0756 15.0441 10.9828 13.9251 10.9828C12.8061 10.9828 11.8989 10.0756 11.8989 8.95663C11.8989 7.83764 12.8061 6.93042 13.9251 6.93042C15.0441 6.93042 15.9513 7.83764 15.9513 8.95663Z" fill="url(#paint0_linear_141_7829)"/>
<path style="mix-blend-mode:multiply" opacity="0.65" d="M15.9513 8.95663C15.9513 10.0756 15.0441 10.9828 13.9251 10.9828C12.8061 10.9828 11.8989 10.0756 11.8989 8.95663C11.8989 7.83764 12.8061 6.93042 13.9251 6.93042C15.0441 6.93042 15.9513 7.83764 15.9513 8.95663Z" fill="url(#paint1_linear_141_7829)"/>
<g style="mix-blend-mode:multiply" opacity="0.5">
<mask id="mask0_141_7829" style="mask-type:luminance" maskUnits="userSpaceOnUse" x="11" y="6" width="5" height="5">
<path d="M15.9513 8.95663C15.9513 10.0756 15.0441 10.9828 13.9251 10.9828C12.8061 10.9828 11.8989 10.0756 11.8989 8.95663C11.8989 7.83764 12.8061 6.93042 13.9251 6.93042C15.0441 6.93042 15.9513 7.83764 15.9513 8.95663Z" fill="white"/>
</mask>
<g mask="url(#mask0_141_7829)">
<path d="M13.9349 6.89914C15.0755 6.89914 16.002 7.8232 16.002 8.96385C16.002 10.1045 15.0755 11.031 13.9349 11.031C12.7942 11.031 11.8677 10.1069 11.8677 8.96385C11.8677 7.8232 12.7942 6.89673 13.9349 6.89673V6.89914Z" fill="#010000"/>
<path d="M13.9378 6.90161C15.0784 6.90161 16.0049 7.82327 16.0049 8.96392C16.0049 10.1046 15.0784 11.0334 13.9378 11.0334C12.7971 11.0334 11.8707 10.1094 11.8707 8.96873C11.8707 7.82809 12.7971 6.90161 13.9378 6.90161Z" fill="#030100"/>
<path d="M13.9374 6.90649C15.078 6.90649 16.0069 7.82816 16.0069 8.9688C16.0069 10.1094 15.078 11.0383 13.9374 11.0383C12.7968 11.0383 11.8703 10.1143 11.8727 8.97361C11.8727 7.83297 12.7992 6.90649 13.9374 6.9089V6.90649Z" fill="#040100"/>
<path d="M13.9393 6.9087C15.0799 6.9087 16.0088 7.82795 16.0088 8.9686C16.0088 10.1092 15.0799 11.0381 13.9393 11.0381C12.7986 11.0381 11.8722 10.1141 11.8746 8.97341C11.8746 7.83276 12.801 6.90629 13.9393 6.9087Z" fill="#050100"/>
<path d="M13.9422 6.91114C15.0828 6.91114 16.0117 7.82799 16.0117 8.96863C16.0117 10.1093 15.0828 11.0406 13.9422 11.0406C12.8015 11.0406 11.875 10.1165 11.8774 8.97585C11.8774 7.83521 12.8039 6.90873 13.9422 6.91114Z" fill="#070200"/>
<path d="M13.9422 6.91358C15.0828 6.91358 16.0117 7.83043 16.0117 8.97107C16.0117 10.1117 15.0804 11.043 13.9422 11.043C12.8039 11.043 11.875 10.1189 11.8774 8.97829C11.8774 7.83765 12.8039 6.91117 13.9422 6.91358Z" fill="#080200"/>
<path d="M13.9442 6.91602C15.0848 6.91602 16.0161 7.83046 16.0161 8.97111C16.0161 10.1118 15.0848 11.0454 13.9442 11.0454C12.8035 11.0454 11.8771 10.1214 11.8795 8.98073C11.8795 7.84009 12.8059 6.91361 13.9442 6.91602Z" fill="#090300"/>
<path d="M13.9469 6.91843C15.0876 6.91843 16.0189 7.83287 16.0189 8.97111C16.0189 10.1093 15.0876 11.0454 13.9469 11.0454C12.8063 11.0454 11.8798 10.1214 11.8822 8.98073C11.8822 7.84009 12.8087 6.91361 13.9469 6.91602V6.91843Z" fill="#0B0300"/>
<path d="M13.9491 6.9209C15.0897 6.92331 16.021 7.83294 16.021 8.97358C16.021 10.1142 15.0873 11.0503 13.9491 11.0503C12.8108 11.0503 11.8819 10.1263 11.8843 8.98562C11.8843 7.84497 12.8108 6.9185 13.9491 6.9209Z" fill="#0C0300"/>
<path d="M13.9491 6.92331C15.0897 6.92572 16.021 7.83294 16.021 8.97358C16.021 10.1142 15.0873 11.0503 13.9491 11.0503C12.8108 11.0503 11.8819 10.1263 11.8843 8.98562C11.8867 7.84497 12.8108 6.9185 13.9491 6.9209V6.92331Z" fill="#0D0400"/>
<path d="M13.9517 6.92578C15.09 6.92819 16.0261 7.83541 16.0261 8.97365C16.0261 10.1119 15.0924 11.0528 13.9517 11.0528C12.8111 11.0528 11.8846 10.1287 11.8894 8.99049C11.8918 7.84985 12.8159 6.92337 13.9517 6.92819V6.92578Z" fill="#0F0400"/>
<path d="M13.9545 6.93042C15.0927 6.93283 16.0288 7.83764 16.0288 8.97829C16.0288 10.1189 15.0927 11.0574 13.9545 11.0574C12.8162 11.0574 11.8874 10.1334 11.8922 8.99513C11.8946 7.85449 12.8211 6.92801 13.9545 6.93283V6.93042Z" fill="#100400"/>
<path d="M13.9545 6.93288C15.0927 6.93529 16.0288 7.8401 16.0288 8.97834C16.0288 10.1166 15.0927 11.0575 13.9545 11.0575C12.8162 11.0575 11.8874 10.1334 11.8922 8.99519C11.8946 7.85454 12.8211 6.92807 13.9545 6.93288Z" fill="#110500"/>
<path d="M13.9565 6.93532C15.0947 6.94013 16.0332 7.84014 16.0332 8.97838C16.0332 10.1166 15.0971 11.0599 13.9565 11.0599C12.8158 11.0599 11.8918 10.1359 11.8942 8.99763C11.8966 7.85698 12.8231 6.93051 13.9565 6.93532Z" fill="#130500"/>
<path d="M13.9595 6.93776C15.0977 6.94258 16.0362 7.84017 16.0362 8.98082C16.0362 10.1215 15.0977 11.0624 13.9595 11.0624C12.8212 11.0624 11.8948 10.1383 11.8972 9.00007C11.902 7.85942 12.826 6.93295 13.9595 6.93776Z" fill="#140500"/>
<path d="M13.9612 6.9402C15.0995 6.94502 16.038 7.84261 16.038 8.98085C16.038 10.1191 15.0995 11.0648 13.9612 11.0648C12.823 11.0648 11.8965 10.1408 11.8989 9.00251C11.9037 7.86187 12.8278 6.93539 13.9612 6.9402Z" fill="#150600"/>
<path d="M13.9612 6.94261C15.0995 6.94742 16.038 7.84261 16.038 8.98085C16.038 10.1191 15.0995 11.0648 13.9612 11.0648C12.823 11.0648 11.8965 10.1408 11.8989 9.00251C11.9037 7.86187 12.8278 6.93539 13.9612 6.9402V6.94261Z" fill="#170600"/>
<path d="M13.9633 6.94481C15.1015 6.94962 16.0424 7.8424 16.0424 8.98064C16.0424 10.1189 15.1015 11.067 13.9633 11.067C12.825 11.067 11.8985 10.1454 11.9009 9.00471C11.9058 7.86406 12.8298 6.93759 13.9633 6.9424V6.94481Z" fill="#180700"/>
<path d="M13.9657 6.94727C15.104 6.95208 16.0449 7.84486 16.0449 8.9831C16.0449 10.1213 15.104 11.0695 13.9657 11.0695C12.8275 11.0695 11.901 10.1478 11.9058 9.00957C11.9107 7.86893 12.8347 6.94245 13.9657 6.94967V6.94727Z" fill="#190700"/>
<path d="M13.9687 6.94971C15.1069 6.95452 16.0478 7.8449 16.0478 8.98314C16.0478 10.1214 15.1069 11.0719 13.9687 11.0719C12.8304 11.0719 11.904 10.1503 11.9088 9.01201C11.9136 7.87137 12.8377 6.94489 13.9687 6.95211V6.94971Z" fill="#1B0700"/>
<path d="M13.9687 6.95219C15.1069 6.957 16.0478 7.84738 16.0478 8.98322C16.0478 10.119 15.1045 11.072 13.9687 11.072C12.8328 11.072 11.904 10.1503 11.9088 9.01209C11.9136 7.87145 12.8377 6.94497 13.9687 6.95219Z" fill="#1C0800"/>
<path d="M13.9708 6.95707C15.109 6.96429 16.0524 7.84986 16.0524 8.9881C16.0524 10.1263 15.109 11.0769 13.9708 11.0769C12.8326 11.0769 11.9061 10.1552 11.9109 9.01697C11.9157 7.87633 12.8398 6.94985 13.9708 6.95707Z" fill="#1D0800"/>
<path d="M13.9736 6.95951C15.1118 6.96673 16.0551 7.84989 16.0551 8.98813C16.0551 10.1264 15.1118 11.0793 13.9736 11.0793C12.8353 11.0793 11.9088 10.1577 11.9137 9.01942C11.9185 7.87877 12.8449 6.9523 13.9736 6.95951Z" fill="#1F0800"/>
<path d="M13.9736 6.9619C15.1118 6.96912 16.0551 7.85228 16.0551 8.98811C16.0551 10.1239 15.1094 11.0793 13.9736 11.0793C12.8377 11.0793 11.9088 10.1576 11.9137 9.01939C11.9185 7.87634 12.8449 6.95468 13.9736 6.95949V6.9619Z" fill="#200900"/>
<path d="M13.9765 6.96413C15.1147 6.97135 16.0605 7.8521 16.0605 8.99034C16.0605 10.1286 15.1147 11.0839 13.9765 11.0839C12.8382 11.0839 11.9118 10.1623 11.9166 9.02403C11.9238 7.88098 12.8479 6.95932 13.9765 6.96413Z" fill="#210900"/>
<path d="M13.9786 6.96654C15.1145 6.97376 16.0626 7.85451 16.0626 8.99034C16.0626 10.1262 15.1169 11.0839 13.9786 11.0839C12.8404 11.0839 11.9139 10.1623 11.9187 9.02403C11.9259 7.88098 12.85 6.95932 13.9786 6.96413V6.96654Z" fill="#220900"/>
<path d="M13.9814 6.96901C15.1172 6.97623 16.0653 7.85458 16.0653 8.99041C16.0653 10.1262 15.1172 11.0864 13.9814 11.0864C12.8455 11.0864 11.9167 10.1647 11.9215 9.02892C11.9287 7.88586 12.8528 6.9642 13.9814 6.96901Z" fill="#240A00"/>
<path d="M13.981 6.97144C15.1168 6.97865 16.065 7.85459 16.065 8.99283C16.065 10.1311 15.1168 11.0888 13.981 11.0888C12.8452 11.0888 11.9163 10.1672 11.9235 9.03134C11.9307 7.88829 12.8548 6.96662 13.981 6.97384V6.97144Z" fill="#250A00"/>
<path d="M13.9839 6.97363C15.1197 6.98085 16.0702 7.85679 16.0702 8.99262C16.0702 10.1285 15.1221 11.091 13.9839 11.091C12.8456 11.091 11.9192 10.1694 11.9264 9.03353C11.9336 7.89048 12.8577 6.96882 13.9839 6.97604V6.97363Z" fill="#260A00"/>
<path d="M13.9858 6.97612C15.1216 6.98334 16.0721 7.85687 16.0721 8.9927C16.0721 10.1285 15.1216 11.0911 13.9858 11.0911C12.8499 11.0911 11.921 10.1694 11.9283 9.03361C11.9355 7.89056 12.8596 6.9689 13.9858 6.97612Z" fill="#280B00"/>
<path d="M13.9858 6.981C15.1216 6.99062 16.0721 7.85934 16.0721 8.99758C16.0721 10.1358 15.1216 11.096 13.9858 11.096C12.8499 11.096 11.921 10.1743 11.9283 9.03849C11.9355 7.89544 12.8596 6.97378 13.9858 6.981Z" fill="#290B00"/>
<path d="M13.9878 6.98344C15.1236 6.99307 16.0766 7.86179 16.0766 8.99762C16.0766 10.1335 15.126 11.0984 13.9878 11.0984C12.8495 11.0984 11.9231 10.1768 11.9303 9.04093C11.9375 7.89788 12.8616 6.97622 13.9878 6.98344Z" fill="#2A0C00"/>
<path d="M13.9906 6.98585C15.1264 6.99547 16.0794 7.86179 16.0794 8.99762C16.0794 10.1335 15.1264 11.0984 13.9906 11.0984C12.8547 11.0984 11.9259 10.1768 11.9331 9.04093C11.9403 7.89788 12.8668 6.97622 13.9906 6.98344V6.98585Z" fill="#2C0C00"/>
<path d="M13.9927 6.98832C15.1285 6.99795 16.0814 7.86426 16.0814 9.0001C16.0814 10.1359 15.1285 11.1033 13.9927 11.1033C12.8568 11.1033 11.9279 10.1817 11.9352 9.04582C11.9424 7.90277 12.8689 6.9811 13.9927 6.98832Z" fill="#2D0C00"/>
<path d="M13.9927 6.99073C15.1285 7.00036 16.0814 7.86426 16.0814 9.0001C16.0814 10.1359 15.1285 11.1033 13.9927 11.1033C12.8568 11.1033 11.9279 10.1817 11.9352 9.04582C11.9448 7.90277 12.8689 6.9811 13.9927 6.98832V6.99073Z" fill="#2E0D00"/>
<path d="M13.9954 6.99316C15.1312 7.00279 16.0865 7.86429 16.0865 9.00012C16.0865 10.136 15.1312 11.1057 13.9954 11.1057C12.8595 11.1057 11.9306 10.1841 11.9403 9.05066C11.9499 7.90761 12.874 6.98594 13.9954 6.99557V6.99316Z" fill="#300D00"/>
<path d="M13.9981 6.99561C15.1339 7.00523 16.0893 7.86673 16.0893 9.00257C16.0893 10.1384 15.1339 11.1082 13.9981 11.1082C12.8623 11.1082 11.9334 10.1889 11.943 9.0531C11.9526 7.91005 12.8767 6.98839 13.9981 6.99801V6.99561Z" fill="#310D00"/>
<path d="M13.9981 6.9978C15.1339 7.00743 16.0893 7.86652 16.0893 9.00236C16.0893 10.1382 15.1339 11.1104 13.9981 11.1104C12.8623 11.1104 11.9334 10.1911 11.943 9.0553C11.9526 7.91225 12.8767 6.99058 13.9981 7.00021V6.9978Z" fill="#320E00"/>
<path d="M14.0001 7.00032C15.1359 7.00994 16.0913 7.86904 16.0913 9.00247C16.0913 10.1359 15.1335 11.1105 14.0001 11.1105C12.8667 11.1105 11.9354 10.1912 11.945 9.05541C11.9546 7.91235 12.8787 6.99069 14.0001 7.00032Z" fill="#340E00"/>
<path d="M14.003 7.00276C15.1364 7.01479 16.0966 7.86907 16.0966 9.00491C16.0966 10.1407 15.1388 11.1129 14.003 11.1129C12.8671 11.1129 11.9383 10.1937 11.9479 9.05785C11.9575 7.91479 12.8816 6.99313 14.003 7.00276Z" fill="#350E00"/>
<path d="M14.0049 7.0074C15.1384 7.01943 16.0985 7.87131 16.0985 9.00714C16.0985 10.143 15.1408 11.1176 14.0049 11.1176C12.8691 11.1176 11.9402 10.1983 11.9498 9.06249C11.9595 7.91944 12.8835 6.99777 14.0049 7.0074Z" fill="#360F00"/>
<path d="M14.0049 7.00981C15.1384 7.02184 16.0985 7.87371 16.0985 9.00714C16.0985 10.1406 15.1384 11.1176 14.0049 11.1176C12.8715 11.1176 11.9402 10.1983 11.9498 9.06249C11.9595 7.91944 12.8835 6.99777 14.0049 7.0074V7.00981Z" fill="#380F00"/>
<path d="M14.0069 7.01225C15.1403 7.02428 16.1029 7.87375 16.1029 9.00717C16.1029 10.1406 15.1427 11.12 14.0069 11.12C12.8711 11.12 11.9422 10.2008 11.9518 9.06493C11.9614 7.92188 12.8855 7.00021 14.0069 7.00984V7.01225Z" fill="#391000"/>
<path d="M14.0094 7.01465C15.1428 7.02668 16.1054 7.87374 16.1054 9.00958C16.1054 10.1454 15.1428 11.1224 14.0094 11.1224C12.876 11.1224 11.9447 10.2032 11.9567 9.06974C11.9688 7.92668 12.8928 7.00502 14.0094 7.01706V7.01465Z" fill="#3A1000"/>
<path d="M14.0094 7.01709C15.1428 7.02912 16.1054 7.87618 16.1054 9.00961C16.1054 10.143 15.1428 11.1249 14.0094 11.1249C12.876 11.1249 11.9447 10.2056 11.9567 9.07218C11.9688 7.92913 12.8928 7.00746 14.0094 7.0195V7.01709Z" fill="#3C1000"/>
<path d="M14.0121 7.0194C15.1455 7.03144 16.1081 7.87609 16.1081 9.00952C16.1081 10.1429 15.1455 11.1248 14.0121 11.1248C12.8787 11.1248 11.9474 10.2055 11.9594 9.07209C11.9714 7.92903 12.8955 7.00737 14.0121 7.0194Z" fill="#3D1100"/>
<path d="M14.0145 7.02184C15.1479 7.03388 16.1129 7.87853 16.1129 9.01196C16.1129 10.1454 15.1479 11.1272 14.0145 11.1272C12.881 11.1272 11.9498 10.208 11.9618 9.07453C11.9738 7.93147 12.8979 7.00981 14.0145 7.02184Z" fill="#3E1100"/>
<path d="M14.0172 7.02429C15.1506 7.03632 16.1156 7.87857 16.1156 9.012C16.1156 10.1454 15.1506 11.1297 14.0172 11.1297C12.8838 11.1297 11.9525 10.2104 11.9645 9.07697C11.9766 7.93392 12.9006 7.01225 14.0172 7.02429Z" fill="#401100"/>
<path d="M14.0172 7.02669C15.1506 7.04113 16.1156 7.87857 16.1156 9.012C16.1156 10.1454 15.1506 11.1297 14.0172 11.1297C12.8838 11.1297 11.9525 10.2104 11.9645 9.07697C11.9766 7.93392 12.9006 7.01225 14.0172 7.02429V7.02669Z" fill="#411200"/>
<path d="M14.0193 7.03161C15.1527 7.04605 16.1177 7.88349 16.1177 9.01691C16.1177 10.1503 15.1503 11.137 14.0193 11.137C12.8883 11.137 11.9546 10.2177 11.9666 9.08429C11.9786 7.94124 12.9027 7.01958 14.0193 7.03161Z" fill="#421200"/>
<path d="M14.0221 7.03377C15.1555 7.04821 16.1229 7.88324 16.1229 9.01667C16.1229 10.1501 15.1555 11.1367 14.0221 11.1367C12.8887 11.1367 11.9574 10.2175 11.9694 9.08405C11.9814 7.941 12.9055 7.01933 14.0221 7.03137V7.03377Z" fill="#441200"/>
<path d="M14.0221 7.03621C15.1555 7.05065 16.1229 7.88568 16.1229 9.0167C16.1229 10.1477 15.1555 11.1392 14.0221 11.1392C12.8887 11.1392 11.9574 10.2199 11.9694 9.08649C11.9814 7.94344 12.9055 7.02178 14.0221 7.03381V7.03621Z" fill="#451300"/>
<path d="M14.0236 7.03882C15.1571 7.05326 16.1245 7.88588 16.1245 9.01931C16.1245 10.1527 15.1547 11.1418 14.0236 11.1418C12.8926 11.1418 11.9589 10.2225 11.9734 9.0915C11.9854 7.94845 12.9095 7.02679 14.0236 7.04123V7.03882Z" fill="#461300"/>
<path d="M14.0265 7.04126C15.1599 7.0557 16.1297 7.88592 16.1297 9.01934C16.1297 10.1528 15.1599 11.1442 14.0265 11.1442C12.893 11.1442 11.9617 10.225 11.9762 9.09394C11.9906 7.95089 12.9123 7.02923 14.0265 7.04367V7.04126Z" fill="#481400"/>
<path d="M14.0285 7.04362C15.1596 7.05806 16.1317 7.88828 16.1317 9.0193C16.1317 10.1503 15.162 11.1442 14.0285 11.1442C12.8951 11.1442 11.9638 10.2249 11.9783 9.0939C11.9927 7.95085 12.9168 7.02919 14.0285 7.04362Z" fill="#491400"/>
<path d="M14.0285 7.04607C15.1596 7.0605 16.1317 7.88831 16.1317 9.02174C16.1317 10.1552 15.1596 11.1466 14.0285 11.1466C12.8975 11.1466 11.9638 10.2274 11.9783 9.09634C11.9927 7.95329 12.9168 7.03163 14.0285 7.04607Z" fill="#4A1400"/>
<path d="M14.0313 7.04826C15.1623 7.06511 16.1345 7.88811 16.1345 9.02153C16.1345 10.155 15.1623 11.1488 14.0313 11.1488C12.9003 11.1488 11.9666 10.232 11.981 9.09854C11.9954 7.95549 12.9195 7.03382 14.0313 7.04826Z" fill="#4C1500"/>
<path d="M14.0337 7.05067C15.1647 7.06751 16.1393 7.89051 16.1393 9.02153C16.1393 10.1526 15.1671 11.1488 14.0337 11.1488C12.9002 11.1488 11.9689 10.232 11.9834 9.09854C11.9978 7.95549 12.9219 7.03382 14.0337 7.04826V7.05067Z" fill="#4D1500"/>
<path d="M14.0337 7.05315C15.1647 7.06999 16.1393 7.89058 16.1393 9.02401C16.1393 10.1574 15.1647 11.1537 14.0337 11.1537C12.9026 11.1537 11.9689 10.2368 11.9834 9.10342C11.9978 7.96037 12.9219 7.03871 14.0337 7.05315Z" fill="#4E1500"/>
<path d="M14.0363 7.05799C15.1674 7.07484 16.142 7.89543 16.142 9.02645C16.142 10.1575 15.1674 11.1561 14.0363 11.1561C12.9053 11.1561 11.9716 10.2393 11.9861 9.10586C12.0005 7.96281 12.9246 7.04115 14.0363 7.05559V7.05799Z" fill="#501600"/>
<path d="M14.0389 7.06055C15.1699 7.07739 16.1469 7.89558 16.1469 9.0266C16.1469 10.1576 15.1723 11.1587 14.0389 11.1587C12.9054 11.1587 11.9742 10.2418 11.991 9.11082C12.0054 7.96777 12.9295 7.04611 14.0389 7.06295V7.06055Z" fill="#511600"/>
<path d="M14.0409 7.06274C15.1719 7.07959 16.1489 7.89537 16.1489 9.02879C16.1489 10.1622 15.1719 11.1609 14.0409 11.1609C12.9099 11.1609 11.9762 10.244 11.993 9.11302C12.0075 7.96997 12.9315 7.0483 14.0409 7.06515V7.06274Z" fill="#521600"/>
<path d="M14.0409 7.06519C15.1719 7.08203 16.1489 7.89781 16.1489 9.02883C16.1489 10.1599 15.1719 11.1633 14.0409 11.1633C12.9099 11.1633 11.9762 10.2465 11.993 9.11546C12.0075 7.97241 12.9315 7.05075 14.0409 7.06759V7.06519Z" fill="#541700"/>
<path d="M14.0428 7.06761C15.1738 7.08446 16.1508 7.89783 16.1508 9.02885C16.1508 10.1599 15.1738 11.1633 14.0428 11.1633C12.9118 11.1633 11.9781 10.2465 11.9949 9.11548C12.0118 7.97243 12.9334 7.05077 14.0428 7.06761Z" fill="#551700"/>
<path d="M14.0457 7.07002C15.1767 7.08686 16.1561 7.90023 16.1561 9.02885C16.1561 10.1575 15.1767 11.1633 14.0457 11.1633C12.9146 11.1633 11.9809 10.2465 11.9978 9.11548C12.0146 7.97243 12.9387 7.05077 14.0457 7.06761V7.07002Z" fill="#561800"/>
<path d="M14.0457 7.07249C15.1767 7.09174 16.1561 7.90031 16.1561 9.03133C16.1561 10.1623 15.1767 11.1682 14.0457 11.1682C12.9146 11.1682 11.9809 10.2514 11.9978 9.12036C12.0146 7.97731 12.9387 7.05565 14.0457 7.07249Z" fill="#581800"/>
<path d="M14.0476 7.0749C15.1786 7.09415 16.158 7.90031 16.158 9.03133C16.158 10.1623 15.1786 11.1682 14.0476 11.1682C12.9166 11.1682 11.9853 10.2514 11.9997 9.12036C12.0166 7.97731 12.9407 7.05565 14.0476 7.07249V7.0749Z" fill="#591800"/>
<path d="M14.0504 7.07734C15.1814 7.09659 16.1608 7.90275 16.1608 9.03136C16.1608 10.16 15.179 11.1707 14.0504 11.1707C12.9217 11.1707 11.988 10.2538 12.0025 9.1228C12.0193 7.97975 12.9434 7.05809 14.0504 7.07493V7.07734Z" fill="#5A1900"/>
<path d="M14.0525 7.08203C15.1835 7.10128 16.1653 7.90503 16.1653 9.03605C16.1653 10.1671 15.1835 11.1754 14.0525 11.1754C12.9215 11.1754 11.9902 10.2585 12.0046 9.1299C12.0215 7.98685 12.9455 7.06519 14.0525 7.08444V7.08203Z" fill="#5C1900"/>
<path d="M14.0531 7.08447C15.1817 7.10372 16.1659 7.90506 16.1659 9.03609C16.1659 10.1671 15.1841 11.1778 14.0531 11.1778C12.9221 11.1778 11.9908 10.261 12.0076 9.13234C12.0245 7.98929 12.9485 7.06763 14.0531 7.08688V7.08447Z" fill="#5D1900"/>
<path d="M14.0552 7.08697C15.1838 7.10622 16.1681 7.90756 16.1681 9.03617C16.1681 10.1648 15.1838 11.1779 14.0552 11.1779C12.9266 11.1779 11.9929 10.261 12.0097 9.13243C12.0266 7.98938 12.9507 7.06771 14.0552 7.08697Z" fill="#5E1A00"/>
<path d="M14.058 7.08936C15.1866 7.10861 16.1732 7.90754 16.1732 9.03856C16.1732 10.1696 15.189 11.1827 14.058 11.1827C12.9269 11.1827 11.9956 10.2658 12.0125 9.13723C12.0293 7.99417 12.9534 7.07251 14.058 7.09176V7.08936Z" fill="#5F1A00"/>
<path d="M14.058 7.0916C15.1866 7.11086 16.1732 7.90979 16.1732 9.03841C16.1732 10.167 15.189 11.1825 14.058 11.1825C12.9269 11.1825 11.9956 10.2657 12.0125 9.13707C12.0317 7.99401 12.9534 7.07235 14.058 7.0916Z" fill="#611A00"/>
<path d="M14.0609 7.09401C15.1895 7.11326 16.1761 7.90979 16.1761 9.03841C16.1761 10.167 15.1895 11.1825 14.0609 11.1825C12.9323 11.1825 11.9986 10.2657 12.0154 9.13707C12.0347 7.99401 12.9563 7.07235 14.0609 7.0916V7.09401Z" fill="#621B00"/>
<path d="M14.0628 7.09649C15.1915 7.11815 16.1781 7.90986 16.1781 9.04088C16.1781 10.1719 15.1915 11.1874 14.0628 11.1874C12.9342 11.1874 12.0005 10.2706 12.0174 9.14195C12.0366 7.9989 12.9583 7.07724 14.0628 7.09649Z" fill="#631B00"/>
<path d="M14.0658 7.09889C15.1944 7.12055 16.1834 7.91227 16.1834 9.04088C16.1834 10.1695 15.1968 11.1874 14.0658 11.1874C12.9347 11.1874 12.0035 10.273 12.0203 9.14195C12.0396 7.9989 12.9636 7.07724 14.0658 7.09649V7.09889Z" fill="#651B00"/>
<path d="M14.0658 7.10134C15.1944 7.12299 16.1834 7.9123 16.1834 9.04092C16.1834 10.1695 15.1944 11.1899 14.0658 11.1899C12.9372 11.1899 12.0035 10.2754 12.0203 9.14439C12.0396 8.00134 12.9636 7.07968 14.0658 7.09893V7.10134Z" fill="#661C00"/>
<path d="M14.0672 7.10376C15.1958 7.12542 16.1849 7.91232 16.1849 9.04334C16.1849 10.1744 15.1958 11.1923 14.0672 11.1923C12.9386 11.1923 12.0049 10.2778 12.0242 9.14922C12.0434 8.00617 12.9675 7.08451 14.0672 7.10617V7.10376Z" fill="#671C00"/>
<path d="M14.0693 7.1084C15.1979 7.13006 16.1869 7.91696 16.1869 9.04557C16.1869 10.1742 15.1979 11.1969 14.0693 11.1969C12.9407 11.1969 12.007 10.2825 12.0262 9.15386C12.0455 8.01081 12.9696 7.08915 14.0693 7.11081V7.1084Z" fill="#691D00"/>
<path d="M14.0693 7.11097C15.1979 7.13263 16.1894 7.91712 16.1894 9.04574C16.1894 10.1744 15.1979 11.1971 14.0693 11.1971C12.9407 11.1971 12.007 10.2826 12.0262 9.15403C12.0455 8.01097 12.9696 7.08931 14.0693 7.11097Z" fill="#6A1D00"/>
<path d="M14.072 7.11328C15.2006 7.13494 16.192 7.91943 16.192 9.04805C16.192 10.1767 15.2006 11.2018 14.072 11.2018C12.9434 11.2018 12.0097 10.2874 12.0289 9.15874C12.0482 8.01569 12.9722 7.09403 14.072 7.11569V7.11328Z" fill="#6B1D00"/>
<path d="M14.075 7.11585C15.2036 7.13751 16.195 7.9196 16.195 9.04821C16.195 10.1768 15.2036 11.202 14.075 11.202C12.9464 11.202 12.0127 10.2875 12.0319 9.15891C12.0512 8.01586 12.9752 7.09419 14.075 7.11585Z" fill="#6D1E00"/>
<path d="M14.0771 7.11826C15.2057 7.13992 16.1996 7.9196 16.1996 9.04821C16.1996 10.1768 15.2057 11.202 14.0771 11.202C12.9485 11.202 12.0148 10.2875 12.034 9.15891C12.0557 8.01586 12.9774 7.09419 14.0771 7.11585V7.11826Z" fill="#6E1E00"/>
<path d="M14.0771 7.12049C15.2057 7.14456 16.1996 7.92183 16.1996 9.05044C16.1996 10.1791 15.2057 11.2066 14.0771 11.2066C12.9485 11.2066 12.0148 10.2922 12.034 9.16355C12.0557 8.02049 12.9774 7.09883 14.0771 7.12049Z" fill="#6F1E00"/>
<path d="M14.08 7.1229C15.2062 7.14696 16.2025 7.92183 16.2025 9.05044C16.2025 10.1791 15.2086 11.2066 14.08 11.2066C12.9514 11.2066 12.0177 10.2922 12.037 9.16355C12.0586 8.02049 12.9803 7.09883 14.08 7.12049V7.1229Z" fill="#711F00"/>
<path d="M14.0816 7.12524C15.2078 7.14931 16.2041 7.92418 16.2041 9.05039C16.2041 10.1766 15.2078 11.209 14.0816 11.209C12.9554 11.209 12.0193 10.2945 12.041 9.1683C12.0626 8.02525 12.9843 7.10359 14.0816 7.12765V7.12524Z" fill="#721F00"/>
<path d="M14.0816 7.12766C15.2078 7.15172 16.2065 7.92418 16.2065 9.05039C16.2065 10.1766 15.2102 11.209 14.0816 11.209C12.953 11.209 12.0193 10.2945 12.041 9.16831C12.0626 8.02526 12.9867 7.10359 14.0816 7.12766Z" fill="#731F00"/>
<path d="M14.0846 7.13257C15.2108 7.15663 16.2095 7.92669 16.2095 9.0553C16.2095 10.1839 15.2132 11.2163 14.0846 11.2163C12.956 11.2163 12.0223 10.3018 12.0439 9.17563C12.0656 8.03257 12.9897 7.11091 14.0846 7.13498V7.13257Z" fill="#752000"/>
<path d="M14.0864 7.13498C15.2126 7.15905 16.2112 7.9291 16.2112 9.05531C16.2112 10.1815 15.2126 11.2163 14.0864 11.2163C12.9602 11.2163 12.0241 10.3018 12.0457 9.17563C12.0674 8.03258 12.9914 7.11092 14.0864 7.13498Z" fill="#762000"/>
<path d="M14.0894 7.13739C15.2156 7.16145 16.2142 7.9291 16.2142 9.05531C16.2142 10.1815 15.2156 11.2163 14.0894 11.2163C12.9632 11.2163 12.0271 10.3018 12.0487 9.17563C12.0704 8.03258 12.9944 7.11092 14.0894 7.13498V7.13739Z" fill="#772100"/>
<path d="M14.0894 7.13987C15.2156 7.16393 16.2166 7.92917 16.2166 9.05779C16.2166 10.1864 15.2156 11.2212 14.0894 11.2212C12.9632 11.2212 12.0271 10.3067 12.0487 9.18051C12.0704 8.03746 12.9944 7.1158 14.0894 7.13987Z" fill="#792100"/>
<path d="M14.0914 7.14227C15.2176 7.16633 16.2187 7.93158 16.2187 9.05779C16.2187 10.184 15.2176 11.2212 14.0914 11.2212C12.9652 11.2212 12.0291 10.3067 12.0507 9.18051C12.0724 8.03746 12.9964 7.1158 14.0914 7.13987V7.14227Z" fill="#7A2100"/>
<path d="M14.0941 7.14471C15.2203 7.17118 16.2214 7.93161 16.2214 9.05782C16.2214 10.184 15.2203 11.2236 14.0941 11.2236C12.9679 11.2236 12.0318 10.3092 12.0535 9.18296C12.0775 8.0399 12.9992 7.11824 14.0941 7.14231V7.14471Z" fill="#7B2200"/>
<path d="M14.0941 7.14697C15.2203 7.17344 16.2238 7.93387 16.2238 9.06008C16.2238 10.1863 15.2203 11.2259 14.0941 11.2259C12.9679 11.2259 12.0318 10.3114 12.0535 9.18762C12.0775 8.04457 12.9992 7.12291 14.0941 7.14938V7.14697Z" fill="#7D2200"/>
<path d="M14.096 7.14941C15.2222 7.17588 16.2257 7.93391 16.2257 9.06012C16.2257 10.1863 15.2222 11.2283 14.096 11.2283C12.9698 11.2283 12.0337 10.3139 12.0578 9.19006C12.0818 8.04701 13.0035 7.12535 14.096 7.15182V7.14941Z" fill="#7E2200"/>
<path d="M14.099 7.15192C15.2252 7.17839 16.2287 7.93401 16.2287 9.06022C16.2287 10.1864 15.2252 11.2284 14.099 11.2284C12.9728 11.2284 12.0367 10.3164 12.0608 9.19017C12.0848 8.04711 13.0065 7.12545 14.099 7.15192Z" fill="#7F2300"/>
<path d="M14.1008 7.1543C15.227 7.18077 16.2305 7.93639 16.2305 9.06259C16.2305 10.1888 15.2246 11.2332 14.1008 11.2332C12.977 11.2332 12.0385 10.3212 12.0625 9.19495C12.0866 8.05189 13.0107 7.13023 14.1008 7.1567V7.1543Z" fill="#812300"/>
<path d="M14.1008 7.159C15.227 7.18547 16.2329 7.93869 16.2329 9.0649C16.2329 10.1911 15.227 11.2355 14.1008 11.2355C12.9746 11.2355 12.0385 10.3235 12.0625 9.19725C12.0866 8.05419 13.0107 7.13253 14.1008 7.159Z" fill="#822300"/>
<path d="M14.1038 7.16141C15.23 7.18788 16.2359 7.94109 16.2359 9.0649C16.2359 10.1887 15.23 11.2355 14.1038 11.2355C12.9776 11.2355 12.0415 10.3235 12.0655 9.19725C12.0896 8.05419 13.0136 7.13253 14.1038 7.159V7.16141Z" fill="#832400"/>
<path d="M14.1066 7.16389C15.2304 7.19036 16.2387 7.94116 16.2387 9.06737C16.2387 10.1936 15.2304 11.2404 14.1066 11.2404C12.9828 11.2404 12.0443 10.3283 12.0684 9.20213C12.0924 8.05908 13.0165 7.13742 14.1066 7.16389Z" fill="#852400"/>
<path d="M14.1066 7.16629C15.2304 7.19517 16.2411 7.94116 16.2411 9.06737C16.2411 10.1936 15.2328 11.2404 14.1066 11.2404C12.9804 11.2404 12.0443 10.3283 12.0684 9.20213C12.0925 8.05908 13.0165 7.13742 14.1066 7.16389V7.16629Z" fill="#862500"/>
<path d="M14.1086 7.16873C15.2324 7.19761 16.2431 7.9436 16.2431 9.0674C16.2431 10.1912 15.2348 11.2428 14.1086 11.2428C12.9824 11.2428 12.0463 10.3308 12.0703 9.20457C12.0944 8.06152 13.0185 7.13986 14.1086 7.16633V7.16873Z" fill="#872500"/>
<path d="M14.1102 7.17114C15.234 7.20002 16.2447 7.94361 16.2447 9.06981C16.2447 10.196 15.234 11.2452 14.1102 11.2452C12.9864 11.2452 12.0479 10.3332 12.0743 9.20939C12.1008 8.06633 13.0225 7.14467 14.1102 7.17355V7.17114Z" fill="#892500"/>
<path d="M14.1131 7.17358C15.2369 7.20246 16.2476 7.94364 16.2476 9.06985C16.2476 10.1961 15.2369 11.2477 14.1131 11.2477C12.9893 11.2477 12.0508 10.3356 12.0773 9.21183C12.1037 8.06877 13.0254 7.14711 14.1131 7.17599V7.17358Z" fill="#8A2600"/>
<path d="M14.1131 7.17595C15.2369 7.20483 16.25 7.94601 16.25 9.06981C16.25 10.1936 15.2393 11.2476 14.1131 11.2476C12.9869 11.2476 12.0508 10.3356 12.0773 9.21179C12.1037 8.06874 13.0254 7.14708 14.1131 7.17595Z" fill="#8B2600"/>
<path d="M14.1158 7.17822C15.2396 7.2071 16.2527 7.94587 16.2527 9.07208C16.2527 10.1983 15.2396 11.2523 14.1158 11.2523C12.992 11.2523 12.0535 10.3403 12.08 9.21647C12.1064 8.07341 13.0281 7.15175 14.1158 7.18063V7.17822Z" fill="#8D2600"/>
<path d="M14.1182 7.18328C15.242 7.21215 16.2551 7.95093 16.2551 9.07473C16.2551 10.1985 15.242 11.255 14.1182 11.255C12.9944 11.255 12.0559 10.3429 12.0823 9.21911C12.1088 8.07606 13.0305 7.1544 14.1182 7.18328Z" fill="#8E2700"/>
<path d="M14.1182 7.18568C15.242 7.21456 16.2551 7.95093 16.2551 9.07473C16.2551 10.1985 15.242 11.255 14.1182 11.255C12.9944 11.255 12.0559 10.3429 12.0823 9.21911C12.1088 8.07606 13.0329 7.1544 14.1182 7.18328V7.18568Z" fill="#8F2700"/>
<path d="M14.1209 7.18813C15.2447 7.217 16.2602 7.95096 16.2602 9.07476C16.2602 10.1986 15.2447 11.2574 14.1209 11.2574C12.9971 11.2574 12.0586 10.3454 12.0851 9.22156C12.1116 8.0785 13.0356 7.15684 14.1209 7.18572V7.18813Z" fill="#912700"/>
<path d="M14.123 7.19032C15.2468 7.22161 16.2623 7.95316 16.2623 9.07696C16.2623 10.2008 15.2468 11.2596 14.123 11.2596C12.9992 11.2596 12.0607 10.3476 12.0872 9.22375C12.1136 8.0807 13.0377 7.15904 14.123 7.18792V7.19032Z" fill="#922800"/>
<path d="M14.1254 7.19287C15.2493 7.22415 16.2648 7.9533 16.2648 9.0771C16.2648 10.2009 15.2493 11.2621 14.1254 11.2621C13.0016 11.2621 12.0631 10.3501 12.092 9.22871C12.1185 8.08566 13.0426 7.16399 14.1254 7.19528V7.19287Z" fill="#932800"/>
<path d="M14.1254 7.19511C15.2492 7.22639 16.2672 7.95554 16.2672 9.07694C16.2672 10.1983 15.2492 11.262 14.1254 11.262C13.0016 11.262 12.0631 10.3499 12.092 9.22854C12.1209 8.08549 13.0426 7.16383 14.1254 7.19511Z" fill="#952900"/>
<path d="M14.1274 7.19775C15.2512 7.22904 16.2691 7.95578 16.2691 9.07958C16.2691 10.2034 15.2512 11.267 14.1274 11.267C13.0036 11.267 12.0651 10.355 12.094 9.23359C12.1228 8.09054 13.0445 7.16888 14.1274 7.20016V7.19775Z" fill="#962900"/>
<path d="M14.1302 7.19999C15.254 7.23128 16.2719 7.95561 16.2719 9.07941C16.2719 10.2032 15.254 11.2669 14.1302 11.2669C13.0064 11.2669 12.0679 10.3548 12.0968 9.23342C12.1257 8.09037 13.0473 7.16871 14.1302 7.19999Z" fill="#972900"/>
<path d="M14.1302 7.20243C15.2516 7.23372 16.2719 7.95805 16.2719 9.07945C16.2719 10.2008 15.2516 11.2693 14.1302 11.2693C13.0088 11.2693 12.0679 10.3597 12.0968 9.23587C12.1257 8.09281 13.0473 7.17115 14.1302 7.20243Z" fill="#992A00"/>
<path d="M14.1323 7.20477C15.2537 7.23605 16.2764 7.95798 16.2764 9.08178C16.2764 10.2056 15.2561 11.2716 14.1323 11.2716C13.0085 11.2716 12.07 10.362 12.0989 9.2382C12.1277 8.09274 13.0494 7.17589 14.1323 7.20477Z" fill="#9A2A00"/>
<path d="M14.135 7.20961C15.2564 7.2409 16.2792 7.96042 16.2792 9.08422C16.2792 10.208 15.2588 11.2741 14.135 11.2741C13.0112 11.2741 12.0727 10.3644 12.1016 9.24064C12.1305 8.09518 13.0521 7.17833 14.135 7.20721V7.20961Z" fill="#9B2A00"/>
<path d="M14.1374 7.21206C15.2588 7.24334 16.2815 7.96286 16.2815 9.08425C16.2815 10.2056 15.2588 11.2765 14.1374 11.2765C13.016 11.2765 12.0751 10.3669 12.104 9.24308C12.1329 8.09762 13.0545 7.18077 14.1374 7.20965V7.21206Z" fill="#9C2B00"/>
<path d="M14.1373 7.2144C15.2587 7.24809 16.2814 7.9628 16.2814 9.0866C16.2814 10.2104 15.2587 11.2789 14.1373 11.2789C13.0159 11.2789 12.0774 10.3692 12.1039 9.24543C12.1328 8.09997 13.0568 7.18312 14.1373 7.2144Z" fill="#9E2B00"/>
<path d="M14.1398 7.2168C15.2612 7.25049 16.2863 7.96519 16.2863 9.08659C16.2863 10.208 15.2636 11.2813 14.1398 11.2813C13.016 11.2813 12.0799 10.3716 12.1087 9.25023C12.1376 8.10477 13.0617 7.18792 14.1398 7.2192V7.2168Z" fill="#9F2B00"/>
<path d="M14.1426 7.21904C15.264 7.25273 16.2891 7.96503 16.2891 9.08643C16.2891 10.2078 15.264 11.2811 14.1426 11.2811C13.0212 11.2811 12.0827 10.3715 12.1116 9.25006C12.1404 8.1046 13.0645 7.18776 14.1426 7.21904Z" fill="#A02C00"/>
<path d="M14.1426 7.22168C15.264 7.25537 16.2891 7.96527 16.2891 9.08907C16.2891 10.2129 15.264 11.2861 14.1426 11.2861C13.0212 11.2861 12.0827 10.3765 12.1116 9.25511C12.1428 8.10965 13.0645 7.1928 14.1426 7.22409V7.22168Z" fill="#A22C00"/>
<path d="M14.1446 7.22417C15.266 7.25786 16.2935 7.96775 16.2935 9.08915C16.2935 10.2105 15.2684 11.2862 14.1446 11.2862C13.0208 11.2862 12.0847 10.3766 12.1136 9.25519C12.1448 8.10973 13.0665 7.19288 14.1446 7.22417Z" fill="#A32C00"/>
<path d="M14.1465 7.22636C15.2679 7.26005 16.2954 7.96754 16.2954 9.08894C16.2954 10.2103 15.2679 11.2884 14.1465 11.2884C13.0251 11.2884 12.0866 10.3788 12.1155 9.25739C12.1467 8.11193 13.0684 7.19508 14.1465 7.22636Z" fill="#A42D00"/>
<path d="M14.1493 7.2288C15.2707 7.26249 16.2983 7.96999 16.2983 9.09138C16.2983 10.2128 15.2707 11.2909 14.1493 11.2909C13.028 11.2909 12.0894 10.3812 12.1183 9.25983C12.1496 8.11437 13.0713 7.19752 14.1493 7.2288Z" fill="#A62D00"/>
<path d="M14.1493 7.23365C15.2707 7.26734 16.2983 7.97243 16.2983 9.09382C16.2983 10.2152 15.2707 11.2933 14.1493 11.2933C13.028 11.2933 12.0894 10.3837 12.1183 9.26227C12.1496 8.11681 13.0713 7.19996 14.1493 7.23125V7.23365Z" fill="#A72E00"/>
<path d="M14.1514 7.23609C15.2728 7.26978 16.3027 7.97246 16.3027 9.09385C16.3027 10.2152 15.2728 11.2957 14.1514 11.2957C13.03 11.2957 12.0915 10.3861 12.1203 9.26471C12.1516 8.11925 13.0733 7.2024 14.1514 7.23369V7.23609Z" fill="#A82E00"/>
<path d="M14.1539 7.23853C15.2753 7.27462 16.3053 7.97489 16.3053 9.09629C16.3053 10.2177 15.2753 11.2982 14.1539 11.2982C13.0326 11.2982 12.094 10.3885 12.1253 9.26955C12.1566 8.12409 13.0783 7.20724 14.1539 7.24093V7.23853Z" fill="#AA2E00"/>
<path d="M14.1539 7.24097C15.2753 7.27706 16.3053 7.97493 16.3053 9.09632C16.3053 10.2177 15.2753 11.3006 14.1539 11.3006C13.0326 11.3006 12.094 10.391 12.1253 9.27199C12.1566 8.12653 13.0807 7.20968 14.1539 7.24337V7.24097Z" fill="#AB2F00"/>
<path d="M14.1569 7.24333C15.2759 7.27943 16.3106 7.97488 16.3106 9.09628C16.3106 10.2177 15.2783 11.3006 14.1569 11.3006C13.0355 11.3006 12.097 10.3909 12.1283 9.27195C12.1595 8.12649 13.0836 7.20964 14.1569 7.24333Z" fill="#AC2F00"/>
<path d="M14.159 7.24561C15.278 7.2817 16.3128 7.97716 16.3128 9.09855C16.3128 10.2199 15.2804 11.3052 14.159 11.3052C13.0376 11.3052 12.0991 10.3956 12.1304 9.27663C12.1617 8.13117 13.0857 7.21432 14.159 7.24801V7.24561Z" fill="#AE2F00"/>
<path d="M14.1618 7.24797C15.2808 7.28407 16.3155 7.97712 16.3155 9.09851C16.3155 10.2199 15.2832 11.3052 14.1618 11.3052C13.0404 11.3052 12.1019 10.3956 12.1331 9.27659C12.1668 8.13113 13.0885 7.21428 14.1618 7.24797Z" fill="#AF3000"/>
<path d="M14.1618 7.25041C15.2808 7.28651 16.3155 7.97956 16.3155 9.09855C16.3155 10.2175 15.2808 11.3076 14.1618 11.3076C13.0428 11.3076 12.1019 10.398 12.1331 9.27903C12.1668 8.13357 13.0885 7.21672 14.1618 7.25041Z" fill="#B03000"/>
<path d="M14.1638 7.25306C15.2828 7.28916 16.3199 7.9798 16.3199 9.09879C16.3199 10.2178 15.2852 11.3079 14.1638 11.3079C13.0424 11.3079 12.1039 10.4007 12.1352 9.27927C12.1688 8.13381 13.0905 7.21697 14.1638 7.25066V7.25306Z" fill="#B23000"/>
<path d="M14.1666 7.25526C15.2856 7.29136 16.3228 7.97959 16.3228 9.10099C16.3228 10.2224 15.2856 11.3101 14.1666 11.3101C13.0477 11.3101 12.1067 10.4029 12.138 9.28147C12.1717 8.13601 13.0934 7.21916 14.1666 7.25285V7.25526Z" fill="#B33100"/>
<path d="M14.1662 7.26025C15.2852 7.29876 16.3224 7.98459 16.3224 9.10358C16.3224 10.2226 15.2852 11.3151 14.1662 11.3151C13.0473 11.3151 12.1063 10.4079 12.14 9.28887C12.1737 8.14341 13.0954 7.22656 14.1662 7.26266V7.26025Z" fill="#B43100"/>
<path d="M14.1683 7.26251C15.2873 7.30101 16.3244 7.98443 16.3244 9.10342C16.3244 10.2224 15.2873 11.3149 14.1683 11.3149C13.0493 11.3149 12.1084 10.4077 12.1421 9.28872C12.1757 8.14326 13.0974 7.22641 14.1683 7.26251Z" fill="#B63200"/>
<path d="M14.1711 7.26489C15.2901 7.3034 16.3296 7.98682 16.3296 9.10581C16.3296 10.2248 15.2901 11.3197 14.1711 11.3197C13.0521 11.3197 12.1112 10.4125 12.1449 9.29351C12.1785 8.14805 13.1002 7.2312 14.1711 7.2673V7.26489Z" fill="#B73200"/>
<path d="M14.1731 7.26739C15.2921 7.30589 16.3317 7.98691 16.3317 9.1059C16.3317 10.2249 15.2921 11.3198 14.1731 11.3198C13.0542 11.3198 12.1132 10.4126 12.1469 9.2936C12.1806 8.14814 13.1023 7.23129 14.1731 7.26739Z" fill="#B83200"/>
<path d="M14.1731 7.26983C15.2921 7.30833 16.3317 7.98695 16.3317 9.10593C16.3317 10.2249 15.2921 11.3223 14.1731 11.3223C13.0542 11.3223 12.1132 10.415 12.1469 9.29604C12.1806 8.15058 13.1047 7.23373 14.1731 7.26983Z" fill="#BA3300"/>
<path d="M16.337 9.10813C16.337 10.2271 15.2951 11.3245 14.1761 11.3245C13.0571 11.3245 12.1162 10.4172 12.1499 9.29824C12.186 8.15278 13.1076 7.23593 14.1761 7.27203C15.2951 7.31053 16.337 7.98914 16.337 9.10813Z" fill="#BB3300"/>
<path opacity="0.99" d="M14.1782 7.27468C15.2972 7.31318 16.3368 7.99179 16.3368 9.11078C16.3368 10.2298 15.2972 11.3247 14.1782 11.3247C13.0592 11.3247 12.1183 10.4175 12.152 9.29848C12.1857 8.15302 13.1074 7.23617 14.1782 7.27227V7.27468Z" fill="#BB3402"/>
<path opacity="0.99" d="M14.1782 7.27691C15.2972 7.31541 16.3368 7.99643 16.3368 9.11542C16.3368 10.2344 15.2972 11.3293 14.1782 11.3293C13.0592 11.3293 12.1183 10.4221 12.152 9.30312C12.1857 8.15766 13.1074 7.24081 14.1782 7.27691Z" fill="#BC3604"/>
<path opacity="0.98" d="M14.181 7.27931C15.2999 7.31782 16.3371 7.99884 16.3371 9.11782C16.3371 10.2368 15.2999 11.3293 14.181 11.3293C13.062 11.3293 12.1211 10.4221 12.1547 9.30312C12.1884 8.15766 13.1101 7.24081 14.181 7.27691V7.27931Z" fill="#BC3705"/>
<path opacity="0.97" d="M14.181 7.27935C15.2999 7.31785 16.3371 8.00128 16.3371 9.12027C16.3371 10.2393 15.2999 11.3318 14.181 11.3318C13.062 11.3318 12.1211 10.4245 12.1547 9.30556C12.1884 8.16251 13.1101 7.24325 14.181 7.27935Z" fill="#BD3907"/>
<path opacity="0.96" d="M14.183 7.28179C15.302 7.32029 16.3391 8.00612 16.3391 9.12511C16.3391 10.2441 15.302 11.3342 14.183 11.3342C13.064 11.3342 12.1231 10.427 12.1568 9.308C12.1905 8.16495 13.1121 7.24569 14.183 7.28179Z" fill="#BD3A09"/>
<path opacity="0.96" d="M14.1829 7.28423C15.3018 7.32033 16.3366 8.00856 16.3366 9.12755C16.3366 10.2465 15.3018 11.3367 14.1829 11.3367C13.0639 11.3367 12.1254 10.4294 12.1566 9.31044C12.1903 8.16739 13.112 7.24813 14.1829 7.28423Z" fill="#BE3C0B"/>
<path opacity="0.95" d="M14.1857 7.28654C15.3047 7.32264 16.3395 8.01328 16.3395 9.13227C16.3395 10.2513 15.3047 11.339 14.1857 11.339C13.0667 11.339 12.1282 10.4317 12.1595 9.31275C12.1932 8.1697 13.1149 7.25285 14.1857 7.28654Z" fill="#BE3D0D"/>
<path opacity="0.94" d="M14.1857 7.28899C15.3047 7.32508 16.3371 8.01573 16.3371 9.13471C16.3371 10.2537 15.3047 11.3414 14.1857 11.3414C13.0667 11.3414 12.1282 10.4342 12.1595 9.3152C12.1932 8.17214 13.1125 7.2553 14.1857 7.28899Z" fill="#BF3F0E"/>
<path opacity="0.94" d="M14.1877 7.29143C15.3067 7.32752 16.339 8.02057 16.339 9.13956C16.339 10.2586 15.3067 11.3438 14.1877 11.3438C13.0687 11.3438 12.1302 10.4366 12.1615 9.31764C12.1952 8.17459 13.1144 7.25774 14.1877 7.29143Z" fill="#BF4010"/>
<path opacity="0.93" d="M14.1896 7.29383C15.3086 7.32993 16.341 8.02298 16.341 9.14197C16.341 10.261 15.3086 11.3438 14.1896 11.3438C13.0706 11.3438 12.1321 10.4366 12.1634 9.31764C12.1947 8.17459 13.1164 7.25774 14.1896 7.29143V7.29383Z" fill="#C04112"/>
<path opacity="0.92" d="M14.1896 7.29387C15.3086 7.32996 16.3386 8.02542 16.3386 9.14441C16.3386 10.2634 15.3086 11.3463 14.1896 11.3463C13.0706 11.3463 12.1321 10.4391 12.1634 9.32008C12.1947 8.17703 13.1164 7.26018 14.1896 7.29387Z" fill="#C04314"/>
<path opacity="0.91" d="M14.1924 7.29627C15.3114 7.33237 16.3414 8.02783 16.3414 9.14682C16.3414 10.2658 15.3114 11.3463 14.1924 11.3463C13.0734 11.3463 12.1349 10.4391 12.1662 9.32008C12.1975 8.17703 13.1192 7.26018 14.1924 7.29387V7.29627Z" fill="#C14416"/>
<path opacity="0.91" d="M14.1924 7.29875C15.3114 7.33485 16.339 8.03271 16.339 9.1517C16.339 10.2707 15.3114 11.3512 14.1924 11.3512C13.0734 11.3512 12.1349 10.444 12.1662 9.32496C12.1975 8.18191 13.1192 7.26506 14.1924 7.29875Z" fill="#C14618"/>
<path opacity="0.9" d="M14.1945 7.30119C15.3135 7.33488 16.341 8.03756 16.341 9.15655C16.341 10.2755 15.3135 11.3536 14.1945 11.3536C13.0755 11.3536 12.137 10.4464 12.1683 9.3274C12.1996 8.18435 13.1212 7.2675 14.1945 7.30119Z" fill="#C24719"/>
<path opacity="0.89" d="M14.1945 7.30363C15.3135 7.33732 16.341 8.04 16.341 9.15899C16.341 10.278 15.3135 11.3561 14.1945 11.3561C13.0755 11.3561 12.137 10.4488 12.1683 9.32984C12.1996 8.18679 13.1188 7.26994 14.1945 7.30363Z" fill="#C2491B"/>
<path opacity="0.89" d="M14.1971 7.30596C15.3161 7.33965 16.3412 8.04473 16.3412 9.16372C16.3412 10.2827 15.3161 11.3584 14.1971 11.3584C13.0781 11.3584 12.142 10.4512 12.1709 9.33217C12.2022 8.18912 13.1214 7.27467 14.1971 7.30596Z" fill="#C34A1D"/>
<path opacity="0.88" d="M14.1995 7.30595C15.3185 7.33964 16.3437 8.04473 16.3437 9.16372C16.3437 10.2827 15.3185 11.3584 14.1995 11.3584C13.0805 11.3584 12.1444 10.4512 12.1733 9.33217C12.2046 8.19152 13.1239 7.27467 14.1995 7.30595Z" fill="#C34C1F"/>
<path opacity="0.87" d="M14.1995 7.30839C15.3185 7.34208 16.3413 8.04957 16.3413 9.16856C16.3413 10.2876 15.3185 11.3608 14.1995 11.3608C13.0805 11.3608 12.1444 10.4536 12.1733 9.33461C12.2046 8.19396 13.1239 7.27711 14.1995 7.30839Z" fill="#C44D21"/>
<path opacity="0.87" d="M14.2022 7.3108C15.3212 7.34449 16.3439 8.05198 16.3439 9.17097C16.3439 10.29 15.3212 11.3608 14.2022 11.3608C13.0832 11.3608 12.1471 10.4536 12.176 9.33461C12.2073 8.19396 13.1265 7.27711 14.2022 7.30839V7.3108Z" fill="#C44E22"/>
<path opacity="0.86" d="M14.2022 7.31328C15.3212 7.34697 16.3439 8.05686 16.3439 9.17585C16.3439 10.2948 15.3212 11.3657 14.2022 11.3657C13.0832 11.3657 12.1471 10.4585 12.176 9.33949C12.2049 8.19884 13.1265 7.28199 14.2022 7.31328Z" fill="#C55024"/>
<path opacity="0.85" d="M14.2051 7.31568C15.3241 7.34937 16.3445 8.06168 16.3445 9.17826C16.3445 10.2948 15.3241 11.3657 14.2051 11.3657C13.0862 11.3657 12.1501 10.4585 12.1789 9.33949C12.2078 8.19884 13.1295 7.28199 14.2051 7.31328V7.31568Z" fill="#C55126"/>
<path opacity="0.84" d="M14.2051 7.31792C15.3241 7.35161 16.3445 8.06391 16.3445 9.1829C16.3445 10.3019 15.3241 11.3703 14.2051 11.3703C13.0862 11.3703 12.1501 10.4631 12.1789 9.34413C12.2078 8.20348 13.1271 7.28663 14.2051 7.31792Z" fill="#C65328"/>
<path opacity="0.84" d="M14.2073 7.31792C15.3263 7.3492 16.3442 8.06632 16.3442 9.1853C16.3442 10.3043 15.3263 11.3703 14.2073 11.3703C13.0883 11.3703 12.1522 10.4631 12.1811 9.34413C12.2099 8.20348 13.1292 7.28663 14.2073 7.31792Z" fill="#C6542A"/>
<path opacity="0.83" d="M14.2073 7.32036C15.3263 7.35164 16.3442 8.06875 16.3442 9.18774C16.3442 10.3067 15.3263 11.3728 14.2073 11.3728C13.0883 11.3728 12.1522 10.4656 12.1811 9.34657C12.2099 8.20592 13.1292 7.28907 14.2073 7.32036Z" fill="#C7562B"/>
<path opacity="0.82" d="M14.21 7.32269C15.329 7.35397 16.3469 8.07349 16.3469 9.19248C16.3469 10.3115 15.329 11.3751 14.21 11.3751C13.091 11.3751 12.1549 10.4679 12.1838 9.3489C12.2127 8.20825 13.1319 7.29381 14.21 7.32269Z" fill="#C7572D"/>
<path opacity="0.82" d="M14.2119 7.32509C15.3309 7.35638 16.3464 8.0759 16.3464 9.19489C16.3464 10.3139 15.3309 11.3751 14.2119 11.3751C13.093 11.3751 12.1593 10.4679 12.1857 9.3489C12.2146 8.20825 13.1339 7.29381 14.2119 7.32269V7.32509Z" fill="#C8592F"/>
<path opacity="0.81" d="M14.2119 7.32757C15.3309 7.35885 16.3464 8.08078 16.3464 9.19977C16.3464 10.3188 15.3309 11.38 14.2119 11.38C13.093 11.38 12.1593 10.4728 12.1857 9.35378C12.2146 8.21313 13.1339 7.29869 14.2119 7.32757Z" fill="#C85A31"/>
<path opacity="0.8" d="M14.2148 7.32997C15.3338 7.36126 16.3469 8.08319 16.3469 9.20218C16.3469 10.3212 15.3338 11.38 14.2148 11.38C13.0958 11.38 12.1621 10.4728 12.1886 9.35378C12.2175 8.21313 13.1367 7.29869 14.2148 7.32757V7.32997Z" fill="#C95C33"/>
<path opacity="0.79" d="M14.2148 7.33221C15.3338 7.36349 16.3469 8.08783 16.3469 9.20682C16.3469 10.3258 15.3338 11.3846 14.2148 11.3846C13.0958 11.3846 12.1621 10.4774 12.1886 9.35842C12.2175 8.21777 13.1343 7.30333 14.2148 7.33221Z" fill="#C95D34"/>
<path opacity="0.79" d="M14.2167 7.33245C15.3357 7.36373 16.3488 8.09048 16.3488 9.20946C16.3488 10.3285 15.3357 11.3849 14.2167 11.3849C13.0977 11.3849 12.164 10.4777 12.1905 9.35866C12.217 8.22042 13.1362 7.30357 14.2167 7.33245Z" fill="#C95E36"/>
<path opacity="0.78" d="M14.2167 7.33465C15.3357 7.36593 16.3464 8.09267 16.3464 9.21166C16.3464 10.3307 15.3357 11.3871 14.2167 11.3871C13.0977 11.3871 12.164 10.4798 12.1905 9.36086C12.217 8.22262 13.1362 7.30577 14.2167 7.33465Z" fill="#CA6038"/>
<path opacity="0.77" d="M14.2187 7.33709C15.3377 7.36597 16.3484 8.09752 16.3484 9.21651C16.3484 10.3355 15.3377 11.3895 14.2187 11.3895C13.0997 11.3895 12.166 10.4823 12.1925 9.3633C12.219 8.22506 13.1382 7.30821 14.2187 7.33709Z" fill="#CA613A"/>
<path opacity="0.77" d="M14.2187 7.33953C15.3377 7.36841 16.3484 8.09996 16.3484 9.21895C16.3484 10.3379 15.3377 11.392 14.2187 11.392C13.0997 11.392 12.166 10.4847 12.1925 9.36574C12.219 8.2275 13.1382 7.31065 14.2187 7.33953Z" fill="#CB633C"/>
<path opacity="0.76" d="M14.2215 7.34197C15.3405 7.37085 16.3488 8.10481 16.3488 9.2238C16.3488 10.3428 15.3405 11.3944 14.2215 11.3944C13.1025 11.3944 12.1688 10.4872 12.1953 9.36818C12.2218 8.22994 13.141 7.3131 14.2215 7.34197Z" fill="#CB643D"/>
<path opacity="0.75" d="M14.2236 7.34428C15.3426 7.37315 16.3509 8.10711 16.3509 9.2261C16.3509 10.3451 15.3426 11.3943 14.2236 11.3943C13.1046 11.3943 12.1709 10.4871 12.1974 9.36808C12.2239 8.22984 13.1407 7.3154 14.2236 7.34187V7.34428Z" fill="#CC663F"/>
<path opacity="0.74" d="M14.2235 7.34431C15.3425 7.37319 16.3484 8.10955 16.3484 9.22854C16.3484 10.3475 15.3425 11.3967 14.2235 11.3967C13.1045 11.3967 12.1732 10.4895 12.1973 9.37052C12.2238 8.23228 13.1406 7.31784 14.2235 7.34431Z" fill="#CC6741"/>
<path opacity="0.74" d="M14.2262 7.34672C15.3452 7.37559 16.3511 8.11437 16.3511 9.23095C16.3511 10.3475 15.3452 11.3967 14.2262 11.3967C13.1072 11.3967 12.1759 10.4895 12.2 9.37052C12.2265 8.23228 13.1433 7.31784 14.2262 7.34431V7.34672Z" fill="#CD6943"/>
<path opacity="0.73" d="M14.2262 7.34919C15.3452 7.37807 16.3511 8.11684 16.3511 9.23583C16.3511 10.3548 15.3452 11.4016 14.2262 11.4016C13.1072 11.4016 12.1759 10.4944 12.2 9.3754C12.2265 8.23716 13.1433 7.32272 14.2262 7.34919Z" fill="#CD6A45"/>
<path opacity="0.72" d="M14.2286 7.35163C15.3476 7.38051 16.351 8.12169 16.351 9.24068C16.351 10.3597 15.3476 11.4041 14.2286 11.4041C13.1096 11.4041 12.1783 10.4968 12.2024 9.37785C12.2264 8.23961 13.1457 7.32516 14.2286 7.35163Z" fill="#CE6B47"/>
<path opacity="0.72" d="M14.2286 7.35408C15.3476 7.38295 16.351 8.12413 16.351 9.24312C16.351 10.3621 15.3476 11.4065 14.2286 11.4065C13.1096 11.4065 12.1783 10.4993 12.2024 9.38029C12.2264 8.24205 13.1457 7.32761 14.2286 7.35408Z" fill="#CE6D48"/>
<path opacity="0.71" d="M14.2313 7.35652C15.3503 7.38299 16.3514 8.12898 16.3514 9.24797C16.3514 10.367 15.3503 11.4089 14.2313 11.4089C13.1123 11.4089 12.181 10.5017 12.2051 9.38273C12.2292 8.24449 13.1484 7.33005 14.2313 7.35652Z" fill="#CF6E4A"/>
<path opacity="0.7" d="M14.2334 7.35648C15.3524 7.38295 16.3535 8.12894 16.3535 9.24793C16.3535 10.3669 15.3524 11.4065 14.2334 11.4065C13.1144 11.4065 12.1831 10.4993 12.2072 9.38029C12.2312 8.24205 13.1481 7.32761 14.2334 7.35408V7.35648Z" fill="#CF704C"/>
<path opacity="0.7" d="M14.2334 7.35871C15.3524 7.38518 16.3535 8.13358 16.3535 9.25257C16.3535 10.3716 15.3524 11.4111 14.2334 11.4111C13.1144 11.4111 12.1831 10.5039 12.2072 9.38492C12.2312 8.24909 13.1481 7.33224 14.2334 7.35871Z" fill="#D0714E"/>
<path opacity="0.69" d="M14.2362 7.36127C15.3552 7.38774 16.3539 8.13614 16.3539 9.25513C16.3539 10.3741 15.3552 11.4113 14.2362 11.4113C13.1172 11.4113 12.1859 10.5041 12.21 9.38507C12.2341 8.24924 13.1509 7.3348 14.2362 7.35886V7.36127Z" fill="#D07350"/>
<path opacity="0.68" d="M14.2362 7.36375C15.3552 7.39022 16.3539 8.14102 16.3539 9.26001C16.3539 10.379 15.3552 11.4162 14.2362 11.4162C13.1172 11.4162 12.1859 10.5089 12.21 9.38996C12.2341 8.25412 13.1509 7.33968 14.2362 7.36375Z" fill="#D17451"/>
<path opacity="0.67" d="M14.2381 7.36594C15.3571 7.39241 16.3533 8.14562 16.3533 9.26461C16.3533 10.3836 15.3571 11.4184 14.2381 11.4184C13.1191 11.4184 12.1902 10.5111 12.2119 9.39216C12.2359 8.25632 13.1528 7.34188 14.2381 7.36594Z" fill="#D17653"/>
<path opacity="0.67" d="M14.2381 7.36838C15.3571 7.39485 16.3533 8.14807 16.3533 9.26705C16.3533 10.386 15.3571 11.4208 14.2381 11.4208C13.1191 11.4208 12.1902 10.5136 12.2119 9.3946C12.2359 8.25876 13.1528 7.34432 14.2381 7.36838Z" fill="#D27755"/>
<path opacity="0.66" d="M14.24 7.36838C15.359 7.39485 16.3553 8.15047 16.3553 9.26946C16.3553 10.3885 15.359 11.4208 14.24 11.4208C13.121 11.4208 12.1922 10.5136 12.2138 9.3946C12.2379 8.25876 13.1547 7.34432 14.24 7.36838Z" fill="#D27857"/>
<path opacity="0.65" d="M14.24 7.37083C15.359 7.39489 16.3529 8.15291 16.3529 9.2719C16.3529 10.3909 15.359 11.4232 14.24 11.4232C13.121 11.4232 12.1922 10.516 12.2138 9.39704C12.2355 8.2612 13.1523 7.34676 14.24 7.37083Z" fill="#D37A59"/>
<path opacity="0.65" d="M14.2428 7.37327C15.3618 7.39733 16.3557 8.15776 16.3557 9.27675C16.3557 10.3957 15.3618 11.4257 14.2428 11.4257C13.1238 11.4257 12.195 10.5185 12.2166 9.39948C12.2383 8.26365 13.1551 7.3492 14.2428 7.37327Z" fill="#D37B5A"/>
<path opacity="0.64" d="M14.2449 7.37567C15.3639 7.39974 16.3553 8.16017 16.3553 9.27916C16.3553 10.3981 15.3639 11.4257 14.2449 11.4257C13.1259 11.4257 12.197 10.5185 12.2187 9.39948C12.2404 8.26365 13.1572 7.3492 14.2449 7.37327V7.37567Z" fill="#D47D5C"/>
<path opacity="0.63" d="M14.2449 7.37791C15.3639 7.40197 16.3553 8.16481 16.3553 9.2838C16.3553 10.4028 15.3639 11.4303 14.2449 11.4303C13.1259 11.4303 12.197 10.5231 12.2187 9.40412C12.2404 8.26828 13.1572 7.35384 14.2449 7.37791Z" fill="#D47E5E"/>
<path opacity="0.62" d="M14.2477 7.38047C15.3666 7.40453 16.3581 8.16737 16.3581 9.28636C16.3581 10.4053 15.3666 11.4305 14.2477 11.4305C13.1287 11.4305 12.1998 10.5233 12.2214 9.40427C12.2431 8.26844 13.16 7.35641 14.2477 7.37806V7.38047Z" fill="#D58060"/>
<path opacity="0.62" d="M14.2477 7.38295C15.3666 7.40701 16.3557 8.17225 16.3557 9.29124C16.3557 10.4102 15.3666 11.4354 14.2477 11.4354C13.1287 11.4354 12.1998 10.5281 12.2214 9.40916C12.2431 8.27333 13.16 7.36129 14.2477 7.38295Z" fill="#D58162"/>
<path opacity="0.61" d="M14.2506 7.38295C15.3696 7.40701 16.3587 8.17466 16.3587 9.29365C16.3587 10.4126 15.3696 11.4354 14.2506 11.4354C13.1317 11.4354 12.2028 10.5281 12.2244 9.40916C12.2461 8.27333 13.1629 7.36129 14.2506 7.38295Z" fill="#D68363"/>
<path opacity="0.6" d="M14.2506 7.38539C15.3696 7.40945 16.3562 8.1771 16.3562 9.29609C16.3562 10.4151 15.3696 11.4378 14.2506 11.4378C13.1316 11.4378 12.2051 10.5306 12.2244 9.4116C12.246 8.27817 13.1605 7.36373 14.2506 7.38539Z" fill="#D68465"/>
<path opacity="0.6" d="M14.2526 7.38758C15.3716 7.41165 16.3583 8.1817 16.3583 9.30069C16.3583 10.4197 15.3716 11.44 14.2526 11.44C13.1337 11.44 12.2072 10.5328 12.2264 9.41379C12.2481 8.28037 13.1625 7.36593 14.2526 7.38758Z" fill="#D68567"/>
<path opacity="0.59" d="M14.2526 7.38999C15.3716 7.41165 16.3583 8.18411 16.3583 9.3031C16.3583 10.4221 15.3716 11.44 14.2526 11.44C13.1337 11.44 12.2072 10.5328 12.2264 9.41379C12.2481 8.28037 13.1625 7.36593 14.2526 7.38758V7.38999Z" fill="#D78769"/>
<path opacity="0.58" d="M14.2556 7.39247C15.3746 7.41412 16.3588 8.18899 16.3588 9.30798C16.3588 10.427 15.3746 11.4449 14.2556 11.4449C13.1366 11.4449 12.2101 10.5377 12.2294 9.41868C12.2486 8.28525 13.1655 7.37081 14.2556 7.39247Z" fill="#D7886B"/>
<path opacity="0.57" d="M14.2577 7.39487C15.3767 7.41653 16.3609 8.1914 16.3609 9.31039C16.3609 10.4294 15.3767 11.4449 14.2577 11.4449C13.1387 11.4449 12.2122 10.5377 12.2315 9.41868C12.2507 8.28525 13.1676 7.37081 14.2577 7.39247V7.39487Z" fill="#D88A6D"/>
<path opacity="0.57" d="M14.2577 7.39491C15.3767 7.41657 16.3585 8.19384 16.3585 9.31283C16.3585 10.4318 15.3767 11.4473 14.2577 11.4473C13.1387 11.4473 12.2122 10.5401 12.2315 9.42112C12.2507 8.28769 13.1676 7.37325 14.2577 7.39491Z" fill="#D88B6E"/>
<path opacity="0.56" d="M14.2605 7.39727C15.3794 7.41893 16.3613 8.19861 16.3613 9.3176C16.3613 10.4366 15.3794 11.4497 14.2605 11.4497C13.1415 11.4497 12.215 10.5425 12.2342 9.42348C12.2535 8.29006 13.1703 7.37802 14.2605 7.39727Z" fill="#D98D70"/>
<path opacity="0.55" d="M14.2605 7.39971C15.3794 7.42137 16.3613 8.20105 16.3613 9.32004C16.3613 10.439 15.3794 11.4521 14.2605 11.4521C13.1415 11.4521 12.215 10.5449 12.2342 9.42593C12.2535 8.2925 13.1679 7.38046 14.2605 7.39971Z" fill="#D98E72"/>
<path opacity="0.55" d="M14.2625 7.40215C15.3815 7.42381 16.3609 8.2059 16.3609 9.32489C16.3609 10.4439 15.3815 11.4546 14.2625 11.4546C13.1435 11.4546 12.217 10.5474 12.2363 9.42837C12.2555 8.29494 13.1699 7.3829 14.2625 7.40215Z" fill="#DA9074"/>
<path opacity="0.54" d="M14.2625 7.4046C15.3815 7.42625 16.3609 8.20834 16.3609 9.32733C16.3609 10.4463 15.3815 11.457 14.2625 11.457C13.1435 11.457 12.217 10.5498 12.2363 9.43081C12.2555 8.29738 13.1699 7.38534 14.2625 7.4046Z" fill="#DA9176"/>
<path opacity="0.53" d="M14.2653 7.40704C15.3843 7.4287 16.3613 8.21319 16.3613 9.33218C16.3613 10.4512 15.3843 11.4595 14.2653 11.4595C13.1463 11.4595 12.2222 10.5522 12.2391 9.43325C12.2583 8.29982 13.1728 7.38779 14.2653 7.40704Z" fill="#DB9277"/>
<path opacity="0.52" d="M14.2672 7.407C15.3862 7.42625 16.3632 8.21316 16.3632 9.33214C16.3632 10.4511 15.3862 11.457 14.2672 11.457C13.1482 11.457 12.2242 10.5498 12.241 9.43081C12.2603 8.29738 13.1747 7.38534 14.2672 7.4046V7.407Z" fill="#DB9479"/>
<path opacity="0.52" d="M14.2672 7.40923C15.3862 7.42849 16.3632 8.21779 16.3632 9.33678C16.3632 10.4558 15.3862 11.4617 14.2672 11.4617C13.1482 11.4617 12.2242 10.5544 12.241 9.43545C12.2603 8.30202 13.1747 7.38998 14.2672 7.40923Z" fill="#DC957B"/>
<path opacity="0.51" d="M14.2692 7.41189C15.3882 7.43114 16.3628 8.22044 16.3628 9.33943C16.3628 10.4584 15.3882 11.4619 14.2692 11.4619C13.1502 11.4619 12.2261 10.5547 12.243 9.43569C12.2598 8.30467 13.1743 7.39023 14.2692 7.40948V7.41189Z" fill="#DC977D"/>
<path opacity="0.5" d="M14.2692 7.41412C15.3882 7.43337 16.3628 8.22508 16.3628 9.34407C16.3628 10.4631 15.3882 11.4665 14.2692 11.4665C13.1502 11.4665 12.2261 10.5593 12.243 9.44033C12.2598 8.30931 13.1743 7.39487 14.2692 7.41412Z" fill="#DD987F"/>
<path opacity="0.5" d="M14.272 7.41649C15.391 7.43574 16.3632 8.22986 16.3632 9.34885C16.3632 10.4678 15.3886 11.4689 14.272 11.4689C13.1554 11.4689 12.2289 10.5617 12.2458 9.4427C12.2626 8.31168 13.1771 7.39964 14.272 7.41649Z" fill="#DD9A80"/>
<path opacity="0.49" d="M14.272 7.41893C15.391 7.43818 16.3632 8.2323 16.3632 9.35129C16.3632 10.4703 15.391 11.4714 14.272 11.4714C13.153 11.4714 12.2289 10.5641 12.2458 9.44514C12.2626 8.31412 13.1771 7.40209 14.272 7.41893Z" fill="#DE9B82"/>
<path opacity="0.48" d="M14.2741 7.41917C15.393 7.43843 16.3652 8.23495 16.3652 9.35394C16.3652 10.4729 15.393 11.4716 14.2741 11.4716C13.1551 11.4716 12.231 10.5644 12.2478 9.44539C12.2647 8.31437 13.1791 7.40233 14.2741 7.41917Z" fill="#DE9D84"/>
<path opacity="0.48" d="M14.2741 7.42137C15.393 7.44062 16.3628 8.23715 16.3628 9.35614C16.3628 10.4751 15.393 11.4738 14.2741 11.4738C13.1551 11.4738 12.231 10.5666 12.2478 9.44758C12.2647 8.31656 13.1791 7.40453 14.2741 7.42137Z" fill="#DF9E86"/>
<path opacity="0.47" d="M14.2767 7.42381C15.3957 7.44307 16.3655 8.242 16.3655 9.36099C16.3655 10.48 15.3957 11.4762 14.2767 11.4762C13.1578 11.4762 12.2337 10.569 12.2505 9.45002C12.2674 8.319 13.1818 7.40697 14.2767 7.42381Z" fill="#DFA088"/>
<path opacity="0.46" d="M14.2791 7.42622C15.3981 7.44306 16.3679 8.2444 16.3679 9.36339C16.3679 10.4824 15.3981 11.4762 14.2791 11.4762C13.1601 11.4762 12.2385 10.569 12.2529 9.45002C12.2698 8.319 13.1818 7.40697 14.2791 7.42381V7.42622Z" fill="#E0A189"/>
<path opacity="0.45" d="M14.2791 7.4287C15.3981 7.44554 16.3655 8.24929 16.3655 9.36828C16.3655 10.4873 15.3981 11.4811 14.2791 11.4811C13.1601 11.4811 12.2385 10.5739 12.2529 9.45491C12.2698 8.32389 13.1818 7.41185 14.2791 7.4287Z" fill="#E0A28B"/>
<path opacity="0.45" d="M14.2818 7.43086C15.4008 7.4477 16.3682 8.25386 16.3682 9.37044C16.3682 10.487 15.4008 11.4809 14.2818 11.4809C13.1628 11.4809 12.2412 10.5737 12.2556 9.45466C12.27 8.32364 13.1845 7.41161 14.2818 7.42845V7.43086Z" fill="#E1A48D"/>
<path opacity="0.44" d="M14.2818 7.43334C15.4008 7.45018 16.3658 8.25633 16.3658 9.37532C16.3658 10.4943 15.4008 11.4858 14.2818 11.4858C13.1628 11.4858 12.2412 10.5785 12.2556 9.45955C12.27 8.32853 13.1845 7.41649 14.2818 7.43334Z" fill="#E1A58F"/>
<path opacity="0.43" d="M14.2839 7.43352C15.4029 7.45036 16.3679 8.25892 16.3679 9.37791C16.3679 10.4969 15.4029 11.4859 14.2839 11.4859C13.1649 11.4859 12.2432 10.5787 12.2577 9.45973C12.2721 8.32871 13.1866 7.41908 14.2839 7.43352Z" fill="#E2A791"/>
<path opacity="0.43" d="M14.2839 7.43572C15.4029 7.45256 16.3679 8.26112 16.3679 9.38011C16.3679 10.4991 15.4029 11.4881 14.2839 11.4881C13.1649 11.4881 12.2432 10.5809 12.2577 9.46193C12.2721 8.33091 13.1866 7.42128 14.2839 7.43572Z" fill="#E2A892"/>
<path opacity="0.42" d="M14.2867 7.43816C15.4057 7.455 16.3683 8.26597 16.3683 9.38496C16.3683 10.5039 15.4057 11.4906 14.2867 11.4906C13.1677 11.4906 12.246 10.5834 12.2605 9.46437C12.2749 8.33575 13.1894 7.42372 14.2867 7.43816Z" fill="#E3AA94"/>
<path opacity="0.41" d="M14.2867 7.44056C15.4057 7.45741 16.3683 8.26837 16.3683 9.38736C16.3683 10.5064 15.4057 11.4906 14.2867 11.4906C13.1677 11.4906 12.246 10.5834 12.2605 9.46437C12.2749 8.33575 13.187 7.42372 14.2867 7.43816V7.44056Z" fill="#E3AB96"/>
<path opacity="0.4" d="M14.2886 7.44304C15.4076 7.45989 16.3678 8.27326 16.3678 9.39225C16.3678 10.5112 15.4076 11.4955 14.2886 11.4955C13.1697 11.4955 12.248 10.5882 12.2624 9.46925C12.2769 8.34064 13.1889 7.4286 14.2886 7.44304Z" fill="#E4AD98"/>
<path opacity="0.4" d="M14.2905 7.44545C15.4095 7.45989 16.3697 8.27566 16.3697 9.39465C16.3697 10.5136 15.4095 11.4955 14.2905 11.4955C13.1716 11.4955 12.2523 10.5882 12.2643 9.46925C12.2788 8.34064 13.1908 7.4286 14.2905 7.44304V7.44545Z" fill="#E4AE9A"/>
<path opacity="0.39" d="M14.2905 7.44548C15.4095 7.45992 16.3697 8.27811 16.3697 9.39709C16.3697 10.5161 15.4095 11.4979 14.2905 11.4979C13.1716 11.4979 12.2523 10.5907 12.2643 9.47169C12.2788 8.34308 13.1908 7.43104 14.2905 7.44548Z" fill="#E4AF9C"/>
<path opacity="0.38" d="M14.2934 7.44792C15.4123 7.46236 16.3701 8.28295 16.3701 9.40194C16.3701 10.5209 15.4123 11.5003 14.2934 11.5003C13.1744 11.5003 12.2551 10.5931 12.2671 9.47413C12.2816 8.34552 13.1936 7.43348 14.2934 7.44792Z" fill="#E5B19D"/>
<path opacity="0.38" d="M14.2934 7.45012C15.4123 7.46456 16.3701 8.28515 16.3701 9.40414C16.3701 10.5231 15.4123 11.5025 14.2934 11.5025C13.1744 11.5025 12.2551 10.5953 12.2671 9.47633C12.2792 8.34772 13.1936 7.43568 14.2934 7.45012Z" fill="#E5B29F"/>
<path opacity="0.37" d="M14.2963 7.45281C15.4153 7.46724 16.3707 8.29024 16.3707 9.40923C16.3707 10.5282 15.4153 11.5052 14.2963 11.5052C13.1774 11.5052 12.2581 10.598 12.2701 9.47902C12.2822 8.3504 13.1966 7.43837 14.2963 7.45281Z" fill="#E6B4A1"/>
<path opacity="0.36" d="M14.2963 7.4552C15.4153 7.46963 16.3707 8.29263 16.3707 9.41162C16.3707 10.5306 15.4153 11.5076 14.2963 11.5076C13.1774 11.5076 12.2581 10.6004 12.2701 9.48141C12.2822 8.35279 13.1942 7.44316 14.2963 7.4552Z" fill="#E6B5A3"/>
<path opacity="0.35" d="M14.2982 7.45739C15.4172 7.47183 16.3725 8.29724 16.3725 9.41622C16.3725 10.5352 15.4172 11.5098 14.2982 11.5098C13.1792 11.5098 12.2599 10.6026 12.272 9.4836C12.284 8.35499 13.196 7.44536 14.2982 7.45739Z" fill="#E7B7A5"/>
<path opacity="0.35" d="M14.3012 7.4576C15.4202 7.47204 16.3731 8.29745 16.3731 9.41643C16.3731 10.5354 15.4202 11.5076 14.3012 11.5076C13.1822 11.5076 12.2629 10.6004 12.275 9.48141C12.287 8.35279 13.199 7.44316 14.3012 7.4552V7.4576Z" fill="#E7B8A6"/>
<path opacity="0.34" d="M14.3012 7.45983C15.4202 7.47187 16.3731 8.30208 16.3731 9.42107C16.3731 10.5401 15.4202 11.5123 14.3012 11.5123C13.1822 11.5123 12.2629 10.605 12.275 9.48605C12.287 8.35743 13.199 7.4478 14.3012 7.45983Z" fill="#E8BAA8"/>
<path opacity="0.33" d="M14.3032 7.46224C15.4222 7.47427 16.3728 8.3069 16.3728 9.42348C16.3728 10.5401 15.4222 11.5123 14.3032 11.5123C13.1843 11.5123 12.265 10.605 12.277 9.48605C12.2891 8.35743 13.2011 7.4478 14.3032 7.45983V7.46224Z" fill="#E8BBAA"/>
<path opacity="0.33" d="M14.3032 7.46472C15.4222 7.47675 16.3727 8.30937 16.3727 9.42836C16.3727 10.5473 15.4222 11.5171 14.3032 11.5171C13.1842 11.5171 12.2674 10.6099 12.277 9.49093C12.289 8.36472 13.2011 7.45269 14.3032 7.46472Z" fill="#E9BCAC"/>
<path opacity="0.32" d="M14.3059 7.46716C15.4249 7.47919 16.3754 8.31422 16.3754 9.43321C16.3754 10.5522 15.4249 11.5196 14.3059 11.5196C13.1869 11.5196 12.2701 10.6124 12.2797 9.49337C12.2917 8.36716 13.2037 7.45513 14.3059 7.46716Z" fill="#E9BEAE"/>
<path opacity="0.31" d="M14.3059 7.4696C15.4249 7.48163 16.373 8.31666 16.373 9.43565C16.373 10.5546 15.4249 11.522 14.3059 11.522C13.1869 11.522 12.2701 10.6148 12.2797 9.49581C12.2917 8.3696 13.2013 7.45757 14.3059 7.4696Z" fill="#EABFAF"/>
<path opacity="0.3" d="M14.3083 7.4718C15.4273 7.48383 16.3754 8.32127 16.3754 9.44025C16.3754 10.5592 15.4273 11.5242 14.3083 11.5242C13.1893 11.5242 12.2724 10.617 12.2821 9.49801C12.2917 8.3718 13.2037 7.45977 14.3083 7.4718Z" fill="#EAC1B1"/>
<path opacity="0.3" d="M14.3083 7.47197C15.4273 7.484 16.373 8.32143 16.373 9.44042C16.373 10.5594 15.4273 11.522 14.3083 11.522C13.1893 11.522 12.2724 10.6148 12.2821 9.49577C12.2917 8.36956 13.2037 7.45993 14.3083 7.46956V7.47197Z" fill="#EBC2B3"/>
<path opacity="0.29" d="M14.311 7.4742C15.43 7.48623 16.3757 8.32607 16.3757 9.44506C16.3757 10.564 15.43 11.5266 14.311 11.5266C13.192 11.5266 12.2752 10.6194 12.2848 9.50041C12.2944 8.3742 13.2065 7.46457 14.311 7.4742Z" fill="#EBC4B5"/>
<path opacity="0.28" d="M14.3131 7.47685C15.4321 7.48888 16.3778 8.32872 16.3778 9.44771C16.3778 10.5667 15.4321 11.5269 14.3131 11.5269C13.1941 11.5269 12.2773 10.6196 12.2869 9.50065C12.2965 8.37444 13.2085 7.46482 14.3131 7.47444V7.47685Z" fill="#ECC5B7"/>
<path opacity="0.28" d="M14.3131 7.47908C15.4321 7.48871 16.3754 8.33336 16.3754 9.45235C16.3754 10.5713 15.4321 11.5315 14.3131 11.5315C13.1941 11.5315 12.2773 10.6243 12.2869 9.50529C12.2965 8.37908 13.2085 7.46945 14.3131 7.47908Z" fill="#ECC7B8"/>
<path opacity="0.27" d="M14.3159 7.48152C15.4349 7.49115 16.3782 8.33821 16.3782 9.4572C16.3782 10.5762 15.4349 11.5339 14.3159 11.5339C13.1969 11.5339 12.2801 10.6267 12.2897 9.50773C12.2993 8.38152 13.2114 7.4719 14.3159 7.48152Z" fill="#EDC8BA"/>
<path opacity="0.26" d="M14.3159 7.48396C15.4349 7.49359 16.3758 8.34065 16.3758 9.45964C16.3758 10.5786 15.4349 11.5364 14.3159 11.5364C13.1969 11.5364 12.2801 10.6292 12.2897 9.51017C12.2993 8.38397 13.2089 7.47434 14.3159 7.48396Z" fill="#EDC9BC"/>
<path opacity="0.26" d="M14.3178 7.48396C15.4368 7.49359 16.3777 8.34306 16.3777 9.46204C16.3777 10.581 15.4368 11.5364 14.3178 11.5364C13.1988 11.5364 12.2844 10.6292 12.2916 9.51017C12.3012 8.38397 13.2109 7.47434 14.3178 7.48396Z" fill="#EECBBE"/>
<path opacity="0.25" d="M14.3178 7.4864C15.4368 7.49603 16.3777 8.3455 16.3777 9.46449C16.3777 10.5835 15.4368 11.5388 14.3178 11.5388C13.1988 11.5388 12.2844 10.6316 12.2916 9.51262C12.3012 8.38641 13.2109 7.47678 14.3178 7.4864Z" fill="#EECCC0"/>
<path opacity="0.24" d="M14.3198 7.48885C15.4388 7.49847 16.3773 8.35035 16.3773 9.46934C16.3773 10.5883 15.4388 11.5413 14.3198 11.5413C13.2008 11.5413 12.2863 10.634 12.2936 9.51506C12.3008 8.38885 13.2128 7.47922 14.3198 7.48885Z" fill="#EFCEC2"/>
<path opacity="0.23" d="M14.3226 7.49122C15.4416 7.50084 16.3801 8.35272 16.3801 9.47171C16.3801 10.5907 15.4416 11.5412 14.3226 11.5412C13.2036 11.5412 12.2891 10.634 12.2964 9.51502C12.3036 8.39122 13.2156 7.48159 14.3226 7.48881V7.49122Z" fill="#EFCFC3"/>
<path opacity="0.23" d="M14.3226 7.4937C15.4416 7.50332 16.3777 8.3576 16.3777 9.47659C16.3777 10.5956 15.4392 11.5461 14.3226 11.5461C13.206 11.5461 12.2891 10.6389 12.2964 9.51991C12.3036 8.39611 13.2156 7.48648 14.3226 7.4937Z" fill="#F0D1C5"/>
<path opacity="0.22" d="M14.3247 7.4961C15.4436 7.50573 16.3797 8.36242 16.3797 9.479C16.3797 10.5956 15.4436 11.5461 14.3247 11.5461C13.2057 11.5461 12.2912 10.6389 12.2984 9.51991C12.3057 8.39611 13.2153 7.48648 14.3247 7.4937V7.4961Z" fill="#F0D2C7"/>
<path opacity="0.21" d="M14.3247 7.49614C15.4436 7.50336 16.3797 8.36245 16.3797 9.48144C16.3797 10.6004 15.4436 11.5486 14.3247 11.5486C13.2057 11.5486 12.2912 10.6413 12.2984 9.52235C12.3057 8.39855 13.2153 7.48892 14.3247 7.49614Z" fill="#F1D4C9"/>
<path opacity="0.21" d="M14.3274 7.49833C15.4464 7.50555 16.3801 8.36705 16.3801 9.48604C16.3801 10.605 15.4464 11.5508 14.3274 11.5508C13.2084 11.5508 12.294 10.6435 12.3012 9.52454C12.3084 8.40074 13.218 7.49111 14.3274 7.49833Z" fill="#F1D5CB"/>
<path opacity="0.2" d="M14.3274 7.50078C15.4464 7.50799 16.3801 8.36949 16.3801 9.48848C16.3801 10.6075 15.4464 11.5532 14.3274 11.5532C13.2084 11.5532 12.294 10.646 12.3012 9.52699C12.3084 8.40318 13.218 7.49356 14.3274 7.50078Z" fill="#F1D6CC"/>
<path opacity="0.19" d="M14.3298 7.50322C15.4488 7.51044 16.3825 8.37434 16.3825 9.49333C16.3825 10.6123 15.4488 11.5556 14.3298 11.5556C13.2108 11.5556 12.2964 10.6484 12.3036 9.52943C12.3108 8.40563 13.2204 7.496 14.3298 7.50322Z" fill="#F2D8CE"/>
<path opacity="0.18" d="M14.3298 7.50562C15.4487 7.51284 16.38 8.37675 16.38 9.49574C16.38 10.6147 15.4487 11.5556 14.3298 11.5556C13.2108 11.5556 12.2987 10.6484 12.3035 9.52943C12.3108 8.40563 13.2204 7.496 14.3298 7.50322V7.50562Z" fill="#F2D9D0"/>
<path opacity="0.18" d="M14.3324 7.50786C15.4514 7.51507 16.3827 8.38139 16.3827 9.50038C16.3827 10.6194 15.4514 11.5603 14.3324 11.5603C13.2135 11.5603 12.3014 10.6531 12.3062 9.53407C12.3135 8.41026 13.2231 7.50064 14.3324 7.50786Z" fill="#F3DBD2"/>
<path opacity="0.17" d="M14.3345 7.50804C15.4535 7.51526 16.3824 8.38157 16.3824 9.50056C16.3824 10.6196 15.4535 11.5581 14.3345 11.5581C13.2155 11.5581 12.3035 10.6508 12.3083 9.53184C12.3131 8.40804 13.2227 7.50082 14.3345 7.50563V7.50804Z" fill="#F3DCD4"/>
<path opacity="0.16" d="M14.3345 7.51052C15.4535 7.51774 16.3824 8.38646 16.3824 9.50544C16.3824 10.6244 15.4535 11.5629 14.3345 11.5629C13.2155 11.5629 12.3035 10.6557 12.3083 9.53673C12.3131 8.41293 13.2227 7.5057 14.3345 7.51052Z" fill="#F4DED5"/>
<path opacity="0.16" d="M14.3373 7.51268C15.4563 7.5199 16.3852 8.39103 16.3852 9.50761C16.3852 10.6242 15.4563 11.5627 14.3373 11.5627C13.2183 11.5627 12.3063 10.6555 12.3111 9.53649C12.3159 8.41268 13.2256 7.50546 14.3373 7.51027V7.51268Z" fill="#F4DFD7"/>
<path opacity="0.15" d="M14.3373 7.51516C15.4563 7.51997 16.3828 8.3935 16.3828 9.51249C16.3828 10.6315 15.4563 11.5676 14.3373 11.5676C13.2183 11.5676 12.3063 10.6604 12.3111 9.54137C12.3159 8.41757 13.2256 7.51034 14.3373 7.51516Z" fill="#F5E1D9"/>
<path opacity="0.14" d="M14.3393 7.5176C15.4583 7.52241 16.3847 8.39835 16.3847 9.51734C16.3847 10.6363 15.4583 11.57 14.3393 11.57C13.2203 11.57 12.3083 10.6628 12.3131 9.54381C12.3179 8.42241 13.2275 7.51278 14.3393 7.5176Z" fill="#F5E2DB"/>
<path opacity="0.13" d="M14.3393 7.52004C15.4583 7.52485 16.3823 8.40079 16.3823 9.51978C16.3823 10.6388 15.4583 11.5725 14.3393 11.5725C13.2203 11.5725 12.3083 10.6652 12.3131 9.54625C12.3179 8.42486 13.2275 7.51523 14.3393 7.52004Z" fill="#F6E4DD"/>
<path opacity="0.13" d="M14.3412 7.52248C15.4602 7.52729 16.3843 8.40564 16.3843 9.52463C16.3843 10.6436 15.4602 11.5749 14.3412 11.5749C13.2222 11.5749 12.3102 10.6677 12.315 9.54869C12.3198 8.4273 13.2295 7.51767 14.3412 7.52248Z" fill="#F6E5DE"/>
<path opacity="0.12" d="M14.3412 7.52245C15.4602 7.52726 16.3843 8.4056 16.3843 9.52459C16.3843 10.6436 15.4602 11.5725 14.3412 11.5725C13.2222 11.5725 12.3102 10.6652 12.315 9.54625C12.3198 8.42486 13.2271 7.51523 14.3412 7.52004V7.52245Z" fill="#F7E6E0"/>
<path opacity="0.11" d="M14.3441 7.52492C15.4631 7.52973 16.3847 8.41049 16.3847 9.52948C16.3847 10.6485 15.4631 11.5773 14.3441 11.5773C13.2251 11.5773 12.3155 10.6701 12.3179 9.55113C12.3227 8.42974 13.2299 7.52011 14.3441 7.52492Z" fill="#F7E8E2"/>
<path opacity="0.11" d="M14.3461 7.52731C15.4651 7.53213 16.3868 8.41288 16.3868 9.53187C16.3868 10.6509 15.4651 11.5773 14.3461 11.5773C13.2271 11.5773 12.3175 10.6701 12.3199 9.55112C12.3247 8.42972 13.2319 7.5225 14.3461 7.52491V7.52731Z" fill="#F8E9E4"/>
<path opacity="0.1" d="M14.3461 7.52979C15.4651 7.5346 16.3843 8.41776 16.3843 9.53675C16.3843 10.6557 15.4651 11.5822 14.3461 11.5822C13.2271 11.5822 12.3175 10.675 12.3199 9.556C12.3223 8.43461 13.2319 7.52738 14.3461 7.52979Z" fill="#F8EBE6"/>
<path opacity="0.09" d="M14.3488 7.53199C15.4678 7.53439 16.3871 8.42236 16.3871 9.54135C16.3871 10.6603 15.4678 11.5844 14.3488 11.5844C13.2299 11.5844 12.3202 10.6772 12.3226 9.5582C12.325 8.4368 13.2347 7.52958 14.3488 7.53199Z" fill="#F9ECE7"/>
<path opacity="0.09" d="M14.3488 7.53443C15.4678 7.53684 16.3871 8.42481 16.3871 9.54379C16.3871 10.6628 15.4678 11.5869 14.3488 11.5869C13.2299 11.5869 12.3202 10.6796 12.3226 9.56064C12.325 8.43924 13.2347 7.53202 14.3488 7.53443Z" fill="#F9EEE9"/>
<path opacity="0.08" d="M14.351 7.53443C15.47 7.53684 16.3868 8.42721 16.3868 9.5462C16.3868 10.6652 15.47 11.5869 14.351 11.5869C13.232 11.5869 12.3224 10.6796 12.3248 9.56064C12.3272 8.43924 13.2368 7.53202 14.351 7.53443Z" fill="#FAEFEB"/>
<path opacity="0.07" d="M14.351 7.53687C15.47 7.53928 16.3868 8.42965 16.3868 9.54864C16.3868 10.6676 15.47 11.5893 14.351 11.5893C13.232 11.5893 12.3224 10.6821 12.3248 9.56308C12.3272 8.44169 13.2344 7.53446 14.351 7.53687Z" fill="#FAF1ED"/>
<path opacity="0.06" d="M14.3539 7.53931C15.4729 7.54172 16.3873 8.4345 16.3873 9.55349C16.3873 10.6725 15.4729 11.5917 14.3539 11.5917C13.2349 11.5917 12.3253 10.6845 12.3277 9.56552C12.3277 8.44413 13.2373 7.5369 14.3539 7.53931Z" fill="#FBF2EF"/>
<path opacity="0.06" d="M14.356 7.54172C15.475 7.54172 16.3894 8.43691 16.3894 9.5559C16.3894 10.6749 15.475 11.5917 14.356 11.5917C13.237 11.5917 12.3274 10.6845 12.3298 9.56552C12.3298 8.44413 13.2394 7.5369 14.356 7.53931V7.54172Z" fill="#FBF3F1"/>
<path opacity="0.05" d="M14.356 7.54419C15.475 7.54419 16.3894 8.44179 16.3894 9.56078C16.3894 10.6798 15.475 11.5966 14.356 11.5966C13.237 11.5966 12.3274 10.6894 12.3298 9.57041C12.3298 8.45142 13.2394 7.54179 14.356 7.54419Z" fill="#FCF5F2"/>
<path opacity="0.04" d="M14.3588 7.54636C15.4778 7.54636 16.3898 8.44636 16.3898 9.56294C16.3898 10.6795 15.4778 11.5964 14.3588 11.5964C13.2398 11.5964 12.3326 10.6891 12.3326 9.57016C12.3326 8.45117 13.2422 7.54154 14.3588 7.54395V7.54636Z" fill="#FCF6F4"/>
<path opacity="0.04" d="M14.3588 7.54639C15.4778 7.54639 16.3898 8.44639 16.3898 9.56538C16.3898 10.6844 15.4778 11.5988 14.3588 11.5988C13.2398 11.5988 12.3326 10.6916 12.3326 9.5726C12.3326 8.45361 13.2422 7.54639 14.3588 7.54639Z" fill="#FDF8F6"/>
<path opacity="0.03" d="M14.3608 7.54883C15.4798 7.54883 16.3894 8.45124 16.3894 9.57023C16.3894 10.6892 15.4798 11.6012 14.3608 11.6012C13.2418 11.6012 12.3346 10.694 12.3346 9.57504C12.3346 8.45605 13.2442 7.54883 14.3608 7.54883Z" fill="#FDF9F8"/>
<path opacity="0.02" d="M14.3608 7.55127C15.4798 7.55127 16.3894 8.45368 16.3894 9.57267C16.3894 10.6917 15.4798 11.6037 14.3608 11.6037C13.2418 11.6037 12.3346 10.6965 12.3346 9.57748C12.3346 8.45849 13.2418 7.55127 14.3608 7.55127Z" fill="#FEFBFA"/>
<path opacity="0.01" d="M14.3627 7.55371C15.4817 7.55371 16.3913 8.45853 16.3913 9.57752C16.3913 10.6965 15.4817 11.6061 14.3627 11.6061C13.2437 11.6061 12.3365 10.6989 12.3365 9.57992C12.3365 8.46094 13.2437 7.55371 14.3627 7.55371Z" fill="#FEFCFB"/>
</g>
</g>
<mask id="mask1_141_7829" style="mask-type:luminance" maskUnits="userSpaceOnUse" x="0" y="0" width="29" height="18">
<path d="M27.2259 0H0.930867C0.418298 0 0.00439453 0.413905 0.00439453 0.926474V17.0736C0.00439453 17.5862 0.418298 18.0001 0.930867 18.0001H27.2259C27.7385 18.0001 28.1524 17.5862 28.1524 17.0736V0.928881C28.1524 0.416312 27.7385 0.00240602 27.2259 0.00240602V0ZM26.7663 9.00244C26.7663 13.8033 22.8751 17.6945 18.0743 17.6945H0.928462C0.586749 17.6945 0.310008 17.4177 0.310008 17.076V0.928881C0.310008 0.587168 0.586749 0.310428 0.928462 0.310428H18.0743C22.8751 0.310428 26.7663 4.20162 26.7663 9.00244Z" fill="white"/>
</mask>
<g mask="url(#mask1_141_7829)">
<mask id="mask2_141_7829" style="mask-type:luminance" maskUnits="userSpaceOnUse" x="-3" y="-8" width="34" height="34">
<path d="M14.0903 25.7008C23.3124 25.7008 30.7885 18.2248 30.7885 9.00264C30.7885 -0.219521 23.3124 -7.69556 14.0903 -7.69556C4.86813 -7.69556 -2.60791 -0.219521 -2.60791 9.00264C-2.60791 18.2248 4.86813 25.7008 14.0903 25.7008Z" fill="white"/>
</mask>
<g mask="url(#mask2_141_7829)">
<path d="M20.2009 -13.8085L-8.72119 2.88965L7.977 31.8118L36.8991 15.1136L20.2009 -13.8085Z" fill="#E04E15"/>
<path d="M20.5466 -13.2058L-8.37549 3.49243L8.32271 32.4146L37.2448 15.7164L20.5466 -13.2058Z" fill="#E04F15"/>
<path d="M20.8971 -12.6042L-8.02502 4.09399L8.67317 33.0161L37.5953 16.3179L20.8971 -12.6042Z" fill="#E15015"/>
<path d="M21.2431 -12.0039L-7.67902 4.69434L9.01918 33.6165L37.9413 16.9183L21.2431 -12.0039Z" fill="#E15115"/>
<path d="M21.5925 -11.4001L-7.32959 5.2981L9.3686 34.2202L38.2907 17.522L21.5925 -11.4001Z" fill="#E25215"/>
<path d="M21.9381 -10.7973L-6.98407 5.90088L9.71412 34.823L38.6362 18.1248L21.9381 -10.7973Z" fill="#E25316"/>
<path d="M22.2878 -10.1958L-6.63428 6.50244L10.0639 35.4246L38.986 18.7264L22.2878 -10.1958Z" fill="#E35416"/>
<path d="M22.6345 -9.59517L-6.2876 7.10303L10.4106 36.0251L39.3327 19.327L22.6345 -9.59517Z" fill="#E35516"/>
<path d="M22.9792 -8.99238L-5.94287 7.70581L10.7553 36.6279L39.6774 19.9297L22.9792 -8.99238Z" fill="#E35616"/>
<path d="M23.3289 -8.38862L-5.59326 8.30957L11.1049 37.2317L40.0271 20.5335L23.3289 -8.38862Z" fill="#E45716"/>
<path d="M23.6765 -7.78584L-5.24561 8.91235L11.4526 37.8345L40.3747 21.1363L23.6765 -7.78584Z" fill="#E45716"/>
<path d="M24.0251 -7.18648L-4.89697 9.51172L11.8012 38.4338L40.7233 21.7356L24.0251 -7.18648Z" fill="#E55816"/>
<path d="M24.3708 -6.58394L-4.55133 10.1143L12.1469 39.0364L41.069 22.3382L24.3708 -6.58394Z" fill="#E55916"/>
<path d="M24.7186 -5.98213L-4.20355 10.7161L12.4946 39.6382L41.4168 22.94L24.7186 -5.98213Z" fill="#E55A16"/>
<path d="M25.0681 -5.37715L-3.854 11.321L12.8442 40.2432L41.7663 23.545L25.0681 -5.37715Z" fill="#E65B16"/>
<path d="M25.416 -4.77803L-3.50616 11.9202L13.192 40.8423L42.1142 24.1441L25.416 -4.77803Z" fill="#E65C17"/>
<path d="M25.7615 -4.17525L-3.16064 12.5229L13.5375 41.4451L42.4597 24.7469L25.7615 -4.17525Z" fill="#E75D17"/>
<path d="M26.1101 -3.57368L-2.81201 13.1245L13.8862 42.0466L42.8083 25.3484L26.1101 -3.57368Z" fill="#E75E17"/>
<path d="M26.4578 -2.97065L-2.46436 13.7275L14.2338 42.6497L43.156 25.9515L26.4578 -2.97065Z" fill="#E85F17"/>
<path d="M26.8053 -2.36836L-2.11682 14.3298L14.5814 43.252L43.5035 26.5538L26.8053 -2.36836Z" fill="#E86017"/>
<path d="M26.9382 -2.13691L-1.98389 14.5613L14.7143 43.4834L43.6364 26.7852L26.9382 -2.13691Z" fill="#E86117"/>
<path d="M27.074 -1.90351L-1.84814 14.7947L14.85 43.7168L43.7722 27.0186L27.074 -1.90351Z" fill="#E96217"/>
<path d="M27.2078 -1.67012L-1.71436 15.0281L14.9838 43.9502L43.906 27.252L27.2078 -1.67012Z" fill="#E96317"/>
<path d="M27.3435 -1.43648L-1.57861 15.2617L15.1196 44.1838L44.0417 27.4856L27.3435 -1.43648Z" fill="#E96418"/>
<path d="M27.4783 -1.20528L-1.44385 15.4929L15.2543 44.415L44.1765 27.7168L27.4783 -1.20528Z" fill="#E96518"/>
<path d="M27.6111 -0.970655L-1.31104 15.7275L15.3872 44.6497L44.3093 27.9515L27.6111 -0.970655Z" fill="#EA6618"/>
<path d="M27.7468 -0.737257L-1.17529 15.9609L15.5229 44.8831L44.445 28.1849L27.7468 -0.737257Z" fill="#EA6718"/>
<path d="M27.8797 -0.508253L-1.04242 16.1899L15.6558 45.1121L44.5779 28.4139L27.8797 -0.508253Z" fill="#EA6818"/>
<path d="M28.0144 -0.274853L-0.907715 16.4233L15.7905 45.3455L44.7126 28.6473L28.0144 -0.274853Z" fill="#EA6918"/>
<path d="M28.1492 -0.0414543L-0.772888 16.6567L15.9253 45.5789L44.8474 28.8807L28.1492 -0.0414543Z" fill="#EB6A18"/>
<path d="M28.2839 0.19194L-0.638184 16.8901L16.06 45.8123L44.9821 29.1141L28.2839 0.19194Z" fill="#EB6B19"/>
<path d="M28.4175 0.423386L-0.504578 17.1216L16.1936 46.0437L45.1157 29.3455L28.4175 0.423386Z" fill="#EB6C19"/>
<path d="M28.5505 0.658251L-0.371582 17.3564L16.3266 46.2786L45.2487 29.5804L28.5505 0.658251Z" fill="#EB6D19"/>
<path d="M28.6873 0.891649L-0.234863 17.5898L16.4633 46.512L45.3855 29.8138L28.6873 0.891649Z" fill="#EC6E19"/>
<path d="M28.8209 1.12285L-0.101257 17.821L16.5969 46.7432L45.5191 30.045L28.8209 1.12285Z" fill="#EC6F19"/>
<path d="M28.9559 1.35625L0.0338135 18.0544L16.732 46.9766L45.6541 30.2784L28.9559 1.35625Z" fill="#EC7019"/>
<path d="M29.0904 1.58721L0.168274 18.2854L16.8665 47.2075L45.7886 30.5093L29.0904 1.58721Z" fill="#EC7119"/>
<path d="M29.2255 1.82061L0.303345 18.5188L17.0015 47.4409L45.9237 30.7427L29.2255 1.82061Z" fill="#ED7219"/>
<path d="M29.3572 2.05327L0.435059 18.7515L17.1333 47.6736L46.0554 30.9754L29.3572 2.05327Z" fill="#ED731A"/>
<path d="M29.491 2.28667L0.568848 18.9849L17.267 47.907L46.1892 31.2088L29.491 2.28667Z" fill="#ED741A"/>
<path d="M29.6267 2.52007L0.70459 19.2183L17.4028 48.1404L46.3249 31.4422L29.6267 2.52007Z" fill="#ED751A"/>
<path d="M29.7632 2.75371L0.841125 19.4519L17.5393 48.374L46.4614 31.6758L29.7632 2.75371Z" fill="#EE761A"/>
<path d="M29.8971 2.98491L0.974976 19.6831L17.6732 48.6052L46.5953 31.907L29.8971 2.98491Z" fill="#EE771A"/>
<path d="M30.032 3.21831L1.10986 19.9165L17.8081 48.8386L46.7302 32.1404L30.032 3.21831Z" fill="#EE781A"/>
<path d="M30.1638 3.45073L1.2417 20.1489L17.9399 49.071L46.862 32.3729L30.1638 3.45073Z" fill="#EF791A"/>
<path d="M30.2976 3.68193L1.37549 20.3801L18.0737 49.3022L46.9958 32.6041L30.2976 3.68193Z" fill="#EF7A1B"/>
<path d="M30.4326 3.91533L1.51044 20.6135L18.2086 49.5356L47.1308 32.8374L30.4326 3.91533Z" fill="#EF7B1B"/>
<path d="M30.5671 4.14873L1.64502 20.8469L18.3432 49.769L47.2653 33.0709L30.5671 4.14873Z" fill="#EF7C1B"/>
<path d="M30.702 4.38213L1.77991 21.0803L18.4781 50.0024L47.4002 33.3042L30.702 4.38213Z" fill="#F07D1B"/>
<path d="M30.8386 4.61357L1.9165 21.3118L18.6147 50.2339L47.5368 33.5357L30.8386 4.61357Z" fill="#F07E1B"/>
<path d="M30.9724 4.84722L2.05029 21.5454L18.7485 50.4675L47.6706 33.7693L30.9724 4.84722Z" fill="#F07F1B"/>
<path d="M31.1054 5.08159L2.18329 21.7798L18.8815 50.7019L47.8036 34.0037L31.1054 5.08159Z" fill="#F0801B"/>
<path d="M31.24 5.31255L2.31787 22.0107L19.0161 50.9329L47.9382 34.2347L31.24 5.31255Z" fill="#F1801C"/>
<path d="M31.3737 5.54399L2.4516 22.2422L19.1498 51.1643L48.0719 34.4661L31.3737 5.54399Z" fill="#F1811C"/>
<path d="M31.5088 5.77739L2.58667 22.4756L19.2849 51.3977L48.207 34.6995L31.5088 5.77739Z" fill="#F1821C"/>
<path d="M31.6432 6.01079L2.72107 22.709L19.4193 51.6311L48.3414 34.9329L31.6432 6.01079Z" fill="#F1831C"/>
<path d="M31.777 6.24224L2.85492 22.9404L19.5531 51.8626L48.4752 35.1644L31.777 6.24224Z" fill="#F2841C"/>
<path d="M31.9097 6.47685L2.98761 23.175L19.6858 52.0972L48.6079 35.399L31.9097 6.47685Z" fill="#F2851C"/>
<path d="M32.0466 6.71025L3.12445 23.4084L19.8226 52.3306L48.7448 35.6324L32.0466 6.71025Z" fill="#F2861C"/>
<path d="M32.1816 6.94365L3.25952 23.6418L19.9577 52.564L48.8798 35.8658L32.1816 6.94365Z" fill="#F2871D"/>
<path d="M32.3152 7.17509L3.39307 23.8733L20.0913 52.7954L49.0134 36.0972L32.3152 7.17509Z" fill="#F3881D"/>
<path d="M32.45 7.40605L3.52783 24.1042L20.226 53.0264L49.1482 36.3282L32.45 7.40605Z" fill="#F3891D"/>
<path d="M32.5847 7.63969L3.6626 24.3379L20.3608 53.26L49.2829 36.5618L32.5847 7.63969Z" fill="#F38A1D"/>
<path d="M32.7185 7.8709L3.79639 24.5691L20.4946 53.4912L49.4167 36.793L32.7185 7.8709Z" fill="#F48B1D"/>
<path d="M32.8513 8.10552L3.9292 24.8037L20.6274 53.7258L49.5495 37.0276L32.8513 8.10552Z" fill="#F48C1D"/>
<path d="M32.9851 8.33891L4.06299 25.0371L20.7612 53.9592L49.6833 37.261L32.9851 8.33891Z" fill="#F48D1D"/>
<path d="M33.1228 8.57256L4.20068 25.2708L20.8989 54.1929L49.821 37.4947L33.1228 8.57256Z" fill="#F48E1E"/>
<path d="M33.2567 8.80376L4.33453 25.502L21.0327 54.4241L49.9548 37.7259L33.2567 8.80376Z" fill="#F58F1E"/>
<path d="M33.3914 9.03716L4.46924 25.7354L21.1674 54.6575L50.0895 37.9593L33.3914 9.03716Z" fill="#F5901E"/>
<path d="M33.5252 9.26811L4.60303 25.9663L21.3012 54.8884L50.2233 38.1902L33.5252 9.26811Z" fill="#F5911E"/>
<path d="M33.658 9.50298L4.73584 26.2012L21.434 55.1233L50.3562 38.4251L33.658 9.50298Z" fill="#F5921E"/>
<path d="M33.7917 9.73442L4.86963 26.4326L21.5678 55.3547L50.4899 38.6565L33.7917 9.73442Z" fill="#F6931E"/>
<path d="M33.9265 9.96758L5.00439 26.6658L21.7026 55.5879L50.6247 38.8897L33.9265 9.96758Z" fill="#F6941E"/>
<path d="M34.0613 10.2012L5.13916 26.8994L21.8374 55.8215L50.7595 39.1233L34.0613 10.2012Z" fill="#F6951E"/>
<path d="M34.1972 10.4324L5.27509 27.1306L21.9733 56.0527L50.8954 39.3545L34.1972 10.4324Z" fill="#F6961F"/>
<path d="M34.3328 10.6661L5.41064 27.3643L22.1088 56.2864L51.031 39.5882L34.3328 10.6661Z" fill="#F7971F"/>
<path d="M34.4646 10.9004L5.54248 27.5986L22.2407 56.5208L51.1628 39.8226L34.4646 10.9004Z" fill="#F7981F"/>
<path d="M34.6003 11.1338L5.67822 27.832L22.3764 56.7542L51.2985 40.056L34.6003 11.1338Z" fill="#F7991F"/>
<path d="M34.7333 11.3628L5.81116 28.061L22.5094 56.9832L51.4315 40.285L34.7333 11.3628Z" fill="#F79A1F"/>
<path d="M34.8677 11.5965L5.94556 28.2947L22.6438 57.2168L51.5659 40.5186L34.8677 11.5965Z" fill="#F89B1F"/>
<path d="M35.0027 11.8296L6.08063 28.5278L22.7788 57.45L51.7009 40.7518L35.0027 11.8296Z" fill="#F89C1F"/>
<path d="M35.1372 12.0633L6.21509 28.7615L22.9133 57.6836L51.8354 40.9854L35.1372 12.0633Z" fill="#F89D20"/>
<path d="M35.2711 12.2945L6.34894 28.9927L23.0471 57.9148L51.9693 41.2166L35.2711 12.2945Z" fill="#F89E20"/>
<path d="M35.4061 12.5291L6.48401 29.2273L23.1822 58.1494L52.1043 41.4512L35.4061 12.5291Z" fill="#F99F20"/>
<path d="M35.5406 12.7625L6.61847 29.4607L23.3167 58.3828L52.2388 41.6846L35.5406 12.7625Z" fill="#F9A020"/>
</g>
</g>
<defs>
<linearGradient id="paint0_linear_141_7829" x1="14.9622" y1="10.581" x2="13.5617" y2="8.3839" gradientUnits="userSpaceOnUse">
<stop stop-color="#FF9200"/>
<stop offset="0.21" stop-color="#FF8D00"/>
<stop offset="0.45" stop-color="#FF7F00"/>
<stop offset="0.62" stop-color="#FF7100"/>
<stop offset="0.82" stop-color="#FF5E00"/>
<stop offset="1" stop-color="#FF5200"/>
</linearGradient>
<linearGradient id="paint1_linear_141_7829" x1="14.7409" y1="10.5497" x2="12.693" y2="6.54299" gradientUnits="userSpaceOnUse">
<stop stop-color="#FF7100" stop-opacity="0"/>
<stop offset="0.03" stop-color="#FF6D00" stop-opacity="0.03"/>
<stop offset="0.21" stop-color="#FF5900" stop-opacity="0.25"/>
<stop offset="0.39" stop-color="#FF4800" stop-opacity="0.42"/>
<stop offset="0.56" stop-color="#FF3B00" stop-opacity="0.56"/>
<stop offset="0.72" stop-color="#FF3200" stop-opacity="0.66"/>
<stop offset="0.86" stop-color="#FF2C00" stop-opacity="0.72"/>
<stop offset="0.98" stop-color="#FF2B00" stop-opacity="0.74"/>
</linearGradient>
</defs>
</svg>
