<svg width="32" height="24" viewBox="0 0 32 24" fill="none" xmlns="http://www.w3.org/2000/svg">
<path d="M7.10961 3H14.2539C15.2511 3 15.8714 3.83677 15.6387 4.86678L12.3126 19.5673C12.0779 20.5937 11.0794 21.4312 10.0814 21.4312H2.93785C1.94197 21.4312 1.32031 20.5937 1.55295 19.5673L4.8805 4.86678C5.11315 3.83677 6.11112 3 7.10961 3Z" fill="#E21836"/>
<path d="M13.6599 3H21.8756C22.8727 3 22.4231 3.83677 22.1886 4.86678L18.8629 19.5673C18.6296 20.5937 18.7024 21.4312 17.7032 21.4312H9.48749C8.4883 21.4312 7.86995 20.5937 8.10468 19.5673L11.4301 4.86678C11.6663 3.83677 12.6621 3 13.6599 3Z" fill="#00447C"/>
<path d="M21.5502 3H28.6945C29.6931 3 30.3134 3.83677 30.0788 4.86678L26.7532 19.5673C26.5185 20.5937 25.5193 21.4312 24.5208 21.4312H17.3799C16.3807 21.4312 15.7609 20.5937 15.995 19.5673L19.3211 4.86678C19.5538 3.83677 20.551 3 21.5502 3Z" fill="#007B84"/>
<path d="M8.97433 7.7115C8.23966 7.71921 8.02269 7.7115 7.95338 7.69465C7.92674 7.82497 7.43097 10.1792 7.42958 10.1811C7.32284 10.6574 7.24517 10.9969 6.98136 11.2162C6.8316 11.3436 6.65677 11.4051 6.45408 11.4051C6.12827 11.4051 5.93846 11.2386 5.9066 10.9227L5.9005 10.8143C5.9005 10.8143 5.99976 10.1763 5.99976 10.1727C5.99976 10.1727 6.52007 8.02735 6.61324 7.74377C6.61811 7.72764 6.61951 7.71921 6.62072 7.7115C5.60795 7.72065 5.42842 7.7115 5.41606 7.69465C5.40927 7.71778 5.38419 7.85079 5.38419 7.85079L4.8529 10.2688L4.80728 10.4739L4.71899 11.1446C4.71899 11.3436 4.75696 11.506 4.83253 11.6433C5.07458 12.0787 5.76502 12.144 6.15561 12.144C6.65886 12.144 7.13094 12.0339 7.44996 11.833C8.00371 11.4962 8.14859 10.9697 8.27779 10.5018L8.3377 10.2618C8.3377 10.2618 8.87368 8.03363 8.96476 7.74377C8.96824 7.72764 8.96963 7.71921 8.97433 7.7115ZM10.798 9.50898C10.6688 9.50898 10.4327 9.54125 10.2206 9.64826C10.1436 9.68896 10.0708 9.73592 9.99402 9.78271L10.0633 9.52512L10.0254 9.48174C9.57557 9.57549 9.47492 9.58803 9.05943 9.64826L9.02461 9.67211C8.97637 10.0839 8.93353 10.3934 8.7547 11.2028C8.68661 11.5011 8.61591 11.8022 8.54504 12.0998L8.56419 12.1376C8.98995 12.1145 9.11916 12.1145 9.4892 12.1208L9.51915 12.0872C9.56617 11.8393 9.57226 11.7812 9.67639 11.2791C9.72533 11.0411 9.82737 10.518 9.8777 10.3318C9.97016 10.2877 10.0614 10.2443 10.1485 10.2443C10.3559 10.2443 10.3306 10.4305 10.3226 10.5048C10.3137 10.6293 10.2382 11.0363 10.1607 11.3856L10.1089 11.6111C10.0729 11.7777 10.0334 11.9395 9.99733 12.1046L10.013 12.1376C10.4327 12.1145 10.5607 12.1145 10.919 12.1208L10.9612 12.0872C11.0259 11.7 11.0449 11.5964 11.1599 11.0327L11.2177 10.7736C11.33 10.2667 11.3864 10.0096 11.3014 9.80027C11.2116 9.56563 10.996 9.50898 10.798 9.50898ZM12.8352 10.0397C12.6122 10.0838 12.4699 10.1132 12.3285 10.1322C12.1883 10.1554 12.0516 10.1763 11.8361 10.2072L11.819 10.2231L11.8033 10.2359C11.7809 10.4011 11.7652 10.544 11.7354 10.712C11.7102 10.8857 11.6713 11.083 11.6081 11.3666C11.5592 11.5837 11.5339 11.6593 11.5061 11.7357C11.4789 11.8121 11.449 11.8863 11.3939 12.0998L11.4068 12.1195L11.4176 12.1376C11.6191 12.1277 11.7509 12.1207 11.8864 12.1195C12.0217 12.1145 12.1619 12.1195 12.3788 12.1207L12.3978 12.1048L12.4182 12.0872C12.4495 11.8947 12.4542 11.8429 12.4734 11.749C12.4924 11.6482 12.5251 11.5088 12.6054 11.1363C12.6433 10.9613 12.6857 10.7869 12.725 10.6083C12.7659 10.4305 12.8088 10.2554 12.8495 10.0804L12.8434 10.0593L12.8352 10.0397ZM12.84 9.32411C12.6373 9.20097 12.2815 9.24004 12.0421 9.41016C11.8034 9.57687 11.7762 9.81349 11.9782 9.93825C12.1774 10.058 12.5346 10.0223 12.7719 9.85077C13.0101 9.68048 13.0399 9.44601 12.84 9.32411ZM14.0658 12.1762C14.4759 12.1762 14.8963 12.0598 15.2127 11.7146C15.4561 11.4346 15.5677 11.018 15.6064 10.8465C15.7323 10.2779 15.6343 10.0124 15.5111 9.85068C15.3241 9.6042 14.9936 9.52515 14.6507 9.52515C14.4446 9.52515 13.9535 9.54612 13.5699 9.91019C13.2944 10.1728 13.1671 10.5292 13.0903 10.8708C13.0128 11.2189 12.9237 11.8456 13.4835 12.0788C13.6563 12.1552 13.9053 12.1762 14.0658 12.1762ZM14.0338 10.8968C14.1283 10.4662 14.24 10.1049 14.5248 10.1049C14.7481 10.1049 14.7643 10.3738 14.665 10.8058C14.6473 10.9017 14.5658 11.2582 14.4555 11.41C14.3786 11.5221 14.2875 11.59 14.1868 11.59C14.1569 11.59 13.9788 11.59 13.976 11.3177C13.9746 11.1833 14.0012 11.046 14.0338 10.8968ZM16.6315 12.1208L16.6636 12.0873C16.709 11.8394 16.7165 11.7811 16.8172 11.2792C16.8675 11.0411 16.9716 10.5181 17.0205 10.3318C17.1132 10.2875 17.2029 10.2442 17.2927 10.2442C17.4987 10.2442 17.4736 10.4304 17.4655 10.5046C17.458 10.6294 17.3824 11.0361 17.3035 11.3855L17.2546 11.611C17.2171 11.7777 17.1764 11.9394 17.1403 12.1047L17.156 12.1377C17.5771 12.1145 17.7002 12.1145 18.0607 12.1208L18.1042 12.0873C18.1674 11.6999 18.1845 11.5963 18.3029 11.0327L18.3593 10.7735C18.4721 10.2666 18.5293 10.0097 18.4457 9.80033C18.3532 9.56568 18.1362 9.50904 17.941 9.50904C17.8116 9.50904 17.5743 9.54112 17.3634 9.64832C17.288 9.68901 17.2124 9.7358 17.1383 9.78276L17.2029 9.52517L17.1682 9.48161C16.7186 9.57554 16.6159 9.58809 16.2009 9.64832L16.169 9.67216C16.1187 10.0839 16.0778 10.3933 15.8989 11.2028C15.8309 11.5011 15.7602 11.8023 15.6895 12.0998L15.7084 12.1377C16.1349 12.1145 16.2622 12.1145 16.6315 12.1208ZM19.7251 12.1376C19.7516 12.0046 19.9088 11.2162 19.9102 11.2162C19.9102 11.2162 20.0441 10.6377 20.0523 10.6168C20.0523 10.6168 20.0945 10.5565 20.1366 10.5327H20.1986C20.7835 10.5327 21.444 10.5327 21.9617 10.1406C22.314 9.87176 22.5548 9.47471 22.6623 8.99215C22.6901 8.87384 22.7107 8.73312 22.7107 8.59241C22.7107 8.40759 22.6746 8.22475 22.5705 8.08188C22.3065 7.70168 21.7808 7.69469 21.1739 7.69182C21.172 7.69182 20.8748 7.69469 20.8748 7.69469C20.0979 7.70455 19.7864 7.70168 19.6584 7.68555C19.6476 7.74381 19.6273 7.84742 19.6273 7.84742C19.6273 7.84742 19.349 9.17499 19.349 9.17714C19.349 9.17714 18.6831 11.9997 18.6518 12.1327C19.33 12.1243 19.6081 12.1243 19.7251 12.1376ZM20.2407 9.77927C20.2407 9.77927 20.5366 8.45438 20.5352 8.4594L20.5448 8.39146L20.549 8.33965L20.6672 8.3522C20.6672 8.3522 21.2774 8.40616 21.2916 8.40759C21.5325 8.5035 21.6317 8.75069 21.5624 9.07335C21.4992 9.36823 21.3134 9.61614 21.0747 9.73589C20.8781 9.83734 20.6372 9.84577 20.3891 9.84577H20.2285L20.2407 9.77927ZM22.0828 10.9214C22.0046 11.2645 21.9148 11.8911 22.4718 12.1145C22.6494 12.1923 22.8086 12.2154 22.9704 12.207C23.1412 12.1975 23.2995 12.1093 23.4461 11.9824C23.4329 12.0345 23.4196 12.0867 23.4064 12.1391L23.4317 12.1726C23.8323 12.1552 23.9567 12.1552 24.3908 12.1586L24.4302 12.1278C24.4935 11.7442 24.5533 11.3717 24.718 10.6378C24.7983 10.2863 24.8784 9.93814 24.9607 9.58805L24.9479 9.54951C24.4996 9.63502 24.3798 9.6533 23.9487 9.71622L23.9159 9.74365C23.9116 9.77932 23.907 9.81356 23.9029 9.8478C23.8358 9.7363 23.7387 9.64111 23.5887 9.58178C23.397 9.50416 22.9467 9.60419 22.5596 9.967C22.2876 10.226 22.157 10.581 22.0828 10.9214ZM23.0242 10.9423C23.1201 10.5195 23.2304 10.1617 23.5159 10.1617C23.6965 10.1617 23.7916 10.3332 23.7723 10.6258C23.7569 10.6987 23.7404 10.7756 23.7207 10.8626C23.6922 10.9882 23.6612 11.1128 23.631 11.2376C23.6004 11.3229 23.5647 11.4034 23.5255 11.457C23.452 11.5642 23.2772 11.6307 23.1766 11.6307C23.148 11.6307 22.9718 11.6307 22.9657 11.3632C22.9643 11.23 22.9909 11.0929 23.0242 10.9423ZM27.9401 9.54609L27.9055 9.5054C27.4619 9.59789 27.3817 9.61259 26.9742 9.66924L26.9442 9.70007C26.9428 9.70509 26.9416 9.7128 26.9395 9.71979L26.9381 9.7128C26.6348 10.4332 26.6437 10.2778 26.3967 10.845C26.3954 10.8192 26.3954 10.803 26.394 10.7756L26.3321 9.54609L26.2933 9.5054C25.8287 9.59789 25.8177 9.61259 25.3887 9.66924L25.3552 9.70007C25.3505 9.71477 25.3505 9.7309 25.3478 9.74847L25.3505 9.75474C25.4042 10.0369 25.3913 9.97397 25.4451 10.4192C25.4702 10.6378 25.5036 10.8575 25.5287 11.0734C25.571 11.4346 25.5947 11.6124 25.6464 12.1636C25.3566 12.6558 25.288 12.8421 25.0091 13.2741L25.011 13.2784L24.8146 13.5982C24.7921 13.6319 24.7717 13.655 24.7432 13.6649C24.7118 13.6808 24.6711 13.6837 24.6145 13.6837H24.5056L24.3439 14.2376L24.8988 14.2475C25.2246 14.246 25.4294 14.0892 25.5397 13.8784L25.8886 13.2628H25.883L25.9198 13.2194C26.1545 12.6992 27.9401 9.54609 27.9401 9.54609ZM22.0828 16.8208H21.8474L22.7187 13.8539H23.0078L23.0996 13.5483L23.1084 13.8881C23.0977 14.0982 23.2582 14.2845 23.68 14.2536H24.1677L24.3356 13.6823H24.152C24.0465 13.6823 23.9976 13.6549 24.0037 13.5961L23.9948 13.2503H23.0916V13.2521C22.7995 13.2584 21.9275 13.281 21.7509 13.3294C21.5372 13.386 21.3121 13.5527 21.3121 13.5527L21.4005 13.2468H20.5556L20.3796 13.8539L19.4965 16.8661H19.3252L19.1571 17.4333H20.84L20.7836 17.6224H21.6128L21.6678 17.4333H21.9005L22.0828 16.8208ZM21.3923 14.4567C21.257 14.4953 21.0052 14.6122 21.0052 14.6122L21.2292 13.8539H21.9005L21.7385 14.4064C21.7385 14.4064 21.5311 14.4189 21.3923 14.4567ZM21.4052 15.54C21.4052 15.54 21.1944 15.5672 21.0556 15.5995C20.9189 15.6422 20.6625 15.7766 20.6625 15.7766L20.8938 14.9875H21.5686L21.4052 15.54ZM21.0291 16.8278H20.3557L20.5509 16.1618H21.2222L21.0291 16.8278ZM22.6508 14.9875H23.6214L23.4819 15.4525H22.4984L22.3507 15.9609H23.2113L22.5597 16.9054C22.5141 16.9748 22.4731 16.9993 22.4277 17.0189C22.3821 17.0427 22.3222 17.0707 22.2529 17.0707H22.0141L21.8501 17.6274H22.4745C22.7991 17.6274 22.9908 17.4754 23.1324 17.2759L23.5792 16.6464L23.6752 17.2856C23.6956 17.4053 23.7791 17.4754 23.8357 17.5027C23.8983 17.5349 23.9629 17.5903 24.0541 17.5986C24.152 17.6029 24.2227 17.6063 24.2697 17.6063H24.5765L24.7607 16.9832H24.6397C24.5702 16.9832 24.4506 16.9712 24.4302 16.9488C24.4099 16.9215 24.4099 16.8796 24.3989 16.8158L24.3016 16.1751H23.903L24.0778 15.9609H25.0594L25.2104 15.4525H24.3016L24.4431 14.9875H25.3491L25.5172 14.4141H22.816L22.6508 14.9875ZM14.4528 16.9572L14.6793 16.1814H15.6104L15.7806 15.6044H14.8486L14.9909 15.1269H15.9016L16.0703 14.5681H13.7916L13.6263 15.1269H14.144L14.006 15.6044H13.4869L13.3148 16.1913H13.8323L13.5304 17.2177C13.4896 17.3536 13.5495 17.4054 13.5875 17.4685C13.6263 17.53 13.6657 17.5707 13.7542 17.5938C13.8454 17.6148 13.9079 17.6273 13.9929 17.6273H15.0426L15.2296 16.9881L14.7643 17.0539C14.6745 17.0539 14.4256 17.0428 14.4528 16.9572ZM14.5596 13.2433L14.3236 13.6823C14.2731 13.7782 14.2277 13.8377 14.1868 13.8651C14.1507 13.8882 14.0793 13.8979 13.9759 13.8979H13.8528L13.6882 14.4595H14.0971C14.2937 14.4595 14.4447 14.3853 14.5167 14.3482C14.5942 14.3055 14.6146 14.3299 14.6745 14.2704L14.8126 14.1473H16.0894L16.2588 13.5625H15.3242L15.4874 13.2433H14.5596ZM16.4445 16.9685C16.4227 16.9363 16.4384 16.8794 16.4717 16.7611L16.8206 15.5721H18.062C18.243 15.5694 18.3736 15.5673 18.4585 15.561C18.5498 15.5511 18.649 15.5176 18.7572 15.4574C18.8688 15.3943 18.9259 15.3278 18.9742 15.2514C19.028 15.1752 19.1143 15.0085 19.1885 14.7515L19.6272 13.2468L18.3389 13.2545C18.3389 13.2545 17.9422 13.3147 17.7676 13.3812C17.5913 13.4554 17.3395 13.6627 17.3395 13.6627L17.4559 13.2502H16.6601L15.546 17.0538C15.5064 17.2016 15.48 17.3088 15.4739 17.3731C15.4718 17.4425 15.5588 17.5111 15.6153 17.5629C15.682 17.6147 15.7805 17.6063 15.8751 17.6147C15.9745 17.6224 16.1159 17.6273 16.3111 17.6273H16.9227L17.1104 16.9748L16.5629 17.028C16.5044 17.028 16.4621 16.9958 16.4445 16.9685ZM17.0458 14.769H18.3497L18.2668 15.0365C18.2551 15.0428 18.2273 15.0232 18.0946 15.0394H16.9655L17.0458 14.769ZM17.307 13.872H18.6219L18.5273 14.1942C18.5273 14.1942 17.9076 14.1879 17.8083 14.2067C17.3716 14.2845 17.1165 14.5247 17.1165 14.5247L17.307 13.872ZM18.296 15.9321C18.2852 15.9721 18.2681 15.9965 18.2443 16.0147C18.2178 16.0323 18.175 16.0386 18.1111 16.0386H17.9253L17.9362 15.7129H17.1634L17.1321 17.3052C17.1309 17.4201 17.1417 17.4866 17.2233 17.5399C17.305 17.6064 17.5566 17.6148 17.8953 17.6148H18.3796L18.5544 17.0188L18.1328 17.0426L17.9927 17.051C17.9735 17.0426 17.9552 17.0349 17.9348 17.0139C17.9171 16.9958 17.8871 17.0069 17.892 16.892L17.8953 16.4839L18.3374 16.465C18.5762 16.465 18.6782 16.3851 18.7653 16.3089C18.8484 16.236 18.8755 16.1521 18.9069 16.0386L18.981 15.6772H18.3735L18.296 15.9321Z" fill="#FEFEFE"/>
</svg>
