<svg width="32" height="24" viewBox="0 0 32 24" fill="none" xmlns="http://www.w3.org/2000/svg">
<path d="M22.2717 3C27.2648 3.00005 31.3127 6.99988 31.3127 11.9336C31.3126 16.8672 27.2648 20.8662 22.2717 20.8662C20.0338 20.8662 17.9872 20.0614 16.4084 18.7305C14.8297 20.0614 12.7831 20.8662 10.5452 20.8662C5.55209 20.8662 1.50429 16.8672 1.50415 11.9336C1.50415 6.99985 5.552 3 10.5452 3C12.783 3.00002 14.8297 3.80491 16.4084 5.13574C17.9872 3.80495 20.0339 3 22.2717 3Z" fill="#ED0006"/>
<path d="M22.2756 3C27.2688 3.00005 31.3167 6.99988 31.3167 11.9336C31.3165 16.8672 27.2687 20.8662 22.2756 20.8662C20.0367 20.8662 17.9895 20.0605 16.4104 18.7285C18.3528 17.09 19.5861 14.6549 19.5862 11.9336C19.5862 9.21186 18.3532 6.77524 16.4104 5.13672C17.9894 3.80511 20.037 3 22.2756 3Z" fill="#F9A000"/>
<path d="M16.4084 5.13606C18.352 6.77451 19.5861 9.21068 19.5862 11.9329C19.5862 14.6552 18.3519 17.0913 16.4084 18.7298C14.4649 17.0913 13.2307 14.6552 13.2307 11.9329C13.2308 9.21062 14.4648 6.77451 16.4084 5.13606Z" fill="#FF5E00"/>
</svg>
