<svg width="20" height="20" viewBox="0 0 20 20" fill="none" xmlns="http://www.w3.org/2000/svg">
<path fill-rule="evenodd" clip-rule="evenodd" d="M5.5 5.50751e-07L4.95984 5.50751e-07C4.29399 -1.36506e-05 3.73444 -2.55816e-05 3.27657 0.0373834C2.79785 0.0764965 2.34289 0.161437 1.91103 0.381479C1.25247 0.717036 0.717036 1.25247 0.381479 1.91103C0.161437 2.34289 0.0764965 2.79785 0.0373834 3.27657C-2.55816e-05 3.73444 -1.36506e-05 4.29395 5.50751e-07 4.95981L5.50751e-07 5.5C5.50751e-07 6.05229 0.447717 6.5 1 6.5C1.55229 6.5 2 6.05229 2 5.5V5C2 4.28343 2.00078 3.80615 2.03074 3.43944C2.05975 3.0844 2.11105 2.92194 2.16349 2.81902C2.3073 2.53677 2.53677 2.3073 2.81902 2.16349C2.92194 2.11105 3.0844 2.05975 3.43944 2.03074C3.80615 2.00078 4.28343 2 5 2H5.5C6.05229 2 6.5 1.55229 6.5 1C6.5 0.447717 6.05229 5.50751e-07 5.5 5.50751e-07ZM15 2C15.7166 2 16.1938 2.00078 16.5606 2.03074C16.9156 2.05975 17.0781 2.11105 17.181 2.16349C17.4632 2.3073 17.6927 2.53677 17.8365 2.81902C17.889 2.92194 17.9403 3.0844 17.9693 3.43944C17.9992 3.80615 18 4.28343 18 5V5.5C18 6.05229 18.4477 6.5 19 6.5C19.5523 6.5 20 6.05229 20 5.5V4.95982C20 4.29397 20 3.73443 19.9626 3.27657C19.9235 2.79785 19.8386 2.34289 19.6185 1.91103C19.283 1.25247 18.7475 0.717036 18.089 0.381479C17.6571 0.161437 17.2021 0.0764965 16.7234 0.0373834C16.2656 -2.55816e-05 15.7061 -1.36506e-05 15.0402 5.50751e-07L14.5 5.50751e-07C13.9477 5.50751e-07 13.5 0.447717 13.5 1C13.5 1.55229 13.9477 2 14.5 2H15ZM2 14.5C2 13.9477 1.55229 13.5 1 13.5C0.447717 13.5 5.50751e-07 13.9477 5.50751e-07 14.5L5.50751e-07 15.0402C-1.36506e-05 15.706 -2.55816e-05 16.2656 0.0373834 16.7234C0.0764965 17.2021 0.161437 17.6571 0.381479 18.089C0.717036 18.7475 1.25247 19.283 1.91103 19.6185C2.34289 19.8386 2.79785 19.9235 3.27657 19.9626C3.73443 20 4.29394 20 4.95979 20H5.5C6.05229 20 6.5 19.5523 6.5 19C6.5 18.4477 6.05229 18 5.5 18H5C4.28343 18 3.80615 17.9992 3.43944 17.9693C3.0844 17.9403 2.92194 17.889 2.81902 17.8365C2.53677 17.6927 2.3073 17.4632 2.16349 17.181C2.11105 17.0781 2.05975 16.9156 2.03074 16.5606C2.00078 16.1938 2 15.7166 2 15V14.5ZM20 14.5C20 13.9477 19.5523 13.5 19 13.5C18.4477 13.5 18 13.9477 18 14.5V15C18 15.7166 17.9992 16.1938 17.9693 16.5606C17.9403 16.9156 17.889 17.0781 17.8365 17.181C17.6927 17.4632 17.4632 17.6927 17.181 17.8365C17.0781 17.889 16.9156 17.9403 16.5606 17.9693C16.1938 17.9992 15.7166 18 15 18H14.5C13.9477 18 13.5 18.4477 13.5 19C13.5 19.5523 13.9477 20 14.5 20H15.0402C15.706 20 16.2656 20 16.7234 19.9626C17.2021 19.9235 17.6571 19.8386 18.089 19.6185C18.7475 19.283 19.283 18.7475 19.6185 18.089C19.8386 17.6571 19.9235 17.2021 19.9626 16.7234C20 16.2656 20 15.7061 20 15.0402V14.5ZM4 9C3.44772 9 3 9.44771 3 10C3 10.5523 3.44772 11 4 11L16 11C16.5523 11 17 10.5523 17 10C17 9.44771 16.5523 9 16 9L4 9Z" fill="#1B1C1D"/>
</svg>
