<svg width="33" height="24" viewBox="0 0 33 24" fill="none" xmlns="http://www.w3.org/2000/svg">
<path d="M21.4844 3H3.48438V21H21.4844V3Z" fill="white"/>
<path d="M18.2732 7.4172L18.8492 5.8512H21.4844V3H3.48438V21H21.4844V18.156H19.0004L18.0824 17.0832L17.1284 18.156H10.0724V12.4392H7.74318L10.6556 5.8512H13.4888L14.1728 7.3452V5.8512H17.69L18.2768 7.4172H18.2732ZM16.2896 8.454L16.2824 7.824L16.5236 8.454L17.6936 11.5788H18.8564L20.0336 8.454L20.2604 7.8312V11.5824H21.4844V6.7836H19.4504L18.5252 9.2208L18.2804 9.8796L18.0284 9.2208L17.0996 6.7836H15.0656V11.5824H16.2896V8.4576V8.454ZM13.6544 11.5788H15.0656L12.9524 6.78H11.3144L9.19038 11.5788H10.5836L10.9544 10.6536H13.2836L13.6544 11.5788ZM11.8796 8.4072L12.1208 7.806L12.362 8.4072L12.8588 9.6204H11.3828L11.8796 8.4072ZM11.0552 12.4428V17.2236H15.062V16.1868H12.2792V15.3516H15.008V14.3184H12.2792V13.4796H15.062V12.4428H11.0552ZM19.5224 17.2272H21.1136L18.8708 14.826L21.1136 12.4428H19.5476L18.1004 13.998L16.6604 12.4428H15.0656L17.3048 14.844L15.0656 17.2272H16.6136L18.0716 15.6684L19.5224 17.2272ZM20.1272 14.8188L21.4844 16.1976V13.4544L20.1272 14.8152V14.8188Z" fill="#006FCF"/>
</svg>
